<?xml version="1.0" encoding="UTF-8" standalone="no"?>
<svg width="22px" height="22px" viewBox="0 0 22 22" version="1.1" xmlns="http://www.w3.org/2000/svg" xmlns:xlink="http://www.w3.org/1999/xlink">
    <!-- Generator: Sketch 39.1 (31720) - http://www.bohemiancoding.com/sketch -->
    <title>borrar</title>
    <desc>Created with Sketch.</desc>
    <defs>
        <path d="M3.834,3.254 C-0.266,7.354 -0.266,14.002 3.834,18.103 C7.935,22.203 14.583,22.203 18.683,18.103 C22.784,14.002 22.784,7.354 18.683,3.254 C16.633,1.203 13.946,0.178 11.258,0.178 C8.572,0.178 5.884,1.203 3.834,3.254 L3.834,3.254 Z M4.509,17.428 C0.781,13.7 0.781,7.656 4.509,3.929 C8.237,0.201 14.281,0.201 18.009,3.929 C21.736,7.656 21.736,13.7 18.009,17.428 C16.145,19.292 13.702,20.224 11.259,20.224 C8.816,20.224 6.373,19.292 4.509,17.428 L4.509,17.428 Z M11.259,10.003 L7.884,6.629 L7.209,7.304 L10.584,10.678 L7.209,14.053 L7.884,14.728 L11.259,11.353 L14.634,14.728 L15.309,14.053 L11.934,10.678 L15.309,7.304 L14.634,6.629 L11.259,10.003 L11.259,10.003 Z" id="path-1"></path>
    </defs>
    <g id="Symbols" stroke="none" stroke-width="1" fill="none" fill-rule="evenodd">
        <g id="borrar">
            <g>
                <mask id="mask-2" fill="white">
                    <use xlink:href="#path-1"></use>
                </mask>
                <g id="Clip-2"></g>
                <polygon id="Fill-1" fill="#9B9B9B" mask="url(#mask-2)" points="11.259 32.5983 -10.661 10.6783 11.259 -11.2427 33.179 10.6783"></polygon>
            </g>
        </g>
    </g>
</svg>