<svg id="Capa_1" data-name="Capa 1" xmlns="http://www.w3.org/2000/svg" viewBox="0 0 819 768"><defs><style>.cls-1{fill:#fff;}</style></defs><title>logo_blanco</title><path class="cls-1" d="M735,77c-7.8,6-171,135-169,380,.5,61.07,25,148.89,26,165.94s2.81,43.47-10,69.06c8-33,7-57-22-145,0,0-38-147,5-253,1-1-46,14-63-31,1-1,44,26,68-5C666,110,735,77,735,77Z"/><path class="cls-1" d="M69,574S234,443,255,357c15-74,34.92-177.8,101-180,30-1,64,55,64,144,0,28-12,74-60,129-39,54-90,85-33,238,5,0-77-111-5-209,18-28,86-114,72-197-6-33-17.17-79.86-41-77-25,3-47,31-66.32,128.5C281,357,277,381,230,436,200,473,69,574,69,574Z"/><path class="cls-1" d="M433,550s22,64,11,119c-2,0,16-23,13-58S433,550,433,550Z"/></svg>