<svg id="Capa_1" data-name="Capa 1" xmlns="http://www.w3.org/2000/svg" viewBox="0 0 882.92 815.79"><defs><style>.cls-1{fill:#fff;}</style></defs><title>logo_blanco</title><path class="cls-1" d="M491.65,908.18c-1.07-2-5.06-8.43-11-19.15a359.23,359.23,0,0,1-21.14-45.8c-1.68-5.05-3.83-10.11-5.36-15.77-.77-2.76-1.68-5.67-2.6-8.58-.77-2.91-1.54-6-2.3-9-1.69-6.12-2.61-12.71-3.83-19.45-.46-3.37-.92-6.89-1.38-10.42s-.61-7.2-.92-10.72a205.45,205.45,0,0,1,17-95.73,222.22,222.22,0,0,1,12.26-24,251.08,251.08,0,0,1,15.16-23.13c5.52-7.5,11.34-14.86,17.31-21.9,6-7.2,12.25-14.09,17.31-20.68,10.72-13.48,20.22-29.1,28.64-45.49a295.51,295.51,0,0,0,20.68-52.39,268.14,268.14,0,0,0,8.27-115.64c-.76-4.9-1.84-9.81-2.76-14.55l-1.37-7.36L573.75,341c-2.61-9.8-5.36-19.61-8.73-29a152.94,152.94,0,0,0-11.95-26.34,71.52,71.52,0,0,0-7.51-10.88,43,43,0,0,0-8.27-7.81c-5.66-3.83-10.26-4.6-16.69-3.06s-13.79,6.28-20.68,12.1c-3.37,2.91-6.74,6.28-10,9.65A90.31,90.31,0,0,0,482.15,296a132.81,132.81,0,0,0-12.1,25.27c-6.74,18.23-11.49,38.14-16.54,58-4.9,19.92-10,39.83-15.93,59.44a468,468,0,0,1-21.29,56.82c-2,4.6-4.29,9-6.44,13.48l-3.67,6.89a67.87,67.87,0,0,1-3.83,6.59c-1.38,2.15-2.61,4.29-4,6.43s-2.76,4.14-4.14,6.13c-2.76,4.14-5.67,7.81-8.58,11.64a510.87,510.87,0,0,1-36,41.36c-12.1,12.71-24.21,24.35-35.85,35.38-47.17,44-88.84,76.89-118.09,99.87-14.71,11.49-26.35,20.22-34.31,26.19-8.12,6-12.41,9.19-12.41,9.19,30-24.5,58.82-49.63,87.16-75.51,20.52-16.85,40.89-34,60.65-51.77s39.06-36.31,57.44-55.91c18.08-19.91,36-40.29,49.63-65.41,12.87-24.35,22.36-49.78,30.33-75.51s14.09-51.77,20.68-77.05c3.37-12.56,6.89-25,11.33-36.76,4.29-11.64,9.65-22.82,16.39-31.86a74.5,74.5,0,0,1,5.36-6.43c2.15-2.15,4.29-4.29,6.43-6.28A78.86,78.86,0,0,1,508,265.77a41.22,41.22,0,0,1,13.78-5.51,20.71,20.71,0,0,1,12.26,1.22c7.81,3.07,15.47,11.49,21.29,21.6s10.57,21.75,14.7,33.55c2,6,3.83,12.1,5.36,18.22.92,3.07,1.53,6.13,2.3,9.35.77,3.06,1.38,6.28,2,9.34l1.69,9.19a93,93,0,0,1,1.53,9.35c.61,6.28,1.53,12.4,2,18.68a268.34,268.34,0,0,1-5.67,74.9,309.17,309.17,0,0,1-25.12,71.08c-1.38,2.91-2.76,5.66-4.29,8.42l-4.59,8.27c-3.37,5.36-6.44,10.88-10,15.93-3.37,5.21-7.2,10.26-10.87,15.17l-5.82,7.19-6.44,7.36c-17.77,20.06-35.07,42.58-47.48,68.16a202.46,202.46,0,0,0-20.83,82.56,232.6,232.6,0,0,0,2.6,42.58,281.54,281.54,0,0,0,10,41C465.3,859.62,477.56,884.59,491.65,908.18Z" transform="translate(-149 -98.21)"/><path class="cls-1" d="M450.75,751.48A177.75,177.75,0,0,1,452,733.72a197.4,197.4,0,0,1,8.57-39.37c5.21-16.08,13.79-34.31,26-53a307.93,307.93,0,0,1,21.14-28.18c4-4.75,8-9.5,12.1-14.25s8-9.49,11.8-14.55c15.16-20.22,28.64-44.57,39-71.53,2.46-6.89,5.21-13.63,7.05-20.83,1.07-3.52,2.14-7.05,3.22-10.72.92-3.68,1.68-7.36,2.6-11l1.38-5.52.92-5.66c.61-3.83,1.22-7.51,2-11.34.61-3.83.77-7.66,1.23-11.49l.61-5.82.3-2.91.16-2.91c.15-7.81.92-15.62.3-23.59L590,389.08c-.3-4-.91-8-1.22-11.95l-.61-6a41,41,0,0,0-.92-6q-1.15-6-2.3-11.95c-.77-4-1.53-8-2.6-11.94s-2-8-3.22-12c-2.15-8-4.75-15.78-7.66-23.44a179.3,179.3,0,0,0-10-22c-3.83-6.9-8.27-13.48-13.32-18.54a46.78,46.78,0,0,0-8.27-6.43,25,25,0,0,0-9-3.37c-6.13-1.07-12.87.15-19.45,3.22a74.71,74.71,0,0,0-18.69,13,109.79,109.79,0,0,0-8.43,8.42,83.09,83.09,0,0,0-7,9,115.19,115.19,0,0,0-11,20.68c-6.28,14.7-10.72,30.32-14.86,46.1-4,15.93-8,31.56-11.94,47-8.12,31.09-17.47,61-29.87,88.22-1.53,3.37-3.07,6.74-4.75,10.11s-3.37,6.59-5.06,10a97.16,97.16,0,0,1-5.66,9.5c-1.84,3.06-4,6.12-6,8.88A344.47,344.47,0,0,1,363,561.55c-17,19.45-33.7,36-48.71,50.39s-28.49,26.35-39.67,36.15-20.06,17.31-26.19,22.37-9.34,7.81-9.34,7.81c22.51-20.83,44.57-42.13,65.71-64.18,15.47-14.4,30.78-29.26,45.18-44.88,3.53-4,7.2-7.81,10.72-12l5.21-6L371,545c3.37-4.14,6.58-8.43,9.8-12.72,1.53-2.14,3.06-4.44,4.6-6.58s3.06-4.44,4.44-6.74,2.91-4.6,4.29-6.9l4-7.19c2.45-4.75,4.75-9.65,7-14.4,4.45-9.65,8.58-19.61,12.26-29.56,7.35-20.07,13.48-40.6,18.84-61s10.26-41.05,16.08-61.11a236.51,236.51,0,0,1,10.26-29.26c4-9.34,8.74-18.38,14.86-26.19,1.38-2,3.22-3.83,4.75-5.67,1.84-1.84,3.52-3.68,5.36-5.36A113.82,113.82,0,0,1,499,262.71c8-5.67,17-10,25.73-10.11,8.73-.31,17.16,3.68,23.9,10.42,6.74,6.58,12.25,15.16,16.69,24.2,9,18.22,14.86,38.29,19.61,58.51C589.22,366,592,386.47,592,407a295.22,295.22,0,0,1-26.2,119.93,299,299,0,0,1-30.63,53.61c-6,8.43-12.41,15.93-19.45,24.05-7.05,8-13.94,16.39-20.38,25-13,17.31-24.35,36.45-32.16,57.13A175.69,175.69,0,0,0,454,718.55,297.43,297.43,0,0,0,450.75,751.48Z" transform="translate(-149 -98.21)"/><path class="cls-1" d="M503.14,631.09c.76-1.07,3.67-4.9,8.42-10.72,4.75-6,11.64-13.63,19.76-23.59,16.08-19.61,35.23-49.93,49.32-89.45A302.9,302.9,0,0,0,596,442.23c2.75-23.44,3.06-48.56-.92-74-4.14-25.28-10.72-51.32-21.29-75.82-5.52-12.11-12.1-24.05-21.75-33.24-4.75-4.45-10.42-8.27-16.7-10a34.53,34.53,0,0,0-19.3.31c-12.71,3.67-23.59,12.4-33.08,21.75-9.65,9.34-16.55,20.83-22.06,32.93s-9.34,24.81-13,37.37c-3.52,12.56-6.59,25.12-9.65,37.53-6.13,24.66-12.41,48.56-19.91,70.77-7.66,22.05-16.09,42.58-26,60.5C381.82,528,370,542.71,359.31,555.12c-10.88,12.56-20.68,23-29.11,31.4-8.27,8.42-15,14.85-19.6,19.3-4.6,4.29-7.05,6.74-7.05,6.74,16.85-17.62,33.24-35.85,48.4-54.84A367.18,367.18,0,0,0,383.2,518.2c9.19-13.94,16.24-29.25,22.67-44.88,12.87-31.09,21.6-63.87,29.87-96.65,4.13-16.39,8.27-32.78,13.48-49,5.21-16.08,11.49-32.16,21.6-46.1A110.72,110.72,0,0,1,488.28,263a82.67,82.67,0,0,1,21.44-13.79c7.81-3.22,16.85-4.59,25.12-2.3s15.63,7.36,21.29,13.48a98,98,0,0,1,14.4,21,164.63,164.63,0,0,1,10.11,23.28c2.91,8,5.36,16.08,7.66,24.2A229.61,229.61,0,0,1,594,353.54c6.43,33.09,7.35,67.4,1.38,100.64l-2.3,12.4-2.91,12.26c-.92,4.13-2.15,8.11-3.37,12.25-1.23,4-2.3,8.12-3.83,12.1a336.71,336.71,0,0,1-20.22,46.26,273.3,273.3,0,0,1-27.27,42.43c-5.2,6.58-10.72,12.86-16.38,19.3C513.7,617.76,508.19,624.35,503.14,631.09Z" transform="translate(-149 -98.21)"/><path class="cls-1" d="M558.43,569.21a320.5,320.5,0,0,0,16.85-31.71c2.3-4.75,4.29-10,6.74-15.62s4.44-11.95,6.89-18.54c4.14-13.48,8.58-28.64,11.18-45.49,1.69-8.42,2.45-17.15,3.37-26.34.46-4.6.46-9.19.62-13.94s.46-9.5.15-14.4c-.15-4.9-.31-9.8-.61-14.71-.46-4.9-1.08-9.95-1.69-15-.3-2.45-.61-5.05-.92-7.66-.46-2.45-.92-5.05-1.53-7.5-1.07-5.06-2-10.11-3.06-15.32-4.9-20.22-10.88-41.05-20.83-61A160.48,160.48,0,0,0,567,267.46a76,76,0,0,0-11.18-13.17,49.93,49.93,0,0,0-15-9.81,38.92,38.92,0,0,0-18.23-2.6c-12.41,1.07-23,7.2-32,13.94A124.71,124.71,0,0,0,467,279.87,142.64,142.64,0,0,0,451.67,309c-4,9.95-7.05,20.06-10,29.87-5.51,19.76-9.95,38.9-14.7,57-4.6,17.92-9.5,34.77-14.55,50.08a407.87,407.87,0,0,1-15.93,40.75,218.05,218.05,0,0,1-15.78,29.41c-2.6,3.83-4.9,7.2-7.05,10.26q-3.21,4.36-5.51,7.35c-1.53,2-2.76,3.53-3.52,4.44a13.37,13.37,0,0,1-1.23,1.54c5.67-7.82,10.88-15.93,15.78-24a193.1,193.1,0,0,0,12.25-25.43c11.49-23.89,20.07-49.17,27.42-74.9s13.33-52.08,20.83-78.42A273.31,273.31,0,0,1,454,297.63a111.75,111.75,0,0,1,10.72-18.53c2.14-2.91,4.29-5.82,6.74-8.58s4.9-5.21,7.5-7.66a121.58,121.58,0,0,1,16.85-13.48,59,59,0,0,1,20.83-8.73,43.5,43.5,0,0,1,11.8-.92,43,43,0,0,1,11.64,2.61,51.37,51.37,0,0,1,19,12.86,94,94,0,0,1,13,17.47,134.16,134.16,0,0,1,9.35,18.84,304.79,304.79,0,0,1,13,39.36c1.68,6.59,3.37,13.33,4.59,20.07s2.91,13.48,3.37,20.37a287,287,0,0,1,2.3,41.36A293.54,293.54,0,0,1,591.52,494,295.09,295.09,0,0,1,558.43,569.21Z" transform="translate(-149 -98.21)"/><path class="cls-1" d="M592.43,510.24c.62-1.69,4.14-11.64,8.43-28,.92-4.14,2-8.73,3.22-13.64.92-4.9,1.83-10.26,2.75-15.93a339.71,339.71,0,0,0,3.22-38.14,283.21,283.21,0,0,0-2.6-44.57c-.31-2-.46-4-.77-6s-.77-4-1.23-6c-.76-4-1.53-8-2.29-12.1-1.69-8.12-3.83-16.08-6.13-24.2-4.9-16.24-10.72-33.08-19.91-49.32a94.23,94.23,0,0,0-18.08-23c-7.5-6.89-18.07-12.56-29.56-13.32s-22.06,2.75-30.79,7.66A108.48,108.48,0,0,0,476,261.18c-1.68,1.53-3.21,3.21-4.74,4.9s-3.22,3.52-4.75,5.36a120.34,120.34,0,0,0-8.12,11.49,164.78,164.78,0,0,0-11.8,23.89c-6.28,15.93-10.56,31.56-14.39,46.11-3.68,14.4-7.05,28.18-10.27,40.74-6.43,25-12.71,45.34-17.61,59.13-2.45,6.89-4.6,12.4-6.13,16.08-1.38,3.68-2.3,5.67-2.3,5.67a422.3,422.3,0,0,0,13-43.81c6.44-20.22,11.65-40.9,17-61.88s10.72-42.43,19.3-63.72c4.44-10.57,9.65-21.29,17-31.1l2.76-3.67,3.06-3.52c2.14-2.3,4-4.29,6.13-6.44a127.29,127.29,0,0,1,13.63-11.64,77.81,77.81,0,0,1,16.39-9.5,53.48,53.48,0,0,1,20.06-4.59,44.82,44.82,0,0,1,21,4.29,56.3,56.3,0,0,1,16.54,11.64,110.79,110.79,0,0,1,20.53,29.87,238.8,238.8,0,0,1,12.4,31.7c3.37,10.73,6.13,21.45,8.58,32.32l3.22,16.55a39.87,39.87,0,0,1,.76,4.13l.46,4.14.92,8.42C613.88,422.62,607.29,468.27,592.43,510.24Z" transform="translate(-149 -98.21)"/><path class="cls-1" d="M608.36,469.8c.16-.77.62-3.22,1.23-7.2.31-2,.77-4.44,1.23-7.05s1.07-5.82,1.37-9.19.77-7.2,1.23-11.33c.15-2,.46-4.14.61-6.28,0-2.3,0-4.6.16-6.89.15-4.6.45-9.65.45-14.86s-.45-10.57-.61-16.24A333.3,333.3,0,0,0,599.94,316c-4.14-13.17-8.88-26.8-15.93-40.28a118.26,118.26,0,0,0-12.87-19.91,70.49,70.49,0,0,0-19.76-17.46,50.35,50.35,0,0,0-28.33-6.59,61.28,61.28,0,0,0-25.74,8A109.47,109.47,0,0,0,478,253.52a120.76,120.76,0,0,0-15.47,16.24,116.57,116.57,0,0,0-11.79,18.38,172.11,172.11,0,0,0-8.27,18.22,334.14,334.14,0,0,0-10.88,33.4c-5.66,20.52-9.49,37.37-12.56,49C416.13,400.41,414.3,407,414.3,407c2.6-11.95,4.9-24.2,7.19-36.46,4.29-16.85,8.58-33.85,14.4-51.16,5.82-17.15,13.18-35.23,26.19-51.31,1.69-2,3.37-4,5.06-5.82,1.68-1.68,3.22-3.52,5.05-5.05a113.88,113.88,0,0,1,11.19-9.65c8-6.13,17.15-11.8,28.49-14.86a55.1,55.1,0,0,1,18.22-1.84,52.08,52.08,0,0,1,18.08,4.9c11.18,5.36,19,13.48,25.27,21.6a134.21,134.21,0,0,1,14.86,25.27,245.13,245.13,0,0,1,10.11,25.89c2.76,8.73,5.21,17.31,7.35,26l1.53,6.58,1.38,6.74,2.61,13.48.61,3.37.3,3.37.77,6.74c.46,4.6,1.07,9,1.38,13.63l.46,13.64c0,2.29.15,4.59.15,6.89l-.31,6.89-.45,13.63-1.38,13.64-.77,6.74-1.22,6.74Z" transform="translate(-149 -98.21)"/><path class="cls-1" d="M1030.66,98.81c-.76.46-2,1.23-3.67,2.3-3.07,2-7.66,5.06-13.18,9a562.43,562.43,0,0,0-45.49,36.45,608.37,608.37,0,0,0-60.66,62.19,589,589,0,0,0-61.57,88.38c-5.21,9.35-10.26,18.84-15.17,28.8-.61.46-2.14,1.68-4.44,3.52-3.21,2.45-7.81,5.82-13.48,9.65a188.92,188.92,0,0,1-19.6,11.8c-7.2,3.67-15.17,6.89-21.14,7.81-8.42.76-17.16,1.38-24.35.31S735,356,731.52,353.54a16.88,16.88,0,0,1-6.13-6.74,6,6,0,0,1-.77-2.14c0-.16,0-.16-.15-.31h0v.31a1.67,1.67,0,0,0,.15.76c.16.62.46,1.23.62,2a6.31,6.31,0,0,0,1.07,2l.61,1.07.77.92a25.14,25.14,0,0,0,8.73,6.58c7.81,3.53,18.38,4.9,29.25,4.6l4.14-.15a14.18,14.18,0,0,0,3.83-.31,28.15,28.15,0,0,0,3.37-.46l3.52-.77a90.58,90.58,0,0,0,15-5.66,230.87,230.87,0,0,0,29.72-17,24.1,24.1,0,0,0-1.23,2.91c-.61.46-1.38.92-2.3,1.69-2.75,1.84-6.58,4.59-11.33,7.5a179.08,179.08,0,0,1-16.54,9.19c-6.13,2.92-12.87,5.67-19,6.74a45.07,45.07,0,0,1-5.2.62c-1.84.15-3.68.3-5.37.46-3.52.3-7,0-10.41.15-6.59-.46-12.71-1.23-17.46-3.06-2.45-.62-4.29-1.84-6.13-2.61-1.68-1.07-3.06-1.84-4.29-2.75a20.46,20.46,0,0,1-2.45-2.15c-.46-.61-.92-.92-.92-1.07a30.12,30.12,0,0,0,3.83,3.83,35.83,35.83,0,0,0,4.75,3.21l2.6,1.38,2.76,1.23c.92.3,1.84.76,2.91,1.07l3.06.77,3.07.76,3.21.46a45.16,45.16,0,0,0,6.59.77l6.74.3,6.89-.3,3.53-.16c1.07,0,2.14-.3,3.21-.3a47.11,47.11,0,0,0,6.44-1.23c2.14-.61,4.28-1.38,6.43-2,2.14-.92,4.29-1.53,6.43-2.6a199.74,199.74,0,0,0,24.66-13.18c-.61,1.38-1.07,2.76-1.68,4q-3.45,2.29-9.65,6c-8,4.6-19,10.57-30.79,13.17-12,2-24.66,2.15-33.85.62-2.3-.46-4.44-.92-6.28-1.23-1.84-.61-3.37-1.07-4.75-1.53a18,18,0,0,1-3.22-1.23c-.76-.3-1.22-.61-1.37-.61a61.56,61.56,0,0,0,21.75,6.43l2.91.46a17.75,17.75,0,0,0,2.91.16l5.82.3c3.83,0,7.66-.3,11.64-.3,7.81-.46,15.32-2.91,22.67-6a218.87,218.87,0,0,0,19.91-9.8c-.77,2-1.68,4.14-2.45,6.13-1.53.92-3.22,1.84-5.21,2.91-6.74,3.52-15.93,8.27-26.8,10.26-1.38.15-2.76.46-4,.61s-2.6.16-3.83.31c-2.6.15-5.05.46-7.5.61-4.9-.15-9.5.31-13.63-.3l-5.52-.46c-1.68-.31-3.06-.62-4.29-.92-1.68-.31-2.91-.62-3.67-.77,12.56,3.83,25.58,4.14,38.29,3.22a82.35,82.35,0,0,0,19.76-4.6,139.13,139.13,0,0,0,14.55-6.43c-.46,1.23-.92,2.45-1.38,3.83-1.38.76-3.21,1.68-5.2,2.6a97.13,97.13,0,0,1-23.29,8.12c-1.22.15-2.45.46-3.52.61s-2.14.16-3.22.31l-6.28.46c-4,.31-8,.15-11.33.15s-6.28-.46-8.43-.61c-1.53-.15-2.6-.31-3.21-.31,10.87,2,21.59,2,32,1.38a77.47,77.47,0,0,0,17.31-3.67,134.44,134.44,0,0,0,13.63-5.36c-.46,1.53-1.07,2.91-1.53,4.44-1.07.46-2.3,1.07-3.68,1.68-5.05,2-11.79,4.75-20.52,6a19.32,19.32,0,0,1-2.76.3l-2.6.16c-1.69.15-3.53.3-5.06.45-3.21.31-6.58.16-9.34.31a72,72,0,0,1-10-.46c9.19,1.38,18.08,1.07,26.81.61a50.83,50.83,0,0,0,7.5-.91,58,58,0,0,0,7.36-1.69,82.05,82.05,0,0,0,11.33-4c-2.6,7.66-5.21,15.32-7.5,23.28A509.6,509.6,0,0,0,778.08,532c-1.84,41.66,1.38,82.56,7.51,120.85,1.68,9.5,3.21,19,5,28.34q3.21,13.79,6.43,27.11c1.08,4.44,2,8.88,3.37,13.17,1.23,4.29,2.61,8.58,3.83,12.72,2.61,8.73,5.21,17.3,7.66,25.58l1.53,3.21.92,1.84c.61,1.23,1.23,2.6,1.84,3.83,1.23,2.6,2.3,5.21,3.37,7.81,2.14,5.21,4.14,10.26,5.82,15.32A282.1,282.1,0,0,1,834,821c4.29,18.69,5.82,35.39,5.36,49a116.88,116.88,0,0,1-5.06,31.4c-2.29,7.2-4.44,11.33-4.74,12.56,10.87-21.9,12.4-49,8.57-75.51a244,244,0,0,0-9.19-39.83c-2-6.59-4.29-13-6.89-19.45-1.22-3.22-2.6-6.44-4-9.5l-2.15-4.59-1.07-2.3-1.68-3.37L801.21,718.4c-3.22-13.63-6.28-27.11-9.34-40.75L788.34,657l-1.68-10.27-.92-5.2c-.31-1.69-.46-3.53-.61-5.21L783,615.47l-1.07-10.42c-.31-3.52-.31-7-.46-10.42l-.92-21c0-1.68-.15-3.52-.15-5.21l.15-5.21.15-10.56.16-10.42c.15-3.52,0-7,.46-10.42l1.68-21c.31-3.52.46-7.05.92-10.42L785.43,490c1.07-6.89,1.84-13.94,3.07-20.83l4.13-20.53c.77-3.37,1.23-6.89,2.3-10.26l2.76-10.11c6.74-27.11,16.54-53.46,27.72-79a530.43,530.43,0,0,1,39.83-73.52,592.76,592.76,0,0,1,109-125.45c8.74-9.19,17.93-18.07,27.42-26.65,4.75-4.29,9.65-8.58,14.55-12.71l7.51-6.13c2.6-2,5-4,8.12-6.13C1032,97.9,1031.58,98.2,1030.66,98.81Z" transform="translate(-149 -98.21)"/><path class="cls-1" d="M957.45,167.28c-9.5,9.35-23.44,22.83-38.91,40.9a594,594,0,0,0-49.78,66.48,537,537,0,0,0-46.41,89.45,508.47,508.47,0,0,0-29.87,105.38,547.91,547.91,0,0,0-6.74,108.91c.46,8.88.76,17.61,1.38,26.19.92,8.58,2,17,2.91,25.27.61,4.14.76,8.28,1.53,12.26s1.38,8,2.14,12c1.38,8,2.76,15.62,4.14,23.28,1.84,7.5,3.52,14.7,5.21,21.75.76,3.52,1.68,7,2.45,10.41s1.53,6.9,2.6,10.11q6,20,11,36.77c.61,1.37,1.38,2.6,2,4,.46,1.07,1.07,2.14,1.53,3.21.92,2.15,2,4.29,2.91,6.44,1.84,4.13,3.37,8.27,4.91,12.1,2.91,7.66,5,14.4,6.73,20.06,3.37,11.49,4.91,18.54,5.21,20.07a273.18,273.18,0,0,0-9.19-33.39c-1.84-5.52-3.83-10.88-6.12-16.39-1.08-2.61-2.15-5.36-3.37-8l-1.84-4-.92-2-1.23-2.6-10.57-36.46L808,715l-1.07-4.6-2.15-9-4.13-18.23c-1.54-6-2.45-12.26-3.53-18.38L794,646.41c-.46-3.07-1.07-6.13-1.38-9.19l-.92-9.35-2-18.53c-.76-6.13-.92-12.41-1.22-18.69L787.73,572c-.15-3.07-.15-6.28-.15-9.35l.15-9.34.31-18.69,1.53-18.69.76-9.34.46-4.59.62-4.6,2.6-18.53c.46-3.07.77-6.13,1.38-9.19l1.84-9.19,3.67-18.39c1.53-6,3.22-12.1,4.75-18.07,2.91-12.1,7.35-23.89,11-35.69,8.73-23.28,18.23-46.41,30-68.31l4.29-8.28,4.75-8.11c3.22-5.36,6.13-10.88,9.5-16.09l10.1-15.62c3.37-5.21,7-10.11,10.57-15.32a587.21,587.21,0,0,1,47-57.59c12.4-15.78,25.58-31.25,39.52-46l-4,3.52C966.18,159.16,962.35,162.69,957.45,167.28Z" transform="translate(-149 -98.21)"/><path class="cls-1" d="M919,218.9a600.66,600.66,0,0,0-38.6,51.32,543.17,543.17,0,0,0-43.81,79.64,505.43,505.43,0,0,0-32.47,99.57l-2.6,13.17c-.77,4.44-1.84,8.73-2.3,13.17-1.23,8.89-2.45,17.62-3.52,26.5-.62,8.89-1.23,17.62-2,26.19-.15,2.15-.3,4.29-.46,6.44v6.43c0,4.29-.15,8.58-.15,12.71,0,4.29-.15,8.43-.15,12.56s.46,8.28.61,12.41c.46,8.12.92,16.08,1.23,23.9.92,7.81,1.68,15.31,2.6,22.67.46,3.67.77,7.2,1.23,10.87.45,3.52,1.22,7,1.68,10.42,1.23,6.74,2.3,13.32,3.37,19.45.61,3.06,1.07,6.13,1.53,9,.77,2.91,1.38,5.82,2,8.57,2.61,11,4.9,20.84,6.9,29,4.9,16.09,7.81,26,8.27,27.73l-4.6-15.93c-1.53-5.36-3.21-10.57-4.44-16.08l-7.51-32.32c-2-10.88-3.67-21.75-5.51-32.78-1.07-5.36-1.53-11-2.14-16.39l-1.69-16.55a537.4,537.4,0,0,1,4.14-132.18c.61-5.52,1.83-10.88,2.91-16.24l3.37-16.24a66.63,66.63,0,0,1,2-8l2.14-8L815.3,414l5.21-15.77c1.68-5.21,3.37-10.57,5.51-15.63,4.14-10.26,7.82-20.67,12.56-30.48,2.3-5.05,4.45-10.11,6.9-15l7.65-14.7,3.83-7.36,4.14-7.19,8.27-14.25c11.8-18.53,24-36.91,37.83-54.07,4.29-6.74,8.89-13.17,13.48-19.76s9.5-12.87,14.25-19.3l-4.29,4.75C928.19,208.64,924.05,213.08,919,218.9Z" transform="translate(-149 -98.21)"/><path class="cls-1" d="M889.74,267.92c-1.68,2.6-3.83,5.21-5.66,8.42q-3,4.61-6.44,10.11c-4.75,7.05-9.49,15.47-14.7,24.66a143.47,143.47,0,0,0-7.66,14.55c-2.6,5.06-5.36,10.27-8,15.78-4.9,11-10.41,22.52-14.85,34.92-5.06,12.26-8.89,25.28-13.18,38.45-1.83,6.74-3.52,13.48-5.36,20.22-.92,3.37-1.84,6.74-2.6,10.26l-2,10.42-2,10.41c-.62,3.53-1.38,6.9-1.84,10.42-.92,7-1.84,13.94-2.76,20.83l-.76,5.21c-.16,1.68-.31,3.52-.46,5.21-.31,3.52-.46,6.89-.77,10.26s-.46,6.89-.77,10.26a76,76,0,0,0-.46,10.11,582.18,582.18,0,0,0,2.61,73.52q.92,8,1.84,15.63c.61,4.9.92,9.65,1.83,14.09,1.54,8.88,2.91,16.69,4.14,23.28.61,3.22,1.07,6.28,1.53,8.89s1.07,4.9,1.53,6.73c.92,3.83,1.54,6.13,1.69,6.9l-2.91-12.87-2.15-13c-1.37-8.73-3.06-17.31-4.28-25.88l-2.76-26.2-.77-6.58c-.15-2.15-.15-4.45-.3-6.59l-.62-13.17c-1.38-34.93,0-70,6-104.47A497.48,497.48,0,0,1,834.45,377.9a525.38,525.38,0,0,1,47.63-92.83l4.45-8.42c1.53-2.76,3.06-5.52,4.74-8.27,3.22-5.36,6.28-11,9.65-16.39,0,0-1.07,1.38-3.06,4C896,259,893.27,263,889.74,267.92Z" transform="translate(-149 -98.21)"/><path class="cls-1" d="M870.9,308.81c-5,8.28-11.33,20.68-18.68,35.54C848.85,352,845,360.13,841.34,369c-1.68,4.44-3.52,9-5.21,13.79-.92,2.29-1.84,4.75-2.75,7-.92,2.45-1.69,4.9-2.46,7.36-3.06,9.95-6.73,20.06-9.19,30.78q-2.06,8-4.13,16.09c-1.23,5.36-2.15,10.87-3.37,16.39l-1.69,8.27a76.24,76.24,0,0,0-1.37,8.27q-1.15,8.26-2.3,16.54c-1.84,10.88-2.15,21.9-3.07,32.32-.15,2.6-.46,5.21-.61,7.81s-.15,5.21-.15,7.66c0,5.06-.15,10.11-.15,15s-.31,9.65,0,14.25.45,9,.76,13.32c.15,4.29.46,8.43.61,12.41.16,2,.16,3.83.31,5.82s.46,3.68.61,5.51c.77,7.05,1.53,13.33,2.15,18.54s.92,9.5,1.53,12.56a46.54,46.54,0,0,1,.92,5.51,531.48,531.48,0,0,1,.3-165.58c.31-1.68.46-3.37.77-5.05l1.07-5.06,2.15-10.11c1.38-6.74,2.6-13.63,4.59-20.21L826,418.18l6.44-19.61a504.06,504.06,0,0,1,33.39-75.66c1.84-4.6,4.13-9,6.13-13.64,2.14-4.44,4.13-9.19,6.43-13.63,0,0-.77,1.07-2.15,3.37C875.19,301.16,873.35,304.53,870.9,308.81Z" transform="translate(-149 -98.21)"/><path class="cls-1" d="M857.27,343.89c-.61,1.38-1.38,2.91-2.14,4.75-1.54,3.52-3.53,7.81-5.67,12.71-1.07,2.45-2.3,5.06-3.37,7.81s-2.15,5.83-3.37,8.89c-9.65,24.51-20.37,58.2-26,93.28-2.76,17.46-5.21,35.23-6,51.93l-.92,12.4c0,4-.16,8-.16,12,0,7.81-.3,15.16-.15,21.9.77,13.64,1.23,25.28,1.84,33.55.92,8.27,1.53,13.48,1.68,14.4-9.34-87.62,3.07-177.38,39.37-257.18,2.6-7.5,4.9-15,8.12-22.36l-1.38,2.75C858.65,341.44,858,342.67,857.27,343.89Z" transform="translate(-149 -98.21)"/><path class="cls-1" d="M738.87,378.66c-.16,0-.46-.15-.61-.15C738.41,378.51,738.56,378.66,738.87,378.66Z" transform="translate(-149 -98.21)"/><path class="cls-1" d="M745.91,385.86a.58.58,0,0,1-.46-.15C745.45,385.86,745.61,385.86,745.91,385.86Z" transform="translate(-149 -98.21)"/><path class="cls-1" d="M642.83,883.67c.15-.15.31-.76.92-1.84a11,11,0,0,0,.92-1.83c.3-.77.61-1.69.92-2.61a83.71,83.71,0,0,0,3.67-17c1.84-14.71.92-35.23-1.68-55.45s-6.74-40.44-10.11-55.29c-1.69-7.51-3.37-13.64-4.44-17.93-1.23-4.28-1.84-6.58-1.84-6.58,2.45,4,4.75,8.12,7,12.25,5.67,25.12,10.11,50.4,12.1,75.82a256.67,256.67,0,0,1,.62,37.53,131.62,131.62,0,0,1-2.45,17.77C647.27,874,645.43,879.54,642.83,883.67Z" transform="translate(-149 -98.21)"/><path class="cls-1" d="M652.63,869.43a130.33,130.33,0,0,0,2.15-21.6c.46-12.56-.77-29.1-2.91-45.49s-5.37-32.63-8-44.73-4.59-20.06-4.59-20.06l5.51,10.1a594.25,594.25,0,0,1,9.5,61.12,295.34,295.34,0,0,1,1.38,30.63C655.39,849.67,654.78,859.93,652.63,869.43Z" transform="translate(-149 -98.21)"/><path class="cls-1" d="M658.91,854.57c0-.61.61-7.66.31-17.92A359.22,359.22,0,0,0,656,799.73c-3.52-26.5-9.8-52.23-9.8-52.23l4.29,8.27c3.21,16.39,5.66,32.78,7.35,49.32C659.52,821.48,660.44,838.18,658.91,854.57Z" transform="translate(-149 -98.21)"/><path class="cls-1" d="M663.05,844.61c0-.61,0-6.28-.31-14.7-.46-8.27-1.38-19.15-2.91-29.87-2.91-21.44-7.35-42.12-7.35-42.12l3.37,6.74C660.44,791,663.81,817.65,663.05,844.61Z" transform="translate(-149 -98.21)"/></svg>