<svg id="Capa_1" data-name="Capa 1" xmlns="http://www.w3.org/2000/svg" viewBox="0 0 170.83 76.98"><defs><style>.cls-1{fill:#fff;}</style></defs><title>logo_blanco</title><path class="cls-1" d="M136.59,123.69a1,1,0,0,1-.53-.15,1.05,1.05,0,0,1-.53-.91V80.53a1.08,1.08,0,0,1,.5-.9,1.06,1.06,0,0,1,1,0L176.8,98.82a1,1,0,0,1,.6.91,1.06,1.06,0,0,1-.53,1l-39.75,22.85A1,1,0,0,1,136.59,123.69Zm1.06-41.47V120.8l36.43-21Z" transform="translate(-56.36 -46.71)"/><path class="cls-1" d="M216.16,70.05a1.11,1.11,0,0,1-.5-.12L175.85,48.7a1.06,1.06,0,0,1,.49-2h39.82a1.06,1.06,0,0,1,1.06,1.06V69a1,1,0,0,1-.52.9A1,1,0,0,1,216.16,70.05ZM180.58,48.83l34.52,18.4V48.83Z" transform="translate(-56.36 -46.71)"/><path class="cls-1" d="M216.16,123.69a1,1,0,0,1-.53-.15l-39.81-22.85a1.06,1.06,0,0,1-.53-.92v-52a1.06,1.06,0,0,1,.51-.91,1.07,1.07,0,0,1,1,0l39.82,21.23a1.09,1.09,0,0,1,.56.94v53.63a1.05,1.05,0,0,1-.53.91A1,1,0,0,1,216.16,123.69ZM177.4,99.16l37.7,21.64V69.63l-37.7-20.1Z" transform="translate(-56.36 -46.71)"/><path class="cls-1" d="M176.34,100.83a1.11,1.11,0,0,1-.46-.11L136.13,81.48a1,1,0,0,1-.6-1V47.77a1.05,1.05,0,0,1,1.06-1.06h39.75a1.05,1.05,0,0,1,1.06,1.06v52a1.09,1.09,0,0,1-.49.9A1.17,1.17,0,0,1,176.34,100.83Zm-38.69-21,37.64,18.21V48.83H137.65Z" transform="translate(-56.36 -46.71)"/><path class="cls-1" d="M86,123.69H57.42a1.05,1.05,0,0,1-1-.66,1,1,0,0,1,.23-1.15l62.07-62.44a1.06,1.06,0,0,1,1.53,0c6.1,6.6,9.32,15.35,9.32,25.3V85C129.59,108.13,112.06,123.69,86,123.69Zm-26-2.12H86c25.22,0,41.51-14.36,41.51-36.58v-.22c0-9-2.77-16.94-8-23Z" transform="translate(-56.36 -46.71)"/><path class="cls-1" d="M106.42,74.4a1.07,1.07,0,0,1-.75-.32L80.14,48.52a1.08,1.08,0,0,1-.23-1.16,1.06,1.06,0,0,1,1-.65H86.4c14.44,0,26.15,4.41,33.87,12.76a1.06,1.06,0,0,1,0,1.46L107.17,74.08a1,1,0,0,1-.75.32Zm-23-25.57,23,23L118,60.17C110.7,52.75,99.8,48.83,86.4,48.83Z" transform="translate(-56.36 -46.71)"/><path class="cls-1" d="M57.42,123.69a1.15,1.15,0,0,1-.41-.08,1.07,1.07,0,0,1-.65-1V47.77a1.05,1.05,0,0,1,1.06-1.06H80.89a1.06,1.06,0,0,1,.75.31l25.53,25.57a1.06,1.06,0,0,1,0,1.49l-49,49.29A1.06,1.06,0,0,1,57.42,123.69Zm1-74.86v71.23l46.46-46.72L80.45,48.83Z" transform="translate(-56.36 -46.71)"/><path class="cls-1" d="M220.21,51.3v0a3.49,3.49,0,1,1,7,0v0a3.49,3.49,0,1,1-7,0Zm6.58,0v0a3.09,3.09,0,1,0-6.18,0v0a3.09,3.09,0,1,0,6.18,0Zm-4.63-2h1.74a1.72,1.72,0,0,1,1.25.42,1.13,1.13,0,0,1,.31.84v0a1.16,1.16,0,0,1-.76,1.13l.89,1.3H224.4l-.75-1.12h-.45V53h-1Zm1.71,1.78c.36,0,.56-.17.56-.44v0c0-.29-.22-.44-.56-.44h-.67v.9Z" transform="translate(-56.36 -46.71)"/></svg>