<?xml version="1.0" encoding="utf-8"?>
<!-- Generator: Adobe Illustrator 22.1.0, SVG Export Plug-In . SVG Version: 6.00 Build 0)  -->
<svg version="1.1" id="Layer_1" xmlns="http://www.w3.org/2000/svg" xmlns:xlink="http://www.w3.org/1999/xlink" x="0px" y="0px"
	 viewBox="0 0 368 338" style="enable-background:new 0 0 368 338;" xml:space="preserve">
<style type="text/css">
	.st0{fill:url(#SVGID_1_);}
	.st1{fill:#FFFFFF;}
	.st2{fill:url(#SVGID_2_);}
	.st3{fill:url(#SVGID_3_);}
	.st4{fill:#D8D8D8;}
</style>
<linearGradient id="SVGID_1_" gradientUnits="userSpaceOnUse" x1="129.7524" y1="1107.683" x2="812.2476" y2="294.317">
	<stop  offset="0" style="stop-color:#00A1FF"/>
	<stop  offset="1" style="stop-color:#0041A6"/>
</linearGradient>
<rect x="-169" y="545" class="st0" width="1280" height="312"/>
<text transform="matrix(1 0 0 1 -62.8828 698.0869)" class="st1" style="font-family:'SFProDisplay-Light'; font-size:36px;">#00A1FF</text>
<g>
	<text transform="matrix(1 0 0 1 856.1172 698.0869)" class="st1" style="font-family:'SFProDisplay-Light'; font-size:36px;">#0041A6</text>
</g>
<rect x="668.6" y="139.1" style="fill:none;" width="330.4" height="244.5"/>
<text transform="matrix(1 0 0 1 668.6182 164.46)"><tspan x="0" y="0" style="font-family:'SFProDisplay-Light'; font-size:36px;">ABCDEFGHIJKLMN</tspan><tspan x="0" y="43.2" style="font-family:'SFProDisplay-Light'; font-size:36px;">ÑOPQRSTUVWXYZ</tspan><tspan x="0" y="86.4" style="font-family:'SFProDisplay-Light'; font-size:36px;">abcdefghijklmn</tspan><tspan x="0" y="129.6" style="font-family:'SFProDisplay-Light'; font-size:36px;">ñopqrstuvwxyz</tspan><tspan x="0" y="172.8" style="font-family:'SFProDisplay-Light'; font-size:36px;">1234567890</tspan></text>
<rect x="668.6" y="54.1" style="fill:none;" width="330.4" height="32.9"/>
<text transform="matrix(1 0 0 1 668.6182 79.46)" style="font-family:'SFProDisplay-Light'; font-size:36px;">Ginora Sans Regular</text>
<g>
	<g>
		<linearGradient id="SVGID_2_" gradientUnits="userSpaceOnUse" x1="158.5516" y1="253.5252" x2="343.084" y2="253.5252">
			<stop  offset="0" style="stop-color:#005EBA"/>
			<stop  offset="1" style="stop-color:#002273"/>
		</linearGradient>
		<path class="st2" d="M343.1,209.8l-35.2,70.4c0,0-9.7,17-31.6,17c-21.9,0-48.6,0-48.6,0s-19.4,0-31.6-19.4s-37.6-68-37.6-68H343.1
			"/>
		<linearGradient id="SVGID_3_" gradientUnits="userSpaceOnUse" x1="20.1523" y1="165.5081" x2="343.084" y2="165.5081">
			<stop  offset="0" style="stop-color:#00A1FF"/>
			<stop  offset="1" style="stop-color:#0041A6"/>
		</linearGradient>
		<path class="st3" d="M20.2,294.8L148.8,52c0,0,9.7-17,31.6-17s48.6,0,48.6,0s19.4,0,31.6,19.4c12.1,19.4,82.6,155.4,82.6,155.4
			h-93.5l-46.1-88.6l-80.1,153c0,0-12.1,21.9-38.8,21.9S20.2,294.8,20.2,294.8z"/>
	</g>
</g>
<g>
	<g>
		<path class="st4" d="M1036,794.3h1.1c0.1,1.3,1.3,2.2,2.8,2.2c1.7,0,2.9-1.2,2.9-2.9c0-1.7-1.2-2.9-2.8-2.9
			c-1.1,0-2.1,0.5-2.7,1.4h-1l0.6-6.3h6.3v1h-5.4l-0.4,4.2h0c0.6-0.8,1.6-1.3,2.7-1.3c2.2,0,3.8,1.6,3.8,3.8c0,2.2-1.7,3.8-4,3.8
			C1037.8,797.4,1036.2,796.1,1036,794.3z"/>
		<path class="st4" d="M1045.1,791.6c0-3.6,1.5-5.8,4.1-5.8c2.6,0,4.1,2.3,4.1,5.8c0,3.6-1.5,5.9-4.1,5.9
			C1046.6,797.4,1045.1,795.2,1045.1,791.6z M1052.2,791.6c0-3-1.1-4.9-3-4.9c-1.9,0-3,1.9-3,4.9c0,3,1.1,4.9,3,4.9
			C1051.1,796.5,1052.2,794.6,1052.2,791.6z"/>
		<path class="st4" d="M1054.6,788c0-1.2,1-2.2,2.2-2.2c1.2,0,2.2,1,2.2,2.2c0,1.2-1,2.2-2.2,2.2
			C1055.5,790.2,1054.6,789.2,1054.6,788z M1058.2,788c0-0.8-0.6-1.4-1.4-1.4c-0.7,0-1.4,0.6-1.4,1.4s0.6,1.4,1.4,1.4
			C1057.5,789.4,1058.2,788.7,1058.2,788z"/>
	</g>
	<polygon class="st4" points="1051.4,803.7 993.7,803.7 1051.3,772 1051.5,772.4 995.4,803.3 1051.4,803.3 	"/>
	<path class="st4" d="M1018.1,817.7l-0.2-0.2c6.7-6.7,10.1-14,9.9-21.5c-0.3-12.3-9.8-21.2-9.9-21.3l0.2-0.2
		c0.1,0.1,9.7,9.1,10,21.4C1028.2,803.6,1024.9,810.9,1018.1,817.7z"/>
</g>
</svg>
