<svg xmlns="http://www.w3.org/2000/svg" xmlns:xlink="http://www.w3.org/1999/xlink" viewBox="0 0 100 100"><defs><style>.a{clip-path:url(#b);}.b{fill:#0e62ac;}.c{fill:#fff;}</style><clipPath id="b"><rect width="100" height="100"/></clipPath></defs><g id="a" class="a"><rect class="c" width="100" height="100"/><g transform="translate(-1435 -1093.534)"><g transform="translate(1449 1104.534)"><path class="b" d="M70.154,40.014H58.174l10.469-6.368a5.452,5.452,0,0,0,1.835-7.555,5.571,5.571,0,0,0-7.555-1.835l-25.8,15.758H11.44v-8.2a1.082,1.082,0,0,0-1.079-1.079A10.364,10.364,0,0,0,0,41.094V84.481A10.341,10.341,0,0,0,10.361,94.734H70.154a1.02,1.02,0,0,0,1.079-1.079V41.094a1.02,1.02,0,0,0-1.079-1.08Zm-35.077,4.1,3.13,5.073L27.63,52.1Zm5.181,4.209L36.8,42.713,58.5,29.545l3.454,5.612ZM64,26.092A3.3,3.3,0,1,1,67.456,31.7l-3.778,2.27-3.454-5.612ZM34,42.173,23.421,53.506a.983.983,0,0,0-.108,1.3.907.907,0,0,0,1.187.432l15.65-4.317h0a.377.377,0,0,0,.216-.108l12.2-7.447V63.435H11.44V42.173ZM2.159,41.094A8.246,8.246,0,0,1,9.282,33V74.228a10.6,10.6,0,0,0-7.123,3.993S2.159,41.094,2.159,41.094Zm0,43.28a8.2,8.2,0,0,1,8.2-8.2A1.02,1.02,0,0,0,11.438,75.1V65.486H53.749a1.02,1.02,0,0,0,1.079-1.079V42.173H69.075V55.556h-9.39a1.08,1.08,0,0,0,0,2.159h9.39V73.041H45.762a1.02,1.02,0,0,0-1.079,1.079V92.576H23.529V75.2H38.423a1.079,1.079,0,0,0,0-2.159H22.449A1.02,1.02,0,0,0,21.37,74.12V92.576H10.361a8.2,8.2,0,0,1-8.2-8.2Zm44.683,8.2V75.2H69.075V92.576Z" transform="translate(0 -23.484)"/></g></g></g></svg>