<svg xmlns="http://www.w3.org/2000/svg" xmlns:xlink="http://www.w3.org/1999/xlink" viewBox="0 0 100 100"><defs><style>.a{clip-path:url(#b);}.b{fill:#0e62ac;}.c{fill:#fff;}</style><clipPath id="b"><rect width="100" height="100"/></clipPath></defs><g id="a" class="a"><rect class="c" width="100" height="100"/><g transform="translate(-18 -8.977)"><path class="b" d="M271.229,28.893a1.461,1.461,0,0,0,.617-.206l7.711-5.449V77.321a.971.971,0,0,0,1.028,1.028h59.532a.971.971,0,0,0,1.028-1.028V23.238l7.506,5.449a1.3,1.3,0,0,0,.617.1.935.935,0,0,0,.823-.411,1.106,1.106,0,0,0-.206-1.439L310.917.1a1.114,1.114,0,0,0-1.131,0L270.613,26.94a.922.922,0,0,0-.206,1.439.847.847,0,0,0,.822.514ZM281.614,21.8,310.3,2.263,338.987,21.8V76.292H281.614Z" transform="translate(-242.153 20.05)"/><path class="b" d="M310.1,40.8V24.963a7.883,7.883,0,0,1,6.889,7.814,1.028,1.028,0,1,0,2.056,0A10.029,10.029,0,0,0,310.1,22.8V20.028a1.028,1.028,0,1,0-2.056,0v2.879a10.032,10.032,0,0,0,0,19.947V58.585a7.955,7.955,0,0,1-6.58-7.814,1.028,1.028,0,0,0-2.056,0,9.973,9.973,0,0,0,8.637,9.871v2.982a1.028,1.028,0,0,0,2.056,0v-2.88a9.994,9.994,0,0,0,0-19.947Zm-8.945-7.917a7.883,7.883,0,0,1,6.889-7.814V40.8a7.986,7.986,0,0,1-6.888-7.92Zm8.945,25.7V42.854a7.956,7.956,0,0,1,7.3,7.917,7.859,7.859,0,0,1-7.3,7.814Z" transform="translate(-241.337 20.587)"/></g></g></svg>