<?xml version="1.0" encoding="utf-8"?>
<!-- Generator: Adobe Illustrator 22.1.0, SVG Export Plug-In . SVG Version: 6.00 Build 0)  -->
<svg version="1.1" id="Layer_1" xmlns="http://www.w3.org/2000/svg" xmlns:xlink="http://www.w3.org/1999/xlink" x="0px" y="0px"
	 viewBox="0 0 100 90" style="enable-background:new 0 0 100 90;" xml:space="preserve">
<style type="text/css">
	.st0{fill:url(#SVGID_1_);}
	.st1{fill:url(#SVGID_2_);}
	.st2{fill:url(#SVGID_3_);}
	.st3{fill:url(#SVGID_4_);}
	.st4{fill:url(#SVGID_5_);}
	.st5{fill:url(#SVGID_6_);}
	.st6{fill:url(#SVGID_7_);}
	.st7{fill:url(#SVGID_8_);}
	.st8{fill:url(#SVGID_9_);}
	.st9{fill:url(#SVGID_10_);}
	.st10{fill:url(#SVGID_11_);}
	.st11{fill:url(#SVGID_12_);}
</style>
<g>
	<g>
		<linearGradient id="SVGID_1_" gradientUnits="userSpaceOnUse" x1="2" y1="51.4952" x2="51.9961" y2="51.4952">
			<stop  offset="0" style="stop-color:#0E0979"/>
			<stop  offset="1" style="stop-color:#9600FF"/>
		</linearGradient>
		<path class="st0" d="M2,70c0.1-0.1,0.3-0.2,0.6-0.5c0.3-0.2,0.7-0.6,1.2-0.9c1-0.7,2.5-1.7,4.2-2.9c1.7-1.2,3.8-2.7,6-4.5
			c1.1-0.9,2.3-1.9,3.4-2.9c1.2-1,2.4-2.2,3.6-3.4c0.1-0.2,0.3-0.3,0.5-0.5c0.1-0.2,0.3-0.3,0.4-0.5c0.3-0.3,0.6-0.6,0.9-1
			c0.3-0.3,0.6-0.7,0.9-1c0.3-0.3,0.6-0.7,0.9-1c0.3-0.4,0.6-0.7,0.8-1.1c0.3-0.4,0.5-0.8,0.8-1.1l0.2-0.3l0.2-0.3
			c0.1-0.2,0.3-0.4,0.4-0.6c0.3-0.4,0.5-0.8,0.7-1.2c0.5-0.8,0.9-1.7,1.3-2.6c0.4-0.9,0.7-1.8,1-2.7c0-0.1,0.1-0.2,0.1-0.3l0-0.2
			l0,0c0,0,0-0.1,0-0.1l0-0.1c0.1-0.3,0.1-0.5,0.2-0.8c0.1-0.5,0.2-1,0.4-1.5c0.2-1,0.5-2.1,0.8-3.1c0.6-2.1,1.2-4.2,2-6.3
			c0.8-2.1,1.6-4.2,2.8-6.2c0.6-1,1.2-2,2-2.9c0.4-0.5,0.8-0.9,1.3-1.3c0.5-0.4,1-0.8,1.7-1.1c0.6-0.3,1.4-0.4,2.1-0.4
			c0.2,0,0.4,0,0.5,0.1c0.2,0,0.3,0.1,0.5,0.1c0.2,0,0.3,0.1,0.5,0.1c0.2,0.1,0.3,0.1,0.5,0.2c1.2,0.5,2.3,1.4,3,2.4
			c0.8,1,1.3,2.1,1.8,3.2c0.4,1.1,0.8,2.3,1,3.4c0.5,2.3,0.7,4.6,0.8,6.8C52,34,52,35.2,52,36.3c0,0.6,0,1.1,0,1.7
			c0,0.3,0,0.6,0,0.8c0,0.1,0,0.1,0,0.2l0,0.1l0,0.2l-0.1,0.4c-0.1,0.3-0.1,0.5-0.2,0.8c-0.1,0.3-0.1,0.5-0.2,0.8
			c-0.2,0.5-0.3,1.1-0.5,1.6c-0.3,1-0.7,2.1-1.1,3.1c-0.8,2-1.8,3.9-2.9,5.7c-1.1,1.8-2.2,3.4-3.3,5c-1.1,1.6-2.1,3.2-3,4.7
			c-0.2,0.4-0.4,0.8-0.7,1.2c-0.1,0.2-0.2,0.4-0.3,0.6c-0.1,0.2-0.2,0.4-0.3,0.6c-0.2,0.4-0.4,0.8-0.6,1.1c-0.1,0.2-0.2,0.4-0.3,0.5
			c-0.1,0.2-0.2,0.4-0.2,0.5c-0.6,1.5-0.9,3-1,4.4c-0.1,1.4,0,2.8,0.2,4.1c0.4,2.6,1.1,4.8,1.8,6.6c0.7,1.8,1.4,3.1,1.9,4
			c0.2,0.4,0.4,0.8,0.6,1c0.1,0.2,0.2,0.3,0.2,0.3c-0.1-0.2-0.3-0.4-0.4-0.6c-0.1-0.2-0.3-0.4-0.4-0.6c-0.3-0.4-0.5-0.9-0.7-1.3
			c-0.5-0.9-0.9-1.8-1.3-2.7c-0.8-1.8-1.4-3.7-1.9-5.6c-0.5-2.7-0.5-5.5,0.1-8.1c0.1-0.3,0.2-0.6,0.3-1c0.1-0.3,0.2-0.6,0.4-0.9
			c0.1-0.3,0.3-0.6,0.4-0.9l0.5-0.9c0.2-0.3,0.3-0.6,0.5-0.9l0.5-0.9c0.3-0.6,0.7-1.2,1.1-1.8c1.5-2.4,3.1-4.7,4.6-7
			c0.4-0.6,0.8-1.2,1.1-1.8c0.2-0.3,0.4-0.6,0.5-0.9c0.2-0.3,0.4-0.6,0.5-0.9l0.5-0.9c0.1-0.2,0.2-0.3,0.2-0.5l0.2-0.5l0.5-1
			c0.1-0.3,0.3-0.7,0.4-1l0.2-0.5c0.1-0.2,0.1-0.3,0.2-0.5l0.4-1l0.2-0.5c0.1-0.2,0.1-0.3,0.2-0.5l0.3-1l0.1-0.5l0.1-0.5l0.2-1
			l0.1-0.5c0,0,0-0.1,0-0.1l0-0.1l0-0.1l0-0.3c0-0.4,0-0.7,0-1.1c0.1-2.8,0-5.7-0.4-8.5c-0.2-1.4-0.5-2.8-0.9-4.2
			c-0.4-1.4-0.9-2.8-1.7-4.1c-0.4-0.6-0.9-1.3-1.4-1.8c-0.6-0.5-1.2-1-1.9-1.3C45,17.2,44.7,17,44.3,17c-0.2-0.1-0.4-0.1-0.6-0.1
			c-0.2,0-0.4-0.1-0.6,0c-0.2,0-0.4,0-0.6,0c-0.2,0-0.4,0.1-0.6,0.1c-0.2,0.1-0.4,0.1-0.6,0.2c-0.2,0.1-0.4,0.2-0.5,0.3
			c-0.7,0.4-1.3,0.9-1.8,1.5c-0.5,0.6-1,1.1-1.4,1.7c-0.8,1.2-1.5,2.5-2.1,3.8c-1.2,2.6-2.2,5.3-3,8c-0.4,1.4-0.8,2.7-1.2,4.1
			c-0.4,1.4-0.7,2.7-1,4.1c-0.1,0.6-0.3,1.3-0.6,1.9c-0.1,0.3-0.3,0.6-0.4,0.9c-0.1,0.3-0.3,0.6-0.4,0.9c-0.1,0.3-0.3,0.6-0.5,0.9
			c-0.2,0.3-0.3,0.6-0.5,0.9l-0.5,0.9L26.8,48c-1.5,2.3-3.3,4.4-5.2,6.4c-1.9,2-4,3.9-6.1,5.7c-2.1,1.8-4.3,3.5-6.6,5.1
			c-1.1,0.8-2.3,1.6-3.5,2.4C4.3,68.3,3.1,69.1,2,70z"/>
		<linearGradient id="SVGID_2_" gradientUnits="userSpaceOnUse" x1="15.6769" y1="46.0601" x2="51.5419" y2="46.0601">
			<stop  offset="0" style="stop-color:#0E0979"/>
			<stop  offset="1" style="stop-color:#9600FF"/>
		</linearGradient>
		<path class="st1" d="M15.7,60.5c0.3-0.2,1.9-1.6,4.3-3.9c0.3-0.3,0.6-0.6,0.9-0.9c0.2-0.2,0.3-0.3,0.5-0.5
			c0.2-0.2,0.3-0.3,0.5-0.5c0.3-0.4,0.7-0.7,1.1-1.1c0.1-0.1,0.2-0.2,0.3-0.3c0.1-0.1,0.2-0.2,0.3-0.3c0.2-0.2,0.4-0.4,0.5-0.6
			c1.5-1.7,3-3.8,4.3-6.2c0.7-1.2,1.3-2.5,1.8-3.9c0.1-0.2,0.1-0.3,0.2-0.5c0-0.2,0.1-0.3,0.1-0.5c0-0.2,0.1-0.4,0.1-0.5
			c0-0.2,0.1-0.4,0.1-0.6c0.2-0.8,0.3-1.5,0.5-2.3c0.8-3.1,1.7-6.3,2.9-9.5c0.6-1.6,1.3-3.2,2.1-4.8c0.4-0.8,0.9-1.6,1.4-2.3
			c0.5-0.8,1.1-1.5,1.7-2.2c0.3-0.3,0.7-0.6,1.1-0.9c0.4-0.3,0.8-0.5,1.3-0.7c0.5-0.2,1-0.2,1.5-0.2c0.1,0,0.3,0,0.4,0l0.4,0.1
			c0.2,0.1,0.5,0.1,0.7,0.2c0.5,0.2,0.9,0.4,1.3,0.6c0.4,0.3,0.8,0.6,1.1,0.9c0.7,0.7,1.2,1.5,1.7,2.3c0.9,1.7,1.4,3.5,1.8,5.3
			c0.4,1.8,0.6,3.6,0.7,5.4c0.1,1.8,0.1,3.6,0.1,5.3c0,0.4,0,0.9-0.1,1.3l0,0.2l0,0.1c0,0,0,0.1,0,0.1l-0.1,0.3
			c0,0.2-0.1,0.4-0.1,0.6c-0.1,0.4-0.2,0.8-0.3,1.3c-0.1,0.4-0.2,0.8-0.4,1.2c-0.1,0.2-0.1,0.4-0.2,0.6c-0.1,0.2-0.1,0.4-0.2,0.6
			c-0.1,0.4-0.3,0.8-0.4,1.2c-0.2,0.4-0.3,0.8-0.5,1.2c-0.1,0.2-0.2,0.4-0.2,0.6c-0.1,0.2-0.2,0.4-0.3,0.6c-0.7,1.5-1.5,2.9-2.3,4.3
			c-1.6,2.7-3.3,5.1-4.7,7.3c-1.4,2.3-2.7,4.4-3.6,6.3c-0.5,0.9-0.8,1.9-1,2.8c-0.2,0.9-0.3,1.7-0.4,2.5c-0.1,1.5,0,2.7,0.1,3.5
			c0,0.4,0.1,0.7,0.1,0.9c0,0.2,0,0.3,0,0.3c-0.3-1.6-0.4-3.1-0.4-4.7c0.1-1.6,0.4-3.2,0.9-4.7c0.4-1,1-2,1.5-3l0.8-1.5
			c0.3-0.5,0.6-1,0.9-1.4c1.2-1.9,2.5-3.7,3.7-5.6c1.2-1.9,2.4-3.8,3.5-5.8c1-2,1.9-4.1,2.5-6.3c0.2-0.5,0.3-1.1,0.4-1.6l0.2-0.8
			l0.1-0.4l0-0.2l0-0.1c0,0,0-0.1,0-0.1c0.1-1.1,0.1-2.3,0.1-3.4c0-2.3-0.1-4.5-0.4-6.8c-0.3-2.2-0.8-4.5-1.8-6.6
			c-0.5-1-1.1-2.1-1.9-2.9c-0.8-0.8-1.9-1.5-3-1.8c-0.6-0.1-1.2-0.2-1.8-0.1c-0.6,0.1-1.2,0.4-1.7,0.7c-1,0.6-1.8,1.5-2.5,2.5
			c-0.7,0.9-1.3,1.9-1.8,2.9c-0.5,1-1,2-1.4,3.1c-0.9,2.1-1.6,4.2-2.3,6.4c-0.7,2.2-1.2,4.3-1.7,6.5l-0.2,0.8l0,0.2l0,0.1l0,0.1
			l0,0.1c0,0.1,0,0.3-0.1,0.4c-0.1,0.5-0.3,1-0.5,1.6c-0.4,1-0.8,2-1.4,3c-1,1.9-2.3,3.8-3.7,5.5c-0.2,0.2-0.3,0.4-0.5,0.7L24,52.3
			c-0.4,0.4-0.7,0.9-1.1,1.3l-1.1,1.2L20.6,56C19,57.5,17.4,59,15.7,60.5z"/>
		<linearGradient id="SVGID_3_" gradientUnits="userSpaceOnUse" x1="25.6033" y1="41.5589" x2="51.1125" y2="41.5589">
			<stop  offset="0" style="stop-color:#0E0979"/>
			<stop  offset="1" style="stop-color:#9600FF"/>
		</linearGradient>
		<path class="st2" d="M25.6,51c0-0.1,0.1-0.2,0.3-0.4c0.1-0.1,0.2-0.2,0.3-0.3c0.1-0.1,0.2-0.3,0.3-0.4c0.2-0.3,0.5-0.7,0.8-1.2
			c0.1-0.2,0.3-0.5,0.5-0.7c0.2-0.3,0.3-0.5,0.5-0.8c0.2-0.3,0.4-0.6,0.5-0.9c0.2-0.3,0.4-0.7,0.5-1c0.2-0.4,0.4-0.7,0.5-1.1
			c0.1-0.2,0.2-0.4,0.3-0.6c0-0.1,0.1-0.2,0.1-0.3c0-0.1,0.1-0.2,0.1-0.3c0.2-0.4,0.3-0.9,0.4-1.3c0.1-0.2,0.1-0.5,0.2-0.7l0-0.2
			c0-0.1,0-0.1,0-0.2c0-0.1,0.1-0.2,0.1-0.4c0.2-1,0.5-2,0.7-3.1c0.6-2.2,1.2-4.5,2-6.9c0.8-2.4,1.8-4.9,3.1-7.3
			c0.7-1.2,1.4-2.4,2.4-3.4c0.5-0.5,1-1,1.7-1.3c0.3-0.2,0.7-0.3,1-0.4c0.4-0.1,0.7-0.1,1.1-0.1c0.7,0.1,1.4,0.2,2.1,0.6
			c0.7,0.3,1.2,0.8,1.8,1.3c1,1.1,1.7,2.4,2.2,3.7c0.5,1.4,0.9,2.8,1.1,4.2c0.3,1.4,0.4,2.9,0.5,4.3c0.1,1.4,0.1,2.8,0.1,4.2
			c0,0.7,0,1.4,0,2.1c0,0.2,0,0.3,0,0.5l0,0.3l0,0.1c0,0,0,0.1,0,0.1c-0.1,0.3-0.2,0.7-0.2,1c-0.6,2.6-1.5,5.1-2.5,7.4
			c-1.1,2.2-2.3,4.2-3.5,6.1c-1.2,1.8-2.3,3.4-3.2,4.9c-0.2,0.4-0.5,0.7-0.7,1.1c-0.2,0.3-0.4,0.7-0.6,1c-0.4,0.6-0.7,1.2-1.1,1.8
			c-0.3,0.5-0.6,1-0.8,1.5c-0.2,0.4-0.4,0.8-0.6,1.1c-0.1,0.3-0.2,0.5-0.3,0.7c0,0.1-0.1,0.1-0.1,0.2c0,0,0,0.1,0,0.1
			c0.2-0.6,0.5-1.2,0.8-1.8c0.3-0.6,0.6-1.2,0.9-1.7c0.3-0.6,0.6-1.1,0.9-1.7c0.3-0.6,0.6-1.1,1-1.7c1.9-3,4.1-5.9,5.8-9.1
			c0.2-0.4,0.4-0.8,0.6-1.2l0.3-0.6c0.1-0.2,0.2-0.4,0.3-0.6c0.2-0.4,0.4-0.8,0.6-1.2l0.5-1.2c0-0.1,0.1-0.2,0.1-0.3l0.1-0.3
			l0.2-0.6c0.1-0.4,0.3-0.8,0.4-1.3l0.4-1.3c0.1-0.4,0.2-0.9,0.3-1.3l0.2-0.7c0-0.1,0.1-0.2,0.1-0.3l0-0.3c0-0.4,0-0.9,0.1-1.3
			c0-0.9,0-1.8,0-2.7c0-1.8-0.1-3.6-0.4-5.4c-0.2-1.8-0.6-3.5-1.2-5.2c-0.1-0.4-0.3-0.8-0.5-1.3c-0.2-0.4-0.4-0.8-0.6-1.2
			c-0.4-0.8-1-1.5-1.6-2.1c-0.7-0.6-1.4-1.1-2.3-1.3c-0.4-0.1-0.9-0.2-1.3-0.2c-0.4,0-0.9,0.1-1.3,0.2c-0.8,0.3-1.6,0.9-2.2,1.5
			c-0.6,0.6-1.2,1.4-1.7,2.1c-1,1.5-1.8,3.1-2.5,4.8c-0.7,1.7-1.3,3.3-1.9,5.1c-0.6,1.7-1.1,3.4-1.5,5.2c-0.2,0.9-0.4,1.7-0.6,2.6
			c-0.1,0.4-0.2,0.9-0.3,1.3c-0.1,0.4-0.2,0.9-0.3,1.3c-0.5,1.7-1.3,3.3-2.2,4.9l-0.3,0.6c-0.1,0.2-0.2,0.4-0.4,0.6l-0.7,1.1
			C26.7,49.6,26.2,50.3,25.6,51z"/>
		<linearGradient id="SVGID_4_" gradientUnits="userSpaceOnUse" x1="30.4529" y1="37.3069" x2="50.7412" y2="37.3069">
			<stop  offset="0" style="stop-color:#0E0979"/>
			<stop  offset="1" style="stop-color:#9600FF"/>
		</linearGradient>
		<path class="st3" d="M30.5,43.8c0-0.1,0.1-0.2,0.1-0.4c0.1-0.2,0.2-0.4,0.3-0.7c0.1-0.2,0.1-0.3,0.2-0.5c0.1-0.2,0.1-0.4,0.2-0.6
			c0.1-0.2,0.1-0.4,0.2-0.7c0-0.1,0-0.1,0-0.2c0,0,0,0,0-0.1l0-0.1c0-0.1,0.1-0.3,0.1-0.4c0.5-2.1,1.2-5,2.3-8.4
			c0.5-1.7,1.2-3.5,2-5.4c0.4-0.9,0.8-1.9,1.3-2.8c0.5-0.9,1-1.9,1.7-2.7c0.6-0.9,1.4-1.7,2.3-2.3c0.4-0.3,0.9-0.5,1.5-0.6
			c0.5-0.1,1-0.1,1.6,0.1c1.1,0.3,2,0.9,2.8,1.7c0.8,0.8,1.4,1.8,1.8,2.8c0.5,1,0.8,2.1,1.1,3.2c0.3,1.1,0.5,2.2,0.6,3.4
			c0.3,2.2,0.4,4.5,0.4,6.6c0,0.5,0,1.1,0,1.6c0,0.3,0,0.5,0,0.8c0,0.1,0,0.3,0,0.4l0,0.2l0,0.1l0,0.1c-0.2,1-0.4,2-0.7,2.9
			c-0.2,1-0.6,1.8-0.9,2.7c-0.4,0.9-0.7,1.7-1,2.5c-0.3,0.8-0.7,1.5-1.1,2.2c-0.2,0.3-0.4,0.7-0.6,1c-0.2,0.3-0.4,0.6-0.5,0.9
			c-0.4,0.6-0.7,1.2-1,1.7c-0.3,0.5-0.6,1-0.9,1.4c-1.1,1.7-1.7,2.6-1.7,2.6c1.1-1.8,2.2-3.5,3.2-5.3l0.6-0.9l0.5-0.9l0.3-0.5
			l0.2-0.5l0.5-0.9c0.2-0.3,0.3-0.6,0.5-1c0.1-0.3,0.3-0.6,0.4-1c0.3-0.7,0.6-1.3,0.8-2l0.3-1c0.1-0.3,0.2-0.7,0.3-1l0.3-1l0.2-1
			l0.2-1l0-0.5l0-0.5c0-0.7,0-1.4,0-2.1c0-2.8-0.2-5.7-0.7-8.5c-0.3-1.4-0.6-2.8-1.1-4.1c-0.3-0.7-0.6-1.3-0.9-1.9
			c-0.2-0.3-0.4-0.6-0.6-0.9c-0.2-0.3-0.4-0.5-0.7-0.8c-0.1-0.1-0.3-0.2-0.4-0.3c-0.1-0.1-0.3-0.2-0.4-0.3c-0.3-0.2-0.6-0.4-0.9-0.5
			c-0.3-0.1-0.6-0.2-1-0.3c-0.2,0-0.3-0.1-0.5-0.1l-0.2,0L43,18c-0.3,0-0.6,0.1-1,0.2c-0.3,0.1-0.6,0.3-0.9,0.4
			c-0.6,0.4-1.1,0.8-1.5,1.3c-0.9,1-1.7,2.3-2.4,3.5c-0.7,1.3-1.3,2.6-1.8,3.9c-1.1,2.7-1.9,5.4-2.7,8.1c-0.4,1.4-0.7,2.8-1.1,4.2
			c-0.1,0.3-0.2,0.7-0.2,1l0,0.1l0,0.1c0,0.1,0,0.2-0.1,0.3c0,0.2-0.1,0.4-0.1,0.5C31,42.4,30.7,43.1,30.5,43.8z"/>
		<linearGradient id="SVGID_5_" gradientUnits="userSpaceOnUse" x1="32.6332" y1="34.0396" x2="50.4103" y2="34.0396">
			<stop  offset="0" style="stop-color:#0E0979"/>
			<stop  offset="1" style="stop-color:#9600FF"/>
		</linearGradient>
		<path class="st4" d="M32.6,37c0-0.2,0.3-1.2,0.8-2.9c0.5-1.7,1.2-4,2.2-6.6c0.5-1.3,1.1-2.7,1.9-4.1c0.4-0.7,0.8-1.4,1.3-2.1
			c0.5-0.7,1-1.3,1.6-1.9c0.6-0.5,1.3-1,2-1.2c0.4-0.1,0.7-0.1,1.1-0.1c0.4,0.1,0.8,0.2,1.2,0.3c0.8,0.3,1.4,0.8,2,1.4
			c0.6,0.6,1.1,1.4,1.4,2.2c0.8,1.6,1.3,3.4,1.6,5.1c0.3,1.8,0.5,3.5,0.6,5.2c0.1,1.7,0.1,3.4,0.1,4.9c0,0.4,0,0.8-0.1,1.2l0,0.1
			c0,0,0,0,0,0.1c0,0.1,0,0.2-0.1,0.3c0,0.2-0.1,0.4-0.1,0.5c-0.1,0.4-0.2,0.7-0.2,1.1c-0.1,0.3-0.2,0.7-0.3,1
			c-0.7,2.6-1.7,4.7-2.3,6.1c-0.4,0.7-0.6,1.3-0.9,1.6c-0.2,0.4-0.3,0.6-0.3,0.6l0.3-0.5l0.1-0.3l0.1-0.3l0.5-1.1
			c0.2-0.4,0.3-0.7,0.5-1.1l0.2-0.6c0.1-0.2,0.1-0.4,0.2-0.6c0.4-1,0.8-2.1,1.2-3.2l0.5-1.6l0.4-1.6l0-0.2l0-0.1c0,0,0,0,0,0l0-0.4
			l0-0.8c0-0.6,0-1.1,0-1.7c0-1.1,0-2.3-0.1-3.4c-0.1-2.3-0.4-4.5-0.9-6.7c-0.3-1.1-0.6-2.1-1.1-3.1c-0.5-1-1-1.9-1.8-2.7
			c-0.7-0.7-1.6-1.3-2.6-1.5l-0.4-0.1c-0.1,0-0.2,0-0.3,0c-0.1,0-0.2,0-0.3,0c-0.1,0-0.2,0-0.3,0.1c-0.5,0.1-0.9,0.3-1.3,0.6
			c-0.8,0.6-1.6,1.4-2.2,2.3c-0.6,0.9-1.2,1.9-1.7,2.9c-1,2-1.8,4.1-2.6,6.3C33.8,32.6,33.2,34.8,32.6,37z"/>
		<linearGradient id="SVGID_6_" gradientUnits="userSpaceOnUse" x1="34.063" y1="30.7253" x2="50.1505" y2="30.7253">
			<stop  offset="0" style="stop-color:#0E0979"/>
			<stop  offset="1" style="stop-color:#9600FF"/>
		</linearGradient>
		<path class="st5" d="M34.1,32.8c0-0.1,0.3-1,0.7-2.3c0.4-1.3,1.1-3.1,2-5.1c0.5-1,1-2.1,1.7-3.1c0.3-0.5,0.7-1.1,1.1-1.5
			c0.4-0.5,0.8-1,1.3-1.4c0.2-0.2,0.5-0.4,0.7-0.5c0.3-0.1,0.5-0.3,0.8-0.3c0.3-0.1,0.5-0.1,0.8-0.1l0.2,0c0.1,0,0.2,0,0.2,0
			c0.2,0,0.3,0.1,0.5,0.1c0.6,0.2,1.2,0.4,1.7,0.8c0.5,0.4,1,0.9,1.3,1.4c0.8,1.1,1.3,2.4,1.7,3.7c0.4,1.3,0.7,2.7,0.9,4
			c0.4,2.7,0.5,5.2,0.5,7.4c0,0.5,0,1.1,0,1.6c0,0.2,0,0.5,0,0.7c0,0.1,0,0.2,0,0.3c0,0,0,0.1-0.1,0.2c-0.1,0.4-0.2,0.8-0.3,1.2
			c0,0.2-0.1,0.4-0.1,0.5c0,0.2-0.1,0.3-0.1,0.5c-0.2,0.6-0.3,1.1-0.4,1.4C49,42.8,48.9,43,48.9,43c0.4-1.2,0.7-2.5,0.9-3.8l0.1-0.6
			l0-0.3l0-0.3c0-0.4,0-0.9,0-1.4c0-0.9,0-1.8,0-2.7c0-1.8-0.2-3.6-0.4-5.4c-0.3-1.8-0.6-3.5-1.3-5.1c-0.2-0.4-0.3-0.8-0.5-1.2
			c-0.2-0.4-0.4-0.7-0.6-1.1c-0.5-0.7-1-1.3-1.6-1.8c-0.6-0.5-1.4-0.7-2.1-0.9c-0.7-0.1-1.4,0.1-2,0.5c-0.7,0.4-1.3,1-1.8,1.7
			c-0.5,0.7-1,1.4-1.5,2.2c-0.9,1.5-1.6,3.2-2.3,4.9C35.2,29.4,34.6,31.1,34.1,32.8z"/>
	</g>
	<g>
		<linearGradient id="SVGID_7_" gradientUnits="userSpaceOnUse" x1="70.2181" y1="41.4854" x2="97.7684" y2="41.4854">
			<stop  offset="0" style="stop-color:#0E0979"/>
			<stop  offset="1" style="stop-color:#9600FF"/>
		</linearGradient>
		<path class="st6" d="M75.6,80c0-0.1,0-0.2,0-0.4c0-0.1,0-0.2,0-0.4c0-0.1,0-0.3,0-0.5c0-0.7-0.1-1.6-0.3-2.8
			c-0.2-1.2-0.6-2.6-1.2-4.1c-0.1-0.2-0.2-0.4-0.2-0.6l-0.1-0.2L73.8,71c0-0.1-0.1-0.2-0.1-0.3c-0.2-0.4-0.3-0.9-0.5-1.4
			c-0.3-0.9-0.6-1.9-0.8-2.9c-0.5-2-0.9-4.2-1.2-6.6c-0.3-2.3-0.6-4.8-0.7-7.3c-0.1-1.3-0.1-2.6-0.2-3.9c0-0.7,0-1.3,0-2
			c0-0.7,0-1.4,0.1-2c0.2-2.7,0.7-5.4,1.4-8.1c0.8-2.6,1.8-5.2,3-7.6c1.2-2.4,2.6-4.7,4-6.7c1.4-2.1,2.9-4,4.4-5.8
			c1.5-1.8,3-3.3,4.4-4.8c2.9-2.8,5.4-5,7.3-6.4c0.9-0.7,1.7-1.3,2.2-1.6c0.3-0.2,0.5-0.3,0.6-0.4C97.7,3,97.8,3,97.8,3
			c-0.5,0.4-1,0.8-1.4,1.1c-0.5,0.4-0.9,0.8-1.4,1.2c-0.9,0.8-1.8,1.6-2.7,2.4c-1.3,1.1-2.5,2.2-3.7,3.4c-0.3,0.3-0.6,0.6-0.9,0.9
			l-0.9,0.9c-0.6,0.6-1.2,1.2-1.7,1.8l-0.8,0.9l-0.8,0.9L83,17l-0.4,0.5l-0.8,1c-0.3,0.3-0.5,0.7-0.8,1c-0.3,0.3-0.5,0.7-0.8,1
			c-0.5,0.7-1,1.3-1.5,2c-1.9,2.8-3.6,5.7-4.9,8.8c-1.3,3.1-2.4,6.3-2.9,9.7c-0.1,0.4-0.1,0.8-0.2,1.3l-0.1,1.3l-0.1,0.6
			c0,0.1,0,0.2,0,0.3l0,0.3l0,1.3l0,0.6c0,0.2,0,0.4,0,0.6c0,0.4,0,0.8,0,1.3c0,0.8,0.1,1.7,0.1,2.5c0.2,3.3,0.5,6.7,0.9,10
			c0.1,0.4,0.1,0.8,0.2,1.2l0.2,1.2l0.2,1.2l0.1,0.6c0,0.2,0.1,0.4,0.1,0.6l0.3,1.2c0,0.2,0.1,0.4,0.2,0.6l0.2,0.6l0.2,0.6l0.1,0.3
			l0.1,0.3l0.4,1.2l0.1,0.3l0.1,0.3c0.1,0.2,0.1,0.4,0.2,0.5c0.1,0.4,0.3,0.7,0.4,1.1c0.2,0.8,0.5,1.5,0.6,2.3
			c0.2,0.8,0.3,1.5,0.4,2.3C75.7,78.5,75.7,79.2,75.6,80z"/>
		<linearGradient id="SVGID_8_" gradientUnits="userSpaceOnUse" x1="70.6696" y1="39.3989" x2="92.0707" y2="39.3989">
			<stop  offset="0" style="stop-color:#0E0979"/>
			<stop  offset="1" style="stop-color:#9600FF"/>
		</linearGradient>
		<path class="st7" d="M74.2,70.8c-0.1-0.2-0.6-1.4-1.1-3.4c-0.5-2-1.1-4.7-1.6-8c-0.4-3.3-0.8-7.1-0.9-11.1c0-0.5,0-1,0-1.5
			c0-0.5,0-1,0.1-1.6c0-0.3,0-0.5,0-0.8c0-0.3,0.1-0.5,0.1-0.8c0.1-0.5,0.1-1.1,0.2-1.6c0.2-1.1,0.3-2.1,0.6-3.2l0.2-0.8l0.1-0.4
			l0.1-0.4l0.5-1.6c0.2-0.5,0.4-1,0.5-1.5l0.3-0.8l0.3-0.7c0.2-0.5,0.4-1,0.6-1.5c0.2-0.5,0.4-1,0.7-1.5l0.2-0.4l0.2-0.4
			c0.1-0.2,0.2-0.5,0.4-0.7c0.2-0.5,0.5-0.9,0.7-1.4c0.3-0.5,0.5-0.9,0.8-1.3c0.3-0.4,0.5-0.9,0.8-1.3c0.1-0.2,0.3-0.4,0.4-0.6
			c0.1-0.2,0.3-0.4,0.4-0.6c0.3-0.4,0.5-0.8,0.8-1.2c0.6-0.8,1.1-1.6,1.7-2.3c1.1-1.5,2.2-2.8,3.3-4c2.1-2.4,4.1-4.2,5.4-5.5
			c0.7-0.6,1.2-1.1,1.6-1.5c0.2-0.2,0.3-0.3,0.4-0.4C92,8.1,92.1,8,92.1,8c-1.4,1.3-2.7,2.7-4,4.1c-3.8,3.7-7.2,7.8-10.1,12.3
			c-1.4,2.2-2.7,4.6-3.8,7c-1.1,2.4-1.9,5-2.5,7.6c-0.6,2.6-0.9,5.3-0.9,8c0,2.7,0.2,5.3,0.4,8c0.2,2.7,0.5,5.3,1,7.9
			c0.1,0.7,0.3,1.3,0.4,2c0.1,0.3,0.1,0.7,0.2,1l0.2,1c0.1,0.3,0.2,0.6,0.3,1l0.3,1c0.1,0.3,0.2,0.6,0.3,1L74.2,70.8z"/>
		<linearGradient id="SVGID_9_" gradientUnits="userSpaceOnUse" x1="71.0993" y1="37.4923" x2="88.1448" y2="37.4923">
			<stop  offset="0" style="stop-color:#0E0979"/>
			<stop  offset="1" style="stop-color:#9600FF"/>
		</linearGradient>
		<path class="st8" d="M72.5,62.7c-0.1-0.3-0.8-3.9-1.1-9.2c-0.1-1.3-0.2-2.7-0.2-4.2c0-0.7,0-1.5-0.1-2.3c0-0.4,0-0.8,0-1.2
			c0-0.4,0-0.8,0-1.2c0.2-3.2,0.9-6.6,2-9.9c1.1-3.2,2.6-6.3,4.3-9.1c1.6-2.7,3.4-5.1,5-7.1c0.4-0.5,0.8-1,1.2-1.4
			c0.4-0.4,0.7-0.9,1.1-1.2c0.7-0.8,1.3-1.4,1.8-2c0.3-0.3,0.5-0.5,0.7-0.7c0.2-0.2,0.4-0.4,0.5-0.5c0.3-0.3,0.4-0.4,0.4-0.4
			l-0.8,0.9c-0.3,0.3-0.5,0.6-0.8,0.9c-0.5,0.6-1,1.2-1.5,1.8c-1.4,1.6-2.8,3.2-4.1,4.9c-1.3,1.7-2.5,3.4-3.6,5.3
			c-1.1,1.8-2.1,3.7-2.9,5.6L74,33c-0.1,0.2-0.2,0.5-0.3,0.7l-0.3,0.7l-0.3,0.7c-0.1,0.2-0.2,0.5-0.2,0.8l-0.4,1.5
			c-0.1,0.3-0.1,0.5-0.2,0.8L72.1,39l-0.2,0.8c-0.1,0.3-0.1,0.5-0.1,0.8l-0.3,1.6l-0.2,1.6c0,0.3-0.1,0.5-0.1,0.8l0,0.8
			c0,0.5,0,1.1-0.1,1.6c0,1.1,0,2.1,0.1,3.2c0.1,2.1,0.2,4.2,0.4,6.3C71.9,58.5,72.2,60.6,72.5,62.7z"/>
		<linearGradient id="SVGID_10_" gradientUnits="userSpaceOnUse" x1="71.4712" y1="37.2023" x2="84.3717" y2="37.2023">
			<stop  offset="0" style="stop-color:#0E0979"/>
			<stop  offset="1" style="stop-color:#9600FF"/>
		</linearGradient>
		<path class="st9" d="M72.2,57.6c0-0.1-0.1-0.9-0.2-2.2c-0.1-1.3-0.3-3.1-0.4-5.1c0-1-0.1-2.2-0.1-3.4c0-1.2,0-2.4,0.2-3.7
			c0.3-2.6,0.8-5.2,1.7-7.8c0.8-2.6,2-5.1,3.2-7.3c1.2-2.2,2.5-4.2,3.7-5.9c0.3-0.4,0.6-0.8,0.9-1.2c0.3-0.4,0.5-0.7,0.8-1
			c0.3-0.3,0.5-0.6,0.7-0.9c0.2-0.3,0.4-0.5,0.6-0.8c0.2-0.2,0.4-0.4,0.5-0.6c0.1-0.2,0.3-0.3,0.4-0.4c0.2-0.2,0.3-0.4,0.3-0.4
			l-0.6,0.7c-0.2,0.2-0.4,0.5-0.5,0.7c-0.4,0.5-0.7,1-1.1,1.5l-0.8,1c-0.3,0.3-0.5,0.7-0.7,1c-0.5,0.7-1,1.4-1.4,2.1
			c-0.2,0.3-0.5,0.7-0.7,1.1L77.9,26l-0.6,1.1c-0.2,0.4-0.4,0.7-0.6,1.1c-1.6,3-2.9,6.1-3.8,9.3c-0.1,0.4-0.2,0.8-0.3,1.2l-0.3,1.2
			c-0.1,0.4-0.1,0.8-0.2,1.2l-0.1,0.6c0,0.2-0.1,0.4-0.1,0.6l-0.1,1.3l-0.1,0.6c0,0.2,0,0.4,0,0.6l0,1.3c0,0.2,0,0.4,0,0.6l0,0.6
			C71.6,50.8,71.8,54.2,72.2,57.6z"/>
		<linearGradient id="SVGID_11_" gradientUnits="userSpaceOnUse" x1="71.8033" y1="37.04" x2="81.681" y2="37.04">
			<stop  offset="0" style="stop-color:#0E0979"/>
			<stop  offset="1" style="stop-color:#9600FF"/>
		</linearGradient>
		<path class="st10" d="M72.1,53.4c0-0.2-0.2-2.5-0.3-5.9c0-0.4,0-0.8,0-1.3c0-0.4,0-0.9,0-1.4c0-0.5,0.1-0.9,0.1-1.4
			c0-0.2,0-0.5,0.1-0.7c0-0.2,0-0.5,0.1-0.8c0.1-0.5,0.2-1,0.3-1.5c0-0.1,0-0.3,0.1-0.4c0-0.1,0.1-0.3,0.1-0.4
			c0.1-0.3,0.1-0.5,0.2-0.8c0.1-0.3,0.1-0.5,0.2-0.8c0-0.1,0.1-0.3,0.1-0.4l0.1-0.4c0.2-0.5,0.3-1,0.5-1.6c0.7-2.1,1.5-4,2.4-5.9
			c0.2-0.5,0.5-0.9,0.7-1.3c0.1-0.2,0.2-0.4,0.3-0.6c0.1-0.2,0.2-0.4,0.3-0.6c0.2-0.4,0.5-0.8,0.7-1.2c0.2-0.4,0.5-0.7,0.7-1.1
			c0.2-0.3,0.4-0.7,0.6-1c0.2-0.3,0.4-0.6,0.6-0.9c0.2-0.3,0.4-0.5,0.5-0.8c0.2-0.2,0.3-0.4,0.5-0.6c0.3-0.4,0.5-0.7,0.6-0.9
			c0.2-0.2,0.2-0.3,0.2-0.3c-0.3,0.4-0.5,0.8-0.8,1.2c-0.3,0.4-0.5,0.8-0.8,1.2c-1.5,2.2-2.9,4.5-4.1,6.9c-1.2,2.4-2.2,4.9-2.9,7.5
			c-0.7,2.6-1.1,5.2-1.3,7.9c0,0.7-0.1,1.3,0,2c0,0.7,0,1.3,0,2C71.9,50.7,72,52.1,72.1,53.4z"/>
		<linearGradient id="SVGID_12_" gradientUnits="userSpaceOnUse" x1="72.0612" y1="37.6273" x2="79.3383" y2="37.6273">
			<stop  offset="0" style="stop-color:#0E0979"/>
			<stop  offset="1" style="stop-color:#9600FF"/>
		</linearGradient>
		<path class="st11" d="M72.2,50.8c0-0.1,0-0.6-0.1-1.4c0-0.4,0-0.9,0-1.4c0-0.3,0-0.6,0-0.9c0-0.3,0-0.6,0-0.9c0-0.3,0-0.7,0-1
			c0-0.2,0-0.4,0-0.5c0-0.2,0-0.4,0-0.5c0-0.4,0.1-0.8,0.1-1.1c0-0.2,0-0.4,0.1-0.6c0-0.2,0.1-0.4,0.1-0.6c0.1-0.8,0.2-1.6,0.5-2.4
			c0.1-0.4,0.2-0.8,0.3-1.2c0.1-0.4,0.2-0.8,0.4-1.2c0.5-1.7,1.1-3.2,1.7-4.7c0.3-0.7,0.7-1.4,1-2.1c0.3-0.7,0.7-1.3,1-1.8
			c0.6-1.1,1.2-2,1.6-2.7c0.4-0.6,0.6-1,0.6-1c-0.4,0.7-0.8,1.3-1.1,2c-1.1,1.8-2.1,3.7-2.9,5.7l-0.6,1.5c-0.1,0.2-0.2,0.5-0.3,0.7
			l-0.3,0.8l-0.3,0.8c-0.1,0.3-0.2,0.5-0.2,0.8c-0.1,0.5-0.3,1-0.4,1.5l-0.4,1.5l-0.1,0.4l-0.1,0.4l-0.1,0.8c-0.2,1-0.3,2.1-0.4,3.1
			c0,0.5,0,1.1-0.1,1.6c0,0.3,0,0.5,0,0.8l0,0.8C72.1,48.7,72.1,49.7,72.2,50.8z"/>
	</g>
</g>
</svg>
