<?xml version="1.0" encoding="utf-8"?>
<!-- Generator: Adobe Illustrator 23.0.0, SVG Export Plug-In . SVG Version: 6.00 Build 0)  -->
<svg version="1.1" id="Layer_1" xmlns="http://www.w3.org/2000/svg" xmlns:xlink="http://www.w3.org/1999/xlink" x="0px" y="0px"
	 viewBox="0 0 62 59" style="enable-background:new 0 0 62 59;" xml:space="preserve">
<style type="text/css">
	.st0{fill:url(#SVGID_1_);}
	.st1{fill:url(#SVGID_2_);}
	.st2{fill:url(#SVGID_3_);}
	.st3{fill:url(#SVGID_4_);}
	.st4{fill:url(#SVGID_5_);}
	.st5{fill:url(#SVGID_6_);}
	.st6{fill:url(#SVGID_7_);}
	.st7{fill:url(#SVGID_8_);}
	.st8{fill:url(#SVGID_9_);}
	.st9{fill:url(#SVGID_10_);}
	.st10{fill:url(#SVGID_11_);}
	.st11{fill:url(#SVGID_12_);}
	.st12{fill:url(#SVGID_13_);}
	.st13{fill:url(#SVGID_14_);}
	.st14{fill:url(#SVGID_15_);}
	.st15{fill:url(#SVGID_16_);}
	.st16{fill:url(#SVGID_17_);}
	.st17{fill:url(#SVGID_18_);}
</style>
<g>
	<g>
		<linearGradient id="SVGID_1_" gradientUnits="userSpaceOnUse" x1="2.6494" y1="34.7279" x2="31.1466" y2="34.7279">
			<stop  offset="0" style="stop-color:#0E0979"/>
			<stop  offset="1" style="stop-color:#9600FF"/>
		</linearGradient>
		<path class="st0" d="M25.01,55.9c-0.07-0.13-0.33-0.55-0.72-1.25c-0.38-0.7-0.89-1.69-1.38-2.99c-0.11-0.33-0.25-0.66-0.35-1.03
			c-0.05-0.18-0.11-0.37-0.17-0.56c-0.05-0.19-0.1-0.39-0.15-0.59c-0.11-0.4-0.17-0.83-0.25-1.27c-0.03-0.22-0.06-0.45-0.09-0.68
			c-0.03-0.23-0.04-0.47-0.06-0.7c-0.12-1.9,0.16-4.12,1.11-6.25c0.23-0.53,0.5-1.06,0.8-1.57c0.3-0.52,0.63-1.02,0.99-1.51
			c0.36-0.49,0.74-0.97,1.13-1.43c0.39-0.47,0.8-0.92,1.13-1.35c0.7-0.88,1.32-1.9,1.87-2.97c0.55-1.07,1-2.22,1.35-3.42
			c0.34-1.2,0.59-2.44,0.68-3.71c0.08-1.27,0.05-2.56-0.14-3.84c-0.05-0.32-0.12-0.64-0.18-0.95l-0.09-0.48l-0.12-0.48
			c-0.17-0.64-0.35-1.28-0.57-1.89c-0.22-0.61-0.47-1.2-0.78-1.72c-0.15-0.26-0.31-0.5-0.49-0.71c-0.17-0.21-0.36-0.38-0.54-0.51
			c-0.37-0.25-0.67-0.3-1.09-0.2c-0.42,0.1-0.9,0.41-1.35,0.79c-0.22,0.19-0.44,0.41-0.65,0.63c-0.18,0.2-0.35,0.43-0.51,0.67
			c-0.31,0.49-0.57,1.05-0.79,1.65c-0.44,1.19-0.75,2.49-1.08,3.79c-0.32,1.3-0.65,2.6-1.04,3.88c-0.39,1.28-0.85,2.52-1.39,3.71
			c-0.13,0.3-0.28,0.59-0.42,0.88c-0.08,0.15-0.16,0.3-0.24,0.45c-0.08,0.15-0.16,0.3-0.25,0.43c-0.09,0.14-0.17,0.28-0.26,0.42
			c-0.09,0.13-0.18,0.27-0.27,0.4c-0.18,0.27-0.37,0.51-0.56,0.76c-0.76,0.99-1.56,1.87-2.35,2.7c-0.79,0.83-1.58,1.59-2.34,2.31
			c-3.08,2.87-5.8,5.02-7.71,6.52c-0.96,0.75-1.72,1.32-2.24,1.71c-0.53,0.39-0.81,0.6-0.81,0.6c1.96-1.6,3.84-3.24,5.69-4.93
			c1.34-1.1,2.67-2.22,3.96-3.38c1.29-1.16,2.55-2.37,3.75-3.65c1.18-1.3,2.35-2.63,3.24-4.27c0.84-1.59,1.46-3.25,1.98-4.93
			c0.52-1.68,0.92-3.38,1.35-5.03c0.22-0.82,0.45-1.63,0.74-2.4c0.28-0.76,0.63-1.49,1.07-2.08c0.11-0.15,0.23-0.29,0.35-0.42
			c0.14-0.14,0.28-0.28,0.42-0.41c0.28-0.26,0.58-0.5,0.89-0.68c0.3-0.18,0.61-0.31,0.9-0.36c0.29-0.06,0.55-0.02,0.8,0.08
			c0.51,0.2,1.01,0.75,1.39,1.41c0.39,0.65,0.69,1.42,0.96,2.19c0.13,0.39,0.25,0.79,0.35,1.19c0.06,0.2,0.1,0.4,0.15,0.61
			c0.05,0.2,0.09,0.41,0.13,0.61l0.11,0.6c0.04,0.2,0.08,0.4,0.1,0.61c0.04,0.41,0.1,0.81,0.13,1.22c0.11,1.63-0.02,3.28-0.37,4.89
			c-0.35,1.6-0.91,3.17-1.64,4.64c-0.09,0.19-0.18,0.37-0.28,0.55l-0.3,0.54c-0.22,0.35-0.42,0.71-0.65,1.04
			c-0.22,0.34-0.47,0.67-0.71,0.99l-0.38,0.47l-0.42,0.48c-1.16,1.31-2.29,2.78-3.1,4.45c-0.82,1.66-1.3,3.52-1.36,5.39
			c-0.03,0.93,0.03,1.87,0.17,2.78c0.14,0.92,0.38,1.81,0.65,2.68C23.29,52.73,24.09,54.36,25.01,55.9z"/>
		<linearGradient id="SVGID_2_" gradientUnits="userSpaceOnUse" x1="8.5465" y1="29.386" x2="31.6028" y2="29.386">
			<stop  offset="0" style="stop-color:#0E0979"/>
			<stop  offset="1" style="stop-color:#9600FF"/>
		</linearGradient>
		<path class="st1" d="M22.34,45.67c0.01-0.12,0-0.52,0.08-1.16c0.07-0.64,0.22-1.52,0.56-2.57c0.34-1.05,0.9-2.24,1.7-3.46
			c0.4-0.61,0.87-1.23,1.38-1.84c0.26-0.31,0.52-0.62,0.79-0.93c0.27-0.31,0.52-0.62,0.77-0.95c0.99-1.32,1.87-2.91,2.55-4.67
			c0.16-0.45,0.34-0.89,0.46-1.36c0.07-0.23,0.14-0.46,0.21-0.7c0.06-0.24,0.11-0.48,0.17-0.72l0.09-0.36l0.06-0.37
			c0.04-0.25,0.08-0.49,0.13-0.74c0.04-0.25,0.05-0.5,0.08-0.75l0.04-0.38l0.02-0.19l0.01-0.19c0.01-0.51,0.06-1.02,0.02-1.54
			c-0.01-0.26-0.02-0.52-0.03-0.78c-0.02-0.26-0.06-0.52-0.08-0.78l-0.04-0.39c-0.01-0.13-0.03-0.26-0.06-0.39
			c-0.05-0.26-0.1-0.52-0.15-0.78c-0.05-0.26-0.1-0.52-0.17-0.78c-0.06-0.26-0.13-0.52-0.21-0.78c-0.14-0.52-0.31-1.03-0.5-1.53
			c-0.19-0.5-0.4-0.98-0.65-1.44c-0.25-0.45-0.54-0.88-0.87-1.21c-0.17-0.16-0.35-0.31-0.54-0.42c-0.19-0.11-0.38-0.19-0.59-0.22
			c-0.4-0.07-0.84,0.01-1.27,0.21c-0.43,0.2-0.84,0.5-1.22,0.85c-0.19,0.17-0.38,0.36-0.55,0.55c-0.16,0.18-0.32,0.38-0.46,0.59
			c-0.28,0.41-0.52,0.87-0.72,1.35c-0.41,0.96-0.7,1.98-0.97,3.01c-0.26,1.04-0.52,2.06-0.78,3.07c-0.53,2.03-1.14,3.98-1.95,5.76
			c-0.1,0.22-0.2,0.44-0.31,0.66c-0.1,0.22-0.22,0.43-0.33,0.65c-0.11,0.22-0.24,0.42-0.37,0.62c-0.12,0.2-0.26,0.4-0.39,0.58
			c-0.53,0.76-1.08,1.45-1.64,2.08c-1.11,1.27-2.2,2.35-3.18,3.29c-0.98,0.93-1.86,1.72-2.59,2.36c-0.73,0.64-1.31,1.13-1.71,1.46
			c-0.4,0.33-0.61,0.51-0.61,0.51c1.47-1.36,2.91-2.75,4.29-4.19c1.01-0.94,2.01-1.91,2.95-2.93c0.23-0.26,0.47-0.51,0.7-0.78
			l0.34-0.39l0.33-0.41c0.22-0.27,0.43-0.55,0.64-0.83c0.1-0.14,0.2-0.29,0.3-0.43c0.1-0.14,0.2-0.29,0.29-0.44
			c0.09-0.15,0.19-0.3,0.28-0.45l0.26-0.47c0.16-0.31,0.31-0.63,0.46-0.94c0.29-0.63,0.56-1.28,0.8-1.93
			c0.48-1.31,0.88-2.65,1.23-3.98c0.36-1.34,0.67-2.68,1.05-3.99c0.19-0.65,0.4-1.3,0.67-1.91c0.26-0.61,0.57-1.2,0.97-1.71
			c0.09-0.13,0.21-0.25,0.31-0.37c0.12-0.12,0.23-0.24,0.35-0.35c0.24-0.23,0.49-0.44,0.75-0.63c0.52-0.37,1.11-0.65,1.68-0.66
			c0.57-0.02,1.12,0.24,1.56,0.68c0.44,0.43,0.8,0.99,1.09,1.58c0.59,1.19,0.97,2.5,1.28,3.82c0.28,1.32,0.46,2.66,0.46,4
			c-0.01,2.69-0.6,5.37-1.71,7.83c-0.55,1.23-1.21,2.41-2,3.5c-0.39,0.55-0.81,1.04-1.27,1.57c-0.46,0.52-0.91,1.07-1.33,1.63
			c-0.85,1.13-1.59,2.38-2.1,3.73c-0.26,0.67-0.47,1.37-0.6,2.08C22.45,44.23,22.36,44.95,22.34,45.67z"/>
		<linearGradient id="SVGID_3_" gradientUnits="userSpaceOnUse" x1="12.7338" y1="25.2386" x2="32.0383" y2="25.2386">
			<stop  offset="0" style="stop-color:#0E0979"/>
			<stop  offset="1" style="stop-color:#9600FF"/>
		</linearGradient>
		<path class="st2" d="M25.76,37.81c0.05-0.07,0.24-0.32,0.55-0.7c0.31-0.39,0.76-0.89,1.29-1.54c1.05-1.28,2.3-3.26,3.22-5.84
			c0.45-1.28,0.82-2.71,1-4.25c0.18-1.53,0.2-3.17-0.06-4.83c-0.27-1.65-0.7-3.35-1.39-4.95c-0.36-0.79-0.79-1.57-1.42-2.17
			c-0.31-0.29-0.68-0.54-1.09-0.65c-0.41-0.11-0.85-0.11-1.26,0.02c-0.83,0.24-1.54,0.81-2.16,1.42c-0.63,0.61-1.08,1.36-1.44,2.15
			c-0.35,0.79-0.61,1.62-0.85,2.44c-0.23,0.82-0.43,1.64-0.63,2.45c-0.4,1.61-0.81,3.17-1.3,4.62c-0.5,1.44-1.05,2.78-1.7,3.95
			c-0.68,1.15-1.45,2.11-2.15,2.92c-0.71,0.82-1.35,1.5-1.9,2.05c-0.54,0.55-0.98,0.97-1.28,1.26c-0.3,0.28-0.46,0.44-0.46,0.44
			c1.1-1.15,2.17-2.34,3.16-3.58c0.73-0.82,1.43-1.67,2.04-2.58c0.6-0.91,1.06-1.91,1.48-2.93c0.84-2.03,1.41-4.17,1.95-6.31
			c0.27-1.07,0.54-2.14,0.88-3.2c0.34-1.05,0.75-2.1,1.41-3.01c0.33-0.45,0.72-0.85,1.14-1.21c0.42-0.36,0.88-0.68,1.4-0.9
			c0.51-0.21,1.1-0.3,1.64-0.15c0.54,0.14,1.02,0.48,1.39,0.88c0.38,0.41,0.68,0.88,0.94,1.37c0.26,0.49,0.48,1,0.66,1.52
			c0.19,0.52,0.35,1.05,0.5,1.58c0.15,0.53,0.28,1.07,0.37,1.61c0.42,2.16,0.48,4.4,0.09,6.57l-0.15,0.81l-0.19,0.8
			c-0.06,0.27-0.14,0.53-0.22,0.8c-0.08,0.26-0.15,0.53-0.25,0.79c-0.36,1.04-0.81,2.05-1.32,3.02c-0.51,0.97-1.1,1.91-1.78,2.77
			c-0.34,0.43-0.7,0.84-1.07,1.26C26.45,36.94,26.09,37.37,25.76,37.81z"/>
		<linearGradient id="SVGID_4_" gradientUnits="userSpaceOnUse" x1="16.6679" y1="23.0262" x2="32.4242" y2="23.0262">
			<stop  offset="0" style="stop-color:#0E0979"/>
			<stop  offset="1" style="stop-color:#9600FF"/>
		</linearGradient>
		<path class="st3" d="M29.37,33.77c0.07-0.13,0.53-0.84,1.1-2.07c0.15-0.31,0.28-0.65,0.44-1.02c0.15-0.37,0.29-0.78,0.45-1.21
			c0.27-0.88,0.56-1.87,0.73-2.97c0.11-0.55,0.16-1.12,0.22-1.72c0.03-0.3,0.03-0.6,0.04-0.91c0.01-0.31,0.03-0.62,0.01-0.94
			c-0.01-0.32-0.02-0.64-0.04-0.96c-0.03-0.32-0.07-0.65-0.11-0.98c-0.02-0.16-0.04-0.33-0.06-0.5c-0.03-0.16-0.06-0.33-0.1-0.49
			c-0.07-0.33-0.13-0.66-0.2-1c-0.32-1.32-0.71-2.68-1.36-3.98c-0.17-0.32-0.35-0.64-0.56-0.95c-0.21-0.31-0.45-0.6-0.73-0.86
			c-0.28-0.26-0.61-0.49-0.98-0.64c-0.37-0.15-0.79-0.21-1.19-0.17c-0.81,0.07-1.5,0.47-2.09,0.91c-0.58,0.46-1.1,0.97-1.54,1.57
			c-0.42,0.6-0.74,1.25-1,1.9c-0.26,0.65-0.46,1.31-0.65,1.95c-0.36,1.29-0.65,2.54-0.96,3.72c-0.3,1.17-0.62,2.27-0.95,3.27
			c-0.33,1-0.69,1.89-1.04,2.66c-0.35,0.78-0.7,1.41-1.03,1.92c-0.17,0.25-0.32,0.47-0.46,0.67c-0.14,0.19-0.26,0.35-0.36,0.48
			c-0.1,0.13-0.18,0.23-0.23,0.29c-0.05,0.07-0.08,0.1-0.08,0.1c0.37-0.51,0.71-1.04,1.03-1.57c0.31-0.54,0.57-1.08,0.8-1.66
			c0.75-1.56,1.31-3.21,1.79-4.89c0.48-1.68,0.87-3.4,1.36-5.12c0.25-0.86,0.54-1.72,0.93-2.56c0.2-0.42,0.42-0.83,0.7-1.21
			c0.14-0.19,0.28-0.38,0.44-0.56c0.16-0.18,0.32-0.34,0.49-0.5c0.34-0.32,0.7-0.62,1.1-0.88c0.4-0.26,0.85-0.47,1.36-0.57
			c0.25-0.06,0.51-0.07,0.77-0.06c0.26,0.03,0.52,0.07,0.76,0.17c0.49,0.18,0.9,0.49,1.24,0.84c0.34,0.35,0.61,0.74,0.85,1.14
			c0.24,0.4,0.44,0.81,0.61,1.23c0.35,0.84,0.62,1.7,0.85,2.57c0.11,0.43,0.22,0.87,0.3,1.31c0.08,0.44,0.19,0.88,0.22,1.33
			c0.12,0.89,0.16,1.8,0.15,2.7c-0.03,1.8-0.33,3.59-0.86,5.31C31.04,30.6,30.31,32.25,29.37,33.77z"/>
		<linearGradient id="SVGID_5_" gradientUnits="userSpaceOnUse" x1="18.7741" y1="20.9234" x2="32.7765" y2="20.9234">
			<stop  offset="0" style="stop-color:#0E0979"/>
			<stop  offset="1" style="stop-color:#9600FF"/>
		</linearGradient>
		<path class="st4" d="M31.59,29.92c0.04-0.11,0.27-0.76,0.55-1.83c0.06-0.27,0.13-0.57,0.21-0.89c0.06-0.32,0.12-0.67,0.18-1.04
			c0.1-0.74,0.19-1.58,0.21-2.49c0.02-0.91-0.03-1.89-0.17-2.91c-0.02-0.13-0.03-0.26-0.05-0.39c-0.02-0.13-0.05-0.26-0.08-0.39
			c-0.05-0.26-0.1-0.52-0.15-0.79c-0.11-0.53-0.25-1.05-0.4-1.58c-0.32-1.06-0.7-2.16-1.3-3.22c-0.31-0.53-0.68-1.05-1.18-1.5
			c-0.49-0.45-1.18-0.82-1.93-0.87c-0.75-0.05-1.44,0.18-2.01,0.5c-0.57,0.32-1.05,0.72-1.48,1.14c-0.11,0.1-0.21,0.21-0.31,0.32
			c-0.1,0.11-0.21,0.23-0.31,0.35c-0.19,0.24-0.37,0.49-0.53,0.75c-0.31,0.51-0.56,1.04-0.77,1.56c-0.41,1.04-0.69,2.06-0.94,3.01
			c-0.24,0.94-0.46,1.84-0.67,2.66c-0.42,1.63-0.83,2.96-1.15,3.86c-0.16,0.45-0.3,0.81-0.4,1.05c-0.09,0.24-0.15,0.37-0.15,0.37
			c0.34-0.93,0.61-1.89,0.85-2.86c0.42-1.32,0.76-2.67,1.11-4.04c0.35-1.37,0.7-2.77,1.26-4.16c0.29-0.69,0.63-1.39,1.11-2.03
			l0.18-0.24l0.2-0.23c0.14-0.15,0.26-0.28,0.4-0.42c0.27-0.27,0.57-0.52,0.89-0.76c0.32-0.24,0.67-0.45,1.07-0.62
			c0.39-0.17,0.84-0.29,1.31-0.3c0.47-0.02,0.95,0.08,1.37,0.28c0.42,0.19,0.78,0.46,1.08,0.76c0.59,0.6,1.01,1.27,1.34,1.95
			c0.33,0.68,0.59,1.38,0.81,2.07c0.22,0.7,0.4,1.4,0.56,2.11l0.21,1.08c0.02,0.09,0.04,0.18,0.05,0.27l0.03,0.27l0.06,0.55
			C32.99,24.2,32.56,27.18,31.59,29.92z"/>
		<linearGradient id="SVGID_6_" gradientUnits="userSpaceOnUse" x1="19.9496" y1="19.4644" x2="33.0576" y2="19.4644">
			<stop  offset="0" style="stop-color:#0E0979"/>
			<stop  offset="1" style="stop-color:#9600FF"/>
		</linearGradient>
		<path class="st5" d="M32.63,27.28c0.01-0.05,0.04-0.21,0.08-0.47c0.02-0.13,0.05-0.29,0.08-0.46c0.03-0.18,0.07-0.38,0.09-0.6
			c0.02-0.22,0.05-0.47,0.08-0.74c0.01-0.13,0.03-0.27,0.04-0.41C33,24.45,33,24.3,33.01,24.15c0.01-0.3,0.03-0.63,0.03-0.97
			c-0.01-0.34-0.03-0.69-0.04-1.06c-0.1-1.47-0.39-3.17-0.92-4.88c-0.27-0.86-0.58-1.75-1.04-2.63c-0.23-0.44-0.5-0.88-0.84-1.3
			c-0.34-0.42-0.75-0.83-1.29-1.14c-0.54-0.31-1.21-0.48-1.85-0.43c-0.64,0.05-1.21,0.25-1.68,0.52c-0.48,0.26-0.89,0.58-1.26,0.9
			c-0.37,0.33-0.69,0.65-1.01,1.06c-0.31,0.39-0.56,0.8-0.77,1.2c-0.21,0.4-0.39,0.8-0.54,1.19c-0.31,0.78-0.52,1.51-0.71,2.18
			c-0.37,1.34-0.62,2.44-0.82,3.2c-0.19,0.76-0.31,1.19-0.31,1.19c0.17-0.78,0.32-1.58,0.47-2.38c0.28-1.1,0.56-2.21,0.94-3.34
			c0.38-1.12,0.86-2.3,1.71-3.35c0.11-0.13,0.22-0.26,0.33-0.38c0.11-0.11,0.21-0.23,0.33-0.33c0.22-0.22,0.47-0.43,0.73-0.63
			c0.52-0.4,1.12-0.77,1.86-0.97c0.37-0.1,0.78-0.15,1.19-0.12c0.41,0.03,0.82,0.15,1.18,0.32c0.73,0.35,1.24,0.88,1.65,1.41
			c0.41,0.54,0.71,1.09,0.97,1.65c0.26,0.56,0.47,1.12,0.66,1.69c0.18,0.57,0.34,1.13,0.48,1.7l0.1,0.43l0.09,0.44l0.17,0.88
			l0.04,0.22l0.02,0.22l0.05,0.44c0.03,0.3,0.07,0.59,0.09,0.89l0.03,0.89c0,0.15,0.01,0.3,0.01,0.45l-0.02,0.45l-0.03,0.89
			l-0.09,0.89l-0.05,0.44l-0.08,0.44L32.63,27.28z"/>
	</g>
	<g>
		<linearGradient id="SVGID_7_" gradientUnits="userSpaceOnUse" x1="40.077" y1="29.6257" x2="60.2909" y2="29.6257">
			<stop  offset="0" style="stop-color:#0E0979"/>
			<stop  offset="1" style="stop-color:#9600FF"/>
		</linearGradient>
		<path class="st6" d="M60.2,3.06c-0.05,0.03-0.13,0.08-0.24,0.15c-0.2,0.13-0.5,0.33-0.86,0.59c-0.73,0.52-1.76,1.31-2.97,2.38
			c-1.2,1.07-2.58,2.42-3.96,4.06c-1.38,1.64-2.78,3.58-4.02,5.77c-0.34,0.61-0.67,1.23-0.99,1.88c-0.04,0.03-0.14,0.11-0.29,0.23
			c-0.21,0.16-0.51,0.38-0.88,0.63c-0.37,0.25-0.81,0.53-1.28,0.77c-0.47,0.24-0.99,0.45-1.38,0.51c-0.55,0.05-1.12,0.09-1.59,0.02
			c-0.47-0.06-0.84-0.2-1.07-0.36c-0.23-0.15-0.34-0.32-0.4-0.44c-0.03-0.06-0.05-0.11-0.05-0.14c0-0.01,0-0.01-0.01-0.02l0,0l0,0
			l0,0l0,0l0,0v0l0,0l0,0c0,0,0,0.01,0,0.02c0,0.01,0,0.03,0.01,0.05c0.01,0.04,0.03,0.08,0.04,0.13c0.02,0.04,0.03,0.09,0.07,0.13
			l0.04,0.07l0.05,0.06c0.13,0.16,0.32,0.31,0.57,0.43c0.51,0.23,1.2,0.32,1.91,0.3l0.27-0.01c0.09,0,0.19,0,0.25-0.02
			c0.07-0.01,0.14-0.01,0.22-0.03l0.23-0.05c0.32-0.09,0.65-0.21,0.98-0.37c0.66-0.31,1.31-0.69,1.94-1.11
			c-0.03,0.06-0.06,0.13-0.08,0.19c-0.04,0.03-0.09,0.06-0.15,0.11c-0.18,0.12-0.43,0.3-0.74,0.49c-0.31,0.19-0.68,0.41-1.08,0.6
			c-0.4,0.19-0.84,0.37-1.24,0.44c-0.09,0.02-0.22,0.03-0.34,0.04c-0.12,0.01-0.24,0.02-0.35,0.03c-0.23,0.02-0.46,0-0.68,0.01
			c-0.43-0.03-0.83-0.08-1.14-0.2c-0.16-0.04-0.28-0.12-0.4-0.17c-0.11-0.07-0.2-0.12-0.28-0.18c-0.07-0.06-0.13-0.1-0.16-0.14
			c-0.03-0.04-0.06-0.06-0.06-0.07c0.07,0.09,0.16,0.17,0.25,0.25c0.1,0.07,0.19,0.15,0.31,0.21l0.17,0.09L41,20.47
			c0.06,0.02,0.12,0.05,0.19,0.07l0.2,0.05l0.2,0.05l0.21,0.03c0.14,0.02,0.28,0.05,0.43,0.05l0.44,0.02l0.45-0.02l0.23-0.01
			c0.07,0,0.14-0.02,0.21-0.02c0.14-0.01,0.28-0.05,0.42-0.08c0.14-0.04,0.28-0.09,0.42-0.13c0.14-0.06,0.28-0.1,0.42-0.17
			c0.55-0.24,1.09-0.54,1.61-0.86c-0.04,0.09-0.07,0.18-0.11,0.26c-0.15,0.1-0.36,0.23-0.63,0.39c-0.52,0.3-1.24,0.69-2.01,0.86
			c-0.78,0.13-1.61,0.14-2.21,0.04c-0.15-0.03-0.29-0.06-0.41-0.08c-0.12-0.04-0.22-0.07-0.31-0.1c-0.09-0.02-0.16-0.06-0.21-0.08
			c-0.05-0.02-0.08-0.04-0.09-0.04c0.43,0.22,0.92,0.37,1.42,0.42l0.19,0.03c0.06,0.01,0.13,0.01,0.19,0.01l0.38,0.02
			c0.25,0,0.5-0.02,0.76-0.02c0.51-0.03,1-0.19,1.48-0.39c0.45-0.19,0.88-0.41,1.3-0.64c-0.05,0.13-0.11,0.27-0.16,0.4
			c-0.1,0.06-0.21,0.12-0.34,0.19c-0.44,0.23-1.04,0.54-1.75,0.67c-0.09,0.01-0.18,0.03-0.26,0.04c-0.08,0.01-0.17,0.01-0.25,0.02
			c-0.17,0.01-0.33,0.03-0.49,0.04c-0.32-0.01-0.62,0.02-0.89-0.02c-0.13-0.01-0.25-0.02-0.36-0.03c-0.11-0.02-0.2-0.04-0.28-0.06
			c-0.11-0.02-0.19-0.04-0.24-0.05c0.82,0.25,1.67,0.27,2.5,0.21c0.45-0.04,0.89-0.16,1.29-0.3c0.33-0.12,0.65-0.27,0.95-0.42
			c-0.03,0.08-0.06,0.16-0.09,0.25c-0.09,0.05-0.21,0.11-0.34,0.17c-0.38,0.18-0.9,0.41-1.52,0.53c-0.08,0.01-0.16,0.03-0.23,0.04
			c-0.07,0.01-0.14,0.01-0.21,0.02c-0.14,0.01-0.27,0.02-0.41,0.03c-0.26,0.02-0.52,0.01-0.74,0.01c-0.22,0-0.41-0.03-0.55-0.04
			c-0.1-0.01-0.17-0.02-0.21-0.02c0.71,0.13,1.41,0.13,2.09,0.09c0.39-0.04,0.79-0.12,1.13-0.24c0.31-0.1,0.6-0.22,0.89-0.35
			c-0.03,0.1-0.07,0.19-0.1,0.29c-0.07,0.03-0.15,0.07-0.24,0.11c-0.33,0.13-0.77,0.31-1.34,0.39c-0.07,0.01-0.12,0.02-0.18,0.02
			l-0.17,0.01c-0.11,0.01-0.23,0.02-0.33,0.03c-0.21,0.02-0.43,0.01-0.61,0.02c-0.36,0.01-0.63-0.03-0.65-0.03
			c0.6,0.09,1.18,0.07,1.75,0.04c0.13,0,0.32-0.03,0.49-0.06c0.17-0.02,0.32-0.07,0.48-0.11c0.26-0.07,0.51-0.16,0.74-0.26
			c-0.17,0.5-0.34,1-0.49,1.52c-0.77,2.6-1.23,5.34-1.34,8.06c-0.12,2.72,0.09,5.39,0.49,7.89c0.11,0.62,0.21,1.24,0.33,1.85
			c0.14,0.6,0.28,1.19,0.42,1.77c0.07,0.29,0.13,0.58,0.22,0.86c0.08,0.28,0.17,0.56,0.25,0.83c0.17,0.57,0.34,1.13,0.5,1.67
			l0.1,0.21l0.06,0.12c0.04,0.08,0.08,0.17,0.12,0.25c0.08,0.17,0.15,0.34,0.22,0.51c0.14,0.34,0.27,0.67,0.38,1
			c0.23,0.66,0.42,1.3,0.56,1.91c0.28,1.22,0.38,2.31,0.35,3.2c-0.03,0.89-0.18,1.58-0.33,2.05c-0.15,0.47-0.29,0.74-0.31,0.82
			c0.71-1.43,0.81-3.2,0.56-4.93c-0.12-0.87-0.33-1.74-0.6-2.6c-0.13-0.43-0.28-0.85-0.45-1.27c-0.08-0.21-0.17-0.42-0.26-0.62
			l-0.14-0.3l-0.07-0.15l-0.11-0.22l-0.78-2.68c-0.21-0.89-0.41-1.77-0.61-2.66l-0.23-1.35l-0.11-0.67l-0.06-0.34
			c-0.02-0.11-0.03-0.23-0.04-0.34l-0.14-1.36l-0.07-0.68c-0.02-0.23-0.02-0.46-0.03-0.68l-0.06-1.37c0-0.11-0.01-0.23-0.01-0.34
			l0.01-0.34l0.01-0.69l0.01-0.68c0.01-0.23,0-0.46,0.03-0.68l0.11-1.37c0.02-0.23,0.03-0.46,0.06-0.68l0.1-0.68
			c0.07-0.45,0.12-0.91,0.2-1.36l0.27-1.34c0.05-0.22,0.08-0.45,0.15-0.67l0.18-0.66c0.44-1.77,1.08-3.49,1.81-5.16
			c0.73-1.67,1.62-3.27,2.6-4.8c1.97-3.06,4.39-5.81,7.12-8.19c0.57-0.6,1.17-1.18,1.79-1.74c0.31-0.28,0.63-0.56,0.95-0.83
			l0.49-0.4c0.17-0.13,0.33-0.26,0.53-0.4C60.29,3,60.26,3.02,60.2,3.06z"/>
		<linearGradient id="SVGID_8_" gradientUnits="userSpaceOnUse" x1="44.2071" y1="28.4524" x2="56.4226" y2="28.4524">
			<stop  offset="0" style="stop-color:#0E0979"/>
			<stop  offset="1" style="stop-color:#9600FF"/>
		</linearGradient>
		<path class="st7" d="M55.42,7.53c-0.62,0.61-1.53,1.49-2.54,2.67c-1.01,1.17-2.15,2.63-3.25,4.34c-1.1,1.71-2.16,3.68-3.03,5.84
			c-0.87,2.16-1.55,4.49-1.95,6.88c-0.4,2.39-0.52,4.81-0.44,7.11c0.03,0.58,0.05,1.15,0.09,1.71c0.06,0.56,0.13,1.11,0.19,1.65
			c0.04,0.27,0.05,0.54,0.1,0.8c0.05,0.26,0.09,0.52,0.14,0.78c0.09,0.52,0.18,1.02,0.27,1.52c0.12,0.49,0.23,0.96,0.34,1.42
			c0.05,0.23,0.11,0.46,0.16,0.68c0.05,0.22,0.1,0.45,0.17,0.66c0.26,0.87,0.5,1.67,0.72,2.4c0.04,0.09,0.09,0.17,0.13,0.26
			c0.03,0.07,0.07,0.14,0.1,0.21c0.06,0.14,0.13,0.28,0.19,0.42c0.12,0.27,0.22,0.54,0.32,0.79c0.19,0.5,0.33,0.94,0.44,1.31
			c0.22,0.75,0.32,1.21,0.34,1.31c-0.15-0.74-0.36-1.47-0.6-2.18c-0.12-0.36-0.25-0.71-0.4-1.07c-0.07-0.17-0.14-0.35-0.22-0.52
			l-0.12-0.26l-0.06-0.13l-0.08-0.17l-0.69-2.38l-0.08-0.29l-0.07-0.3l-0.14-0.59l-0.27-1.19c-0.1-0.39-0.16-0.8-0.23-1.2l-0.2-1.2
			c-0.03-0.2-0.07-0.4-0.09-0.6l-0.06-0.61l-0.13-1.21c-0.05-0.4-0.06-0.81-0.08-1.22l-0.05-1.22c-0.01-0.2-0.01-0.41-0.01-0.61
			l0.01-0.61l0.02-1.22l0.1-1.22l0.05-0.61l0.03-0.3l0.04-0.3l0.17-1.21c0.03-0.2,0.05-0.4,0.09-0.6l0.12-0.6l0.24-1.2
			c0.1-0.39,0.21-0.79,0.31-1.18c0.19-0.79,0.48-1.56,0.72-2.33c0.57-1.52,1.19-3.03,1.96-4.46l0.28-0.54l0.31-0.53
			c0.21-0.35,0.4-0.71,0.62-1.05l0.66-1.02c0.22-0.34,0.46-0.66,0.69-1c0.95-1.32,1.97-2.58,3.07-3.76c0.81-1.03,1.67-2.04,2.58-3
			c0,0-0.09,0.08-0.26,0.23C55.99,7,55.74,7.23,55.42,7.53z"/>
		<linearGradient id="SVGID_9_" gradientUnits="userSpaceOnUse" x1="44.68" y1="27.3441" x2="53.9605" y2="27.3441">
			<stop  offset="0" style="stop-color:#0E0979"/>
			<stop  offset="1" style="stop-color:#9600FF"/>
		</linearGradient>
		<path class="st8" d="M52.91,10.9c-0.65,0.78-1.55,1.9-2.52,3.35c-0.96,1.45-1.98,3.21-2.86,5.2c-0.89,1.99-1.63,4.21-2.12,6.5
			l-0.17,0.86c-0.05,0.29-0.12,0.57-0.15,0.86c-0.08,0.58-0.16,1.15-0.23,1.73c-0.04,0.58-0.08,1.15-0.13,1.71
			c-0.01,0.14-0.02,0.28-0.03,0.42c0,0.14,0,0.28,0,0.42c0,0.28-0.01,0.56-0.01,0.83c0,0.28-0.01,0.55-0.01,0.82
			c0,0.27,0.03,0.54,0.04,0.81c0.03,0.53,0.06,1.05,0.08,1.56c0.06,0.51,0.11,1,0.17,1.48c0.03,0.24,0.05,0.47,0.08,0.71
			c0.03,0.23,0.08,0.46,0.11,0.68c0.08,0.44,0.15,0.87,0.22,1.27c0.04,0.2,0.07,0.4,0.1,0.59c0.05,0.19,0.09,0.38,0.13,0.56
			c0.17,0.72,0.32,1.36,0.45,1.89c0.32,1.05,0.51,1.7,0.54,1.81l-0.3-1.04c-0.1-0.35-0.21-0.69-0.29-1.05l-0.49-2.11
			c-0.13-0.71-0.24-1.42-0.36-2.14c-0.07-0.35-0.1-0.72-0.14-1.07l-0.11-1.08c-0.26-2.88-0.18-5.78,0.27-8.63
			c0.04-0.36,0.12-0.71,0.19-1.06l0.22-1.06c0.03-0.18,0.08-0.35,0.13-0.52l0.14-0.52l0.28-1.04l0.34-1.03
			c0.11-0.34,0.22-0.69,0.36-1.02c0.27-0.67,0.51-1.35,0.82-1.99c0.15-0.33,0.29-0.66,0.45-0.98l0.5-0.96l0.25-0.48l0.27-0.47
			l0.54-0.93c0.77-1.21,1.57-2.41,2.47-3.53c0.28-0.44,0.58-0.86,0.88-1.29c0.3-0.43,0.62-0.84,0.93-1.26c0,0-0.1,0.11-0.28,0.31
			C53.51,10.23,53.24,10.52,52.91,10.9z"/>
		<linearGradient id="SVGID_10_" gradientUnits="userSpaceOnUse" x1="45.1016" y1="27.2836" x2="51.7269" y2="27.2836">
			<stop  offset="0" style="stop-color:#0E0979"/>
			<stop  offset="1" style="stop-color:#9600FF"/>
		</linearGradient>
		<path class="st9" d="M51,14.1c-0.11,0.17-0.25,0.34-0.37,0.55c-0.13,0.2-0.27,0.42-0.42,0.66c-0.31,0.46-0.62,1.01-0.96,1.61
			c-0.18,0.29-0.34,0.61-0.5,0.95c-0.17,0.33-0.35,0.67-0.52,1.03c-0.32,0.72-0.68,1.47-0.97,2.28c-0.33,0.8-0.58,1.65-0.86,2.51
			c-0.12,0.44-0.23,0.88-0.35,1.32c-0.06,0.22-0.12,0.44-0.17,0.67l-0.13,0.68l-0.13,0.68c-0.04,0.23-0.09,0.45-0.12,0.68
			c-0.06,0.46-0.12,0.91-0.18,1.36l-0.05,0.34c-0.01,0.11-0.02,0.23-0.03,0.34c-0.02,0.23-0.03,0.45-0.05,0.67
			c-0.02,0.22-0.03,0.45-0.05,0.67c-0.02,0.22-0.04,0.44-0.03,0.66c-0.04,1.75,0.02,3.39,0.17,4.8c0.04,0.35,0.08,0.69,0.12,1.02
			c0.04,0.32,0.06,0.63,0.12,0.92c0.1,0.58,0.19,1.09,0.27,1.52c0.04,0.21,0.07,0.41,0.1,0.58c0.04,0.17,0.07,0.32,0.1,0.44
			c0.06,0.25,0.1,0.4,0.11,0.45l-0.19-0.84l-0.14-0.85c-0.09-0.57-0.2-1.13-0.28-1.69l-0.18-1.71l-0.05-0.43
			c-0.01-0.14-0.01-0.29-0.02-0.43l-0.04-0.86c-0.09-2.28,0-4.57,0.39-6.82c0.37-2.25,0.97-4.46,1.8-6.58
			c0.83-2.12,1.88-4.15,3.11-6.06l0.29-0.55c0.1-0.18,0.2-0.36,0.31-0.54c0.21-0.35,0.41-0.72,0.63-1.07c0,0-0.07,0.09-0.2,0.26
			C51.41,13.52,51.23,13.78,51,14.1z"/>
		<linearGradient id="SVGID_11_" gradientUnits="userSpaceOnUse" x1="45.4669" y1="27.287" x2="50.2716" y2="27.287">
			<stop  offset="0" style="stop-color:#0E0979"/>
			<stop  offset="1" style="stop-color:#9600FF"/>
		</linearGradient>
		<path class="st10" d="M49.77,16.77c-0.33,0.54-0.74,1.35-1.22,2.32c-0.22,0.5-0.47,1.03-0.71,1.61c-0.11,0.29-0.23,0.59-0.34,0.9
			c-0.06,0.15-0.12,0.31-0.18,0.46c-0.06,0.16-0.11,0.32-0.16,0.48c-0.2,0.65-0.44,1.31-0.6,2.01c-0.09,0.35-0.18,0.7-0.27,1.05
			c-0.08,0.35-0.14,0.71-0.22,1.07l-0.11,0.54c-0.04,0.18-0.07,0.36-0.09,0.54c-0.05,0.36-0.1,0.72-0.15,1.08
			c-0.12,0.71-0.14,1.43-0.2,2.11c-0.01,0.17-0.03,0.34-0.04,0.51c-0.01,0.17-0.01,0.34-0.01,0.5c0,0.33-0.01,0.66-0.01,0.98
			c0,0.32-0.02,0.63,0,0.93c0.02,0.3,0.03,0.59,0.05,0.87c0.01,0.28,0.03,0.55,0.04,0.81c0.01,0.13,0.01,0.25,0.02,0.38
			c0.01,0.12,0.03,0.24,0.04,0.36c0.05,0.46,0.1,0.87,0.14,1.21c0.04,0.34,0.06,0.62,0.1,0.82c0.04,0.2,0.06,0.32,0.06,0.36
			c-0.57-3.59-0.54-7.25,0.02-10.81c0.02-0.11,0.03-0.22,0.05-0.33l0.07-0.33l0.14-0.66c0.09-0.44,0.17-0.89,0.3-1.32l0.35-1.31
			l0.42-1.28c0.6-1.7,1.31-3.36,2.18-4.94c0.12-0.3,0.27-0.59,0.4-0.89c0.14-0.29,0.27-0.6,0.42-0.89c0,0-0.05,0.07-0.14,0.22
			C50.05,16.27,49.93,16.49,49.77,16.77z"/>
		<linearGradient id="SVGID_12_" gradientUnits="userSpaceOnUse" x1="45.7594" y1="27.7836" x2="49.0895" y2="27.7836">
			<stop  offset="0" style="stop-color:#0E0979"/>
			<stop  offset="1" style="stop-color:#9600FF"/>
		</linearGradient>
		<path class="st11" d="M48.88,19.06c-0.04,0.09-0.09,0.19-0.14,0.31c-0.1,0.23-0.23,0.51-0.37,0.83c-0.07,0.16-0.15,0.33-0.22,0.51
			c-0.07,0.18-0.14,0.38-0.22,0.58c-0.63,1.6-1.33,3.8-1.7,6.09c-0.18,1.14-0.34,2.3-0.39,3.39c-0.02,0.27-0.04,0.54-0.06,0.81
			c0,0.26-0.01,0.52-0.01,0.78c0,0.51-0.02,0.99-0.01,1.43c0.05,0.89,0.08,1.65,0.12,2.19c0.06,0.54,0.1,0.88,0.11,0.94
			c-0.61-5.72,0.2-11.58,2.57-16.79c0.17-0.49,0.32-0.98,0.53-1.46c0,0-0.03,0.06-0.09,0.18C48.97,18.9,48.93,18.98,48.88,19.06z"/>
		<linearGradient id="SVGID_13_" gradientUnits="userSpaceOnUse" x1="41.1132" y1="21.3248" x2="41.152" y2="21.3248">
			<stop  offset="0" style="stop-color:#0E0979"/>
			<stop  offset="1" style="stop-color:#9600FF"/>
		</linearGradient>
		<path class="st12" d="M41.15,21.33c-0.01,0-0.03-0.01-0.04-0.01C41.12,21.32,41.13,21.33,41.15,21.33z"/>
		<linearGradient id="SVGID_14_" gradientUnits="userSpaceOnUse" x1="41.5753" y1="21.7982" x2="41.6066" y2="21.7982">
			<stop  offset="0" style="stop-color:#0E0979"/>
			<stop  offset="1" style="stop-color:#9600FF"/>
		</linearGradient>
		<path class="st13" d="M41.61,21.8c-0.01,0-0.02,0-0.03-0.01C41.58,21.8,41.59,21.8,41.61,21.8z"/>
	</g>
	<g>
		<linearGradient id="SVGID_15_" gradientUnits="userSpaceOnUse" x1="34.115" y1="49.12" x2="35.4415" y2="49.12">
			<stop  offset="0" style="stop-color:#0E0979"/>
			<stop  offset="1" style="stop-color:#9600FF"/>
		</linearGradient>
		<path class="st14" d="M34.88,54.3c0.01-0.01,0.02-0.05,0.06-0.12c0.02-0.03,0.04-0.07,0.06-0.12c0.02-0.05,0.04-0.11,0.06-0.17
			c0.09-0.25,0.18-0.63,0.24-1.11c0.12-0.96,0.06-2.3-0.11-3.62c-0.17-1.32-0.44-2.64-0.66-3.61c-0.11-0.49-0.22-0.89-0.29-1.17
			c-0.08-0.28-0.12-0.43-0.12-0.43c0.16,0.26,0.31,0.53,0.46,0.8c0.37,1.64,0.66,3.29,0.79,4.95c0.07,0.83,0.09,1.65,0.04,2.45
			c-0.03,0.4-0.08,0.79-0.16,1.16C35.17,53.67,35.05,54.03,34.88,54.3z"/>
		<linearGradient id="SVGID_16_" gradientUnits="userSpaceOnUse" x1="34.6502" y1="49.0668" x2="35.7159" y2="49.0668">
			<stop  offset="0" style="stop-color:#0E0979"/>
			<stop  offset="1" style="stop-color:#9600FF"/>
		</linearGradient>
		<path class="st15" d="M35.52,53.37c0.01-0.05,0.12-0.59,0.14-1.41c0.03-0.82-0.05-1.9-0.19-2.97c-0.14-1.07-0.35-2.13-0.52-2.92
			c-0.17-0.79-0.3-1.31-0.3-1.31l0.36,0.66c0.27,1.32,0.49,2.66,0.62,3.99c0.06,0.67,0.1,1.34,0.09,2
			C35.7,52.08,35.66,52.75,35.52,53.37z"/>
		<linearGradient id="SVGID_17_" gradientUnits="userSpaceOnUse" x1="35.1016" y1="48.9045" x2="35.9797" y2="48.9045">
			<stop  offset="0" style="stop-color:#0E0979"/>
			<stop  offset="1" style="stop-color:#9600FF"/>
		</linearGradient>
		<path class="st16" d="M35.93,52.4c0-0.04,0.04-0.5,0.02-1.17c-0.02-0.67-0.09-1.55-0.21-2.41c-0.23-1.73-0.64-3.41-0.64-3.41
			l0.28,0.54c0.21,1.07,0.37,2.14,0.48,3.22C35.97,50.24,36.03,51.33,35.93,52.4z"/>
		<linearGradient id="SVGID_18_" gradientUnits="userSpaceOnUse" x1="35.5099" y1="48.921" x2="36.2113" y2="48.921">
			<stop  offset="0" style="stop-color:#0E0979"/>
			<stop  offset="1" style="stop-color:#9600FF"/>
		</linearGradient>
		<path class="st17" d="M36.2,51.75c0-0.04,0-0.41-0.02-0.96c-0.03-0.54-0.09-1.25-0.19-1.95c-0.19-1.4-0.48-2.75-0.48-2.75
			l0.22,0.44C36.03,48.25,36.25,49.99,36.2,51.75z"/>
	</g>
</g>
</svg>
