<svg xmlns="http://www.w3.org/2000/svg" xmlns:xlink="http://www.w3.org/1999/xlink" viewBox="0 0 100 100"><defs><style>.a{clip-path:url(#b);}.b{fill:#0e62ac;}.c{fill:#fff;}</style><clipPath id="b"><rect width="100" height="100"/></clipPath></defs><g id="a" class="a"><rect class="c" width="100" height="100"/><g transform="translate(10.368 27.183)"><g transform="translate(-0.047)"><path class="b" d="M33.328,32.508a1.044,1.044,0,0,1-.975-.766.56.56,0,0,1,.557-.766,1.044,1.044,0,0,1,.975.766.538.538,0,0,1-.557.766ZM44.4,34.8l-.835-3.132a2.3,2.3,0,0,0,3.341-.209,2.526,2.526,0,0,0-.766-3.341l-14.13-11a2.4,2.4,0,0,0-3.411.139L26.854,19.7l-.209-.7a1.193,1.193,0,0,0-1.183-.905h-3.2a1.035,1.035,0,0,0-.975,1.323l1.6,5.777-2.3,3.134a2.526,2.526,0,0,0,.766,3.341,2.33,2.33,0,0,0,3.48-.279l1.044,3.828A2.388,2.388,0,0,0,28.038,36.9H33.4l-2.506-8.913h4.315a.462.462,0,0,1,.348.279l2.436,8.7h4.942A1.686,1.686,0,0,0,44.4,34.8Zm-7.449-7.031a1.927,1.927,0,0,0-1.741-1.393H30.753a1.341,1.341,0,0,0-1.323,1.741l2.018,7.17h-3.34a.827.827,0,0,1-.7-.557l-1.879-6.822-1.946,2.715c-.069.139-.975.069-1.253-.139-.557-.418-.7-1.044-.487-1.323l2.715-3.69-1.67-5.916h2.366l.971,3.48,3.55-4.942c.348-.418.975-.069,1.253.139l14.13,11.067c.557.418.7,1.044.487,1.323-.069.139-.905.139-1.253-.139L40.846,27.7l2.088,7.657h-3.9ZM81.359,0,68.2,46.221H10.984L.055,6.474A3.056,3.056,0,0,1,3.048,2.5H22.4a3.868,3.868,0,0,1,3.341,2.158L27.272,0ZM78.366,2.228H28.8l-1.811,5.5h2.924l.905-2.784H74.746l-9.6,33.969L56.928,9.254H24.7l-.98-3.407A1.552,1.552,0,0,0,22.33,4.733H2.979a.839.839,0,0,0-.835,1.114L12.652,43.994H66.533Z" transform="translate(0.047)"/></g></g></g></svg>