<?xml version="1.0" encoding="utf-8"?>
<!-- Generator: Adobe Illustrator 22.1.0, SVG Export Plug-In . SVG Version: 6.00 Build 0)  -->
<svg version="1.1" id="Layer_1" xmlns="http://www.w3.org/2000/svg" xmlns:xlink="http://www.w3.org/1999/xlink" x="0px" y="0px"
	 viewBox="0 0 148 119" style="enable-background:new 0 0 148 119;" xml:space="preserve">
<style type="text/css">
	.st0{fill:#0E62AC;}
</style>
<g>
	<g>
		<path class="st0" d="M64,75.3c-0.6,0-1.3-0.5-1.4-1.1c-0.2-0.6,0.2-1.1,0.8-1.1c0.6,0,1.3,0.5,1.4,1.1C65,74.8,64.7,75.3,64,75.3z
			 M79.9,78.6l-1.2-4.5c2.1,1.6,4.1,0.7,4.8-0.3c1-1.4,0.5-3.5-1.1-4.8L62.1,53.2c-0.8-0.6-3.1-1.9-4.9,0.2l-2.5,3.5l-0.3-1
			c-0.2-0.8-0.9-1.3-1.7-1.3h-4.6c-1.2,0-1.6,1.2-1.4,1.9l2.3,8.3l-3.3,4.5c-1,1.4-0.5,3.5,1.1,4.8c1.5,1.2,3.8,1.4,5-0.4
			c0,0,1.5,5.5,1.5,5.5c0.4,1.3,1.7,2.4,3.1,2.4h7.7l-3.6-12.8h6.2c0.2,0,0.4,0.2,0.5,0.4l3.5,12.5h7.1
			C79.5,81.5,80.3,79.9,79.9,78.6z M69.2,68.5c-0.3-1.1-1.4-2-2.5-2h-6.4c-1.7,0-2.2,1.6-1.9,2.5l2.9,10.3h-4.8
			c-0.4,0-0.9-0.4-1-0.8l-2.7-9.8L50,72.6c-0.1,0.2-1.4,0.1-1.8-0.2c-0.8-0.6-1-1.5-0.7-1.9l3.9-5.3L49,56.7h3.4l1.4,5l5.1-7.1
			c0.5-0.6,1.4-0.1,1.8,0.2L81,70.7c0.8,0.6,1,1.5,0.7,1.9c-0.1,0.2-1.3,0.2-1.8-0.2l-5.1-4c0,0,3,11,3,11c0,0-5.6,0-5.6,0
			L69.2,68.5z M133,28.6l-18.9,66.4H31.9L16.2,37.9c-0.6-2.4,0.6-5.7,4.3-5.7h27.8c2,0,3.9,1.3,4.8,3.1l2.2-6.7
			C55.2,28.6,133,28.6,133,28.6z M128.7,31.8H57.5l-2.6,7.9h4.2l1.3-4h63.1l-13.8,48.8L97.9,41.9H51.6L50.2,37
			c-0.2-0.9-1.2-1.6-2-1.6H20.4c-0.9,0-1.4,0.7-1.2,1.6l15.1,54.8h77.4L128.7,31.8z"/>
	</g>
</g>
</svg>
