<?xml version="1.0" encoding="UTF-8" standalone="no"?>
<svg width="59px" height="59px" viewBox="0 0 59 59" version="1.1" xmlns="http://www.w3.org/2000/svg" xmlns:xlink="http://www.w3.org/1999/xlink">
    <!-- Generator: Sketch 39.1 (31720) - http://www.bohemiancoding.com/sketch -->
    <title>Group 4</title>
    <desc>Created with Sketch.</desc>
    <defs></defs>
    <g id="Symbols" stroke="none" stroke-width="1" fill="none" fill-rule="evenodd">
        <g id="satisfaccion" transform="translate(-168.000000, 0.000000)">
            <g id="Page-1">
                <g id="Group-45" transform="translate(0.000000, 0.188000)">
                    <g id="Group-4" transform="translate(169.000000, 0.000000)">
                        <path d="M56.839,28.8535 C56.839,44.3405 44.284,56.8955 28.797,56.8955 C13.31,56.8955 0.756,44.3405 0.756,28.8535 C0.756,13.3665 13.31,0.8115 28.797,0.8115 C44.284,0.8115 56.839,13.3665 56.839,28.8535 L56.839,28.8535 Z" id="Stroke-8" stroke="#1B9FD8" stroke-width="2"></path>
                        <path d="M7.1794,29.1956 C7.1794,29.2486 7.1784,29.3026 7.1784,29.3566 C7.1784,40.8626 16.5064,50.1896 28.0124,50.1896 C39.5144,50.1896 48.8384,40.8686 48.8454,29.3686" id="Stroke-9" stroke="#1B9FD8" stroke-width="1.5"></path>
                        <path d="M21.8283,17.4272 C21.8283,18.5522 20.9163,19.4642 19.7913,19.4642 C18.6663,19.4642 17.7543,18.5522 17.7543,17.4272 C17.7543,16.3022 18.6663,15.3902 19.7913,15.3902 C20.9163,15.3902 21.8283,16.3022 21.8283,17.4272" id="Fill-10" fill="#1B9FD8"></path>
                        <path d="M39.56,17.4272 C39.56,18.5522 38.648,19.4642 37.523,19.4642 C36.398,19.4642 35.486,18.5522 35.486,17.4272 C35.486,16.3022 36.398,15.3902 37.523,15.3902 C38.648,15.3902 39.56,16.3022 39.56,17.4272" id="Fill-11" fill="#1B9FD8"></path>
                    </g>
                </g>
            </g>
        </g>
    </g>
</svg>