<?xml version="1.0" encoding="UTF-8" standalone="no"?>
<svg width="59px" height="59px" viewBox="0 0 59 59" version="1.1" xmlns="http://www.w3.org/2000/svg" xmlns:xlink="http://www.w3.org/1999/xlink">
    <!-- Generator: Sketch 39.1 (31720) - http://www.bohemiancoding.com/sketch -->
    <title>Group 5</title>
    <desc>Created with Sketch.</desc>
    <defs></defs>
    <g id="Symbols" stroke="none" stroke-width="1" fill="none" fill-rule="evenodd">
        <g id="satisfaccion" transform="translate(-9.000000, 0.000000)">
            <g id="Page-1">
                <g id="Group-45" transform="translate(0.000000, 0.188000)">
                    <g id="Group-5" transform="translate(10.000000, 0.000000)">
                        <path d="M28.1408,56.8955 C12.6538,56.8955 0.0988,44.3405 0.0988,28.8535 C0.0988,13.3665 12.6538,0.8115 28.1408,0.8115 C43.6278,0.8115 56.1828,13.3665 56.1828,28.8535 C56.1828,44.3405 43.6278,56.8955 28.1408,56.8955 Z" id="Stroke-4" stroke="#1B9FD8" stroke-width="2"></path>
                        <path d="M6.5223,29.3566 C6.5223,40.8626 15.8503,50.1896 27.3563,50.1896 C38.8583,50.1896 48.1823,40.8686 48.1893,29.3686 L6.5233,29.1956 C6.5233,29.2486 6.5223,29.3026 6.5223,29.3566 Z" id="Stroke-5" stroke="#1B9FD8" stroke-width="1.5"></path>
                        <path d="M21.1722,17.4272 C21.1722,18.5522 20.2602,19.4642 19.1352,19.4642 C18.0102,19.4642 17.0982,18.5522 17.0982,17.4272 C17.0982,16.3022 18.0102,15.3902 19.1352,15.3902 C20.2602,15.3902 21.1722,16.3022 21.1722,17.4272" id="Fill-6" fill="#1B9FD8"></path>
                        <path d="M38.9039,17.4272 C38.9039,18.5522 37.9919,19.4642 36.8669,19.4642 C35.7419,19.4642 34.8299,18.5522 34.8299,17.4272 C34.8299,16.3022 35.7419,15.3902 36.8669,15.3902 C37.9919,15.3902 38.9039,16.3022 38.9039,17.4272" id="Fill-7" fill="#1B9FD8"></path>
                    </g>
                </g>
            </g>
        </g>
    </g>
</svg>