<?xml version="1.0" encoding="UTF-8" standalone="no"?>
<svg width="59px" height="59px" viewBox="0 0 59 59" version="1.1" xmlns="http://www.w3.org/2000/svg" xmlns:xlink="http://www.w3.org/1999/xlink">
    <!-- Generator: Sketch 39.1 (31720) - http://www.bohemiancoding.com/sketch -->
    <title>Group 3</title>
    <desc>Created with Sketch.</desc>
    <defs></defs>
    <g id="Symbols" stroke="none" stroke-width="1" fill="none" fill-rule="evenodd">
        <g id="satisfaccion" transform="translate(-7.000000, -243.000000)">
            <g id="Page-1">
                <g id="Group-45" transform="translate(0.000000, 0.188000)">
                    <g id="Group-3" transform="translate(8.000000, 244.000000)">
                        <path d="M56.9419,28.0964 C56.9419,43.5834 44.3869,56.1384 28.8999,56.1384 C13.4129,56.1384 0.8589,43.5834 0.8589,28.0964 C0.8589,12.6094 13.4129,0.0544 28.8999,0.0544 C44.3869,0.0544 56.9419,12.6094 56.9419,28.0964 L56.9419,28.0964 Z" id="Stroke-13" stroke="#1B9FD8" stroke-width="2"></path>
                        <path d="M21.9313,16.6702 C21.9313,17.7952 21.0193,18.7072 19.8943,18.7072 C18.7693,18.7072 17.8573,17.7952 17.8573,16.6702 C17.8573,15.5452 18.7693,14.6332 19.8943,14.6332 C21.0193,14.6332 21.9313,15.5452 21.9313,16.6702" id="Fill-15" fill="#1B9FD8"></path>
                        <path d="M39.663,16.6702 C39.663,17.7952 38.751,18.7072 37.626,18.7072 C36.501,18.7072 35.589,17.7952 35.589,16.6702 C35.589,15.5452 36.501,14.6332 37.626,14.6332 C38.751,14.6332 39.663,15.5452 39.663,16.6702" id="Fill-17" fill="#1B9FD8"></path>
                        <path d="M7.6614,34.7815 C7.6614,34.7815 37.2584,22.4125 49.6264,34.7815" id="Stroke-19" stroke="#1B9FD8" stroke-width="1.5"></path>
                        <path d="M15.8336,12.5473 C15.8336,12.5473 17.2556,15.2713 19.8946,15.1973 C22.5336,15.1243 24.1526,13.3573 24.4476,12.9153" id="Stroke-21" stroke="#1B9FD8"></path>
                        <path d="M42.397,14.3451 C42.397,14.3451 42.816,11.3011 40.623,9.8321 C38.429,8.3631 36.085,8.8651 35.589,9.0541" id="Stroke-23" stroke="#1B9FD8"></path>
                    </g>
                </g>
            </g>
        </g>
    </g>
</svg>