<?xml version="1.0" encoding="UTF-8" standalone="no"?>
<svg width="59px" height="59px" viewBox="0 0 59 59" version="1.1" xmlns="http://www.w3.org/2000/svg" xmlns:xlink="http://www.w3.org/1999/xlink">
    <!-- Generator: Sketch 39.1 (31720) - http://www.bohemiancoding.com/sketch -->
    <title>Group</title>
    <desc>Created with Sketch.</desc>
    <defs></defs>
    <g id="Symbols" stroke="none" stroke-width="1" fill="none" fill-rule="evenodd">
        <g id="satisfaccion" transform="translate(-166.000000, -243.000000)">
            <g id="Page-1">
                <g id="Group-45" transform="translate(0.000000, 0.188000)">
                    <g id="Group" transform="translate(167.000000, 244.000000)">
                        <path d="M56.9959,28.0964 C56.9959,43.5834 44.4409,56.1384 28.9539,56.1384 C13.4669,56.1384 0.9129,43.5834 0.9129,28.0964 C0.9129,12.6094 13.4669,0.0544 28.9539,0.0544 C44.4409,0.0544 56.9959,12.6094 56.9959,28.0964 L56.9959,28.0964 Z" id="Stroke-31" stroke="#1B9FD8" stroke-width="2"></path>
                        <path d="M15.8875,12.5473 C15.8875,12.5473 17.3095,15.2713 19.9485,15.1973 C22.5875,15.1243 24.2065,13.3573 24.5015,12.9153" id="Stroke-37" stroke="#1B9FD8"></path>
                        <path d="M33.3731,12.5473 C33.3731,12.5473 34.7951,15.2713 37.4341,15.1973 C40.0731,15.1243 41.6921,13.3573 41.9871,12.9153" id="Stroke-39" stroke="#1B9FD8"></path>
                        <path d="M8.1457,41.751 C8.1457,41.751 14.2317,30.56 28.3677,30.462 C30.9197,30.364 41.3257,30.069 49.9637,41.751" id="Stroke-41" stroke="#1B9FD8" stroke-width="1.5"></path>
                        <path d="M21.9852,16.6702 C21.9852,17.7952 21.0732,18.7072 19.9482,18.7072 C18.8232,18.7072 17.9112,17.7952 17.9112,16.6702 C17.9112,15.5452 18.8232,14.6332 19.9482,14.6332 C21.0732,14.6332 21.9852,15.5452 21.9852,16.6702" id="Fill-33" fill="#1B9FD8"></path>
                        <path d="M39.717,16.6702 C39.717,17.7952 38.805,18.7072 37.68,18.7072 C36.555,18.7072 35.643,17.7952 35.643,16.6702 C35.643,15.5452 36.555,14.6332 37.68,14.6332 C38.805,14.6332 39.717,15.5452 39.717,16.6702" id="Fill-35" fill="#1B9FD8"></path>
                    </g>
                </g>
            </g>
        </g>
    </g>
</svg>