<?xml version="1.0" encoding="UTF-8" standalone="no"?>
<svg width="59px" height="59px" viewBox="0 0 59 59" version="1.1" xmlns="http://www.w3.org/2000/svg" xmlns:xlink="http://www.w3.org/1999/xlink">
    <!-- Generator: Sketch 39.1 (31720) - http://www.bohemiancoding.com/sketch -->
    <title>Group 2</title>
    <desc>Created with Sketch.</desc>
    <defs></defs>
    <g id="Symbols" stroke="none" stroke-width="1" fill="none" fill-rule="evenodd">
        <g id="satisfaccion" transform="translate(-88.000000, -119.000000)">
            <g id="Page-1">
                <g id="Group-45" transform="translate(0.000000, 0.188000)">
                    <g id="Group-2" transform="translate(89.000000, 120.000000)">
                        <path d="M56.9264,28.4077 C56.9264,43.8947 44.3714,56.4497 28.8844,56.4497 C13.3974,56.4497 0.8434,43.8947 0.8434,28.4077 C0.8434,12.9207 13.3974,0.3657 28.8844,0.3657 C44.3714,0.3657 56.9264,12.9207 56.9264,28.4077 L56.9264,28.4077 Z" id="Stroke-25" stroke="#1B9FD8" stroke-width="2"></path>
                        <path d="M21.9157,16.9814 C21.9157,18.1064 21.0037,19.0184 19.8787,19.0184 C18.7537,19.0184 17.8417,18.1064 17.8417,16.9814 C17.8417,15.8564 18.7537,14.9444 19.8787,14.9444 C21.0037,14.9444 21.9157,15.8564 21.9157,16.9814" id="Fill-27" fill="#1B9FD8"></path>
                        <path d="M37.6104,19.0184 C36.4854,19.0184 35.5734,18.1064 35.5734,16.9814 C35.5734,15.8564 36.4854,14.9444 37.6104,14.9444 C38.7354,14.9444 39.6474,15.8564 39.6474,16.9814 C39.6474,18.1064 38.7354,19.0184 37.6104,19.0184 Z" id="Fill-29" fill="#1B9FD8"></path>
                        <path d="M10.6836,38.7436 L46.1836,38.7436" id="Stroke-43" stroke="#1B9FD8" stroke-width="1.5"></path>
                    </g>
                </g>
            </g>
        </g>
    </g>
</svg>