<?xml version="1.0" encoding="utf-8"?>
<!-- Generator: Adobe Illustrator 22.1.0, SVG Export Plug-In . SVG Version: 6.00 Build 0)  -->
<svg version="1.1" id="Layer_1" xmlns="http://www.w3.org/2000/svg" xmlns:xlink="http://www.w3.org/1999/xlink" x="0px" y="0px"
	 viewBox="0 0 2317 712" style="enable-background:new 0 0 2317 712;" xml:space="preserve">
<style type="text/css">
	.st0{fill:#FFFFFF;}
	.st1{fill:#0061C0;}
	.st2{fill:#002269;}
	.st3{fill:url(#SVGID_1_);}
	.st4{fill:url(#SVGID_2_);}
	.st5{fill:url(#SVGID_3_);}
	.st6{fill:url(#SVGID_4_);}
	.st7{fill:url(#SVGID_5_);}
</style>
<path d="M1311.3,333.8c0.2,2.7,2,5,4.4,5.9c0.8,0.3,1.5,0.5,2.3,0.5c1.8,0,3.6-0.8,5-2.3l13.3-14.7l25.5,17.7
	c1.2,0.8,2.6,1.2,4.1,1.2c3.3,0,6.2-2.4,7-5.6l24.1-113.8c0.3-1.4-0.2-2.9-1.4-3.8c-1.1-0.9-2.6-1.1-3.9-0.6l-133.7,58.5
	c-2.7,1.2-4.4,3.9-4.2,7c0.2,3,2.1,5.5,5,6.4l51.1,15.5L1311.3,333.8z M1318.9,331.3l-1.1-21.1l12.4,8.6L1318.9,331.3z
	 M1365.7,334.2l-46.4-32l67.3-67.1L1365.7,334.2z M1378.6,232.4l-66.2,66.1l-50.3-15.2L1378.6,232.4z"/>
<path d="M1315.6,138.2c0.1,1.9,1.4,3.5,3,4.1c0.5,0.2,1.1,0.3,1.6,0.3c1.3,0,2.5-0.5,3.5-1.6l9.2-10.2l17.6,12.3
	c0.8,0.5,1.8,0.8,2.8,0.8c2.3,0,4.3-1.7,4.8-3.9l16.7-78.9c0.2-0.9-0.1-2-0.9-2.6c-0.7-0.6-1.8-0.7-2.7-0.4l-92.6,40.5
	c-1.9,0.8-3,2.7-2.9,4.8s1.5,3.8,3.5,4.4l35.4,10.7L1315.6,138.2z M1320.9,136.5l-0.7-14.6l8.6,6L1320.9,136.5z M1353.3,138.5
	l-32.1-22.2l46.6-46.5L1353.3,138.5z M1362.2,68l-45.9,45.8l-34.9-10.5L1362.2,68z"/>
<path class="st0" d="M1490.3,333.8c0.2,2.7,2,5,4.4,5.9c0.8,0.3,1.5,0.5,2.3,0.5c1.8,0,3.6-0.8,5-2.3l13.3-14.7l25.5,17.7
	c1.2,0.8,2.6,1.2,4.1,1.2c3.3,0,6.2-2.4,7-5.6l24.1-113.8c0.3-1.4-0.2-2.9-1.4-3.8c-1.1-0.9-2.6-1.1-3.9-0.6l-133.7,58.5
	c-2.7,1.2-4.4,3.9-4.2,7c0.2,3,2.1,5.5,5,6.4l51.1,15.5L1490.3,333.8z M1497.9,331.3l-1.1-21.1l12.4,8.6L1497.9,331.3z
	 M1544.7,334.2l-46.4-32l67.3-67.1L1544.7,334.2z M1557.6,232.4l-66.2,66.1l-50.3-15.2L1557.6,232.4z"/>
<path class="st0" d="M1494.6,138.2c0.1,1.9,1.4,3.5,3,4.1c0.5,0.2,1.1,0.3,1.6,0.3c1.3,0,2.5-0.5,3.5-1.6l9.2-10.2l17.6,12.3
	c0.8,0.5,1.8,0.8,2.8,0.8c2.3,0,4.3-1.7,4.8-3.9l16.7-78.9c0.2-0.9-0.1-2-0.9-2.6c-0.7-0.6-1.8-0.7-2.7-0.4l-92.6,40.5
	c-1.9,0.8-3,2.7-2.9,4.8s1.5,3.8,3.5,4.4l35.4,10.7L1494.6,138.2z M1499.9,136.5l-0.7-14.6l8.6,6L1499.9,136.5z M1532.3,138.5
	l-32.1-22.2l46.6-46.5L1532.3,138.5z M1541.2,68l-45.9,45.8l-34.9-10.5L1541.2,68z"/>
<g>
	<path d="M1676.1,88.6c0.4,0,0.8-0.2,1.2-0.4l14.8-10.5v103.9c0,1.2,0.8,2,2,2h114.4c1.2,0,2-0.8,2-2V77.7l14.4,10.5
		c0.4,0.2,0.8,0.2,1.2,0.2c0.6,0,1.2-0.2,1.6-0.8c0.6-0.8,0.4-2.2-0.4-2.8l-74.9-51.6c-0.6-0.4-1.6-0.4-2.2,0l-75.3,51.6
		c-1,0.6-1.2,1.8-0.4,2.8C1674.9,88.2,1675.5,88.6,1676.1,88.6z M1696.1,74.9l55.1-37.5l55.1,37.5v104.7h-110.2V74.9z"/>
	<path d="M1752.4,112.5V82c7.5,1,13.2,7.3,13.2,15c0,1.2,0.8,2,2,2s2-0.8,2-2c0-9.9-7.5-18.2-17.2-19.2v-5.3c0-1.2-0.8-2-2-2
		s-2,0.8-2,2v5.5c-9.7,1-17.2,9.1-17.2,19.2s7.5,18.2,17.2,19.2v30.2c-7.1-1.2-12.6-7.5-12.6-15c0-1.2-0.8-2-2-2c-1.2,0-2,0.8-2,2
		c0,9.7,7.1,17.6,16.6,19v5.7c0,1.2,0.8,2,2,2s2-0.8,2-2v-5.5c10.1-0.6,18-8.9,18-19.2S1762.3,113.1,1752.4,112.5z M1735.2,97.3
		c0-7.7,5.7-14,13.2-15v30.2C1740.9,111.3,1735.2,105,1735.2,97.3z M1752.4,146.6v-30.2c7.7,0.6,14,7.1,14,15.2
		C1766.4,139.7,1760.1,146.1,1752.4,146.6z"/>
</g>
<g>
	<path d="M2025.9,70.8h-22.4l19.5-11.9c4.8-2.8,6.4-9.3,3.4-14.1s-9.3-6.2-14.1-3.4l-48.2,29.4h-48V55.5c0-1.2-1-2-2-2
		c-10.7,0-19.3,8.7-19.3,19.3v81c0,10.5,8.7,19.1,19.3,19.1h111.6c1.2,0,2-0.8,2-2V72.9C2027.9,71.6,2027.1,70.8,2025.9,70.8z
		 M1960.4,78.5l5.8,9.5l-19.7,5.4L1960.4,78.5z M1970.1,86.4l-6.4-10.5l40.5-24.6l6.4,10.5L1970.1,86.4z M2014.4,44.9
		c2.8-1.8,6.6-0.8,8.5,2c1.8,2.8,0.8,6.6-2,8.5l-7.1,4.2l-6.4-10.5L2014.4,44.9z M1958.4,74.9L1938.7,96c-0.6,0.6-0.8,1.6-0.2,2.4
		c0.4,0.8,1.4,1.2,2.2,0.8l29.2-8.1l0,0c0.2,0,0.4-0.2,0.4-0.2l22.8-13.9v37.5h-76.8V74.9H1958.4z M1899,72.9
		c0-7.7,5.8-14.1,13.3-15.1v77c-5.4,0.6-10.1,3.4-13.3,7.5C1899,142.2,1899,72.9,1899,72.9z M1899,153.7c0-8.5,6.9-15.3,15.3-15.3
		c1.2,0,2-0.8,2-2v-17.9h79c1.2,0,2-0.8,2-2V74.9h26.6v25h-17.5c-1.2,0-2,0.8-2,2c0,1.2,0.8,2,2,2h17.5v28.6h-43.5c-1.2,0-2,0.8-2,2
		V169h-39.5v-32.4h27.8c1.2,0,2-0.8,2-2s-0.8-2-2-2h-29.8c-1.2,0-2,0.8-2,2V169h-20.6C1905.8,169,1899,162.1,1899,153.7z
		 M1982.4,169v-32.4h41.5V169H1982.4z"/>
</g>
<g>
	<g>
		<path d="M2120.7,70.3c-19.7,0-35.7,16-35.7,35.7c0,19.2,32.5,50.2,33.9,51.5l1.9,1.8l1.9-1.8c1.4-1.3,33.9-32.3,33.9-51.5
			C2156.4,86.3,2140.4,70.3,2120.7,70.3z M2120.7,151.6c-10-9.7-30.2-32.5-30.2-45.7c0-16.7,13.5-30.2,30.2-30.2
			s30.2,13.6,30.2,30.2C2150.9,119,2130.7,141.9,2120.7,151.6z"/>
		<path d="M2136.8,101.6c-1.5,0.1-2.6,1.5-2.4,3c0,0.5,0.1,0.9,0.1,1.4c0,7.6-6.2,13.7-13.7,13.7s-13.7-6.2-13.7-13.7
			s6.2-13.7,13.7-13.7c2.9,0,5.5,0.8,7.8,2.4c1.3,0.9,3,0.6,3.8-0.7c0.9-1.3,0.6-3-0.7-3.8c-3.2-2.3-7-3.4-11-3.4
			c-10.6,0-19.2,8.6-19.2,19.2s8.6,19.2,19.2,19.2s19.2-8.6,19.2-19.2c0-0.7,0-1.3-0.1-1.9C2139.7,102.5,2138.3,101.4,2136.8,101.6z
			"/>
	</g>
</g>
<g>
	<path d="M2268.3,128.8c2.7,2.8,4,6.7,3.4,10.5l-0.4,3c-1,6.8-7.4,11.6-14.2,10.6c-8.7-1.5-13.9-2.7-15.6-3.4
		c-9.2-2.9-18.3-8.8-25.9-16.7c-7.6-7.8-13.1-17.2-15.7-26.5c-0.7-1.7-1.6-7-2.8-15.7c-0.4-3.4,0.6-6.6,2.7-9.3
		c2.1-2.6,5.1-4.3,8.4-4.6l3.1-0.3c3.9-0.4,7.7,0.9,10.4,3.8l0,0c1.9,2,3.1,4.5,3.4,7.3l1.2,11c0.6,5.3-2.3,10.4-7,12.6
		c4.3,7.5,10.9,14.3,18.2,18.9c2.4-4.6,7.6-7.4,12.9-6.6l11,1.6C2263.9,125.5,2266.4,126.8,2268.3,128.8z M2218.4,130.1
		c7.1,7.4,15.8,12.9,24.3,15.7c0.2,0.1,0.4,0.1,0.5,0.2c0.9,0.4,8.1,1.9,14.4,3c4.6,0.7,8.9-2.5,9.6-7.2l0.5-3
		c0.4-2.6-0.5-5.2-2.3-7.2c-1.3-1.4-3-2.2-4.9-2.5l-11-1.6c-4.2-0.6-8.2,2-9.4,6.1c-0.2,0.6-0.6,1.1-1.2,1.3
		c-0.6,0.2-1.2,0.2-1.7-0.1c-9.4-5.2-18-14.1-22.8-23.7c-0.3-0.5-0.3-1.2,0-1.7c0.3-0.6,0.7-1,1.3-1.1c4.1-1,6.9-5,6.4-9.2l-1.2-11
		c-0.2-1.9-1-3.6-2.3-4.9c-1.9-1.9-4.4-2.9-7.1-2.6l-3.1,0.3c-2.2,0.3-4.3,1.4-5.7,3.2c-1.4,1.8-2.1,4-1.8,6.3
		c0.9,6.3,2.1,13.5,2.5,14.6c0.1,0.2,0.1,0.2,0.2,0.4C2206.1,113.9,2211.3,122.7,2218.4,130.1z"/>
</g>
<g>
	<path class="st0" d="M1676.1,324.6c0.4,0,0.8-0.2,1.2-0.4l14.8-10.5v103.9c0,1.2,0.8,2,2,2h114.4c1.2,0,2-0.8,2-2V313.7l14.4,10.5
		c0.4,0.2,0.8,0.2,1.2,0.2c0.6,0,1.2-0.2,1.6-0.8c0.6-0.8,0.4-2.2-0.4-2.8l-74.9-51.6c-0.6-0.4-1.6-0.4-2.2,0l-75.3,51.6
		c-1,0.6-1.2,1.8-0.4,2.8C1674.9,324.2,1675.5,324.6,1676.1,324.6z M1696.1,310.9l55.1-37.5l55.1,37.5v104.7h-110.2V310.9z"/>
	<path class="st0" d="M1752.4,348.5V318c7.5,1,13.2,7.3,13.2,15c0,1.2,0.8,2,2,2s2-0.8,2-2c0-9.9-7.5-18.2-17.2-19.2v-5.3
		c0-1.2-0.8-2-2-2s-2,0.8-2,2v5.5c-9.7,1-17.2,9.1-17.2,19.2s7.5,18.2,17.2,19.2v30.2c-7.1-1.2-12.6-7.5-12.6-15c0-1.2-0.8-2-2-2
		c-1.2,0-2,0.8-2,2c0,9.7,7.1,17.6,16.6,19v5.7c0,1.2,0.8,2,2,2s2-0.8,2-2v-5.5c10.1-0.6,18-8.9,18-19.2S1762.3,349.1,1752.4,348.5z
		 M1735.2,333.3c0-7.7,5.7-14,13.2-15v30.2C1740.9,347.3,1735.2,341,1735.2,333.3z M1752.4,382.6v-30.2c7.7,0.6,14,7.1,14,15.2
		S1760.1,382.1,1752.4,382.6z"/>
</g>
<g>
	<path class="st0" d="M2025.9,306.8h-22.4l19.5-11.9c4.8-2.8,6.4-9.3,3.4-14.1s-9.3-6.2-14.1-3.4l-48.2,29.4h-48v-15.3
		c0-1.2-1-2-2-2c-10.7,0-19.3,8.7-19.3,19.3v81c0,10.5,8.7,19.1,19.3,19.1h111.6c1.2,0,2-0.8,2-2v-98.1
		C2027.9,307.6,2027.1,306.8,2025.9,306.8z M1960.4,314.5l5.8,9.5l-19.7,5.4L1960.4,314.5z M1970.1,322.4l-6.4-10.5l40.5-24.6
		l6.4,10.5L1970.1,322.4z M2014.4,280.9c2.8-1.8,6.6-0.8,8.5,2c1.8,2.8,0.8,6.6-2,8.5l-7.1,4.2l-6.4-10.5L2014.4,280.9z
		 M1958.4,310.9l-19.7,21.2c-0.6,0.6-0.8,1.6-0.2,2.4c0.4,0.8,1.4,1.2,2.2,0.8l29.2-8.1l0,0c0.2,0,0.4-0.2,0.4-0.2l22.8-13.9v37.5
		h-76.8v-39.7H1958.4z M1899,308.9c0-7.7,5.8-14.1,13.3-15.1v77c-5.4,0.6-10.1,3.4-13.3,7.5C1899,378.2,1899,308.9,1899,308.9z
		 M1899,389.7c0-8.5,6.9-15.3,15.3-15.3c1.2,0,2-0.8,2-2v-17.9h79c1.2,0,2-0.8,2-2v-41.5h26.6v25h-17.5c-1.2,0-2,0.8-2,2s0.8,2,2,2
		h17.5v28.6h-43.5c-1.2,0-2,0.8-2,2V405h-39.5v-32.4h27.8c1.2,0,2-0.8,2-2c0-1.2-0.8-2-2-2h-29.8c-1.2,0-2,0.8-2,2V405h-20.6
		C1905.8,405,1899,398.1,1899,389.7z M1982.4,405v-32.4h41.5V405H1982.4z"/>
</g>
<g>
	<g>
		<path class="st0" d="M2120.7,306.3c-19.7,0-35.7,16-35.7,35.7c0,19.2,32.5,50.2,33.9,51.5l1.9,1.8l1.9-1.8
			c1.4-1.3,33.9-32.3,33.9-51.5C2156.4,322.3,2140.4,306.3,2120.7,306.3z M2120.7,387.6c-10-9.7-30.2-32.5-30.2-45.7
			c0-16.7,13.5-30.2,30.2-30.2s30.2,13.6,30.2,30.2C2150.9,355,2130.7,377.9,2120.7,387.6z"/>
		<path class="st0" d="M2136.8,337.6c-1.5,0.1-2.6,1.5-2.4,3c0,0.5,0.1,0.9,0.1,1.4c0,7.6-6.2,13.7-13.7,13.7s-13.7-6.2-13.7-13.7
			s6.2-13.7,13.7-13.7c2.9,0,5.5,0.8,7.8,2.4c1.3,0.9,3,0.6,3.8-0.7c0.9-1.3,0.6-3-0.7-3.8c-3.2-2.3-7-3.4-11-3.4
			c-10.6,0-19.2,8.6-19.2,19.2s8.6,19.2,19.2,19.2s19.2-8.6,19.2-19.2c0-0.7,0-1.3-0.1-1.9C2139.7,338.5,2138.3,337.4,2136.8,337.6z
			"/>
	</g>
</g>
<g>
	<path class="st0" d="M2268.3,364.8c2.7,2.8,4,6.7,3.4,10.5l-0.4,3c-1,6.8-7.4,11.6-14.2,10.6c-8.7-1.5-13.9-2.7-15.6-3.4
		c-9.2-2.9-18.3-8.8-25.9-16.7c-7.6-7.8-13.1-17.2-15.7-26.5c-0.7-1.7-1.6-7-2.8-15.7c-0.4-3.4,0.6-6.6,2.7-9.3
		c2.1-2.6,5.1-4.3,8.4-4.6l3.1-0.3c3.9-0.4,7.7,0.9,10.4,3.8l0,0c1.9,2,3.1,4.5,3.4,7.3l1.2,11c0.6,5.3-2.3,10.4-7,12.6
		c4.3,7.5,10.9,14.3,18.2,18.9c2.4-4.6,7.6-7.4,12.9-6.6l11,1.6C2263.9,361.5,2266.4,362.8,2268.3,364.8z M2218.4,366.1
		c7.1,7.4,15.8,12.9,24.3,15.7c0.2,0.1,0.4,0.1,0.5,0.2c0.9,0.4,8.1,1.9,14.4,3c4.6,0.7,8.9-2.5,9.6-7.2l0.5-3
		c0.4-2.6-0.5-5.2-2.3-7.2c-1.3-1.4-3-2.2-4.9-2.5l-11-1.6c-4.2-0.6-8.2,2-9.4,6.1c-0.2,0.6-0.6,1.1-1.2,1.3
		c-0.6,0.2-1.2,0.2-1.7-0.1c-9.4-5.2-18-14.1-22.8-23.7c-0.3-0.5-0.3-1.2,0-1.7c0.3-0.6,0.7-1,1.3-1.1c4.1-1,6.9-5,6.4-9.2l-1.2-11
		c-0.2-1.9-1-3.6-2.3-4.9c-1.9-1.9-4.4-2.9-7.1-2.6l-3.1,0.3c-2.2,0.3-4.3,1.4-5.7,3.2c-1.4,1.8-2.1,4-1.8,6.3
		c0.9,6.3,2.1,13.5,2.5,14.6c0.1,0.2,0.1,0.2,0.2,0.4C2206.1,349.9,2211.3,358.7,2218.4,366.1z"/>
</g>
<g>
	<path class="st1" d="M1676.1,548.6c0.4,0,0.8-0.2,1.2-0.4l14.8-10.5v103.9c0,1.2,0.8,2,2,2h114.4c1.2,0,2-0.8,2-2V537.7l14.4,10.5
		c0.4,0.2,0.8,0.2,1.2,0.2c0.6,0,1.2-0.2,1.6-0.8c0.6-0.8,0.4-2.2-0.4-2.8l-74.9-51.6c-0.6-0.4-1.6-0.4-2.2,0l-75.3,51.6
		c-1,0.6-1.2,1.8-0.4,2.8C1674.9,548.2,1675.5,548.6,1676.1,548.6z M1696.1,534.9l55.1-37.5l55.1,37.5v104.7h-110.2V534.9z"/>
	<path class="st1" d="M1752.4,572.5V542c7.5,1,13.2,7.3,13.2,15c0,1.2,0.8,2,2,2s2-0.8,2-2c0-9.9-7.5-18.2-17.2-19.2v-5.3
		c0-1.2-0.8-2-2-2s-2,0.8-2,2v5.5c-9.7,1-17.2,9.1-17.2,19.2s7.5,18.2,17.2,19.2v30.2c-7.1-1.2-12.6-7.5-12.6-15c0-1.2-0.8-2-2-2
		c-1.2,0-2,0.8-2,2c0,9.7,7.1,17.6,16.6,19v5.7c0,1.2,0.8,2,2,2s2-0.8,2-2v-5.5c10.1-0.6,18-8.9,18-19.2
		C1770.4,581.4,1762.3,573.1,1752.4,572.5z M1735.2,557.3c0-7.7,5.7-14,13.2-15v30.2C1740.9,571.3,1735.2,565,1735.2,557.3z
		 M1752.4,606.6v-30.2c7.7,0.6,14,7.1,14,15.2C1766.4,599.7,1760.1,606.1,1752.4,606.6z"/>
</g>
<g>
	<path class="st1" d="M2025.9,530.8h-22.4l19.5-11.9c4.8-2.8,6.4-9.3,3.4-14.1s-9.3-6.2-14.1-3.4l-48.2,29.4h-48v-15.3
		c0-1.2-1-2-2-2c-10.7,0-19.3,8.7-19.3,19.3v81c0,10.5,8.7,19.1,19.3,19.1h111.6c1.2,0,2-0.8,2-2v-98.1
		C2027.9,531.6,2027.1,530.8,2025.9,530.8z M1960.4,538.5l5.8,9.5l-19.7,5.4L1960.4,538.5z M1970.1,546.4l-6.4-10.5l40.5-24.6
		l6.4,10.5L1970.1,546.4z M2014.4,504.9c2.8-1.8,6.6-0.8,8.5,2c1.8,2.8,0.8,6.6-2,8.5l-7.1,4.2l-6.4-10.5L2014.4,504.9z
		 M1958.4,534.9l-19.7,21.2c-0.6,0.6-0.8,1.6-0.2,2.4c0.4,0.8,1.4,1.2,2.2,0.8l29.2-8.1l0,0c0.2,0,0.4-0.2,0.4-0.2l22.8-13.9v37.5
		h-76.8v-39.7H1958.4z M1899,532.9c0-7.7,5.8-14.1,13.3-15.1v77c-5.4,0.6-10.1,3.4-13.3,7.5C1899,602.2,1899,532.9,1899,532.9z
		 M1899,613.7c0-8.5,6.9-15.3,15.3-15.3c1.2,0,2-0.8,2-2v-17.9h79c1.2,0,2-0.8,2-2v-41.5h26.6v25h-17.5c-1.2,0-2,0.8-2,2s0.8,2,2,2
		h17.5v28.6h-43.5c-1.2,0-2,0.8-2,2V629h-39.5v-32.4h27.8c1.2,0,2-0.8,2-2c0-1.2-0.8-2-2-2h-29.8c-1.2,0-2,0.8-2,2V629h-20.6
		C1905.8,629,1899,622.1,1899,613.7z M1982.4,629v-32.4h41.5V629H1982.4z"/>
</g>
<g>
	<g>
		<path class="st1" d="M2120.7,530.3c-19.7,0-35.7,16-35.7,35.7c0,19.2,32.5,50.2,33.9,51.5l1.9,1.8l1.9-1.8
			c1.4-1.3,33.9-32.3,33.9-51.5C2156.4,546.3,2140.4,530.3,2120.7,530.3z M2120.7,611.6c-10-9.7-30.2-32.5-30.2-45.7
			c0-16.7,13.5-30.2,30.2-30.2s30.2,13.6,30.2,30.2C2150.9,579,2130.7,601.9,2120.7,611.6z"/>
		<path class="st1" d="M2136.8,561.6c-1.5,0.1-2.6,1.5-2.4,3c0,0.5,0.1,0.9,0.1,1.4c0,7.6-6.2,13.7-13.7,13.7s-13.7-6.2-13.7-13.7
			s6.2-13.7,13.7-13.7c2.9,0,5.5,0.8,7.8,2.4c1.3,0.9,3,0.6,3.8-0.7c0.9-1.3,0.6-3-0.7-3.8c-3.2-2.3-7-3.4-11-3.4
			c-10.6,0-19.2,8.6-19.2,19.2s8.6,19.2,19.2,19.2s19.2-8.6,19.2-19.2c0-0.7,0-1.3-0.1-1.9C2139.7,562.5,2138.3,561.4,2136.8,561.6z
			"/>
	</g>
</g>
<g>
	<path class="st1" d="M2268.3,588.8c2.7,2.8,4,6.7,3.4,10.5l-0.4,3c-1,6.8-7.4,11.6-14.2,10.6c-8.7-1.5-13.9-2.7-15.6-3.4
		c-9.2-2.9-18.3-8.8-25.9-16.7c-7.6-7.8-13.1-17.2-15.7-26.5c-0.7-1.7-1.6-7-2.8-15.7c-0.4-3.4,0.6-6.6,2.7-9.3
		c2.1-2.6,5.1-4.3,8.4-4.6l3.1-0.3c3.9-0.4,7.7,0.9,10.4,3.8l0,0c1.9,2,3.1,4.5,3.4,7.3l1.2,11c0.6,5.3-2.3,10.4-7,12.6
		c4.3,7.5,10.9,14.3,18.2,18.9c2.4-4.6,7.6-7.4,12.9-6.6l11,1.6C2263.9,585.5,2266.4,586.8,2268.3,588.8z M2218.4,590.1
		c7.1,7.4,15.8,12.9,24.3,15.7c0.2,0.1,0.4,0.1,0.5,0.2c0.9,0.4,8.1,1.9,14.4,3c4.6,0.7,8.9-2.5,9.6-7.2l0.5-3
		c0.4-2.6-0.5-5.2-2.3-7.2c-1.3-1.4-3-2.2-4.9-2.5l-11-1.6c-4.2-0.6-8.2,2-9.4,6.1c-0.2,0.6-0.6,1.1-1.2,1.3
		c-0.6,0.2-1.2,0.2-1.7-0.1c-9.4-5.2-18-14.1-22.8-23.7c-0.3-0.5-0.3-1.2,0-1.7c0.3-0.6,0.7-1,1.3-1.1c4.1-1,6.9-5,6.4-9.2l-1.2-11
		c-0.2-1.9-1-3.6-2.3-4.9c-1.9-1.9-4.4-2.9-7.1-2.6l-3.1,0.3c-2.2,0.3-4.3,1.4-5.7,3.2c-1.4,1.8-2.1,4-1.8,6.3
		c0.9,6.3,2.1,13.5,2.5,14.6c0.1,0.2,0.1,0.2,0.2,0.4C2206.1,573.9,2211.3,582.7,2218.4,590.1z"/>
</g>
<g>
	<g>
		<g>
			<path class="st2" d="M756.2,278.9h-2.1l-2.4-5.9h-11.4l-2.4,5.9h-2.1l10.2-25.1L756.2,278.9z M750.9,271.1l-4.9-12.2l-4.9,12.2
				H750.9z"/>
			<path class="st2" d="M755.2,261.5h1.9l5.3,13l5.3-13h1.9l-7.2,17.7L755.2,261.5z"/>
			<path class="st2" d="M780.1,279.1c-2.5,0-4.6-0.9-6.3-2.6c-1.7-1.7-2.6-3.8-2.6-6.3c0-2.5,0.9-4.6,2.6-6.3
				c1.7-1.7,3.8-2.6,6.3-2.6c2.8,0,5.2,1.1,7.1,3.4v-3.2h1.8v17.4h-1.8v-3.2C785.3,278,782.9,279.1,780.1,279.1z M780.1,263.1
				c-1.9,0-3.6,0.7-5,2.1c-1.4,1.4-2.1,3.1-2.1,5c0,1.9,0.7,3.6,2.1,5c1.4,1.4,3.1,2.1,5,2.1c1.9,0,3.6-0.7,5-2.1
				c1.4-1.4,2.1-3.1,2.1-5c0-1.9-0.7-3.6-2.1-5C783.7,263.8,782,263.1,780.1,263.1z"/>
			<path class="st2" d="M794.1,253.3h1.9v25.6h-1.9V253.3z"/>
			<path class="st2" d="M800.5,261.5h1.8v10.6c0,1.4,0.5,2.7,1.5,3.7c1,1,2.3,1.5,3.7,1.5s2.7-0.5,3.7-1.5c1-1,1.5-2.3,1.5-3.7
				v-10.6h1.8v17.4h-1.8v-2c-1.5,1.5-3.2,2.2-5.2,2.2c-1.9,0-3.6-0.7-5-2.1c-1.4-1.4-2.1-3-2.1-5V261.5z M810.8,251.9l1.5,1.1
				l-3.8,5.4l-1.5-1L810.8,251.9z"/>
			<path class="st2" d="M821.5,276.5c-1.7-1.7-2.6-3.8-2.6-6.3c0-2.5,0.9-4.6,2.6-6.3c1.7-1.7,3.8-2.6,6.3-2.6
				c2.5,0,4.6,0.9,6.3,2.6c1.7,1.7,2.6,3.8,2.6,6.3c0,2.5-0.9,4.6-2.6,6.3c-1.7,1.7-3.8,2.6-6.3,2.6
				C825.3,279.1,823.2,278.3,821.5,276.5z M822.8,265.2c-1.4,1.4-2.1,3.1-2.1,5s0.7,3.6,2.1,5c1.4,1.4,3.1,2.1,5,2.1s3.6-0.7,5-2.1
				c1.4-1.4,2.1-3.1,2.1-5s-0.7-3.6-2.1-5c-1.4-1.4-3.1-2.1-5-2.1S824.2,263.8,822.8,265.2z"/>
			<path class="st2" d="M846.5,279.1c-1.4,0-2.7-0.4-3.9-1c-1.4-0.8-2.2-1.8-2.6-3l1.8-0.5c0.2,0.8,0.9,1.5,1.9,2
				c0.8,0.5,1.8,0.7,2.8,0.7c0.1,0,0.3,0,0.4,0s0.3,0,0.5-0.1c0.5-0.1,0.9-0.2,1.2-0.4c1.1-0.5,1.7-1.4,1.8-2.7
				c0-0.7-0.1-1.2-0.6-1.7c-0.7-0.8-1.8-1.2-3.2-1.3c-2.6-0.2-4.5-0.8-5.6-1.9c-0.4-0.4-0.7-0.9-0.9-1.4c-0.1-0.4-0.2-0.9-0.2-1.3
				c0-1.6,0.6-2.9,1.9-3.8c1.2-0.9,2.5-1.3,4.2-1.3c1.9,0,3.5,0.7,4.8,2c0.4,0.4,0.8,0.9,1.1,1.5l0.2,0.3l-1.7,0.7l-0.1-0.1
				c-0.2-0.4-0.5-0.7-0.8-1c-1-1-2.1-1.5-3.6-1.5c-0.2,0-0.5,0-0.6,0.1c-0.5,0.1-0.9,0.2-1.3,0.4c-1.4,0.6-2.2,1.5-2.2,2.9
				c0,1,0.6,1.7,1.8,2.2c0.8,0.3,1.9,0.5,3.2,0.6c1.1,0.1,2.1,0.3,3,0.7c0.6,0.3,1.1,0.7,1.6,1.2c0.8,0.9,1.1,1.9,1,3.1
				c-0.1,1.6-0.8,2.8-2,3.6C849.3,278.8,848,279.1,846.5,279.1L846.5,279.1z"/>
			<path class="st2" d="M881,276.8l-1.4,1.3l-2.8-3l-1.3,1.3c-0.1,0.1-0.1,0.1-0.2,0.2c-0.5,0.5-1.1,1-1.7,1.3
				c-1.2,0.7-2.6,1.1-4,1.1c-2.2,0-4.1-0.8-5.7-2.3c-1.6-1.6-2.4-3.4-2.4-5.7c0-2.2,0.8-4.1,2.3-5.7c0.5-0.5,1.3-1.1,2.3-1.7
				l-0.7-0.9l-0.1-0.1c-0.7-0.9-1-1.9-1-3.1c0-1.4,0.5-2.7,1.5-3.7c1-1,2.2-1.5,3.7-1.5h0c1.4,0,2.7,0.5,3.7,1.5l-1.5,1.3
				c-0.5-0.5-1.3-0.8-2.2-0.8c-0.9,0-1.7,0.3-2.3,1c-0.6,0.7-1,1.4-1,2.3c0,0.8,0.3,1.5,0.8,2.2l9.7,10.7l1.5-1.5l1.2-1.2l1.3,1.3
				l-2.8,2.8L881,276.8z M875.5,273.6l-7.9-8.6c-1,0.4-1.8,0.9-2.4,1.5c-1.2,1.2-1.8,2.7-1.8,4.4c0,1.7,0.6,3.1,1.8,4.3
				c1.2,1.2,2.6,1.8,4.2,1.8c1.6,0,3.1-0.5,4.3-1.6c0,0,0.1-0.1,0.1-0.1c0,0,0.1-0.1,0.1-0.1L875.5,273.6z"/>
			<path class="st2" d="M910.1,278.9h-2.1l-2.4-5.9h-11.4l-2.4,5.9h-2.1l10.2-25.1L910.1,278.9z M904.9,271.1l-4.9-12.2l-4.9,12.2
				H904.9z"/>
			<path class="st2" d="M920.3,261.3v1.8h-0.1c-1.3,0-2.5,0.5-3.4,1.4c-1,0.9-1.4,2.1-1.4,3.4v10.9h-1.8v-17.4h1.8v1.9
				c0.6-0.7,1.3-1.2,2.2-1.5C918.4,261.5,919.3,261.3,920.3,261.3L920.3,261.3z"/>
			<path class="st2" d="M922.4,270.2c0-2.5,0.9-4.6,2.6-6.3c1.7-1.7,3.8-2.6,6.3-2.6c2.8,0,5.1,1.1,7.1,3.4v-3.2h1.8v24.3h-1.8
				v-10.1c-1.7,2.3-4,3.4-7.1,3.4c-2.5,0-4.6-0.9-6.3-2.6C923.2,274.8,922.4,272.7,922.4,270.2z M924.2,270.2c0,1.9,0.7,3.6,2.1,5
				c1.4,1.4,3.1,2.1,5,2.1s3.6-0.7,5-2.1c1.4-1.4,2.1-3.1,2.1-5s-0.7-3.6-2.1-5c-1.4-1.4-3.1-2.1-5-2.1s-3.6,0.7-5,2.1
				C924.9,266.6,924.2,268.3,924.2,270.2z"/>
			<path class="st2" d="M945.1,261.5h1.8v10.6c0,1.4,0.5,2.7,1.5,3.7c1,1,2.3,1.5,3.7,1.5s2.7-0.5,3.7-1.5c1-1,1.5-2.3,1.5-3.7
				v-10.6h1.8v17.4h-1.8v-2c-1.5,1.5-3.2,2.2-5.2,2.2c-1.9,0-3.6-0.7-5-2.1c-1.4-1.4-2.1-3-2.1-5V261.5z"/>
			<path class="st2" d="M964.3,257.2c-0.3-0.3-0.4-0.6-0.4-1c0-0.4,0.1-0.7,0.4-1c0.3-0.3,0.6-0.4,1-0.4c0.4,0,0.7,0.1,1,0.4
				c0.3,0.3,0.4,0.6,0.4,1c0,0.4-0.1,0.7-0.4,1c-0.3,0.3-0.6,0.4-1,0.4C964.9,257.6,964.6,257.5,964.3,257.2z M964.4,261.5h1.8v17.4
				h-1.8V261.5z"/>
			<path class="st2" d="M971,258.3h1.8v3.2h3.2v1.8h-3.2v10c0,1,0.3,1.9,1.1,2.6c0.7,0.7,1.4,1.1,2.2,1.1v1.8
				c-1.2,0-2.4-0.5-3.4-1.6c-1.1-1.1-1.6-2.4-1.6-3.9V258.3z"/>
			<path class="st2" d="M987.3,261.3c1.2,0,2.4,0.2,3.5,0.7c1.1,0.5,2,1.1,2.8,1.9c0.8,0.8,1.5,1.8,1.9,2.8c0.5,1.1,0.7,2.3,0.7,3.5
				v0.1h-15.9c0,0.9,0.2,1.8,0.6,2.7c0.4,0.8,0.9,1.6,1.5,2.2c0.6,0.6,1.4,1.1,2.2,1.5c0.9,0.4,1.8,0.6,2.7,0.6
				c1.3,0,2.6-0.3,3.7-1.1c1.1-0.7,1.9-1.6,2.5-2.7l1.7,0.8c-0.7,1.5-1.8,2.7-3.2,3.5c-1.4,0.9-3,1.4-4.7,1.4
				c-1.2,0-2.4-0.2-3.5-0.7c-1.1-0.5-2-1.1-2.8-1.9c-0.8-0.8-1.5-1.8-1.9-2.8c-0.5-1.1-0.7-2.3-0.7-3.5c0-1.2,0.2-2.4,0.7-3.5
				c0.5-1.1,1.1-2,1.9-2.8c0.8-0.8,1.8-1.5,2.8-1.9C984.9,261.5,986.1,261.3,987.3,261.3z M994.1,268.5c-0.4-1.5-1.2-2.8-2.5-3.8
				c-1.3-1-2.7-1.5-4.3-1.5s-3.1,0.5-4.3,1.5c-1.2,1-2.1,2.2-2.5,3.8H994.1z"/>
			<path class="st2" d="M1016,274.2c-0.7,1.5-1.8,2.7-3.2,3.5c-1.4,0.9-3,1.4-4.7,1.4c-1.2,0-2.4-0.2-3.5-0.7
				c-1.1-0.5-2-1.1-2.8-1.9c-0.8-0.8-1.5-1.8-1.9-2.8c-0.5-1.1-0.7-2.3-0.7-3.5c0-1.2,0.2-2.4,0.7-3.5c0.5-1.1,1.1-2,1.9-2.8
				c0.8-0.8,1.8-1.5,2.8-1.9c1.1-0.5,2.2-0.7,3.5-0.7c1.7,0,3.3,0.5,4.7,1.4c1.4,0.9,2.5,2.1,3.2,3.6l-1.7,0.7
				c-0.6-1.1-1.4-2-2.5-2.7c-1.1-0.7-2.4-1.1-3.7-1.1c-1,0-1.9,0.2-2.7,0.6c-0.8,0.4-1.6,0.9-2.2,1.5c-0.7,0.7-1.2,1.4-1.5,2.2
				c-0.4,0.9-0.6,1.8-0.6,2.7c0,1,0.2,1.9,0.6,2.7c0.3,0.8,0.8,1.6,1.5,2.2c0.6,0.7,1.4,1.2,2.2,1.5c0.9,0.4,1.8,0.6,2.7,0.6
				c1.3,0,2.6-0.3,3.7-1.1c1.1-0.7,1.9-1.6,2.5-2.7L1016,274.2z"/>
			<path class="st2" d="M1020,258.3h1.8v3.2h3.2v1.8h-3.2v10c0,1,0.3,1.9,1.1,2.6c0.7,0.7,1.4,1.1,2.2,1.1v1.8
				c-1.2,0-2.4-0.5-3.4-1.6c-1.1-1.1-1.6-2.4-1.6-3.9V258.3z"/>
			<path class="st2" d="M1030,276.5c-1.7-1.7-2.6-3.8-2.6-6.3c0-2.5,0.9-4.6,2.6-6.3c1.7-1.7,3.8-2.6,6.3-2.6c2.5,0,4.6,0.9,6.3,2.6
				c1.7,1.7,2.6,3.8,2.6,6.3c0,2.5-0.9,4.6-2.6,6.3c-1.7,1.7-3.8,2.6-6.3,2.6C1033.8,279.1,1031.7,278.3,1030,276.5z M1031.3,265.2
				c-1.4,1.4-2.1,3.1-2.1,5s0.7,3.6,2.1,5c1.4,1.4,3.1,2.1,5,2.1s3.6-0.7,5-2.1c1.4-1.4,2.1-3.1,2.1-5s-0.7-3.6-2.1-5
				c-1.4-1.4-3.1-2.1-5-2.1S1032.7,263.8,1031.3,265.2z"/>
			<path class="st2" d="M1054.9,279.1c-1.4,0-2.7-0.4-3.9-1c-1.4-0.8-2.2-1.8-2.6-3l1.8-0.5c0.2,0.8,0.9,1.5,1.9,2
				c0.8,0.5,1.8,0.7,2.8,0.7c0.1,0,0.3,0,0.4,0s0.3,0,0.5-0.1c0.5-0.1,0.9-0.2,1.2-0.4c1.1-0.5,1.7-1.4,1.8-2.7
				c0-0.7-0.1-1.2-0.6-1.7c-0.7-0.8-1.8-1.2-3.2-1.3c-2.6-0.2-4.5-0.8-5.6-1.9c-0.4-0.4-0.7-0.9-0.9-1.4c-0.1-0.4-0.2-0.9-0.2-1.3
				c0-1.6,0.6-2.9,1.9-3.8c1.2-0.9,2.5-1.3,4.2-1.3c1.9,0,3.5,0.7,4.8,2c0.4,0.4,0.8,0.9,1.1,1.5l0.2,0.3l-1.7,0.7l-0.1-0.1
				c-0.2-0.4-0.5-0.7-0.8-1c-1-1-2.1-1.5-3.6-1.5c-0.2,0-0.5,0-0.6,0.1c-0.5,0.1-0.9,0.2-1.3,0.4c-1.4,0.6-2.2,1.5-2.2,2.9
				c0,1,0.6,1.7,1.8,2.2c0.8,0.3,1.9,0.5,3.2,0.6c1.1,0.1,2.1,0.3,3,0.7c0.6,0.3,1.1,0.7,1.6,1.2c0.8,0.9,1.1,1.9,1,3.1
				c-0.1,1.6-0.8,2.8-2,3.6C1057.8,278.8,1056.5,279.1,1054.9,279.1L1054.9,279.1z"/>
		</g>
	</g>
	<linearGradient id="SVGID_1_" gradientUnits="userSpaceOnUse" x1="803.4347" y1="141.1742" x2="993.5692" y2="141.1742">
		<stop  offset="0" style="stop-color:#008AFF"/>
		<stop  offset="1" style="stop-color:#0041A6"/>
	</linearGradient>
	<path class="st3" d="M993.3,188.2l-77.7-128c-0.4-0.6-1.1-1-1.8-1H882h0c-0.2,0-0.4,0-0.5,0.1c-0.1,0-0.1,0.1-0.2,0.1
		c-0.1,0-0.2,0.1-0.3,0.1c-0.1,0-0.1,0.1-0.2,0.1c-0.1,0.1-0.2,0.1-0.3,0.2c0,0-0.1,0.1-0.1,0.2c-0.1,0.1-0.1,0.2-0.2,0.2l-76.5,128
		c-0.4,0.6-0.4,1.4-0.1,2.1l16.5,31.7c0.4,0.7,1.1,1.1,1.8,1.1c0,0,0,0,0,0h153.4l0,0c0,0,0.1,0,0.1,0c0.8,0,1.4-0.5,1.6-1.1l0,0
		l16.1-31.7l0,0C993.7,189.6,993.6,188.9,993.3,188.2 M887.2,160.8l9.4-16.7l10.7,16.7H887.2z"/>
	<path class="st2" d="M993.3,188.2l-77.7-128c-0.4-0.6-1.1-1-1.8-1H882h0c-0.2,0-0.4,0-0.5,0.1c-0.1,0-0.1,0.1-0.2,0.1
		c-0.1,0-0.2,0.1-0.3,0.1c-0.1,0-0.1,0.1-0.2,0.1c-0.1,0.1-0.2,0.1-0.3,0.2c0,0-0.1,0.1-0.1,0.2c-0.1,0.1-0.1,0.2-0.2,0.2l-76.5,128
		c-0.4,0.6-0.4,1.4-0.1,2.1l16.5,31.7c0.4,0.7,1.1,1.1,1.8,1.1c0,0,0,0,0,0h153.4l0,0c0,0,0.1,0,0.1,0c0.8,0,1.4-0.5,1.6-1.1l0,0
		l16.1-31.7l0,0C993.7,189.6,993.6,188.9,993.3,188.2 M885.8,63.4h26.7l75.2,123.8H872.4l13-22.2h57.5c0.8,0,1.5-0.4,1.8-1.1
		c0.4-0.7,0.4-1.5,0-2.1L885.8,63.4L885.8,63.4z M887.2,160.8l9.4-16.7l10.7,16.7H887.2z M808,189.4l74.1-124l57.2,95.4h-26.9
		l-28.4-44.4l0-0.1h0l0,0c-0.4-0.6-1.1-1.1-1.8-1c-0.7,0-1.4,0.4-1.8,1.1l-58.1,100.2L808,189.4z M974.1,218.9H825.7l49.5-85.4
		l6.9-11.9l11.7,18.8l-26.9,47.9l0,0c-0.4,0.6-0.4,1.4,0,2.1c0.4,0.7,1.1,1.1,1.8,1.1h0h59.4h31.7H988L974.1,218.9z"/>
</g>
<g>
	<g>
		<g>
			<path class="st2" d="M286.2,171h-2.1l-2.4-5.9h-11.4l-2.4,5.9h-2.1l10.2-25.1L286.2,171z M280.9,163.2L276,151l-4.9,12.2H280.9z"
				/>
			<path class="st2" d="M285.2,153.6h1.9l5.3,13l5.3-13h1.9l-7.2,17.7L285.2,153.6z"/>
			<path class="st2" d="M310.1,171.2c-2.5,0-4.6-0.9-6.3-2.6c-1.7-1.7-2.6-3.8-2.6-6.3c0-2.5,0.9-4.6,2.6-6.3
				c1.7-1.7,3.8-2.6,6.3-2.6c2.8,0,5.2,1.1,7.1,3.4v-3.2h1.8V171h-1.8v-3.2C315.3,170.1,312.9,171.2,310.1,171.2z M310.1,155.2
				c-1.9,0-3.6,0.7-5,2.1c-1.4,1.4-2.1,3.1-2.1,5c0,1.9,0.7,3.6,2.1,5c1.4,1.4,3.1,2.1,5,2.1c1.9,0,3.6-0.7,5-2.1
				c1.4-1.4,2.1-3.1,2.1-5c0-1.9-0.7-3.6-2.1-5C313.7,155.9,312,155.2,310.1,155.2z"/>
			<path class="st2" d="M324.1,145.4h1.9V171h-1.9V145.4z"/>
			<path class="st2" d="M330.5,153.6h1.8v10.6c0,1.4,0.5,2.7,1.5,3.7c1,1,2.3,1.5,3.7,1.5s2.7-0.5,3.7-1.5c1-1,1.5-2.3,1.5-3.7
				v-10.6h1.8V171h-1.8v-2c-1.5,1.5-3.2,2.2-5.2,2.2c-1.9,0-3.6-0.7-5-2.1c-1.4-1.4-2.1-3-2.1-5V153.6z M340.8,144l1.5,1.1l-3.8,5.4
				l-1.5-1L340.8,144z"/>
			<path class="st2" d="M351.5,168.6c-1.7-1.7-2.6-3.8-2.6-6.3c0-2.5,0.9-4.6,2.6-6.3c1.7-1.7,3.8-2.6,6.3-2.6
				c2.5,0,4.6,0.9,6.3,2.6c1.7,1.7,2.6,3.8,2.6,6.3c0,2.5-0.9,4.6-2.6,6.3c-1.7,1.7-3.8,2.6-6.3,2.6
				C355.3,171.2,353.2,170.4,351.5,168.6z M352.8,157.3c-1.4,1.4-2.1,3.1-2.1,5s0.7,3.6,2.1,5c1.4,1.4,3.1,2.1,5,2.1s3.6-0.7,5-2.1
				c1.4-1.4,2.1-3.1,2.1-5s-0.7-3.6-2.1-5c-1.4-1.4-3.1-2.1-5-2.1S354.2,155.9,352.8,157.3z"/>
			<path class="st2" d="M376.5,171.2c-1.4,0-2.7-0.4-3.9-1c-1.4-0.8-2.2-1.8-2.6-3l1.8-0.5c0.2,0.8,0.9,1.5,1.9,2
				c0.8,0.5,1.8,0.7,2.8,0.7c0.1,0,0.3,0,0.4,0s0.3,0,0.5-0.1c0.5-0.1,0.9-0.2,1.2-0.4c1.1-0.5,1.7-1.4,1.8-2.7
				c0-0.7-0.1-1.2-0.6-1.7c-0.7-0.8-1.8-1.2-3.2-1.3c-2.6-0.2-4.5-0.8-5.6-1.9c-0.4-0.4-0.7-0.9-0.9-1.4c-0.1-0.4-0.2-0.9-0.2-1.3
				c0-1.6,0.6-2.9,1.9-3.8c1.2-0.9,2.5-1.3,4.2-1.3c1.9,0,3.5,0.7,4.8,2c0.4,0.4,0.8,0.9,1.1,1.5l0.2,0.3l-1.7,0.7l-0.1-0.1
				c-0.2-0.4-0.5-0.7-0.8-1c-1-1-2.1-1.5-3.6-1.5c-0.2,0-0.5,0-0.6,0.1c-0.5,0.1-0.9,0.2-1.3,0.4c-1.4,0.6-2.2,1.5-2.2,2.9
				c0,1,0.6,1.7,1.8,2.2c0.8,0.3,1.9,0.5,3.2,0.6c1.1,0.1,2.1,0.3,3,0.7c0.6,0.3,1.1,0.7,1.6,1.2c0.8,0.9,1.1,1.9,1,3.1
				c-0.1,1.6-0.8,2.8-2,3.6C379.3,170.9,378,171.2,376.5,171.2L376.5,171.2z"/>
			<path class="st2" d="M411,168.9l-1.4,1.3l-2.8-3l-1.3,1.3c-0.1,0.1-0.1,0.1-0.2,0.2c-0.5,0.5-1.1,1-1.7,1.3
				c-1.2,0.7-2.6,1.1-4,1.1c-2.2,0-4.1-0.8-5.7-2.3c-1.6-1.6-2.4-3.4-2.4-5.7c0-2.2,0.8-4.1,2.3-5.7c0.5-0.5,1.3-1.1,2.3-1.7
				l-0.7-0.9l-0.1-0.1c-0.7-0.9-1-1.9-1-3.1c0-1.4,0.5-2.7,1.5-3.7c1-1,2.2-1.5,3.7-1.5h0c1.4,0,2.7,0.5,3.7,1.5l-1.5,1.3
				c-0.5-0.5-1.3-0.8-2.2-0.8c-0.9,0-1.7,0.3-2.3,1c-0.6,0.7-1,1.4-1,2.3c0,0.8,0.3,1.5,0.8,2.2l9.7,10.7l1.5-1.5l1.2-1.2l1.3,1.3
				l-2.8,2.8L411,168.9z M405.5,165.7l-7.9-8.6c-1,0.4-1.8,0.9-2.4,1.5c-1.2,1.2-1.8,2.7-1.8,4.4c0,1.7,0.6,3.1,1.8,4.3
				c1.2,1.2,2.6,1.8,4.2,1.8c1.6,0,3.1-0.5,4.3-1.6c0,0,0.1-0.1,0.1-0.1c0,0,0.1-0.1,0.1-0.1L405.5,165.7z"/>
			<path class="st2" d="M440.1,171h-2.1l-2.4-5.9h-11.4l-2.4,5.9h-2.1l10.2-25.1L440.1,171z M434.9,163.2L430,151l-4.9,12.2H434.9z"
				/>
			<path class="st2" d="M450.3,153.4v1.8h-0.1c-1.3,0-2.5,0.5-3.4,1.4c-1,0.9-1.4,2.1-1.4,3.4V171h-1.8v-17.4h1.8v1.9
				c0.6-0.7,1.3-1.2,2.2-1.5C448.4,153.6,449.3,153.4,450.3,153.4L450.3,153.4z"/>
			<path class="st2" d="M452.4,162.3c0-2.5,0.9-4.6,2.6-6.3c1.7-1.7,3.8-2.6,6.3-2.6c2.8,0,5.1,1.1,7.1,3.4v-3.2h1.8V178h-1.8v-10.1
				c-1.7,2.3-4,3.4-7.1,3.4c-2.5,0-4.6-0.9-6.3-2.6C453.2,166.9,452.4,164.8,452.4,162.3z M454.2,162.3c0,1.9,0.7,3.6,2.1,5
				c1.4,1.4,3.1,2.1,5,2.1s3.6-0.7,5-2.1c1.4-1.4,2.1-3.1,2.1-5s-0.7-3.6-2.1-5c-1.4-1.4-3.1-2.1-5-2.1s-3.6,0.7-5,2.1
				C454.9,158.7,454.2,160.4,454.2,162.3z"/>
			<path class="st2" d="M475.1,153.6h1.8v10.6c0,1.4,0.5,2.7,1.5,3.7c1,1,2.3,1.5,3.7,1.5s2.7-0.5,3.7-1.5c1-1,1.5-2.3,1.5-3.7
				v-10.6h1.8V171h-1.8v-2c-1.5,1.5-3.2,2.2-5.2,2.2c-1.9,0-3.6-0.7-5-2.1c-1.4-1.4-2.1-3-2.1-5V153.6z"/>
			<path class="st2" d="M494.3,149.3c-0.3-0.3-0.4-0.6-0.4-1c0-0.4,0.1-0.7,0.4-1c0.3-0.3,0.6-0.4,1-0.4c0.4,0,0.7,0.1,1,0.4
				c0.3,0.3,0.4,0.6,0.4,1c0,0.4-0.1,0.7-0.4,1c-0.3,0.3-0.6,0.4-1,0.4C494.9,149.7,494.6,149.6,494.3,149.3z M494.4,153.6h1.8V171
				h-1.8V153.6z"/>
			<path class="st2" d="M501,150.4h1.8v3.2h3.2v1.8h-3.2v10c0,1,0.3,1.9,1.1,2.6c0.7,0.7,1.4,1.1,2.2,1.1v1.8
				c-1.2,0-2.4-0.5-3.4-1.6c-1.1-1.1-1.6-2.4-1.6-3.9V150.4z"/>
			<path class="st2" d="M517.3,153.4c1.2,0,2.4,0.2,3.5,0.7c1.1,0.5,2,1.1,2.8,1.9c0.8,0.8,1.5,1.8,1.9,2.8c0.5,1.1,0.7,2.3,0.7,3.5
				v0.1h-15.9c0,0.9,0.2,1.8,0.6,2.7c0.4,0.8,0.9,1.6,1.5,2.2c0.6,0.6,1.4,1.1,2.2,1.5c0.9,0.4,1.8,0.6,2.7,0.6
				c1.3,0,2.6-0.3,3.7-1.1c1.1-0.7,1.9-1.6,2.5-2.7l1.7,0.8c-0.7,1.5-1.8,2.7-3.2,3.5c-1.4,0.9-3,1.4-4.7,1.4
				c-1.2,0-2.4-0.2-3.5-0.7c-1.1-0.5-2-1.1-2.8-1.9c-0.8-0.8-1.5-1.8-1.9-2.8c-0.5-1.1-0.7-2.3-0.7-3.5c0-1.2,0.2-2.4,0.7-3.5
				c0.5-1.1,1.1-2,1.9-2.8c0.8-0.8,1.8-1.5,2.8-1.9C514.9,153.6,516.1,153.4,517.3,153.4z M524.1,160.6c-0.4-1.5-1.2-2.8-2.5-3.8
				c-1.3-1-2.7-1.5-4.3-1.5s-3.1,0.5-4.3,1.5c-1.2,1-2.1,2.2-2.5,3.8H524.1z"/>
			<path class="st2" d="M546,166.3c-0.7,1.5-1.8,2.7-3.2,3.5c-1.4,0.9-3,1.4-4.7,1.4c-1.2,0-2.4-0.2-3.5-0.7c-1.1-0.5-2-1.1-2.8-1.9
				c-0.8-0.8-1.5-1.8-1.9-2.8c-0.5-1.1-0.7-2.3-0.7-3.5c0-1.2,0.2-2.4,0.7-3.5c0.5-1.1,1.1-2,1.9-2.8c0.8-0.8,1.8-1.5,2.8-1.9
				c1.1-0.5,2.2-0.7,3.5-0.7c1.7,0,3.3,0.5,4.7,1.4c1.4,0.9,2.5,2.1,3.2,3.6l-1.7,0.7c-0.6-1.1-1.4-2-2.5-2.7
				c-1.1-0.7-2.4-1.1-3.7-1.1c-1,0-1.9,0.2-2.7,0.6c-0.8,0.4-1.6,0.9-2.2,1.5c-0.7,0.7-1.2,1.4-1.5,2.2c-0.4,0.9-0.6,1.8-0.6,2.7
				c0,1,0.2,1.9,0.6,2.7c0.3,0.8,0.8,1.6,1.5,2.2c0.6,0.7,1.4,1.2,2.2,1.5c0.9,0.4,1.8,0.6,2.7,0.6c1.3,0,2.6-0.3,3.7-1.1
				c1.1-0.7,1.9-1.6,2.5-2.7L546,166.3z"/>
			<path class="st2" d="M550,150.4h1.8v3.2h3.2v1.8h-3.2v10c0,1,0.3,1.9,1.1,2.6c0.7,0.7,1.4,1.1,2.2,1.1v1.8
				c-1.2,0-2.4-0.5-3.4-1.6c-1.1-1.1-1.6-2.4-1.6-3.9V150.4z"/>
			<path class="st2" d="M560,168.6c-1.7-1.7-2.6-3.8-2.6-6.3c0-2.5,0.9-4.6,2.6-6.3c1.7-1.7,3.8-2.6,6.3-2.6c2.5,0,4.6,0.9,6.3,2.6
				c1.7,1.7,2.6,3.8,2.6,6.3c0,2.5-0.9,4.6-2.6,6.3c-1.7,1.7-3.8,2.6-6.3,2.6C563.8,171.2,561.7,170.4,560,168.6z M561.3,157.3
				c-1.4,1.4-2.1,3.1-2.1,5s0.7,3.6,2.1,5c1.4,1.4,3.1,2.1,5,2.1s3.6-0.7,5-2.1c1.4-1.4,2.1-3.1,2.1-5s-0.7-3.6-2.1-5
				c-1.4-1.4-3.1-2.1-5-2.1S562.7,155.9,561.3,157.3z"/>
			<path class="st2" d="M584.9,171.2c-1.4,0-2.7-0.4-3.9-1c-1.4-0.8-2.2-1.8-2.6-3l1.8-0.5c0.2,0.8,0.9,1.5,1.9,2
				c0.8,0.5,1.8,0.7,2.8,0.7c0.1,0,0.3,0,0.4,0s0.3,0,0.5-0.1c0.5-0.1,0.9-0.2,1.2-0.4c1.1-0.5,1.7-1.4,1.8-2.7
				c0-0.7-0.1-1.2-0.6-1.7c-0.7-0.8-1.8-1.2-3.2-1.3c-2.6-0.2-4.5-0.8-5.6-1.9c-0.4-0.4-0.7-0.9-0.9-1.4c-0.1-0.4-0.2-0.9-0.2-1.3
				c0-1.6,0.6-2.9,1.9-3.8c1.2-0.9,2.5-1.3,4.2-1.3c1.9,0,3.5,0.7,4.8,2c0.4,0.4,0.8,0.9,1.1,1.5l0.2,0.3l-1.7,0.7l-0.1-0.1
				c-0.2-0.4-0.5-0.7-0.8-1c-1-1-2.1-1.5-3.6-1.5c-0.2,0-0.5,0-0.6,0.1c-0.5,0.1-0.9,0.2-1.3,0.4c-1.4,0.6-2.2,1.5-2.2,2.9
				c0,1,0.6,1.7,1.8,2.2c0.8,0.3,1.9,0.5,3.2,0.6c1.1,0.1,2.1,0.3,3,0.7c0.6,0.3,1.1,0.7,1.6,1.2c0.8,0.9,1.1,1.9,1,3.1
				c-0.1,1.6-0.8,2.8-2,3.6C587.8,170.9,586.5,171.2,584.9,171.2L584.9,171.2z"/>
		</g>
	</g>
	<g>
		<linearGradient id="SVGID_2_" gradientUnits="userSpaceOnUse" x1="117.4347" y1="158.9958" x2="235.4947" y2="158.9958">
			<stop  offset="0" style="stop-color:#008AFF"/>
			<stop  offset="1" style="stop-color:#0041A6"/>
		</linearGradient>
		<path class="st4" d="M235.3,188.2L187,108.7c-0.2-0.4-0.7-0.6-1.1-0.6h-19.7h0c-0.1,0-0.2,0-0.3,0c0,0-0.1,0-0.1,0
			c-0.1,0-0.1,0-0.2,0.1c0,0-0.1,0-0.1,0.1c-0.1,0-0.1,0.1-0.2,0.1c0,0-0.1,0.1-0.1,0.1c0,0-0.1,0.1-0.1,0.2l-47.5,79.5
			c-0.2,0.4-0.2,0.9,0,1.3l10.2,19.7c0.2,0.4,0.7,0.7,1.1,0.7c0,0,0,0,0,0h95.2l0,0c0,0,0.1,0,0.1,0c0.5,0,0.9-0.3,1-0.7l0,0
			l10-19.7l0,0C235.6,189.1,235.5,188.6,235.3,188.2 M169.4,171.2l5.8-10.4l6.6,10.4H169.4z"/>
		<path class="st2" d="M235.3,188.2L187,108.7c-0.2-0.4-0.7-0.6-1.1-0.6h-19.7h0c-0.1,0-0.2,0-0.3,0c0,0-0.1,0-0.1,0
			c-0.1,0-0.1,0-0.2,0.1c0,0-0.1,0-0.1,0.1c-0.1,0-0.1,0.1-0.2,0.1c0,0-0.1,0.1-0.1,0.1c0,0-0.1,0.1-0.1,0.2l-47.5,79.5
			c-0.2,0.4-0.2,0.9,0,1.3l10.2,19.7c0.2,0.4,0.7,0.7,1.1,0.7c0,0,0,0,0,0h95.2l0,0c0,0,0.1,0,0.1,0c0.5,0,0.9-0.3,1-0.7l0,0
			l10-19.7l0,0C235.6,189.1,235.5,188.6,235.3,188.2 M168.6,110.7h16.6l46.7,76.9h-71.6l8.1-13.8h35.7c0.5,0,0.9-0.3,1.1-0.7
			c0.2-0.4,0.2-0.9,0-1.3L168.6,110.7L168.6,110.7z M169.4,171.2l5.8-10.4l6.6,10.4H169.4z M120.2,188.9l46-77l35.5,59.2H185
			l-17.7-27.5l0,0h0l0,0c-0.2-0.4-0.7-0.7-1.1-0.6c-0.5,0-0.9,0.3-1.1,0.7L129,205.9L120.2,188.9z M223.4,207.3h-92.2l30.7-53
			l4.3-7.4l7.3,11.7l-16.7,29.7l0,0c-0.2,0.4-0.2,0.9,0,1.3c0.2,0.4,0.7,0.7,1.1,0.7h0h36.9h19.7H232L223.4,207.3z"/>
	</g>
</g>
<g>
	<g>
		<g>
			<path d="M286.2,343h-2.1l-2.4-5.9h-11.4l-2.4,5.9h-2.1l10.2-25.1L286.2,343z M280.9,335.2L276,323l-4.9,12.2H280.9z"/>
			<path d="M285.2,325.6h1.9l5.3,13l5.3-13h1.9l-7.2,17.7L285.2,325.6z"/>
			<path d="M310.1,343.2c-2.5,0-4.6-0.9-6.3-2.6c-1.7-1.7-2.6-3.8-2.6-6.3c0-2.5,0.9-4.6,2.6-6.3c1.7-1.7,3.8-2.6,6.3-2.6
				c2.8,0,5.2,1.1,7.1,3.4v-3.2h1.8V343h-1.8v-3.2C315.3,342.1,312.9,343.2,310.1,343.2z M310.1,327.2c-1.9,0-3.6,0.7-5,2.1
				c-1.4,1.4-2.1,3.1-2.1,5c0,1.9,0.7,3.6,2.1,5c1.4,1.4,3.1,2.1,5,2.1c1.9,0,3.6-0.7,5-2.1c1.4-1.4,2.1-3.1,2.1-5
				c0-1.9-0.7-3.6-2.1-5C313.7,327.9,312,327.2,310.1,327.2z"/>
			<path d="M324.1,317.4h1.9V343h-1.9V317.4z"/>
			<path d="M330.5,325.6h1.8v10.6c0,1.4,0.5,2.7,1.5,3.7c1,1,2.3,1.5,3.7,1.5s2.7-0.5,3.7-1.5c1-1,1.5-2.3,1.5-3.7v-10.6h1.8V343
				h-1.8v-2c-1.5,1.5-3.2,2.2-5.2,2.2c-1.9,0-3.6-0.7-5-2.1c-1.4-1.4-2.1-3-2.1-5V325.6z M340.8,316l1.5,1.1l-3.8,5.4l-1.5-1
				L340.8,316z"/>
			<path d="M351.5,340.6c-1.7-1.7-2.6-3.8-2.6-6.3c0-2.5,0.9-4.6,2.6-6.3c1.7-1.7,3.8-2.6,6.3-2.6c2.5,0,4.6,0.9,6.3,2.6
				c1.7,1.7,2.6,3.8,2.6,6.3c0,2.5-0.9,4.6-2.6,6.3c-1.7,1.7-3.8,2.6-6.3,2.6C355.3,343.2,353.2,342.4,351.5,340.6z M352.8,329.3
				c-1.4,1.4-2.1,3.1-2.1,5s0.7,3.6,2.1,5c1.4,1.4,3.1,2.1,5,2.1s3.6-0.7,5-2.1c1.4-1.4,2.1-3.1,2.1-5s-0.7-3.6-2.1-5
				c-1.4-1.4-3.1-2.1-5-2.1S354.2,327.9,352.8,329.3z"/>
			<path d="M376.5,343.2c-1.4,0-2.7-0.4-3.9-1c-1.4-0.8-2.2-1.8-2.6-3l1.8-0.5c0.2,0.8,0.9,1.5,1.9,2c0.8,0.5,1.8,0.7,2.8,0.7
				c0.1,0,0.3,0,0.4,0s0.3,0,0.5-0.1c0.5-0.1,0.9-0.2,1.2-0.4c1.1-0.5,1.7-1.4,1.8-2.7c0-0.7-0.1-1.2-0.6-1.7
				c-0.7-0.8-1.8-1.2-3.2-1.3c-2.6-0.2-4.5-0.8-5.6-1.9c-0.4-0.4-0.7-0.9-0.9-1.4c-0.1-0.4-0.2-0.9-0.2-1.3c0-1.6,0.6-2.9,1.9-3.8
				c1.2-0.9,2.5-1.3,4.2-1.3c1.9,0,3.5,0.7,4.8,2c0.4,0.4,0.8,0.9,1.1,1.5l0.2,0.3l-1.7,0.7l-0.1-0.1c-0.2-0.4-0.5-0.7-0.8-1
				c-1-1-2.1-1.5-3.6-1.5c-0.2,0-0.5,0-0.6,0.1c-0.5,0.1-0.9,0.2-1.3,0.4c-1.4,0.6-2.2,1.5-2.2,2.9c0,1,0.6,1.7,1.8,2.2
				c0.8,0.3,1.9,0.5,3.2,0.6c1.1,0.1,2.1,0.3,3,0.7c0.6,0.3,1.1,0.7,1.6,1.2c0.8,0.9,1.1,1.9,1,3.1c-0.1,1.6-0.8,2.8-2,3.6
				C379.3,342.9,378,343.2,376.5,343.2L376.5,343.2z"/>
			<path d="M411,340.9l-1.4,1.3l-2.8-3l-1.3,1.3c-0.1,0.1-0.1,0.1-0.2,0.2c-0.5,0.5-1.1,1-1.7,1.3c-1.2,0.7-2.6,1.1-4,1.1
				c-2.2,0-4.1-0.8-5.7-2.3c-1.6-1.6-2.4-3.4-2.4-5.7c0-2.2,0.8-4.1,2.3-5.7c0.5-0.5,1.3-1.1,2.3-1.7l-0.7-0.9l-0.1-0.1
				c-0.7-0.9-1-1.9-1-3.1c0-1.4,0.5-2.7,1.5-3.7c1-1,2.2-1.5,3.7-1.5h0c1.4,0,2.7,0.5,3.7,1.5l-1.5,1.3c-0.5-0.5-1.3-0.8-2.2-0.8
				c-0.9,0-1.7,0.3-2.3,1c-0.6,0.7-1,1.4-1,2.3c0,0.8,0.3,1.5,0.8,2.2l9.7,10.7l1.5-1.5l1.2-1.2l1.3,1.3l-2.8,2.8L411,340.9z
				 M405.5,337.7l-7.9-8.6c-1,0.4-1.8,0.9-2.4,1.5c-1.2,1.2-1.8,2.7-1.8,4.4c0,1.7,0.6,3.1,1.8,4.3c1.2,1.2,2.6,1.8,4.2,1.8
				c1.6,0,3.1-0.5,4.3-1.6c0,0,0.1-0.1,0.1-0.1c0,0,0.1-0.1,0.1-0.1L405.5,337.7z"/>
			<path d="M440.1,343h-2.1l-2.4-5.9h-11.4l-2.4,5.9h-2.1l10.2-25.1L440.1,343z M434.9,335.2L430,323l-4.9,12.2H434.9z"/>
			<path d="M450.3,325.4v1.8h-0.1c-1.3,0-2.5,0.5-3.4,1.4c-1,0.9-1.4,2.1-1.4,3.4V343h-1.8v-17.4h1.8v1.9c0.6-0.7,1.3-1.2,2.2-1.5
				C448.4,325.6,449.3,325.4,450.3,325.4L450.3,325.4z"/>
			<path d="M452.4,334.3c0-2.5,0.9-4.6,2.6-6.3c1.7-1.7,3.8-2.6,6.3-2.6c2.8,0,5.1,1.1,7.1,3.4v-3.2h1.8V350h-1.8v-10.1
				c-1.7,2.3-4,3.4-7.1,3.4c-2.5,0-4.6-0.9-6.3-2.6C453.2,338.9,452.4,336.8,452.4,334.3z M454.2,334.3c0,1.9,0.7,3.6,2.1,5
				c1.4,1.4,3.1,2.1,5,2.1s3.6-0.7,5-2.1c1.4-1.4,2.1-3.1,2.1-5s-0.7-3.6-2.1-5c-1.4-1.4-3.1-2.1-5-2.1s-3.6,0.7-5,2.1
				C454.9,330.7,454.2,332.4,454.2,334.3z"/>
			<path d="M475.1,325.6h1.8v10.6c0,1.4,0.5,2.7,1.5,3.7c1,1,2.3,1.5,3.7,1.5s2.7-0.5,3.7-1.5c1-1,1.5-2.3,1.5-3.7v-10.6h1.8V343
				h-1.8v-2c-1.5,1.5-3.2,2.2-5.2,2.2c-1.9,0-3.6-0.7-5-2.1c-1.4-1.4-2.1-3-2.1-5V325.6z"/>
			<path d="M494.3,321.3c-0.3-0.3-0.4-0.6-0.4-1c0-0.4,0.1-0.7,0.4-1c0.3-0.3,0.6-0.4,1-0.4c0.4,0,0.7,0.1,1,0.4
				c0.3,0.3,0.4,0.6,0.4,1c0,0.4-0.1,0.7-0.4,1c-0.3,0.3-0.6,0.4-1,0.4C494.9,321.7,494.6,321.6,494.3,321.3z M494.4,325.6h1.8V343
				h-1.8V325.6z"/>
			<path d="M501,322.4h1.8v3.2h3.2v1.8h-3.2v10c0,1,0.3,1.9,1.1,2.6c0.7,0.7,1.4,1.1,2.2,1.1v1.8c-1.2,0-2.4-0.5-3.4-1.6
				c-1.1-1.1-1.6-2.4-1.6-3.9V322.4z"/>
			<path d="M517.3,325.4c1.2,0,2.4,0.2,3.5,0.7c1.1,0.5,2,1.1,2.8,1.9c0.8,0.8,1.5,1.8,1.9,2.8c0.5,1.1,0.7,2.3,0.7,3.5v0.1h-15.9
				c0,0.9,0.2,1.8,0.6,2.7c0.4,0.8,0.9,1.6,1.5,2.2c0.6,0.6,1.4,1.1,2.2,1.5c0.9,0.4,1.8,0.6,2.7,0.6c1.3,0,2.6-0.3,3.7-1.1
				c1.1-0.7,1.9-1.6,2.5-2.7l1.7,0.8c-0.7,1.5-1.8,2.7-3.2,3.5c-1.4,0.9-3,1.4-4.7,1.4c-1.2,0-2.4-0.2-3.5-0.7
				c-1.1-0.5-2-1.1-2.8-1.9c-0.8-0.8-1.5-1.8-1.9-2.8c-0.5-1.1-0.7-2.3-0.7-3.5c0-1.2,0.2-2.4,0.7-3.5c0.5-1.1,1.1-2,1.9-2.8
				c0.8-0.8,1.8-1.5,2.8-1.9C514.9,325.6,516.1,325.4,517.3,325.4z M524.1,332.6c-0.4-1.5-1.2-2.8-2.5-3.8c-1.3-1-2.7-1.5-4.3-1.5
				s-3.1,0.5-4.3,1.5c-1.2,1-2.1,2.2-2.5,3.8H524.1z"/>
			<path d="M546,338.3c-0.7,1.5-1.8,2.7-3.2,3.5c-1.4,0.9-3,1.4-4.7,1.4c-1.2,0-2.4-0.2-3.5-0.7c-1.1-0.5-2-1.1-2.8-1.9
				c-0.8-0.8-1.5-1.8-1.9-2.8c-0.5-1.1-0.7-2.3-0.7-3.5c0-1.2,0.2-2.4,0.7-3.5c0.5-1.1,1.1-2,1.9-2.8c0.8-0.8,1.8-1.5,2.8-1.9
				c1.1-0.5,2.2-0.7,3.5-0.7c1.7,0,3.3,0.5,4.7,1.4c1.4,0.9,2.5,2.1,3.2,3.6l-1.7,0.7c-0.6-1.1-1.4-2-2.5-2.7
				c-1.1-0.7-2.4-1.1-3.7-1.1c-1,0-1.9,0.2-2.7,0.6c-0.8,0.4-1.6,0.9-2.2,1.5c-0.7,0.7-1.2,1.4-1.5,2.2c-0.4,0.9-0.6,1.8-0.6,2.7
				c0,1,0.2,1.9,0.6,2.7c0.3,0.8,0.8,1.6,1.5,2.2c0.6,0.7,1.4,1.2,2.2,1.5c0.9,0.4,1.8,0.6,2.7,0.6c1.3,0,2.6-0.3,3.7-1.1
				c1.1-0.7,1.9-1.6,2.5-2.7L546,338.3z"/>
			<path d="M550,322.4h1.8v3.2h3.2v1.8h-3.2v10c0,1,0.3,1.9,1.1,2.6c0.7,0.7,1.4,1.1,2.2,1.1v1.8c-1.2,0-2.4-0.5-3.4-1.6
				c-1.1-1.1-1.6-2.4-1.6-3.9V322.4z"/>
			<path d="M560,340.6c-1.7-1.7-2.6-3.8-2.6-6.3c0-2.5,0.9-4.6,2.6-6.3c1.7-1.7,3.8-2.6,6.3-2.6c2.5,0,4.6,0.9,6.3,2.6
				c1.7,1.7,2.6,3.8,2.6,6.3c0,2.5-0.9,4.6-2.6,6.3c-1.7,1.7-3.8,2.6-6.3,2.6C563.8,343.2,561.7,342.4,560,340.6z M561.3,329.3
				c-1.4,1.4-2.1,3.1-2.1,5s0.7,3.6,2.1,5c1.4,1.4,3.1,2.1,5,2.1s3.6-0.7,5-2.1c1.4-1.4,2.1-3.1,2.1-5s-0.7-3.6-2.1-5
				c-1.4-1.4-3.1-2.1-5-2.1S562.7,327.9,561.3,329.3z"/>
			<path d="M584.9,343.2c-1.4,0-2.7-0.4-3.9-1c-1.4-0.8-2.2-1.8-2.6-3l1.8-0.5c0.2,0.8,0.9,1.5,1.9,2c0.8,0.5,1.8,0.7,2.8,0.7
				c0.1,0,0.3,0,0.4,0s0.3,0,0.5-0.1c0.5-0.1,0.9-0.2,1.2-0.4c1.1-0.5,1.7-1.4,1.8-2.7c0-0.7-0.1-1.2-0.6-1.7
				c-0.7-0.8-1.8-1.2-3.2-1.3c-2.6-0.2-4.5-0.8-5.6-1.9c-0.4-0.4-0.7-0.9-0.9-1.4c-0.1-0.4-0.2-0.9-0.2-1.3c0-1.6,0.6-2.9,1.9-3.8
				c1.2-0.9,2.5-1.3,4.2-1.3c1.9,0,3.5,0.7,4.8,2c0.4,0.4,0.8,0.9,1.1,1.5l0.2,0.3l-1.7,0.7l-0.1-0.1c-0.2-0.4-0.5-0.7-0.8-1
				c-1-1-2.1-1.5-3.6-1.5c-0.2,0-0.5,0-0.6,0.1c-0.5,0.1-0.9,0.2-1.3,0.4c-1.4,0.6-2.2,1.5-2.2,2.9c0,1,0.6,1.7,1.8,2.2
				c0.8,0.3,1.9,0.5,3.2,0.6c1.1,0.1,2.1,0.3,3,0.7c0.6,0.3,1.1,0.7,1.6,1.2c0.8,0.9,1.1,1.9,1,3.1c-0.1,1.6-0.8,2.8-2,3.6
				C587.8,342.9,586.5,343.2,584.9,343.2L584.9,343.2z"/>
		</g>
	</g>
	<g>
		<path d="M235.3,360.2L187,280.7c-0.2-0.4-0.7-0.6-1.1-0.6h-19.7h0c-0.1,0-0.2,0-0.3,0c0,0-0.1,0-0.1,0c-0.1,0-0.1,0-0.2,0.1
			c0,0-0.1,0-0.1,0.1c-0.1,0-0.1,0.1-0.2,0.1c0,0-0.1,0.1-0.1,0.1c0,0-0.1,0.1-0.1,0.2l-47.5,79.5c-0.2,0.4-0.2,0.9,0,1.3l10.2,19.7
			c0.2,0.4,0.7,0.7,1.1,0.7c0,0,0,0,0,0h95.2l0,0c0,0,0.1,0,0.1,0c0.5,0,0.9-0.3,1-0.7l0,0l10-19.7l0,0
			C235.6,361.1,235.5,360.6,235.3,360.2 M168.6,282.7h16.6l46.7,76.9h-71.6l8.1-13.8h35.7c0.5,0,0.9-0.3,1.1-0.7
			c0.2-0.4,0.2-0.9,0-1.3L168.6,282.7L168.6,282.7z M169.4,343.2l5.8-10.4l6.6,10.4H169.4z M120.2,360.9l46-77l35.5,59.2H185
			l-17.7-27.5l0,0h0l0,0c-0.2-0.4-0.7-0.7-1.1-0.6c-0.5,0-0.9,0.3-1.1,0.7L129,377.9L120.2,360.9z M223.4,379.3h-92.2l30.7-53
			l4.3-7.4l7.3,11.7l-16.7,29.7l0,0c-0.2,0.4-0.2,0.9,0,1.3c0.2,0.4,0.7,0.7,1.1,0.7h0h36.9h19.7H232L223.4,379.3z"/>
	</g>
</g>
<g>
	<linearGradient id="SVGID_3_" gradientUnits="userSpaceOnUse" x1="1211.2776" y1="581.9069" x2="1366" y2="581.9069">
		<stop  offset="0" style="stop-color:#008AFF"/>
		<stop  offset="1" style="stop-color:#0041A6"/>
	</linearGradient>
	<path class="st5" d="M1365.8,620.2L1302.5,516c-0.3-0.5-0.9-0.8-1.5-0.8h-25.8h0c-0.2,0-0.3,0-0.4,0.1c0,0-0.1,0-0.1,0.1
		c-0.1,0-0.2,0.1-0.3,0.1c-0.1,0-0.1,0.1-0.1,0.1c-0.1,0.1-0.2,0.1-0.2,0.2c0,0-0.1,0.1-0.1,0.1c-0.1,0.1-0.1,0.1-0.2,0.2
		l-62.2,104.2c-0.3,0.5-0.3,1.1-0.1,1.7l13.4,25.8c0.3,0.6,0.9,0.9,1.5,0.9c0,0,0,0,0,0h124.8l0,0c0,0,0.1,0,0.1,0
		c0.6,0,1.1-0.4,1.3-0.9l0,0l13.1-25.8l0,0C1366.1,621.3,1366.1,620.7,1365.8,620.2 M1279.4,597.9l7.6-13.6l8.7,13.6H1279.4z"/>
	<path class="st2" d="M1365.8,620.2L1302.5,516c-0.3-0.5-0.9-0.8-1.5-0.8h-25.8h0c-0.2,0-0.3,0-0.4,0.1c0,0-0.1,0-0.1,0.1
		c-0.1,0-0.2,0.1-0.3,0.1c-0.1,0-0.1,0.1-0.1,0.1c-0.1,0.1-0.2,0.1-0.2,0.2c0,0-0.1,0.1-0.1,0.1c-0.1,0.1-0.1,0.1-0.2,0.2
		l-62.2,104.2c-0.3,0.5-0.3,1.1-0.1,1.7l13.4,25.8c0.3,0.6,0.9,0.9,1.5,0.9c0,0,0,0,0,0h124.8l0,0c0,0,0.1,0,0.1,0
		c0.6,0,1.1-0.4,1.3-0.9l0,0l13.1-25.8l0,0C1366.1,621.3,1366.1,620.7,1365.8,620.2 M1278.3,518.6h21.8l61.2,100.7h-93.8l10.6-18.1
		h46.8c0.6,0,1.2-0.3,1.5-0.9c0.3-0.5,0.3-1.2,0-1.7L1278.3,518.6L1278.3,518.6z M1279.4,597.9l7.6-13.6l8.7,13.6H1279.4z
		 M1215,621.2l60.3-100.9l46.5,77.6h-21.9l-23.1-36.1l0,0h0l0,0c-0.3-0.5-0.9-0.9-1.5-0.8c-0.6,0-1.1,0.3-1.4,0.9l-47.3,81.5
		L1215,621.2z M1350.2,645.2h-120.8l40.3-69.5l5.6-9.7l9.5,15.3l-21.9,38.9l0,0c-0.3,0.5-0.3,1.2,0,1.7c0.3,0.5,0.9,0.9,1.5,0.9h0
		h48.3h25.8h23L1350.2,645.2z"/>
</g>
<g>
	<linearGradient id="SVGID_4_" gradientUnits="userSpaceOnUse" x1="1399.7776" y1="611.655" x2="1485.5" y2="611.655">
		<stop  offset="0" style="stop-color:#008AFF"/>
		<stop  offset="1" style="stop-color:#0041A6"/>
	</linearGradient>
	<path class="st6" d="M1485.4,632.9l-35.1-57.7c-0.2-0.3-0.5-0.5-0.8-0.5h-14.3h0c-0.1,0-0.2,0-0.2,0c0,0-0.1,0-0.1,0
		c-0.1,0-0.1,0-0.2,0.1c0,0,0,0-0.1,0.1c0,0-0.1,0.1-0.1,0.1c0,0,0,0.1-0.1,0.1c0,0-0.1,0.1-0.1,0.1l-34.5,57.7
		c-0.2,0.3-0.2,0.6,0,0.9l7.4,14.3c0.2,0.3,0.5,0.5,0.8,0.5c0,0,0,0,0,0h69.2l0,0c0,0,0,0,0.1,0c0.3,0,0.6-0.2,0.7-0.5l0,0l7.2-14.3
		l0,0C1485.5,633.5,1485.5,633.2,1485.4,632.9 M1437.5,620.5l4.2-7.5l4.8,7.5H1437.5z"/>
	<path class="st2" d="M1485.4,632.9l-35.1-57.7c-0.2-0.3-0.5-0.5-0.8-0.5h-14.3h0c-0.1,0-0.2,0-0.2,0c0,0-0.1,0-0.1,0
		c-0.1,0-0.1,0-0.2,0.1c0,0,0,0-0.1,0.1c0,0-0.1,0.1-0.1,0.1c0,0,0,0.1-0.1,0.1c0,0-0.1,0.1-0.1,0.1l-34.5,57.7
		c-0.2,0.3-0.2,0.6,0,0.9l7.4,14.3c0.2,0.3,0.5,0.5,0.8,0.5c0,0,0,0,0,0h69.2l0,0c0,0,0,0,0.1,0c0.3,0,0.6-0.2,0.7-0.5l0,0l7.2-14.3
		l0,0C1485.5,633.5,1485.5,633.2,1485.4,632.9 M1436.9,576.6h12.1l33.9,55.8h-52l5.9-10h25.9c0.3,0,0.7-0.2,0.8-0.5
		c0.2-0.3,0.2-0.7,0-1L1436.9,576.6L1436.9,576.6z M1437.5,620.5l4.2-7.5l4.8,7.5H1437.5z M1401.8,633.4l33.4-55.9l25.8,43h-12.1
		l-12.8-20l0,0h0l0,0c-0.2-0.3-0.5-0.5-0.8-0.4c-0.3,0-0.6,0.2-0.8,0.5l-26.2,45.2L1401.8,633.4z M1476.7,646.7h-66.9l22.3-38.5
		l3.1-5.4l5.3,8.5l-12.1,21.6l0,0c-0.2,0.3-0.2,0.6,0,0.9c0.2,0.3,0.5,0.5,0.8,0.5h0h26.8h14.3h12.7L1476.7,646.7z"/>
</g>
<g>
	<linearGradient id="SVGID_5_" gradientUnits="userSpaceOnUse" x1="1513.2776" y1="630.1937" x2="1556" y2="630.1937">
		<stop  offset="0" style="stop-color:#008AFF"/>
		<stop  offset="1" style="stop-color:#0041A6"/>
	</linearGradient>
	<path class="st7" d="M1555.9,640.8l-17.5-28.8c-0.1-0.1-0.2-0.2-0.4-0.2h-7.1h0c0,0-0.1,0-0.1,0c0,0,0,0,0,0c0,0-0.1,0-0.1,0
		c0,0,0,0,0,0c0,0,0,0-0.1,0c0,0,0,0,0,0c0,0,0,0,0,0.1l-17.2,28.8c-0.1,0.1-0.1,0.3,0,0.5l3.7,7.1c0.1,0.2,0.2,0.3,0.4,0.3
		c0,0,0,0,0,0h34.5l0,0c0,0,0,0,0,0c0.2,0,0.3-0.1,0.4-0.3l0,0l3.6-7.1l0,0C1556,641.1,1556,640.9,1555.9,640.8 M1532.1,634.6
		l2.1-3.7l2.4,3.7H1532.1z"/>
	<path class="st2" d="M1555.9,640.8l-17.5-28.8c-0.1-0.1-0.2-0.2-0.4-0.2h-7.1h0c0,0-0.1,0-0.1,0c0,0,0,0,0,0c0,0-0.1,0-0.1,0
		c0,0,0,0,0,0c0,0,0,0-0.1,0c0,0,0,0,0,0c0,0,0,0,0,0.1l-17.2,28.8c-0.1,0.1-0.1,0.3,0,0.5l3.7,7.1c0.1,0.2,0.2,0.3,0.4,0.3
		c0,0,0,0,0,0h34.5l0,0c0,0,0,0,0,0c0.2,0,0.3-0.1,0.4-0.3l0,0l3.6-7.1l0,0C1556,641.1,1556,640.9,1555.9,640.8 M1531.8,612.7h6
		l16.9,27.8h-25.9l2.9-5h12.9c0.2,0,0.3-0.1,0.4-0.2c0.1-0.1,0.1-0.3,0-0.5L1531.8,612.7L1531.8,612.7z M1532.1,634.6l2.1-3.7
		l2.4,3.7H1532.1z M1514.3,641l16.6-27.9l12.8,21.4h-6l-6.4-10l0,0h0l0,0c-0.1-0.1-0.2-0.2-0.4-0.2c-0.2,0-0.3,0.1-0.4,0.2l-13,22.5
		L1514.3,641z M1551.6,647.7h-33.3l11.1-19.2l1.6-2.7l2.6,4.2l-6.1,10.8l0,0c-0.1,0.1-0.1,0.3,0,0.5c0.1,0.1,0.2,0.2,0.4,0.2h0h13.3
		h7.1h6.3L1551.6,647.7z"/>
</g>
<g>
	<g>
		<path d="M101.3,643.4h-1.9l-2.2-5.4H86.9l-2.2,5.4h-1.9l9.3-22.9L101.3,643.4z M96.5,636.2L92,625.1l-4.5,11.1H96.5z"/>
		<path d="M100.4,627.5h1.7l4.8,11.9l4.8-11.9h1.7l-6.5,16.1L100.4,627.5z"/>
		<path d="M123.1,643.6c-2.2,0-4.1-0.8-5.7-2.4c-1.6-1.6-2.4-3.5-2.4-5.7c0-2.2,0.8-4.2,2.4-5.7c1.6-1.6,3.5-2.4,5.7-2.4
			c2.6,0,4.7,1,6.5,3.1v-2.9h1.7v15.8h-1.7v-2.9C127.8,642.6,125.7,643.6,123.1,643.6z M123.1,629c-1.8,0-3.3,0.6-4.6,1.9
			c-1.3,1.3-1.9,2.8-1.9,4.6s0.6,3.3,1.9,4.6c1.3,1.3,2.8,1.9,4.6,1.9s3.3-0.6,4.6-1.9c1.3-1.3,1.9-2.8,1.9-4.6s-0.6-3.3-1.9-4.6
			C126.4,629.6,124.9,629,123.1,629z"/>
		<path d="M135.9,620h1.7v23.3h-1.7V620z"/>
		<path d="M141.7,627.5h1.7v9.6c0,1.3,0.5,2.4,1.4,3.4c0.9,0.9,2.1,1.4,3.4,1.4s2.4-0.5,3.4-1.4c0.9-0.9,1.4-2.1,1.4-3.4v-9.6h1.7
			v15.8h-1.7v-1.8c-1.3,1.4-2.9,2-4.8,2c-1.8,0-3.3-0.6-4.5-1.9c-1.3-1.3-1.9-2.8-1.9-4.5V627.5z M151.1,618.8l1.4,1l-3.5,5
			l-1.4-0.9L151.1,618.8z"/>
		<path d="M160.8,641.2c-1.6-1.6-2.4-3.5-2.4-5.7c0-2.2,0.8-4.1,2.4-5.7c1.6-1.6,3.5-2.4,5.7-2.4c2.2,0,4.1,0.8,5.7,2.4
			c1.6,1.6,2.4,3.5,2.4,5.7c0,2.3-0.8,4.2-2.4,5.7c-1.6,1.6-3.5,2.4-5.7,2.4C164.3,643.6,162.4,642.8,160.8,641.2z M162,630.9
			c-1.3,1.3-1.9,2.8-1.9,4.6s0.6,3.3,1.9,4.6c1.3,1.3,2.8,1.9,4.6,1.9c1.8,0,3.3-0.6,4.6-1.9c1.3-1.3,1.9-2.8,1.9-4.6
			s-0.6-3.3-1.9-4.6c-1.3-1.3-2.8-1.9-4.6-1.9C164.8,629,163.3,629.7,162,630.9z"/>
		<path d="M183.6,643.6c-1.3,0-2.5-0.3-3.5-0.9c-1.3-0.7-2-1.7-2.4-2.8l1.6-0.5c0.2,0.7,0.8,1.3,1.7,1.9c0.7,0.4,1.6,0.6,2.6,0.6
			c0.1,0,0.3,0,0.4,0c0.1,0,0.3,0,0.5,0c0.4-0.1,0.8-0.2,1.1-0.3c1-0.5,1.5-1.3,1.6-2.4c0-0.6-0.1-1.1-0.5-1.6
			c-0.6-0.7-1.6-1.1-3-1.2c-2.4-0.2-4.1-0.7-5.1-1.8c-0.4-0.4-0.6-0.8-0.8-1.3c-0.1-0.4-0.2-0.8-0.2-1.2c0-1.5,0.6-2.6,1.7-3.5
			c1-0.8,2.3-1.2,3.8-1.2c1.8,0,3.2,0.6,4.4,1.9c0.4,0.4,0.7,0.8,1,1.3l0.1,0.3l-1.6,0.6l-0.1-0.1c-0.2-0.3-0.4-0.7-0.7-0.9
			c-0.9-0.9-1.9-1.3-3.2-1.3c-0.2,0-0.4,0-0.6,0c-0.4,0.1-0.8,0.2-1.2,0.3c-1.3,0.5-2,1.4-2,2.7c0,0.9,0.5,1.6,1.6,2
			c0.7,0.3,1.7,0.5,2.9,0.6c1,0.1,1.9,0.3,2.7,0.7c0.6,0.3,1,0.7,1.4,1.1c0.7,0.8,1,1.7,0.9,2.8c-0.1,1.4-0.7,2.5-1.8,3.3
			C186.2,643.2,185,643.6,183.6,643.6L183.6,643.6z"/>
		<path d="M215,641.4l-1.3,1.2l-2.5-2.8L210,641c-0.1,0.1-0.1,0.1-0.2,0.2c-0.5,0.5-1,0.9-1.6,1.2c-1.1,0.6-2.4,1-3.7,1
			c-2,0-3.7-0.7-5.2-2.1c-1.4-1.4-2.2-3.1-2.2-5.2s0.7-3.8,2.1-5.2c0.5-0.5,1.2-1,2.1-1.5l-0.6-0.8l0-0.1c-0.6-0.8-0.9-1.8-0.9-2.8
			c0-1.3,0.5-2.4,1.4-3.4c0.9-0.9,2-1.4,3.3-1.4h0c1.3,0,2.4,0.4,3.3,1.3l-1.3,1.2c-0.5-0.5-1.2-0.7-2-0.7c-0.8,0-1.6,0.3-2.1,0.9
			c-0.6,0.6-0.9,1.3-0.9,2.1c0,0.7,0.2,1.4,0.7,2l8.9,9.7l1.4-1.4l1.1-1.1l1.2,1.2l-2.5,2.5L215,641.4z M210.1,638.6l-7.2-7.9
			c-0.9,0.4-1.6,0.8-2.2,1.4c-1.1,1.1-1.6,2.4-1.6,4c0,1.5,0.5,2.9,1.6,4c1.1,1.1,2.3,1.6,3.9,1.6c1.5,0,2.8-0.5,3.9-1.5
			c0,0,0.1-0.1,0.1-0.1c0,0,0.1-0.1,0.1-0.1L210.1,638.6z"/>
		<path d="M241.6,643.4h-1.9l-2.2-5.4h-10.4l-2.2,5.4h-1.9l9.3-22.9L241.6,643.4z M236.8,636.2l-4.5-11.1l-4.5,11.1H236.8z"/>
		<path d="M250.8,627.3v1.7h0c-1.2,0-2.2,0.4-3.1,1.3c-0.9,0.9-1.3,1.9-1.3,3.1v10h-1.7v-15.8h1.7v1.7c0.6-0.6,1.2-1.1,2-1.4
			C249.1,627.5,249.9,627.3,250.8,627.3L250.8,627.3z"/>
		<path d="M252.7,635.5c0-2.2,0.8-4.2,2.4-5.7c1.6-1.6,3.5-2.4,5.7-2.4c2.5,0,4.7,1,6.5,3.1v-2.9h1.7v22.2h-1.7v-9.2
			c-1.5,2.1-3.7,3.1-6.5,3.1c-2.2,0-4.2-0.8-5.7-2.4C253.5,639.6,252.7,637.7,252.7,635.5z M254.4,635.5c0,1.8,0.6,3.3,1.9,4.6
			c1.3,1.3,2.8,1.9,4.6,1.9c1.8,0,3.3-0.6,4.6-1.9c1.3-1.3,1.9-2.8,1.9-4.6s-0.6-3.3-1.9-4.6c-1.3-1.3-2.8-1.9-4.6-1.9
			c-1.8,0-3.3,0.6-4.6,1.9C255,632.2,254.4,633.7,254.4,635.5z"/>
		<path d="M273.5,627.5h1.7v9.6c0,1.3,0.5,2.4,1.4,3.4c0.9,0.9,2.1,1.4,3.4,1.4s2.4-0.5,3.4-1.4c0.9-0.9,1.4-2.1,1.4-3.4v-9.6h1.7
			v15.8h-1.7v-1.8c-1.3,1.4-2.9,2-4.8,2c-1.8,0-3.3-0.6-4.5-1.9c-1.3-1.3-1.9-2.8-1.9-4.5V627.5z"/>
		<path d="M291,623.6c-0.2-0.2-0.4-0.5-0.4-0.9c0-0.4,0.1-0.7,0.4-0.9c0.2-0.2,0.5-0.4,0.9-0.4c0.4,0,0.7,0.1,0.9,0.4
			c0.2,0.2,0.4,0.5,0.4,0.9c0,0.3-0.1,0.6-0.4,0.9c-0.2,0.2-0.5,0.4-0.9,0.4C291.5,624,291.2,623.9,291,623.6z M291,627.5h1.7v15.8
			H291V627.5z"/>
		<path d="M297.1,624.6h1.7v3h2.9v1.7h-2.9v9.2c0,0.9,0.3,1.7,1,2.4c0.7,0.6,1.3,1,2,1v1.7c-1.1,0-2.2-0.5-3.1-1.5
			c-1-1-1.5-2.2-1.5-3.5V624.6z"/>
		<path d="M311.9,627.3c1.1,0,2.2,0.2,3.2,0.6c1,0.4,1.8,1,2.6,1.7c0.7,0.7,1.3,1.6,1.7,2.6c0.4,1,0.6,2.1,0.6,3.2v0.1h-14.5
			c0,0.9,0.2,1.7,0.5,2.4c0.3,0.8,0.8,1.4,1.4,2s1.3,1,2,1.3c0.8,0.3,1.6,0.5,2.5,0.5c1.2,0,2.3-0.3,3.4-1c1-0.6,1.8-1.5,2.3-2.5
			l1.6,0.7c-0.7,1.4-1.7,2.4-2.9,3.2c-1.3,0.8-2.7,1.2-4.3,1.2c-1.1,0-2.1-0.2-3.1-0.6c-1-0.4-1.8-1-2.6-1.7
			c-0.7-0.8-1.3-1.6-1.7-2.6c-0.4-1-0.6-2.1-0.6-3.1c0-1.1,0.2-2.2,0.6-3.2c0.4-1,1-1.8,1.7-2.6c0.8-0.7,1.6-1.3,2.6-1.7
			C309.8,627.6,310.8,627.3,311.9,627.3z M318.1,633.9c-0.4-1.4-1.1-2.5-2.2-3.4c-1.2-0.9-2.5-1.4-3.9-1.4s-2.8,0.5-3.9,1.4
			c-1.1,0.9-1.9,2-2.3,3.4H318.1z"/>
		<path d="M338.1,639.1c-0.7,1.4-1.7,2.4-2.9,3.2c-1.3,0.8-2.8,1.2-4.3,1.2c-1.1,0-2.2-0.2-3.1-0.6c-1-0.4-1.8-1-2.6-1.7
			c-0.8-0.8-1.3-1.6-1.8-2.6c-0.4-1-0.6-2.1-0.6-3.2c0-1.1,0.2-2.1,0.6-3.1c0.4-1,1-1.8,1.8-2.6c0.7-0.7,1.6-1.3,2.6-1.7
			c1-0.4,2-0.6,3.1-0.6c1.6,0,3,0.4,4.3,1.2c1.3,0.8,2.3,1.9,2.9,3.2l-1.6,0.7c-0.5-1-1.3-1.9-2.3-2.5c-1-0.6-2.1-1-3.4-1
			c-0.9,0-1.7,0.2-2.5,0.5c-0.8,0.3-1.4,0.8-2,1.4c-0.6,0.6-1,1.3-1.4,2c-0.3,0.8-0.5,1.6-0.5,2.5c0,0.9,0.2,1.7,0.5,2.5
			c0.3,0.8,0.8,1.4,1.4,2c0.6,0.6,1.3,1.1,2,1.4c0.8,0.3,1.6,0.5,2.5,0.5c1.2,0,2.3-0.3,3.4-1c1-0.6,1.8-1.5,2.3-2.5L338.1,639.1z"
			/>
		<path d="M341.7,624.6h1.7v3h2.9v1.7h-2.9v9.2c0,0.9,0.3,1.7,1,2.4c0.7,0.6,1.3,1,2,1v1.7c-1.1,0-2.2-0.5-3.1-1.5
			c-1-1-1.5-2.2-1.5-3.5V624.6z"/>
		<path d="M350.8,641.2c-1.6-1.6-2.4-3.5-2.4-5.7c0-2.2,0.8-4.1,2.4-5.7c1.6-1.6,3.5-2.4,5.7-2.4c2.2,0,4.1,0.8,5.7,2.4
			c1.6,1.6,2.4,3.5,2.4,5.7c0,2.3-0.8,4.2-2.4,5.7c-1.6,1.6-3.5,2.4-5.7,2.4C354.3,643.6,352.4,642.8,350.8,641.2z M352,630.9
			c-1.3,1.3-1.9,2.8-1.9,4.6s0.6,3.3,1.9,4.6c1.3,1.3,2.8,1.9,4.6,1.9c1.8,0,3.3-0.6,4.6-1.9c1.3-1.3,1.9-2.8,1.9-4.6
			s-0.6-3.3-1.9-4.6c-1.3-1.3-2.8-1.9-4.6-1.9C354.8,629,353.3,629.7,352,630.9z"/>
		<path d="M373.6,643.6c-1.3,0-2.5-0.3-3.5-0.9c-1.3-0.7-2-1.7-2.4-2.8l1.6-0.5c0.2,0.7,0.8,1.3,1.7,1.9c0.7,0.4,1.6,0.6,2.6,0.6
			c0.1,0,0.3,0,0.4,0c0.1,0,0.3,0,0.5,0c0.4-0.1,0.8-0.2,1.1-0.3c1-0.5,1.5-1.3,1.6-2.4c0-0.6-0.1-1.1-0.5-1.6
			c-0.6-0.7-1.6-1.1-3-1.2c-2.4-0.2-4.1-0.7-5.1-1.8c-0.4-0.4-0.6-0.8-0.8-1.3c-0.1-0.4-0.2-0.8-0.2-1.2c0-1.5,0.6-2.6,1.7-3.5
			c1-0.8,2.3-1.2,3.8-1.2c1.8,0,3.2,0.6,4.4,1.9c0.4,0.4,0.7,0.8,1,1.3l0.1,0.3l-1.6,0.6l-0.1-0.1c-0.2-0.3-0.4-0.7-0.7-0.9
			c-0.9-0.9-1.9-1.3-3.2-1.3c-0.2,0-0.4,0-0.6,0c-0.4,0.1-0.8,0.2-1.2,0.3c-1.3,0.5-2,1.4-2,2.7c0,0.9,0.5,1.6,1.6,2
			c0.7,0.3,1.7,0.5,2.9,0.6c1,0.1,1.9,0.3,2.7,0.7c0.6,0.3,1,0.7,1.4,1.1c0.7,0.8,1,1.7,0.9,2.8c-0.1,1.4-0.7,2.5-1.8,3.3
			C376.1,643.2,375,643.6,373.6,643.6L373.6,643.6z"/>
	</g>
	<path d="M317.4,560.8l-70.8-116.7c-0.4-0.6-1-0.9-1.6-0.9H216h0c-0.2,0-0.3,0-0.5,0.1c-0.1,0-0.1,0-0.2,0.1c-0.1,0-0.2,0.1-0.3,0.1
		c-0.1,0-0.1,0.1-0.1,0.1c-0.1,0.1-0.2,0.1-0.3,0.2c0,0-0.1,0.1-0.1,0.2c-0.1,0.1-0.1,0.1-0.2,0.2l-69.7,116.7
		c-0.3,0.6-0.4,1.3-0.1,1.9l15,28.9c0.3,0.6,1,1,1.7,1c0,0,0,0,0,0h139.8l0,0c0,0,0.1,0,0.1,0c0.7,0,1.3-0.4,1.5-1l0,0l14.6-28.9
		l0,0C317.7,562,317.7,561.3,317.4,560.8 M219.4,447h24.4l68.5,112.8H207.2l11.9-20.2h52.4c0.7,0,1.3-0.4,1.7-1
		c0.3-0.6,0.3-1.3,0-1.9L219.4,447L219.4,447z M220.7,535.8l8.6-15.2l9.7,15.2H220.7z M148.5,561.8l67.5-113l52.1,86.9h-24.5
		l-25.9-40.4l0-0.1h0l0,0c-0.4-0.6-1-1-1.7-0.9c-0.7,0-1.3,0.4-1.6,1l-52.9,91.3L148.5,561.8z M299.9,588.7H164.6l45.1-77.8L216,500
		l10.7,17.2l-24.5,43.6l0,0c-0.3,0.6-0.3,1.3,0,1.9c0.3,0.6,1,1,1.7,1h0H258h28.9h25.7L299.9,588.7z"/>
</g>
<g>
	<g>
		<path class="st0" d="M433.3,643.4h-1.9l-2.2-5.4h-10.4l-2.2,5.4h-1.9l9.3-22.9L433.3,643.4z M428.5,636.2l-4.5-11.1l-4.5,11.1
			H428.5z"/>
		<path class="st0" d="M432.4,627.5h1.7l4.8,11.9l4.8-11.9h1.7l-6.5,16.1L432.4,627.5z"/>
		<path class="st0" d="M455.1,643.6c-2.2,0-4.1-0.8-5.7-2.4c-1.6-1.6-2.4-3.5-2.4-5.7c0-2.2,0.8-4.2,2.4-5.7
			c1.6-1.6,3.5-2.4,5.7-2.4c2.6,0,4.7,1,6.5,3.1v-2.9h1.7v15.8h-1.7v-2.9C459.8,642.6,457.7,643.6,455.1,643.6z M455.1,629
			c-1.8,0-3.3,0.6-4.6,1.9c-1.3,1.3-1.9,2.8-1.9,4.6s0.6,3.3,1.9,4.6c1.3,1.3,2.8,1.9,4.6,1.9s3.3-0.6,4.6-1.9
			c1.3-1.3,1.9-2.8,1.9-4.6s-0.6-3.3-1.9-4.6C458.4,629.6,456.9,629,455.1,629z"/>
		<path class="st0" d="M467.9,620h1.7v23.3h-1.7V620z"/>
		<path class="st0" d="M473.7,627.5h1.7v9.6c0,1.3,0.5,2.4,1.4,3.4c0.9,0.9,2.1,1.4,3.4,1.4s2.4-0.5,3.4-1.4
			c0.9-0.9,1.4-2.1,1.4-3.4v-9.6h1.7v15.8h-1.7v-1.8c-1.3,1.4-2.9,2-4.8,2c-1.8,0-3.3-0.6-4.5-1.9c-1.3-1.3-1.9-2.8-1.9-4.5V627.5z
			 M483.1,618.8l1.4,1l-3.5,5l-1.4-0.9L483.1,618.8z"/>
		<path class="st0" d="M492.8,641.2c-1.6-1.6-2.4-3.5-2.4-5.7c0-2.2,0.8-4.1,2.4-5.7c1.6-1.6,3.5-2.4,5.7-2.4c2.2,0,4.1,0.8,5.7,2.4
			c1.6,1.6,2.4,3.5,2.4,5.7c0,2.3-0.8,4.2-2.4,5.7c-1.6,1.6-3.5,2.4-5.7,2.4C496.3,643.6,494.4,642.8,492.8,641.2z M494,630.9
			c-1.3,1.3-1.9,2.8-1.9,4.6s0.6,3.3,1.9,4.6c1.3,1.3,2.8,1.9,4.6,1.9c1.8,0,3.3-0.6,4.6-1.9c1.3-1.3,1.9-2.8,1.9-4.6
			s-0.6-3.3-1.9-4.6c-1.3-1.3-2.8-1.9-4.6-1.9C496.8,629,495.3,629.7,494,630.9z"/>
		<path class="st0" d="M515.6,643.6c-1.3,0-2.5-0.3-3.5-0.9c-1.3-0.7-2-1.7-2.4-2.8l1.6-0.5c0.2,0.7,0.8,1.3,1.7,1.9
			c0.7,0.4,1.6,0.6,2.6,0.6c0.1,0,0.3,0,0.4,0c0.1,0,0.3,0,0.5,0c0.4-0.1,0.8-0.2,1.1-0.3c1-0.5,1.5-1.3,1.6-2.4
			c0-0.6-0.1-1.1-0.5-1.6c-0.6-0.7-1.6-1.1-3-1.2c-2.4-0.2-4.1-0.7-5.1-1.8c-0.4-0.4-0.6-0.8-0.8-1.3c-0.1-0.4-0.2-0.8-0.2-1.2
			c0-1.5,0.6-2.6,1.7-3.5c1-0.8,2.3-1.2,3.8-1.2c1.8,0,3.2,0.6,4.4,1.9c0.4,0.4,0.7,0.8,1,1.3l0.1,0.3l-1.6,0.6l-0.1-0.1
			c-0.2-0.3-0.4-0.7-0.7-0.9c-0.9-0.9-1.9-1.3-3.2-1.3c-0.2,0-0.4,0-0.6,0c-0.4,0.1-0.8,0.2-1.2,0.3c-1.3,0.5-2,1.4-2,2.7
			c0,0.9,0.5,1.6,1.6,2c0.7,0.3,1.7,0.5,2.9,0.6c1,0.1,1.9,0.3,2.7,0.7c0.6,0.3,1,0.7,1.4,1.1c0.7,0.8,1,1.7,0.9,2.8
			c-0.1,1.4-0.7,2.5-1.8,3.3C518.2,643.2,517,643.6,515.6,643.6L515.6,643.6z"/>
		<path class="st0" d="M547,641.4l-1.3,1.2l-2.5-2.8L542,641c-0.1,0.1-0.1,0.1-0.2,0.2c-0.5,0.5-1,0.9-1.6,1.2c-1.1,0.6-2.4,1-3.7,1
			c-2,0-3.7-0.7-5.2-2.1c-1.4-1.4-2.2-3.1-2.2-5.2s0.7-3.8,2.1-5.2c0.5-0.5,1.2-1,2.1-1.5l-0.6-0.8l0-0.1c-0.6-0.8-0.9-1.8-0.9-2.8
			c0-1.3,0.5-2.4,1.4-3.4c0.9-0.9,2-1.4,3.3-1.4h0c1.3,0,2.4,0.4,3.3,1.3l-1.3,1.2c-0.5-0.5-1.2-0.7-2-0.7c-0.8,0-1.6,0.3-2.1,0.9
			c-0.6,0.6-0.9,1.3-0.9,2.1c0,0.7,0.2,1.4,0.7,2l8.9,9.7l1.4-1.4l1.1-1.1l1.2,1.2l-2.5,2.5L547,641.4z M542.1,638.6l-7.2-7.9
			c-0.9,0.4-1.6,0.8-2.2,1.4c-1.1,1.1-1.6,2.4-1.6,4c0,1.5,0.5,2.9,1.6,4c1.1,1.1,2.3,1.6,3.9,1.6c1.5,0,2.8-0.5,3.9-1.5
			c0,0,0.1-0.1,0.1-0.1c0,0,0.1-0.1,0.1-0.1L542.1,638.6z"/>
		<path class="st0" d="M573.6,643.4h-1.9l-2.2-5.4h-10.4l-2.2,5.4h-1.9l9.3-22.9L573.6,643.4z M568.8,636.2l-4.5-11.1l-4.5,11.1
			H568.8z"/>
		<path class="st0" d="M582.8,627.3v1.7h0c-1.2,0-2.2,0.4-3.1,1.3c-0.9,0.9-1.3,1.9-1.3,3.1v10h-1.7v-15.8h1.7v1.7
			c0.6-0.6,1.2-1.1,2-1.4C581.1,627.5,581.9,627.3,582.8,627.3L582.8,627.3z"/>
		<path class="st0" d="M584.7,635.5c0-2.2,0.8-4.2,2.4-5.7c1.6-1.6,3.5-2.4,5.7-2.4c2.5,0,4.7,1,6.5,3.1v-2.9h1.7v22.2h-1.7v-9.2
			c-1.5,2.1-3.7,3.1-6.5,3.1c-2.2,0-4.2-0.8-5.7-2.4C585.5,639.6,584.7,637.7,584.7,635.5z M586.4,635.5c0,1.8,0.6,3.3,1.9,4.6
			c1.3,1.3,2.8,1.9,4.6,1.9c1.8,0,3.3-0.6,4.6-1.9c1.3-1.3,1.9-2.8,1.9-4.6s-0.6-3.3-1.9-4.6c-1.3-1.3-2.8-1.9-4.6-1.9
			c-1.8,0-3.3,0.6-4.6,1.9C587,632.2,586.4,633.7,586.4,635.5z"/>
		<path class="st0" d="M605.5,627.5h1.7v9.6c0,1.3,0.5,2.4,1.4,3.4c0.9,0.9,2.1,1.4,3.4,1.4s2.4-0.5,3.4-1.4
			c0.9-0.9,1.4-2.1,1.4-3.4v-9.6h1.7v15.8h-1.7v-1.8c-1.3,1.4-2.9,2-4.8,2c-1.8,0-3.3-0.6-4.5-1.9c-1.3-1.3-1.9-2.8-1.9-4.5V627.5z"
			/>
		<path class="st0" d="M623,623.6c-0.2-0.2-0.4-0.5-0.4-0.9c0-0.4,0.1-0.7,0.4-0.9c0.2-0.2,0.5-0.4,0.9-0.4c0.4,0,0.7,0.1,0.9,0.4
			c0.2,0.2,0.4,0.5,0.4,0.9c0,0.3-0.1,0.6-0.4,0.9c-0.2,0.2-0.5,0.4-0.9,0.4C623.5,624,623.2,623.9,623,623.6z M623,627.5h1.7v15.8
			H623V627.5z"/>
		<path class="st0" d="M629.1,624.6h1.7v3h2.9v1.7h-2.9v9.2c0,0.9,0.3,1.7,1,2.4c0.7,0.6,1.3,1,2,1v1.7c-1.1,0-2.2-0.5-3.1-1.5
			c-1-1-1.5-2.2-1.5-3.5V624.6z"/>
		<path class="st0" d="M643.9,627.3c1.1,0,2.2,0.2,3.2,0.6c1,0.4,1.8,1,2.6,1.7c0.7,0.7,1.3,1.6,1.7,2.6c0.4,1,0.6,2.1,0.6,3.2v0.1
			h-14.5c0,0.9,0.2,1.7,0.5,2.4c0.3,0.8,0.8,1.4,1.4,2s1.3,1,2,1.3c0.8,0.3,1.6,0.5,2.5,0.5c1.2,0,2.3-0.3,3.4-1
			c1-0.6,1.8-1.5,2.3-2.5l1.6,0.7c-0.7,1.4-1.7,2.4-2.9,3.2c-1.3,0.8-2.7,1.2-4.3,1.2c-1.1,0-2.1-0.2-3.1-0.6c-1-0.4-1.8-1-2.6-1.7
			c-0.7-0.8-1.3-1.6-1.7-2.6c-0.4-1-0.6-2.1-0.6-3.1c0-1.1,0.2-2.2,0.6-3.2c0.4-1,1-1.8,1.7-2.6c0.8-0.7,1.6-1.3,2.6-1.7
			C641.8,627.6,642.8,627.3,643.9,627.3z M650.1,633.9c-0.4-1.4-1.1-2.5-2.2-3.4c-1.2-0.9-2.5-1.4-3.9-1.4s-2.8,0.5-3.9,1.4
			c-1.1,0.9-1.9,2-2.3,3.4H650.1z"/>
		<path class="st0" d="M670.1,639.1c-0.7,1.4-1.7,2.4-2.9,3.2c-1.3,0.8-2.8,1.2-4.3,1.2c-1.1,0-2.2-0.2-3.1-0.6
			c-1-0.4-1.8-1-2.6-1.7c-0.8-0.8-1.3-1.6-1.8-2.6c-0.4-1-0.6-2.1-0.6-3.2c0-1.1,0.2-2.1,0.6-3.1c0.4-1,1-1.8,1.8-2.6
			c0.7-0.7,1.6-1.3,2.6-1.7c1-0.4,2-0.6,3.1-0.6c1.6,0,3,0.4,4.3,1.2c1.3,0.8,2.3,1.9,2.9,3.2l-1.6,0.7c-0.5-1-1.3-1.9-2.3-2.5
			c-1-0.6-2.1-1-3.4-1c-0.9,0-1.7,0.2-2.5,0.5c-0.8,0.3-1.4,0.8-2,1.4c-0.6,0.6-1,1.3-1.4,2c-0.3,0.8-0.5,1.6-0.5,2.5
			c0,0.9,0.2,1.7,0.5,2.5c0.3,0.8,0.8,1.4,1.4,2c0.6,0.6,1.3,1.1,2,1.4c0.8,0.3,1.6,0.5,2.5,0.5c1.2,0,2.3-0.3,3.4-1
			c1-0.6,1.8-1.5,2.3-2.5L670.1,639.1z"/>
		<path class="st0" d="M673.7,624.6h1.7v3h2.9v1.7h-2.9v9.2c0,0.9,0.3,1.7,1,2.4c0.7,0.6,1.3,1,2,1v1.7c-1.1,0-2.2-0.5-3.1-1.5
			c-1-1-1.5-2.2-1.5-3.5V624.6z"/>
		<path class="st0" d="M682.8,641.2c-1.6-1.6-2.4-3.5-2.4-5.7c0-2.2,0.8-4.1,2.4-5.7c1.6-1.6,3.5-2.4,5.7-2.4c2.2,0,4.1,0.8,5.7,2.4
			c1.6,1.6,2.4,3.5,2.4,5.7c0,2.3-0.8,4.2-2.4,5.7c-1.6,1.6-3.5,2.4-5.7,2.4C686.3,643.6,684.4,642.8,682.8,641.2z M684,630.9
			c-1.3,1.3-1.9,2.8-1.9,4.6s0.6,3.3,1.9,4.6c1.3,1.3,2.8,1.9,4.6,1.9c1.8,0,3.3-0.6,4.6-1.9c1.3-1.3,1.9-2.8,1.9-4.6
			s-0.6-3.3-1.9-4.6c-1.3-1.3-2.8-1.9-4.6-1.9C686.8,629,685.3,629.7,684,630.9z"/>
		<path class="st0" d="M705.6,643.6c-1.3,0-2.5-0.3-3.5-0.9c-1.3-0.7-2-1.7-2.4-2.8l1.6-0.5c0.2,0.7,0.8,1.3,1.7,1.9
			c0.7,0.4,1.6,0.6,2.6,0.6c0.1,0,0.3,0,0.4,0c0.1,0,0.3,0,0.5,0c0.4-0.1,0.8-0.2,1.1-0.3c1-0.5,1.5-1.3,1.6-2.4
			c0-0.6-0.1-1.1-0.5-1.6c-0.6-0.7-1.6-1.1-3-1.2c-2.4-0.2-4.1-0.7-5.1-1.8c-0.4-0.4-0.6-0.8-0.8-1.3c-0.1-0.4-0.2-0.8-0.2-1.2
			c0-1.5,0.6-2.6,1.7-3.5c1-0.8,2.3-1.2,3.8-1.2c1.8,0,3.2,0.6,4.4,1.9c0.4,0.4,0.7,0.8,1,1.3l0.1,0.3l-1.6,0.6l-0.1-0.1
			c-0.2-0.3-0.4-0.7-0.7-0.9c-0.9-0.9-1.9-1.3-3.2-1.3c-0.2,0-0.4,0-0.6,0c-0.4,0.1-0.8,0.2-1.2,0.3c-1.3,0.5-2,1.4-2,2.7
			c0,0.9,0.5,1.6,1.6,2c0.7,0.3,1.7,0.5,2.9,0.6c1,0.1,1.9,0.3,2.7,0.7c0.6,0.3,1,0.7,1.4,1.1c0.7,0.8,1,1.7,0.9,2.8
			c-0.1,1.4-0.7,2.5-1.8,3.3C708.1,643.2,707,643.6,705.6,643.6L705.6,643.6z"/>
	</g>
	<path class="st0" d="M649.4,560.8l-70.8-116.7c-0.4-0.6-1-0.9-1.6-0.9H548h0c-0.2,0-0.3,0-0.5,0.1c-0.1,0-0.1,0-0.2,0.1
		c-0.1,0-0.2,0.1-0.3,0.1c-0.1,0-0.1,0.1-0.1,0.1c-0.1,0.1-0.2,0.1-0.3,0.2c0,0-0.1,0.1-0.1,0.2c-0.1,0.1-0.1,0.1-0.2,0.2
		l-69.7,116.7c-0.3,0.6-0.4,1.3-0.1,1.9l15,28.9c0.3,0.6,1,1,1.7,1c0,0,0,0,0,0h139.8l0,0c0,0,0.1,0,0.1,0c0.7,0,1.3-0.4,1.5-1l0,0
		l14.6-28.9l0,0C649.7,562,649.7,561.3,649.4,560.8 M551.4,447h24.4l68.5,112.8H539.2l11.9-20.2h52.4c0.7,0,1.3-0.4,1.7-1
		c0.3-0.6,0.3-1.3,0-1.9L551.4,447L551.4,447z M552.7,535.8l8.6-15.2l9.7,15.2H552.7z M480.5,561.8l67.5-113l52.1,86.9h-24.5
		l-25.9-40.4l0-0.1h0l0,0c-0.4-0.6-1-1-1.7-0.9c-0.7,0-1.3,0.4-1.6,1l-52.9,91.3L480.5,561.8z M631.9,588.7H496.6l45.1-77.8L548,500
		l10.7,17.2l-24.5,43.6l0,0c-0.3,0.6-0.3,1.3,0,1.9c0.3,0.6,1,1,1.7,1h0H590h28.9h25.7L631.9,588.7z"/>
</g>
<g>
	<g>
		<path class="st2" d="M778.3,643.4h-1.9l-2.2-5.4h-10.4l-2.2,5.4h-1.9l9.3-22.9L778.3,643.4z M773.5,636.2l-4.5-11.1l-4.5,11.1
			H773.5z"/>
		<path class="st2" d="M777.4,627.5h1.7l4.8,11.9l4.8-11.9h1.7l-6.5,16.1L777.4,627.5z"/>
		<path class="st2" d="M800.1,643.6c-2.2,0-4.1-0.8-5.7-2.4c-1.6-1.6-2.4-3.5-2.4-5.7c0-2.2,0.8-4.2,2.4-5.7
			c1.6-1.6,3.5-2.4,5.7-2.4c2.6,0,4.7,1,6.5,3.1v-2.9h1.7v15.8h-1.7v-2.9C804.8,642.6,802.7,643.6,800.1,643.6z M800.1,629
			c-1.8,0-3.3,0.6-4.6,1.9c-1.3,1.3-1.9,2.8-1.9,4.6s0.6,3.3,1.9,4.6c1.3,1.3,2.8,1.9,4.6,1.9s3.3-0.6,4.6-1.9
			c1.3-1.3,1.9-2.8,1.9-4.6s-0.6-3.3-1.9-4.6C803.4,629.6,801.9,629,800.1,629z"/>
		<path class="st2" d="M812.9,620h1.7v23.3h-1.7V620z"/>
		<path class="st2" d="M818.7,627.5h1.7v9.6c0,1.3,0.5,2.4,1.4,3.4c0.9,0.9,2.1,1.4,3.4,1.4s2.4-0.5,3.4-1.4
			c0.9-0.9,1.4-2.1,1.4-3.4v-9.6h1.7v15.8h-1.7v-1.8c-1.3,1.4-2.9,2-4.8,2c-1.8,0-3.3-0.6-4.5-1.9c-1.3-1.3-1.9-2.8-1.9-4.5V627.5z
			 M828.1,618.8l1.4,1l-3.5,5l-1.4-0.9L828.1,618.8z"/>
		<path class="st2" d="M837.8,641.2c-1.6-1.6-2.4-3.5-2.4-5.7c0-2.2,0.8-4.1,2.4-5.7c1.6-1.6,3.5-2.4,5.7-2.4c2.2,0,4.1,0.8,5.7,2.4
			c1.6,1.6,2.4,3.5,2.4,5.7c0,2.3-0.8,4.2-2.4,5.7c-1.6,1.6-3.5,2.4-5.7,2.4C841.3,643.6,839.4,642.8,837.8,641.2z M839,630.9
			c-1.3,1.3-1.9,2.8-1.9,4.6s0.6,3.3,1.9,4.6c1.3,1.3,2.8,1.9,4.6,1.9c1.8,0,3.3-0.6,4.6-1.9c1.3-1.3,1.9-2.8,1.9-4.6
			s-0.6-3.3-1.9-4.6c-1.3-1.3-2.8-1.9-4.6-1.9C841.8,629,840.3,629.7,839,630.9z"/>
		<path class="st2" d="M860.6,643.6c-1.3,0-2.5-0.3-3.5-0.9c-1.3-0.7-2-1.7-2.4-2.8l1.6-0.5c0.2,0.7,0.8,1.3,1.7,1.9
			c0.7,0.4,1.6,0.6,2.6,0.6c0.1,0,0.3,0,0.4,0c0.1,0,0.3,0,0.5,0c0.4-0.1,0.8-0.2,1.1-0.3c1-0.5,1.5-1.3,1.6-2.4
			c0-0.6-0.1-1.1-0.5-1.6c-0.6-0.7-1.6-1.1-3-1.2c-2.4-0.2-4.1-0.7-5.1-1.8c-0.4-0.4-0.6-0.8-0.8-1.3c-0.1-0.4-0.2-0.8-0.2-1.2
			c0-1.5,0.6-2.6,1.7-3.5c1-0.8,2.3-1.2,3.8-1.2c1.8,0,3.2,0.6,4.4,1.9c0.4,0.4,0.7,0.8,1,1.3l0.1,0.3l-1.6,0.6l-0.1-0.1
			c-0.2-0.3-0.4-0.7-0.7-0.9c-0.9-0.9-1.9-1.3-3.2-1.3c-0.2,0-0.4,0-0.6,0c-0.4,0.1-0.8,0.2-1.2,0.3c-1.3,0.5-2,1.4-2,2.7
			c0,0.9,0.5,1.6,1.6,2c0.7,0.3,1.7,0.5,2.9,0.6c1,0.1,1.9,0.3,2.7,0.7c0.6,0.3,1,0.7,1.4,1.1c0.7,0.8,1,1.7,0.9,2.8
			c-0.1,1.4-0.7,2.5-1.8,3.3C863.2,643.2,862,643.6,860.6,643.6L860.6,643.6z"/>
		<path class="st2" d="M892,641.4l-1.3,1.2l-2.5-2.8L887,641c-0.1,0.1-0.1,0.1-0.2,0.2c-0.5,0.5-1,0.9-1.6,1.2c-1.1,0.6-2.4,1-3.7,1
			c-2,0-3.7-0.7-5.2-2.1c-1.4-1.4-2.2-3.1-2.2-5.2s0.7-3.8,2.1-5.2c0.5-0.5,1.2-1,2.1-1.5l-0.6-0.8l0-0.1c-0.6-0.8-0.9-1.8-0.9-2.8
			c0-1.3,0.5-2.4,1.4-3.4c0.9-0.9,2-1.4,3.3-1.4h0c1.3,0,2.4,0.4,3.3,1.3l-1.3,1.2c-0.5-0.5-1.2-0.7-2-0.7c-0.8,0-1.6,0.3-2.1,0.9
			c-0.6,0.6-0.9,1.3-0.9,2.1c0,0.7,0.2,1.4,0.7,2l8.9,9.7l1.4-1.4l1.1-1.1l1.2,1.2l-2.5,2.5L892,641.4z M887.1,638.6l-7.2-7.9
			c-0.9,0.4-1.6,0.8-2.2,1.4c-1.1,1.1-1.6,2.4-1.6,4c0,1.5,0.5,2.9,1.6,4c1.1,1.1,2.3,1.6,3.9,1.6c1.5,0,2.8-0.5,3.9-1.5
			c0,0,0.1-0.1,0.1-0.1c0,0,0.1-0.1,0.1-0.1L887.1,638.6z"/>
		<path class="st2" d="M918.6,643.4h-1.9l-2.2-5.4h-10.4l-2.2,5.4h-1.9l9.3-22.9L918.6,643.4z M913.8,636.2l-4.5-11.1l-4.5,11.1
			H913.8z"/>
		<path class="st2" d="M927.8,627.3v1.7h0c-1.2,0-2.2,0.4-3.1,1.3c-0.9,0.9-1.3,1.9-1.3,3.1v10h-1.7v-15.8h1.7v1.7
			c0.6-0.6,1.2-1.1,2-1.4C926.1,627.5,926.9,627.3,927.8,627.3L927.8,627.3z"/>
		<path class="st2" d="M929.7,635.5c0-2.2,0.8-4.2,2.4-5.7c1.6-1.6,3.5-2.4,5.7-2.4c2.5,0,4.7,1,6.5,3.1v-2.9h1.7v22.2h-1.7v-9.2
			c-1.5,2.1-3.7,3.1-6.5,3.1c-2.2,0-4.2-0.8-5.7-2.4C930.5,639.6,929.7,637.7,929.7,635.5z M931.4,635.5c0,1.8,0.6,3.3,1.9,4.6
			c1.3,1.3,2.8,1.9,4.6,1.9c1.8,0,3.3-0.6,4.6-1.9c1.3-1.3,1.9-2.8,1.9-4.6s-0.6-3.3-1.9-4.6c-1.3-1.3-2.8-1.9-4.6-1.9
			c-1.8,0-3.3,0.6-4.6,1.9C932,632.2,931.4,633.7,931.4,635.5z"/>
		<path class="st2" d="M950.5,627.5h1.7v9.6c0,1.3,0.5,2.4,1.4,3.4c0.9,0.9,2.1,1.4,3.4,1.4s2.4-0.5,3.4-1.4
			c0.9-0.9,1.4-2.1,1.4-3.4v-9.6h1.7v15.8h-1.7v-1.8c-1.3,1.4-2.9,2-4.8,2c-1.8,0-3.3-0.6-4.5-1.9c-1.3-1.3-1.9-2.8-1.9-4.5V627.5z"
			/>
		<path class="st2" d="M968,623.6c-0.2-0.2-0.4-0.5-0.4-0.9c0-0.4,0.1-0.7,0.4-0.9c0.2-0.2,0.5-0.4,0.9-0.4c0.4,0,0.7,0.1,0.9,0.4
			c0.2,0.2,0.4,0.5,0.4,0.9c0,0.3-0.1,0.6-0.4,0.9c-0.2,0.2-0.5,0.4-0.9,0.4C968.5,624,968.2,623.9,968,623.6z M968,627.5h1.7v15.8
			H968V627.5z"/>
		<path class="st2" d="M974.1,624.6h1.7v3h2.9v1.7h-2.9v9.2c0,0.9,0.3,1.7,1,2.4c0.7,0.6,1.3,1,2,1v1.7c-1.1,0-2.2-0.5-3.1-1.5
			c-1-1-1.5-2.2-1.5-3.5V624.6z"/>
		<path class="st2" d="M988.9,627.3c1.1,0,2.2,0.2,3.2,0.6c1,0.4,1.8,1,2.6,1.7c0.7,0.7,1.3,1.6,1.7,2.6c0.4,1,0.6,2.1,0.6,3.2v0.1
			h-14.5c0,0.9,0.2,1.7,0.5,2.4c0.3,0.8,0.8,1.4,1.4,2s1.3,1,2,1.3c0.8,0.3,1.6,0.5,2.5,0.5c1.2,0,2.3-0.3,3.4-1
			c1-0.6,1.8-1.5,2.3-2.5l1.6,0.7c-0.7,1.4-1.7,2.4-2.9,3.2c-1.3,0.8-2.7,1.2-4.3,1.2c-1.1,0-2.1-0.2-3.1-0.6c-1-0.4-1.8-1-2.6-1.7
			c-0.7-0.8-1.3-1.6-1.7-2.6c-0.4-1-0.6-2.1-0.6-3.1c0-1.1,0.2-2.2,0.6-3.2c0.4-1,1-1.8,1.7-2.6c0.8-0.7,1.6-1.3,2.6-1.7
			C986.8,627.6,987.8,627.3,988.9,627.3z M995.1,633.9c-0.4-1.4-1.1-2.5-2.2-3.4c-1.2-0.9-2.5-1.4-3.9-1.4s-2.8,0.5-3.9,1.4
			c-1.1,0.9-1.9,2-2.3,3.4H995.1z"/>
		<path class="st2" d="M1015.1,639.1c-0.7,1.4-1.7,2.4-2.9,3.2c-1.3,0.8-2.8,1.2-4.3,1.2c-1.1,0-2.2-0.2-3.1-0.6
			c-1-0.4-1.8-1-2.6-1.7c-0.8-0.8-1.3-1.6-1.8-2.6c-0.4-1-0.6-2.1-0.6-3.2c0-1.1,0.2-2.1,0.6-3.1c0.4-1,1-1.8,1.8-2.6
			c0.7-0.7,1.6-1.3,2.6-1.7c1-0.4,2-0.6,3.1-0.6c1.6,0,3,0.4,4.3,1.2c1.3,0.8,2.3,1.9,2.9,3.2l-1.6,0.7c-0.5-1-1.3-1.9-2.3-2.5
			c-1-0.6-2.1-1-3.4-1c-0.9,0-1.7,0.2-2.5,0.5c-0.8,0.3-1.4,0.8-2,1.4c-0.6,0.6-1,1.3-1.4,2c-0.3,0.8-0.5,1.6-0.5,2.5
			c0,0.9,0.2,1.7,0.5,2.5c0.3,0.8,0.8,1.4,1.4,2c0.6,0.6,1.3,1.1,2,1.4c0.8,0.3,1.6,0.5,2.5,0.5c1.2,0,2.3-0.3,3.4-1
			c1-0.6,1.8-1.5,2.3-2.5L1015.1,639.1z"/>
		<path class="st2" d="M1018.7,624.6h1.7v3h2.9v1.7h-2.9v9.2c0,0.9,0.3,1.7,1,2.4c0.7,0.6,1.3,1,2,1v1.7c-1.1,0-2.2-0.5-3.1-1.5
			c-1-1-1.5-2.2-1.5-3.5V624.6z"/>
		<path class="st2" d="M1027.8,641.2c-1.6-1.6-2.4-3.5-2.4-5.7c0-2.2,0.8-4.1,2.4-5.7c1.6-1.6,3.5-2.4,5.7-2.4
			c2.2,0,4.1,0.8,5.7,2.4c1.6,1.6,2.4,3.5,2.4,5.7c0,2.3-0.8,4.2-2.4,5.7c-1.6,1.6-3.5,2.4-5.7,2.4
			C1031.3,643.6,1029.4,642.8,1027.8,641.2z M1029,630.9c-1.3,1.3-1.9,2.8-1.9,4.6s0.6,3.3,1.9,4.6c1.3,1.3,2.8,1.9,4.6,1.9
			c1.8,0,3.3-0.6,4.6-1.9c1.3-1.3,1.9-2.8,1.9-4.6s-0.6-3.3-1.9-4.6c-1.3-1.3-2.8-1.9-4.6-1.9C1031.8,629,1030.3,629.7,1029,630.9z"
			/>
		<path class="st2" d="M1050.6,643.6c-1.3,0-2.5-0.3-3.5-0.9c-1.3-0.7-2-1.7-2.4-2.8l1.6-0.5c0.2,0.7,0.8,1.3,1.7,1.9
			c0.7,0.4,1.6,0.6,2.6,0.6c0.1,0,0.3,0,0.4,0c0.1,0,0.3,0,0.5,0c0.4-0.1,0.8-0.2,1.1-0.3c1-0.5,1.5-1.3,1.6-2.4
			c0-0.6-0.1-1.1-0.5-1.6c-0.6-0.7-1.6-1.1-3-1.2c-2.4-0.2-4.1-0.7-5.1-1.8c-0.4-0.4-0.6-0.8-0.8-1.3c-0.1-0.4-0.2-0.8-0.2-1.2
			c0-1.5,0.6-2.6,1.7-3.5c1-0.8,2.3-1.2,3.8-1.2c1.8,0,3.2,0.6,4.4,1.9c0.4,0.4,0.7,0.8,1,1.3l0.1,0.3l-1.6,0.6l-0.1-0.1
			c-0.2-0.3-0.4-0.7-0.7-0.9c-0.9-0.9-1.9-1.3-3.2-1.3c-0.2,0-0.4,0-0.6,0c-0.4,0.1-0.8,0.2-1.2,0.3c-1.3,0.5-2,1.4-2,2.7
			c0,0.9,0.5,1.6,1.6,2c0.7,0.3,1.7,0.5,2.9,0.6c1,0.1,1.9,0.3,2.7,0.7c0.6,0.3,1,0.7,1.4,1.1c0.7,0.8,1,1.7,0.9,2.8
			c-0.1,1.4-0.7,2.5-1.8,3.3C1053.1,643.2,1052,643.6,1050.6,643.6L1050.6,643.6z"/>
	</g>
	<path class="st2" d="M994.4,560.8l-70.8-116.7c-0.4-0.6-1-0.9-1.6-0.9H893h0c-0.2,0-0.3,0-0.5,0.1c-0.1,0-0.1,0-0.2,0.1
		c-0.1,0-0.2,0.1-0.3,0.1c-0.1,0-0.1,0.1-0.1,0.1c-0.1,0.1-0.2,0.1-0.3,0.2c0,0-0.1,0.1-0.1,0.2c-0.1,0.1-0.1,0.1-0.2,0.2
		l-69.7,116.7c-0.3,0.6-0.4,1.3-0.1,1.9l15,28.9c0.3,0.6,1,1,1.7,1c0,0,0,0,0,0h139.8l0,0c0,0,0.1,0,0.1,0c0.7,0,1.3-0.4,1.5-1l0,0
		l14.6-28.9l0,0C994.7,562,994.7,561.3,994.4,560.8 M896.4,447h24.4l68.5,112.8H884.2l11.9-20.2h52.4c0.7,0,1.3-0.4,1.7-1
		c0.3-0.6,0.3-1.3,0-1.9L896.4,447L896.4,447z M897.7,535.8l8.6-15.2l9.7,15.2H897.7z M825.5,561.8l67.5-113l52.1,86.9h-24.5
		l-25.9-40.4l0-0.1h0l0,0c-0.4-0.6-1-1-1.7-0.9c-0.7,0-1.3,0.4-1.6,1l-52.9,91.3L825.5,561.8z M976.9,588.7H841.6l45.1-77.8L893,500
		l10.7,17.2l-24.5,43.6l0,0c-0.3,0.6-0.3,1.3,0,1.9c0.3,0.6,1,1,1.7,1h0H935h28.9h25.7L976.9,588.7z"/>
</g>
</svg>
