<svg id="Layer_1" data-name="Layer 1" xmlns="http://www.w3.org/2000/svg" viewBox="0 0 596 370"><defs><style>.cls-1{fill:#fff;}</style></defs><title>logo_blanco</title><path class="cls-1" d="M336.39,47.49c-81,70-81,158-68.17,205.31s-.83,64.69-.83,64.69,5-30-3-57.55c-6.21-21.39-19.5-81.95-1.5-119.95,0,0-17,8-30-7,0,0,22,9,37-11,0,0,26-52,65-75l4-2Z"/><path class="cls-1" d="M205.89,251s9,28,4,51c0,0,10-25,5-38C214.89,264,211.89,255,205.89,251Z"/><path class="cls-1" d="M160.89,310s-23.5-43.5,6.5-97.5c0,0,41-77,16-108,0,0-19-32-47.5,71.5,0,0-15.5,55.5-86.5,98.5,0,0,64-46,80-99,0,0,22-88,46-83,0,0,42,5,13,85l-17,39S151.39,250.49,160.89,310Z"/><path class="cls-1" d="M339.92,142.45a16.5,16.5,0,0,1-3,5.9,18.16,18.16,0,0,1-27.17,0,21.17,21.17,0,0,1-4.27-13.64c0-5,1.21-9.79,4.27-13.64C313,117,318,115,323.33,115a17,17,0,0,1,13.59,6.11,20.49,20.49,0,0,1,3.37,6.9l-5.27.9a14.09,14.09,0,0,0-2.16-4.69,11.87,11.87,0,0,0-9.53-4.37,11.57,11.57,0,0,0-9.48,4.37c-2.26,2.84-2.9,6.74-3,10.53s.68,7.64,3,10.53a11.57,11.57,0,0,0,9.48,4.37,11.75,11.75,0,0,0,9.53-4.37,13.61,13.61,0,0,0,2-4.21Z"/><path class="cls-1" d="M351.87,146.66a7.94,7.94,0,0,0,6.42,3,7.86,7.86,0,0,0,6.42-3c.32-.47.53-.9.79-1.32l5.05,2.16a18.42,18.42,0,0,1-1.58,2.37,13.39,13.39,0,0,1-10.69,4.58c-4.11-.11-8-1.58-10.48-4.69a15.87,15.87,0,0,1-3.32-10.32c.11-3.79.95-7.42,3.32-10.37a14.23,14.23,0,0,1,21,0,16.65,16.65,0,0,1,3.26,10.37c0,.47-.05.95-.05,1.42H350A10.81,10.81,0,0,0,351.87,146.66Zm0-14.43a10.12,10.12,0,0,0-1.74,4.48h16.32a10.34,10.34,0,0,0-1.74-4.48,8.46,8.46,0,0,0-12.84,0Z"/><path class="cls-1" d="M403.05,139.61v14.06h-5.16V139.61c0-3.63-.42-6.74-2.79-8.64a7.72,7.72,0,0,0-5.11-1.53,6.85,6.85,0,0,0-6.74,6,16.72,16.72,0,0,0-.32,3.74v14.48h-5.16V125.22h4.58V128l.53-.53a12.18,12.18,0,0,1,7.64-3,11.94,11.94,0,0,1,8.16,2.58C402.47,130.18,403.1,134.5,403.05,139.61Z"/><path class="cls-1" d="M417.53,142.4c0,2.32,0,3.84.63,4.95a4.2,4.2,0,0,0,3.21,2.05,20.41,20.41,0,0,0,4.68-.21v4.48a17.13,17.13,0,0,1-6.94.21,7.64,7.64,0,0,1-5.53-3.9c-1.06-2.11-1.17-4.42-1.17-7.27V129.39h-6.2v-4.16h6.2v-7.9h5.11v7.9h8.53v4.16h-8.53v13Z"/><path class="cls-1" d="M449.76,125.12v4.79a11.33,11.33,0,0,0-4.58-.68,7.68,7.68,0,0,0-5.27,2.11c-2.16,2-2.42,4.79-2.42,8.21v14.11h-5.11V125.22h4.53v4.16a9.1,9.1,0,0,1,2.63-2.9,10.06,10.06,0,0,1,6.06-2A9.93,9.93,0,0,1,449.76,125.12Z"/><path class="cls-1" d="M455.7,149.77a16,16,0,0,1-3.32-10.32,16.28,16.28,0,0,1,3.32-10.37,14.23,14.23,0,0,1,21,0,17.78,17.78,0,0,1,0,20.69,13.14,13.14,0,0,1-10.53,4.69A13.34,13.34,0,0,1,455.7,149.77Zm18.91-10.32a12.05,12.05,0,0,0-1.95-7.27,8,8,0,0,0-6.48-2.9,7.75,7.75,0,0,0-6.42,2.9,12.1,12.1,0,0,0-1.95,7.27,11.83,11.83,0,0,0,1.95,7.21,7.79,7.79,0,0,0,6.42,3,8,8,0,0,0,6.48-3A11.87,11.87,0,0,0,474.61,139.45Z"/><path class="cls-1" d="M332.28,176.41v37.91h-4.53v-3a12,12,0,0,1-9.22,3.79,12.56,12.56,0,0,1-9.85-4.58,16.45,16.45,0,0,1-3.21-10.43,17,17,0,0,1,3.21-10.48,12.42,12.42,0,0,1,9.85-4.53,13.11,13.11,0,0,1,8.64,3.16V176.4h5.11Zm-4.53,23.7c0-2.9-.63-5.74-2.21-7.64a7.68,7.68,0,0,0-6.21-2.74,7.53,7.53,0,0,0-6.48,3.05c-1.42,1.84-2,4.53-2,7.32s.47,5.42,1.84,7.27a7.7,7.7,0,0,0,6.42,3.11,8.16,8.16,0,0,0,6.37-2.74C327.12,205.85,327.75,203,327.75,200.11Z"/><path class="cls-1" d="M345.44,207.32a7.94,7.94,0,0,0,6.42,3,7.86,7.86,0,0,0,6.42-3c.32-.47.53-.9.79-1.32l5.05,2.16a18.42,18.42,0,0,1-1.58,2.37,13.39,13.39,0,0,1-10.69,4.58c-4.11-.11-8-1.58-10.48-4.69a15.87,15.87,0,0,1-3.32-10.32c.11-3.79.95-7.43,3.32-10.37a14.23,14.23,0,0,1,21,0,16.65,16.65,0,0,1,3.26,10.37c0,.47-.05,1-.05,1.42H343.53A10.9,10.9,0,0,0,345.44,207.32Zm0-14.43a10.12,10.12,0,0,0-1.74,4.48H360a10.1,10.1,0,0,0-1.74-4.48,7.59,7.59,0,0,0-6.42-2.95A7.67,7.67,0,0,0,345.44,192.89Z"/><path class="cls-1" d="M415.74,203.11a16.5,16.5,0,0,1-3,5.9,18.16,18.16,0,0,1-27.17,0,21.17,21.17,0,0,1-4.27-13.64c.05-5,1.21-9.79,4.27-13.64,3.21-4.11,8.21-6.11,13.58-6.11a17,17,0,0,1,13.59,6.11,20.68,20.68,0,0,1,3.37,6.9l-5.27.9a14.1,14.1,0,0,0-2.17-4.69,11.84,11.84,0,0,0-9.53-4.37,11.57,11.57,0,0,0-9.48,4.37c-2.26,2.84-2.9,6.74-2.94,10.53s.68,7.64,2.94,10.53a11.57,11.57,0,0,0,9.48,4.37,11.73,11.73,0,0,0,9.53-4.37,13.17,13.17,0,0,0,2-4.21Z"/><path class="cls-1" d="M427.53,176.15v5.11h-5.11v-5.11Zm0,9.74v28.44h-5.11V185.89Z"/><path class="cls-1" d="M452.81,185.78v4.79a11.33,11.33,0,0,0-4.58-.68A7.63,7.63,0,0,0,443,192c-2.16,2.05-2.42,4.79-2.42,8.21v14.11h-5.11V185.89H440v4.16a9.1,9.1,0,0,1,2.63-2.9,10.06,10.06,0,0,1,6.06-2A9.74,9.74,0,0,1,452.81,185.78Z"/><path class="cls-1" d="M482,185.89v28.44H477.5v-2.84a6.34,6.34,0,0,1-.58.58,12.08,12.08,0,0,1-7.64,3,11.94,11.94,0,0,1-8.16-2.58c-3.79-3.05-4.42-7.37-4.37-12.48V185.89h5.16V200c0,3.63.42,6.74,2.79,8.58a7.78,7.78,0,0,0,5.11,1.58,7.3,7.3,0,0,0,4.32-1.63,7.07,7.07,0,0,0,2.42-4.37,16.72,16.72,0,0,0,.32-3.74V185.89Z"/><path class="cls-1" d="M514.57,185.89V214.8c0,4.95-1.32,8.16-4.63,10.43a14.66,14.66,0,0,1-8.64,2.47,11.52,11.52,0,0,1-7.64-2.69,9.83,9.83,0,0,1-3.58-3.47l4.69-2.32a5.16,5.16,0,0,0,1.26,1.53,7.41,7.41,0,0,0,5.32,2.11,9.08,9.08,0,0,0,5.83-1.84c1.84-1.47,2.32-3.11,2.27-6.27V212A13,13,0,0,1,491,210.54a16.16,16.16,0,0,1-3.21-10.43A17,17,0,0,1,491,189.63a12.35,12.35,0,0,1,9.85-4.53,12.77,12.77,0,0,1,9.22,3.74v-3Zm-6.68,21.85c1.58-1.9,2.21-4.79,2.21-7.63s-.63-5.74-2.21-7.64a7.75,7.75,0,0,0-6.21-2.74,7.62,7.62,0,0,0-6.53,3.05c-1.37,1.84-1.9,4.53-1.9,7.32s.47,5.42,1.84,7.27a7.68,7.68,0,0,0,6.42,3.11A8.26,8.26,0,0,0,507.89,207.74Z"/><path class="cls-1" d="M519.21,182.47l-1.43-3.79,13.07-5.06,1.37,3.84Zm3.26,3.42v28.44h5.11V185.89Z"/><path class="cls-1" d="M535,191.16l.74-1.11c2.53-3.37,6.27-4.9,10.68-4.9,5.21,0,9.48,1.84,11.58,6.11a12.15,12.15,0,0,1,1.21,5.21v17.85h-4.53V208.9a10.48,10.48,0,0,1-4.58,4.48,13.5,13.5,0,0,1-7.06,1.69,9.91,9.91,0,0,1-7.32-3.63,9,9,0,0,1-1.84-5.42,8.43,8.43,0,0,1,4.32-7.32c3-1.74,5.95-1.95,10.27-2.58l5.48-.79a5.61,5.61,0,0,0-2.26-3.84,8.56,8.56,0,0,0-5.37-1.53,7.35,7.35,0,0,0-6,2.58,5.35,5.35,0,0,0-.63.9Zm12.75,9.47c-4.21.68-8.69,1.42-8.74,5.06a4.86,4.86,0,0,0,4.79,4.69c3.58.16,8-1.79,9.43-5.42a11.07,11.07,0,0,0,.95-5.37C552.54,199.84,550.69,200.11,547.75,200.63Z"/><path class="cls-1" d="M333.39,256.61a12.08,12.08,0,0,1-9.43,4.53H312.68V275h-5.1V237.08H324a12.14,12.14,0,0,1,9.17,4.31,11.69,11.69,0,0,1,.26,15.22Zm-2.53-7.48a7.72,7.72,0,0,0-1.95-4.95,7.33,7.33,0,0,0-5-2.26H312.69V256.3h11.22a7.12,7.12,0,0,0,5.37-2.69A7,7,0,0,0,330.86,249.13Z"/><path class="cls-1" d="M341.28,275v-38.7h5.11V275Z"/><path class="cls-1" d="M353.29,251.81l.74-1.11c2.53-3.37,6.27-4.9,10.69-4.9,5.2,0,9.48,1.84,11.57,6.11a12.15,12.15,0,0,1,1.21,5.21V275H373v-5.42a10.48,10.48,0,0,1-4.58,4.48,13.4,13.4,0,0,1-7.06,1.68,9.91,9.91,0,0,1-7.32-3.63,9,9,0,0,1-1.84-5.42,8.43,8.43,0,0,1,4.32-7.32c3.05-1.74,5.95-1.95,10.27-2.58l5.48-.79a5.61,5.61,0,0,0-2.26-3.84,8.56,8.56,0,0,0-5.37-1.53,7.35,7.35,0,0,0-6,2.58,5.35,5.35,0,0,0-.63.9ZM366,261.29c-4.21.69-8.69,1.42-8.74,5.06a4.86,4.86,0,0,0,4.79,4.69c3.58.16,8-1.79,9.43-5.42a11.07,11.07,0,0,0,.95-5.37C370.82,260.5,369,260.77,366,261.29Zm7-23.17-1.37-3.84-13.06,5.06,1.42,3.79Z"/><path class="cls-1" d="M401.68,255.24a6.74,6.74,0,0,0-3.16-3.74,8.45,8.45,0,0,0-3.84-.9,8.87,8.87,0,0,0-3.9.79,3,3,0,0,0-1.79,2.42,2.55,2.55,0,0,0,.63,1.74,8.38,8.38,0,0,0,3.48,1.63c1.37.42,3.16.9,5.16,1.42a13.4,13.4,0,0,1,5.53,2.58,7.3,7.3,0,0,1,3,6.58,8,8,0,0,1-3.79,6.11,14.68,14.68,0,0,1-7.9,1.9c-3.79,0-7.16-1-9.64-3.74a13.85,13.85,0,0,1-3-6.32l4.9-1.21a7.93,7.93,0,0,0,1.79,4.21,7.67,7.67,0,0,0,5.9,2.16c1.79,0,4-.32,5.16-1.21a3.2,3.2,0,0,0,1.37-2.32,2.9,2.9,0,0,0-1-2.42,9.12,9.12,0,0,0-3.79-1.74c-1.42-.42-3-.79-4.84-1.32a14.57,14.57,0,0,1-5.58-2.48,7.09,7.09,0,0,1-2.63-5.48,7.92,7.92,0,0,1,4.84-7.06,13.61,13.61,0,0,1,6.11-1.11,12.88,12.88,0,0,1,6,1.42,11.86,11.86,0,0,1,5.95,6.85Z"/><path class="cls-1" d="M420.53,263.71c0,2.32,0,3.84.63,5a4.23,4.23,0,0,0,3.21,2,19.86,19.86,0,0,0,4.68-.21V275a17.13,17.13,0,0,1-6.94.21,7.64,7.64,0,0,1-5.53-3.9c-1.06-2.11-1.17-4.42-1.17-7.27V250.7h-6.2v-4.16h6.2v-7.9h5.11v7.9h8.53v4.16h-8.53v13Z"/><path class="cls-1" d="M441,236.81v5.11H435.9v-5.11Zm0,9.74V275H435.9V246.55Z"/><path class="cls-1" d="M468.39,254.92a12.53,12.53,0,0,0-.84-1.37,8.46,8.46,0,0,0-12.84,0,14,14,0,0,0,0,14.42,7.83,7.83,0,0,0,6.42,2.95,7.93,7.93,0,0,0,6.42-2.95,9.6,9.6,0,0,0,.79-1.32l4.79,2.05a11.54,11.54,0,0,1-1.53,2.37,14.18,14.18,0,0,1-21,0,17.78,17.78,0,0,1,0-20.69,13.2,13.2,0,0,1,10.48-4.63,13.4,13.4,0,0,1,10.48,4.63,11.24,11.24,0,0,1,1.53,2.48Z"/><path class="cls-1" d="M478.19,251.81l.74-1.11c2.53-3.37,6.27-4.9,10.69-4.9,5.21,0,9.48,1.84,11.58,6.11a12.28,12.28,0,0,1,1.2,5.21V275h-4.53v-5.42a10.48,10.48,0,0,1-4.58,4.48,13.38,13.38,0,0,1-7.06,1.68,9.91,9.91,0,0,1-7.32-3.63,9.06,9.06,0,0,1-1.83-5.42,8.44,8.44,0,0,1,4.31-7.32c3.06-1.74,5.95-1.95,10.27-2.58l5.48-.79a5.61,5.61,0,0,0-2.26-3.84,8.56,8.56,0,0,0-5.37-1.53,7.35,7.35,0,0,0-6,2.58,5.35,5.35,0,0,0-.63.9Zm12.74,9.48c-4.21.69-8.69,1.42-8.74,5.06A4.86,4.86,0,0,0,487,271c3.58.16,8-1.79,9.43-5.42a11.07,11.07,0,0,0,.95-5.37C495.72,260.5,493.88,260.77,490.93,261.29Z"/></svg>