<svg id="Capa_1" data-name="Capa 1" xmlns="http://www.w3.org/2000/svg" viewBox="0 0 819 768"><defs><style>.cls-1{fill:#fff;}</style></defs><title>logo_blanco</title><path class="cls-1" d="M735,77c-7.8,6-178,129-172,380,1.79,75,23.61,135.46,29,165.94,3,17.06,2.81,43.47-10,69.06,8-33,7-57-22-145,0,0-38-147,5-253,1-1-46,14-63-31,1-1,32,27,72-5C676,96,735,77,735,77Z"/><path class="cls-1" d="M69,574S250,425,265,327c22-101,37-151,91-150,30,.56,62,55,62,144-2,36-10,74-58,129-39,54-90,85-33,238,5,0-77-111-5-209,61-79,86-114,72-197-6-33-17.17-79.86-41-77-25,3-41,10-66.32,128.5C276,363,277,381,230,436,200,473,69,574,69,574Z"/><path class="cls-1" d="M433,550s22,64,11,119c-2,0,16-23,13-58S433,550,433,550Z"/></svg>