<?xml version="1.0" encoding="utf-8"?>
<!-- Generator: Adobe Illustrator 23.0.0, SVG Export Plug-In . SVG Version: 6.00 Build 0)  -->
<svg version="1.1" id="Layer_1" xmlns="http://www.w3.org/2000/svg" xmlns:xlink="http://www.w3.org/1999/xlink" x="0px" y="0px"
	 viewBox="0 0 596 370" style="enable-background:new 0 0 596 370;" xml:space="preserve">
<style type="text/css">
	.st0{fill:url(#SVGID_1_);}
	.st1{fill:url(#SVGID_2_);}
	.st2{fill:url(#SVGID_3_);}
	.st3{fill:#250D54;}
	.st4{fill:#FFFFFF;}
	.st5{fill:url(#SVGID_4_);}
	.st6{fill:url(#SVGID_5_);}
	.st7{fill:url(#SVGID_6_);}
	.st8{fill:url(#SVGID_7_);}
	.st9{fill:url(#SVGID_8_);}
	.st10{fill:url(#SVGID_9_);}
	.st11{fill:url(#SVGID_10_);}
	.st12{fill:url(#SVGID_11_);}
	.st13{fill:url(#SVGID_12_);}
	.st14{fill:url(#SVGID_13_);}
	.st15{fill:url(#SVGID_14_);}
	.st16{fill:url(#SVGID_15_);}
	.st17{fill:url(#SVGID_16_);}
	.st18{fill:url(#SVGID_17_);}
	.st19{fill:url(#SVGID_18_);}
	.st20{fill:url(#SVGID_19_);}
	.st21{fill:url(#SVGID_20_);}
	.st22{fill:url(#SVGID_21_);}
</style>
<g>
	<linearGradient id="SVGID_1_" gradientUnits="userSpaceOnUse" x1="224.5" y1="183.75" x2="330.5" y2="183.75">
		<stop  offset="0" style="stop-color:#0E0979"/>
		<stop  offset="1" style="stop-color:#9600FF"/>
	</linearGradient>
	<path class="st0" d="M328,50c-81,70-81,158-68.17,205.31C272.66,302.61,259,320,259,320s5-30-3-57.55
		c-6.21-21.39-19.5-81.95-1.5-119.95c0,0-17,8-30-7c0,0,22,9,37-11c0,0,26-52,65-75l4-2L328,50z"/>
	<linearGradient id="SVGID_2_" gradientUnits="userSpaceOnUse" x1="197.5" y1="279" x2="207.9" y2="279">
		<stop  offset="0" style="stop-color:#0E0979"/>
		<stop  offset="1" style="stop-color:#9600FF"/>
	</linearGradient>
	<path class="st1" d="M197.5,253.5c0,0,9,28,4,51c0,0,10-25,5-38C206.5,266.5,203.5,257.5,197.5,253.5z"/>
	<linearGradient id="SVGID_3_" gradientUnits="userSpaceOnUse" x1="41" y1="203.6474" x2="190.2087" y2="203.6474">
		<stop  offset="0" style="stop-color:#0E0979"/>
		<stop  offset="1" style="stop-color:#9600FF"/>
	</linearGradient>
	<path class="st2" d="M152.5,312.5c0,0-23.5-43.5,6.5-97.5c0,0,41-77,16-108c0,0-19-32-47.5,71.5c0,0-15.5,55.5-86.5,98.5
		c0,0,64-46,80-99c0,0,22-88,46-83c0,0,42,5,13,85l-17,39C163,219,143,253,152.5,312.5z"/>
</g>
<g>
	<path class="st3" d="M331.53,144.96c-0.58,2.11-1.58,4.11-3,5.9c-3.32,4.16-8.32,6.11-13.59,6.11c-5.48,0-10.37-2.11-13.58-6.11
		c-3.11-3.9-4.32-8.74-4.27-13.64c0.05-5,1.21-9.79,4.27-13.64c3.21-4.11,8.21-6.11,13.58-6.11s10.37,2.05,13.59,6.11
		c1.63,2.11,2.69,4.53,3.37,6.9l-5.27,0.9c-0.47-1.74-1.16-3.32-2.16-4.69c-2.21-2.9-5.84-4.37-9.53-4.37
		c-3.74,0-7.37,1.47-9.48,4.37c-2.26,2.84-2.9,6.74-2.95,10.53c0.05,3.79,0.68,7.64,2.95,10.53c2.11,2.9,5.74,4.37,9.48,4.37
		c3.69,0.05,7.32-1.47,9.53-4.37c0.9-1.26,1.58-2.69,2-4.21L331.53,144.96z"/>
	<path class="st3" d="M343.48,149.17c1.47,1.95,3.9,2.95,6.42,2.95c2.58,0,4.95-1,6.42-2.95c0.32-0.47,0.53-0.9,0.79-1.32l5.05,2.16
		c-0.47,0.84-1,1.63-1.58,2.37c-2.63,3.11-6.58,4.69-10.69,4.58c-4.11-0.11-8-1.58-10.48-4.69c-2.42-3-3.37-6.69-3.32-10.32
		c0.11-3.79,0.95-7.42,3.32-10.37c2.53-3.05,6.37-4.63,10.48-4.63c4.16,0,7.95,1.53,10.53,4.63c2.32,2.95,3.26,6.69,3.26,10.37
		c0,0.47-0.05,0.95-0.05,1.42h-22.06C341.74,145.54,342.27,147.59,343.48,149.17z M343.48,134.74c-0.95,1.26-1.47,2.84-1.74,4.48
		h16.32c-0.26-1.63-0.79-3.21-1.74-4.48c-1.47-2-3.84-3-6.42-2.95C347.37,131.74,344.95,132.74,343.48,134.74z"/>
	<path class="st3" d="M394.66,142.12v14.06h-5.16v-14.06c0-3.63-0.42-6.74-2.79-8.64c-1.32-1.05-3.05-1.58-5.11-1.53
		c-1.63,0.11-3.16,0.63-4.32,1.58c-1.26,1.05-2.05,2.63-2.42,4.42c-0.26,1.11-0.32,2.37-0.32,3.74v14.48h-5.16v-28.44h4.58v2.79
		l0.53-0.53c2.16-1.95,5-2.84,7.64-2.95c2.9-0.16,5.95,0.74,8.16,2.58C394.08,132.69,394.71,137.01,394.66,142.12z"/>
	<path class="st3" d="M409.14,144.91c0,2.32-0.05,3.84,0.63,4.95c0.63,1.16,1.9,1.9,3.21,2.05c1.47,0.1,3.21,0.05,4.69-0.21v4.48
		c-2,0.53-5,0.63-6.95,0.21c-2.53-0.58-4.48-1.79-5.53-3.9c-1.05-2.11-1.16-4.42-1.16-7.27V131.9h-6.21v-4.16h6.21v-7.9h5.11v7.9
		h8.53v4.16h-8.53V144.91z"/>
	<path class="st3" d="M441.37,127.63v4.79c-1.32-0.53-2.9-0.74-4.58-0.68c-2.21,0.11-4.05,0.84-5.27,2.11
		c-2.16,2.05-2.42,4.79-2.42,8.21v14.11h-5.11v-28.44h4.53v4.16c0.63-1.11,1.47-2.05,2.63-2.9c1.74-1.37,3.9-1.95,6.06-2
		C438.57,126.9,440,127.11,441.37,127.63z"/>
	<path class="st3" d="M447.31,152.28c-2.42-3-3.32-6.58-3.32-10.32c0-3.84,1-7.48,3.32-10.37c2.42-3,6.37-4.63,10.48-4.63
		s8,1.53,10.53,4.63c2.42,3.05,3.32,6.63,3.32,10.37c0,3.84-0.95,7.32-3.32,10.32c-2.58,3.16-6.32,4.69-10.53,4.69
		C453.69,156.96,449.84,155.38,447.31,152.28z M466.22,141.96c0-2.63-0.47-5.32-1.95-7.27s-3.9-2.9-6.48-2.9
		c-2.58,0-5,0.95-6.42,2.9c-1.47,1.95-1.95,4.63-1.95,7.27s0.47,5.27,1.95,7.21c1.42,1.95,3.84,2.95,6.42,2.95c2.58,0,5-1,6.48-2.95
		C465.75,147.22,466.22,144.59,466.22,141.96z"/>
	<path class="st3" d="M323.89,178.92v37.91h-4.53v-3c-2.26,2.53-5.53,3.79-9.22,3.79c-3.84,0-7.48-1.63-9.85-4.58
		c-2.37-3-3.21-6.69-3.21-10.43c0-3.79,0.95-7.58,3.21-10.48c2.32-2.95,6-4.53,9.85-4.53c3.27,0,6.37,1.16,8.64,3.16v-11.85H323.89z
		 M319.36,202.62c0-2.9-0.63-5.74-2.21-7.64c-1.42-1.84-3.74-2.74-6.21-2.74c-2.69,0-5,0.95-6.48,3.05
		c-1.42,1.84-1.95,4.53-1.95,7.32c0,2.74,0.47,5.42,1.84,7.27c1.47,2.11,3.95,3.11,6.42,3.11c2.58,0,4.84-0.95,6.37-2.74
		C318.73,208.36,319.36,205.46,319.36,202.62z"/>
	<path class="st3" d="M337.05,209.83c1.47,1.95,3.9,2.95,6.42,2.95c2.58,0,4.95-1,6.42-2.95c0.32-0.47,0.53-0.9,0.79-1.32l5.05,2.16
		c-0.47,0.84-1,1.63-1.58,2.37c-2.63,3.11-6.58,4.69-10.69,4.58c-4.11-0.11-8-1.58-10.48-4.69c-2.42-3-3.37-6.69-3.32-10.32
		c0.11-3.79,0.95-7.43,3.32-10.37c2.53-3.05,6.37-4.63,10.48-4.63c4.16,0,7.95,1.53,10.53,4.63c2.32,2.95,3.26,6.69,3.26,10.37
		c0,0.47-0.05,0.95-0.05,1.42h-22.06C335.32,206.2,335.84,208.25,337.05,209.83z M337.05,195.4c-0.95,1.26-1.47,2.84-1.74,4.48
		h16.32c-0.26-1.63-0.79-3.21-1.74-4.48c-1.47-2-3.84-3-6.42-2.95C340.95,192.4,338.53,193.4,337.05,195.4z"/>
	<path class="st3" d="M407.35,205.62c-0.58,2.11-1.58,4.11-3,5.9c-3.32,4.16-8.32,6.11-13.59,6.11c-5.48,0-10.37-2.11-13.58-6.11
		c-3.11-3.9-4.32-8.74-4.27-13.64c0.05-5,1.21-9.79,4.27-13.64c3.21-4.11,8.21-6.11,13.58-6.11s10.37,2.05,13.59,6.11
		c1.63,2.11,2.69,4.53,3.37,6.9l-5.27,0.9c-0.47-1.74-1.16-3.32-2.16-4.69c-2.21-2.9-5.84-4.37-9.53-4.37
		c-3.74,0-7.37,1.47-9.48,4.37c-2.26,2.84-2.9,6.74-2.95,10.53c0.05,3.79,0.68,7.64,2.95,10.53c2.11,2.9,5.74,4.37,9.48,4.37
		c3.69,0.05,7.32-1.47,9.53-4.37c0.9-1.26,1.58-2.69,2-4.21L407.35,205.62z"/>
	<path class="st3" d="M419.14,178.66v5.11h-5.11v-5.11H419.14z M419.14,188.4v28.44h-5.11V188.4H419.14z"/>
	<path class="st3" d="M444.42,188.29v4.79c-1.32-0.53-2.9-0.74-4.58-0.68c-2.21,0.1-4.05,0.84-5.27,2.11
		c-2.16,2.05-2.42,4.79-2.42,8.21v14.11h-5.11V188.4h4.53v4.16c0.63-1.11,1.47-2.05,2.63-2.9c1.74-1.37,3.9-1.95,6.06-2
		C441.63,187.56,443.05,187.77,444.42,188.29z"/>
	<path class="st3" d="M473.64,188.4v28.44h-4.53v-2.84c-0.16,0.21-0.37,0.37-0.58,0.58c-2.11,1.95-5,2.84-7.64,2.95
		c-2.9,0.16-5.95-0.74-8.16-2.58c-3.79-3.05-4.42-7.37-4.37-12.48V188.4h5.16v14.06c0,3.63,0.42,6.74,2.79,8.58
		c1.32,1.11,3.11,1.58,5.11,1.58c1.63-0.11,3.16-0.63,4.32-1.63c1.26-1,2.11-2.58,2.42-4.37c0.26-1.11,0.32-2.37,0.32-3.74V188.4
		H473.64z"/>
	<path class="st3" d="M506.18,188.4v28.91c0,4.95-1.32,8.16-4.63,10.43c-2.84,1.95-5.79,2.47-8.64,2.47c-2.74,0-5.69-0.89-7.64-2.69
		c-1.37-0.79-2.74-2-3.58-3.47l4.69-2.32c0.32,0.58,0.74,1.11,1.26,1.53c1.32,1.42,3.42,2.11,5.32,2.11c2.16,0,4.37-0.58,5.84-1.84
		c1.84-1.47,2.32-3.11,2.26-6.27v-2.79c-2.21,2.11-5.27,3.16-8.64,3.16c-3.84,0-7.48-1.63-9.79-4.58c-2.42-3-3.21-6.69-3.21-10.43
		c0-3.79,0.95-7.58,3.21-10.48c2.32-2.95,5.95-4.53,9.85-4.53c3.58,0,6.95,1.37,9.22,3.74v-2.95H506.18z M499.5,210.25
		c1.58-1.9,2.21-4.79,2.21-7.63c0-2.9-0.63-5.74-2.21-7.64c-1.47-1.84-3.74-2.74-6.21-2.74c-2.69,0-5.05,0.95-6.53,3.05
		c-1.37,1.84-1.9,4.53-1.9,7.32c0,2.74,0.47,5.42,1.84,7.27c1.47,2.11,3.95,3.11,6.42,3.11
		C495.65,212.99,497.97,212.04,499.5,210.25z"/>
	<path class="st3" d="M510.82,184.98l-1.42-3.79l13.06-5.06l1.37,3.84L510.82,184.98z M514.08,188.4v28.44h5.11V188.4H514.08z"/>
	<path class="st3" d="M526.61,193.67l0.74-1.11c2.53-3.37,6.27-4.9,10.69-4.9c5.21,0,9.48,1.84,11.58,6.11
		c0.84,1.74,1.21,3.58,1.21,5.21v17.85h-4.53v-5.42c-0.9,1.9-2.79,3.58-4.58,4.48c-2.21,1.21-4.63,1.79-7.06,1.69
		c-2.9-0.11-5.79-1.58-7.32-3.63c-1.21-1.79-1.84-3.32-1.84-5.42c0-3.05,1.63-5.74,4.32-7.32c3.05-1.74,5.95-1.95,10.27-2.58
		l5.48-0.79c-0.21-1.53-1-2.95-2.26-3.84c-1.47-1.11-3.42-1.58-5.37-1.53c-2.42,0-4.58,0.79-6,2.58c-0.21,0.26-0.47,0.58-0.63,0.9
		L526.61,193.67z M539.36,203.14c-4.21,0.68-8.69,1.42-8.74,5.06c-0.05,2.37,2,4.53,4.79,4.69c3.58,0.16,8-1.79,9.43-5.42
		c0.95-1.95,0.95-3.58,0.95-5.37C544.15,202.35,542.3,202.62,539.36,203.14z"/>
	<path class="st3" d="M325,259.12c-2.16,2.79-5.74,4.53-9.43,4.53H304.3v13.85h-5.11v-37.91h16.38c1.32,0,2.63,0.21,3.9,0.68
		c2.05,0.68,3.95,1.95,5.27,3.63c1.84,2.11,2.95,4.9,2.95,7.74C327.73,254.32,326.68,257.06,325,259.12z M322.47,251.64
		c-0.05-1.84-0.74-3.63-1.95-4.95c-1.26-1.32-3.21-2.26-5-2.26H304.3v14.38h11.22c1.9,0,4.05-1,5.37-2.69
		C321.89,254.85,322.52,253.27,322.47,251.64z"/>
	<path class="st3" d="M332.89,277.49v-38.7H338v38.7H332.89z"/>
	<path class="st3" d="M344.9,254.32l0.74-1.11c2.53-3.37,6.27-4.9,10.69-4.9c5.21,0,9.48,1.84,11.58,6.11
		c0.84,1.74,1.21,3.58,1.21,5.21v17.85h-4.53v-5.42c-0.9,1.9-2.79,3.58-4.58,4.48c-2.21,1.21-4.63,1.79-7.06,1.68
		c-2.9-0.11-5.79-1.58-7.32-3.63c-1.21-1.79-1.84-3.32-1.84-5.42c0-3.05,1.63-5.74,4.32-7.32c3.05-1.74,5.95-1.95,10.27-2.58
		l5.48-0.79c-0.21-1.53-1-2.95-2.26-3.84c-1.47-1.11-3.42-1.58-5.37-1.53c-2.42,0-4.58,0.79-6,2.58c-0.21,0.26-0.47,0.58-0.63,0.9
		L344.9,254.32z M357.64,263.8c-4.21,0.69-8.69,1.42-8.74,5.06c-0.05,2.37,2,4.53,4.79,4.69c3.58,0.16,8-1.79,9.43-5.42
		c0.95-1.95,0.95-3.58,0.95-5.37C362.43,263.01,360.59,263.28,357.64,263.8z M364.65,240.63l-1.37-3.84l-13.06,5.06l1.42,3.79
		L364.65,240.63z"/>
	<path class="st3" d="M393.29,257.75c-0.53-1.53-1.69-3-3.16-3.74c-1.11-0.58-2.48-0.9-3.84-0.9c-1.47,0-2.84,0.26-3.9,0.79
		c-1.16,0.63-1.79,1.53-1.79,2.42c0,0.68,0.21,1.26,0.63,1.74c0.68,0.63,1.68,1.11,3.48,1.63c1.37,0.42,3.16,0.9,5.16,1.42
		c2.16,0.63,3.79,1.11,5.53,2.58c2.21,1.74,3.26,3.95,3.05,6.58c-0.21,2.53-1.63,4.74-3.79,6.11c-2.21,1.42-5.06,1.9-7.9,1.9
		c-3.79,0-7.16-1.05-9.64-3.74c-1.53-1.68-2.74-4.53-3-6.32l4.9-1.21c0.16,1.37,0.79,3.16,1.79,4.21c1.53,1.68,3.74,2.16,5.9,2.16
		c1.79,0,4-0.32,5.16-1.21c0.84-0.63,1.26-1.37,1.37-2.32c0.05-0.95-0.26-1.74-1-2.42c-0.84-0.79-2-1.21-3.79-1.74
		c-1.42-0.42-3-0.79-4.84-1.32c-2.26-0.63-4-1.21-5.58-2.48c-1.79-1.42-2.63-3.58-2.63-5.48c0-3.16,2.11-5.84,4.84-7.06
		c2.11-0.95,4.16-1.16,6.11-1.11c2,0,4.11,0.42,6,1.42c2.79,1.37,5.06,4,5.95,6.85L393.29,257.75z"/>
	<path class="st3" d="M412.14,266.22c0,2.32-0.05,3.84,0.63,4.95c0.63,1.16,1.9,1.89,3.21,2.05c1.47,0.11,3.21,0.05,4.69-0.21v4.48
		c-2,0.53-5,0.63-6.95,0.21c-2.53-0.58-4.48-1.79-5.53-3.9c-1.05-2.11-1.16-4.42-1.16-7.27v-13.32h-6.21v-4.16h6.21v-7.9h5.11v7.9
		h8.53v4.16h-8.53V266.22z"/>
	<path class="st3" d="M432.62,239.32v5.11h-5.11v-5.11H432.62z M432.62,249.06v28.44h-5.11v-28.44H432.62z"/>
	<path class="st3" d="M460,257.43c-0.26-0.47-0.53-0.95-0.84-1.37c-1.47-2-3.9-3-6.42-2.95c-2.58-0.05-4.95,0.95-6.42,2.95
		c-1.47,1.95-1.95,4.58-2,7.21c0.05,2.63,0.53,5.27,2,7.21c1.47,1.95,3.84,2.95,6.42,2.95c2.53,0,4.95-1,6.42-2.95
		c0.32-0.42,0.53-0.84,0.79-1.32l4.79,2.05c-0.42,0.84-0.9,1.63-1.53,2.37c-2.53,3.11-6.42,4.74-10.48,4.63
		c-4.11,0.11-7.95-1.53-10.48-4.63c-2.37-2.95-3.32-6.63-3.32-10.32c0-3.74,0.95-7.37,3.32-10.37c2.58-3.16,6.42-4.63,10.48-4.63
		c4.11,0,7.95,1.58,10.48,4.63c0.63,0.79,1.16,1.63,1.53,2.48L460,257.43z"/>
	<path class="st3" d="M469.8,254.32l0.74-1.11c2.53-3.37,6.27-4.9,10.69-4.9c5.21,0,9.48,1.84,11.58,6.11
		c0.84,1.74,1.21,3.58,1.21,5.21v17.85h-4.53v-5.42c-0.9,1.9-2.79,3.58-4.58,4.48c-2.21,1.21-4.63,1.79-7.06,1.68
		c-2.9-0.11-5.79-1.58-7.32-3.63c-1.21-1.79-1.84-3.32-1.84-5.42c0-3.05,1.63-5.74,4.32-7.32c3.05-1.74,5.95-1.95,10.27-2.58
		l5.48-0.79c-0.21-1.53-1-2.95-2.26-3.84c-1.47-1.11-3.42-1.58-5.37-1.53c-2.42,0-4.58,0.79-6,2.58c-0.21,0.26-0.47,0.58-0.63,0.9
		L469.8,254.32z M482.54,263.8c-4.21,0.69-8.69,1.42-8.74,5.06c-0.05,2.37,2,4.53,4.79,4.69c3.58,0.16,8-1.79,9.43-5.42
		c0.95-1.95,0.95-3.58,0.95-5.37C487.33,263.01,485.49,263.28,482.54,263.8z"/>
</g>
<g>
	<path class="st4" d="M1552,50c-81,70-81,158-68.17,205.31C1496.66,302.61,1483,320,1483,320s5-30-3-57.55
		c-6.21-21.39-19.5-81.95-1.5-119.95c0,0-17,8-30-7c0,0,22,9,37-11c0,0,26-52,65-75l4-2L1552,50z"/>
	<path class="st4" d="M1421.5,253.5c0,0,9,28,4,51c0,0,10-25,5-38C1430.5,266.5,1427.5,257.5,1421.5,253.5z"/>
	<path class="st4" d="M1376.5,312.5c0,0-23.5-43.5,6.5-97.5c0,0,41-77,16-108c0,0-19-32-47.5,71.5c0,0-15.5,55.5-86.5,98.5
		c0,0,64-46,80-99c0,0,22-88,46-83c0,0,42,5,13,85l-17,39C1387,219,1367,253,1376.5,312.5z"/>
</g>
<g>
	<path class="st4" d="M1555.53,144.96c-0.58,2.11-1.58,4.11-3,5.9c-3.32,4.16-8.32,6.11-13.59,6.11c-5.48,0-10.37-2.11-13.58-6.11
		c-3.11-3.9-4.32-8.74-4.27-13.64c0.05-5,1.21-9.79,4.27-13.64c3.21-4.11,8.21-6.11,13.58-6.11s10.37,2.05,13.59,6.11
		c1.63,2.11,2.69,4.53,3.37,6.9l-5.27,0.9c-0.47-1.74-1.16-3.32-2.16-4.69c-2.21-2.9-5.84-4.37-9.53-4.37
		c-3.74,0-7.37,1.47-9.48,4.37c-2.26,2.84-2.9,6.74-2.95,10.53c0.05,3.79,0.68,7.64,2.95,10.53c2.11,2.9,5.74,4.37,9.48,4.37
		c3.69,0.05,7.32-1.47,9.53-4.37c0.9-1.26,1.58-2.69,2-4.21L1555.53,144.96z"/>
	<path class="st4" d="M1567.48,149.17c1.47,1.95,3.9,2.95,6.42,2.95c2.58,0,4.95-1,6.42-2.95c0.32-0.47,0.53-0.9,0.79-1.32
		l5.05,2.16c-0.47,0.84-1,1.63-1.58,2.37c-2.63,3.11-6.58,4.69-10.69,4.58c-4.11-0.11-8-1.58-10.48-4.69
		c-2.42-3-3.37-6.69-3.32-10.32c0.11-3.79,0.95-7.42,3.32-10.37c2.53-3.05,6.37-4.63,10.48-4.63c4.16,0,7.95,1.53,10.53,4.63
		c2.32,2.95,3.26,6.69,3.26,10.37c0,0.47-0.05,0.95-0.05,1.42h-22.06C1565.74,145.54,1566.27,147.59,1567.48,149.17z
		 M1567.48,134.74c-0.95,1.26-1.47,2.84-1.74,4.48h16.32c-0.26-1.63-0.79-3.21-1.74-4.48c-1.47-2-3.84-3-6.42-2.95
		C1571.37,131.74,1568.95,132.74,1567.48,134.74z"/>
	<path class="st4" d="M1618.66,142.12v14.06h-5.16v-14.06c0-3.63-0.42-6.74-2.79-8.64c-1.32-1.05-3.05-1.58-5.11-1.53
		c-1.63,0.11-3.16,0.63-4.32,1.58c-1.26,1.05-2.05,2.63-2.42,4.42c-0.26,1.11-0.32,2.37-0.32,3.74v14.48h-5.16v-28.44h4.58v2.79
		l0.53-0.53c2.16-1.95,5-2.84,7.64-2.95c2.9-0.16,5.95,0.74,8.16,2.58C1618.08,132.69,1618.71,137.01,1618.66,142.12z"/>
	<path class="st4" d="M1633.14,144.91c0,2.32-0.05,3.84,0.63,4.95c0.63,1.16,1.9,1.9,3.21,2.05c1.47,0.1,3.21,0.05,4.69-0.21v4.48
		c-2,0.53-5,0.63-6.95,0.21c-2.53-0.58-4.48-1.79-5.53-3.9c-1.05-2.11-1.16-4.42-1.16-7.27V131.9h-6.21v-4.16h6.21v-7.9h5.11v7.9
		h8.53v4.16h-8.53V144.91z"/>
	<path class="st4" d="M1665.37,127.63v4.79c-1.32-0.53-2.9-0.74-4.58-0.68c-2.21,0.11-4.05,0.84-5.27,2.11
		c-2.16,2.05-2.42,4.79-2.42,8.21v14.11h-5.11v-28.44h4.53v4.16c0.63-1.11,1.47-2.05,2.63-2.9c1.74-1.37,3.9-1.95,6.06-2
		C1662.57,126.9,1664,127.11,1665.37,127.63z"/>
	<path class="st4" d="M1671.31,152.28c-2.42-3-3.32-6.58-3.32-10.32c0-3.84,1-7.48,3.32-10.37c2.42-3,6.37-4.63,10.48-4.63
		s8,1.53,10.53,4.63c2.42,3.05,3.32,6.63,3.32,10.37c0,3.84-0.95,7.32-3.32,10.32c-2.58,3.16-6.32,4.69-10.53,4.69
		C1677.69,156.96,1673.84,155.38,1671.31,152.28z M1690.22,141.96c0-2.63-0.47-5.32-1.95-7.27s-3.9-2.9-6.48-2.9
		c-2.58,0-5,0.95-6.42,2.9c-1.47,1.95-1.95,4.63-1.95,7.27s0.47,5.27,1.95,7.21c1.42,1.95,3.84,2.95,6.42,2.95c2.58,0,5-1,6.48-2.95
		C1689.75,147.22,1690.22,144.59,1690.22,141.96z"/>
	<path class="st4" d="M1547.89,178.92v37.91h-4.53v-3c-2.26,2.53-5.53,3.79-9.22,3.79c-3.84,0-7.48-1.63-9.85-4.58
		c-2.37-3-3.21-6.69-3.21-10.43c0-3.79,0.95-7.58,3.21-10.48c2.32-2.95,6-4.53,9.85-4.53c3.27,0,6.37,1.16,8.64,3.16v-11.85H1547.89
		z M1543.36,202.62c0-2.9-0.63-5.74-2.21-7.64c-1.42-1.84-3.74-2.74-6.21-2.74c-2.69,0-5,0.95-6.48,3.05
		c-1.42,1.84-1.95,4.53-1.95,7.32c0,2.74,0.47,5.42,1.84,7.27c1.47,2.11,3.95,3.11,6.42,3.11c2.58,0,4.84-0.95,6.37-2.74
		C1542.73,208.36,1543.36,205.46,1543.36,202.62z"/>
	<path class="st4" d="M1561.05,209.83c1.47,1.95,3.9,2.95,6.42,2.95c2.58,0,4.95-1,6.42-2.95c0.32-0.47,0.53-0.9,0.79-1.32
		l5.05,2.16c-0.47,0.84-1,1.63-1.58,2.37c-2.63,3.11-6.58,4.69-10.69,4.58c-4.11-0.11-8-1.58-10.48-4.69
		c-2.42-3-3.37-6.69-3.32-10.32c0.11-3.79,0.95-7.43,3.32-10.37c2.53-3.05,6.37-4.63,10.48-4.63c4.16,0,7.95,1.53,10.53,4.63
		c2.32,2.95,3.26,6.69,3.26,10.37c0,0.47-0.05,0.95-0.05,1.42h-22.06C1559.32,206.2,1559.84,208.25,1561.05,209.83z M1561.05,195.4
		c-0.95,1.26-1.47,2.84-1.74,4.48h16.32c-0.26-1.63-0.79-3.21-1.74-4.48c-1.47-2-3.84-3-6.42-2.95
		C1564.95,192.4,1562.53,193.4,1561.05,195.4z"/>
	<path class="st4" d="M1631.35,205.62c-0.58,2.11-1.58,4.11-3,5.9c-3.32,4.16-8.32,6.11-13.59,6.11c-5.48,0-10.37-2.11-13.58-6.11
		c-3.11-3.9-4.32-8.74-4.27-13.64c0.05-5,1.21-9.79,4.27-13.64c3.21-4.11,8.21-6.11,13.58-6.11s10.37,2.05,13.59,6.11
		c1.63,2.11,2.69,4.53,3.37,6.9l-5.27,0.9c-0.47-1.74-1.16-3.32-2.16-4.69c-2.21-2.9-5.84-4.37-9.53-4.37
		c-3.74,0-7.37,1.47-9.48,4.37c-2.26,2.84-2.9,6.74-2.95,10.53c0.05,3.79,0.68,7.64,2.95,10.53c2.11,2.9,5.74,4.37,9.48,4.37
		c3.69,0.05,7.32-1.47,9.53-4.37c0.9-1.26,1.58-2.69,2-4.21L1631.35,205.62z"/>
	<path class="st4" d="M1643.14,178.66v5.11h-5.11v-5.11H1643.14z M1643.14,188.4v28.44h-5.11V188.4H1643.14z"/>
	<path class="st4" d="M1668.42,188.29v4.79c-1.32-0.53-2.9-0.74-4.58-0.68c-2.21,0.1-4.05,0.84-5.27,2.11
		c-2.16,2.05-2.42,4.79-2.42,8.21v14.11h-5.11V188.4h4.53v4.16c0.63-1.11,1.47-2.05,2.63-2.9c1.74-1.37,3.9-1.95,6.06-2
		C1665.63,187.56,1667.05,187.77,1668.42,188.29z"/>
	<path class="st4" d="M1697.64,188.4v28.44h-4.53v-2.84c-0.16,0.21-0.37,0.37-0.58,0.58c-2.11,1.95-5,2.84-7.64,2.95
		c-2.9,0.16-5.95-0.74-8.16-2.58c-3.79-3.05-4.42-7.37-4.37-12.48V188.4h5.16v14.06c0,3.63,0.42,6.74,2.79,8.58
		c1.32,1.11,3.11,1.58,5.11,1.58c1.63-0.11,3.16-0.63,4.32-1.63c1.26-1,2.11-2.58,2.42-4.37c0.26-1.11,0.32-2.37,0.32-3.74V188.4
		H1697.64z"/>
	<path class="st4" d="M1730.18,188.4v28.91c0,4.95-1.32,8.16-4.63,10.43c-2.84,1.95-5.79,2.47-8.64,2.47
		c-2.74,0-5.69-0.89-7.64-2.69c-1.37-0.79-2.74-2-3.58-3.47l4.69-2.32c0.32,0.58,0.74,1.11,1.26,1.53c1.32,1.42,3.42,2.11,5.32,2.11
		c2.16,0,4.37-0.58,5.84-1.84c1.84-1.47,2.32-3.11,2.26-6.27v-2.79c-2.21,2.11-5.27,3.16-8.64,3.16c-3.84,0-7.48-1.63-9.79-4.58
		c-2.42-3-3.21-6.69-3.21-10.43c0-3.79,0.95-7.58,3.21-10.48c2.32-2.95,5.95-4.53,9.85-4.53c3.58,0,6.95,1.37,9.22,3.74v-2.95
		H1730.18z M1723.5,210.25c1.58-1.9,2.21-4.79,2.21-7.63c0-2.9-0.63-5.74-2.21-7.64c-1.47-1.84-3.74-2.74-6.21-2.74
		c-2.69,0-5.05,0.95-6.53,3.05c-1.37,1.84-1.9,4.53-1.9,7.32c0,2.74,0.47,5.42,1.84,7.27c1.47,2.11,3.95,3.11,6.42,3.11
		C1719.65,212.99,1721.97,212.04,1723.5,210.25z"/>
	<path class="st4" d="M1734.82,184.98l-1.42-3.79l13.06-5.06l1.37,3.84L1734.82,184.98z M1738.08,188.4v28.44h5.11V188.4H1738.08z"
		/>
	<path class="st4" d="M1750.61,193.67l0.74-1.11c2.53-3.37,6.27-4.9,10.69-4.9c5.21,0,9.48,1.84,11.58,6.11
		c0.84,1.74,1.21,3.58,1.21,5.21v17.85h-4.53v-5.42c-0.9,1.9-2.79,3.58-4.58,4.48c-2.21,1.21-4.63,1.79-7.06,1.69
		c-2.9-0.11-5.79-1.58-7.32-3.63c-1.21-1.79-1.84-3.32-1.84-5.42c0-3.05,1.63-5.74,4.32-7.32c3.05-1.74,5.95-1.95,10.27-2.58
		l5.48-0.79c-0.21-1.53-1-2.95-2.26-3.84c-1.47-1.11-3.42-1.58-5.37-1.53c-2.42,0-4.58,0.79-6,2.58c-0.21,0.26-0.47,0.58-0.63,0.9
		L1750.61,193.67z M1763.36,203.14c-4.21,0.68-8.69,1.42-8.74,5.06c-0.05,2.37,2,4.53,4.79,4.69c3.58,0.16,8-1.79,9.43-5.42
		c0.95-1.95,0.95-3.58,0.95-5.37C1768.15,202.35,1766.3,202.62,1763.36,203.14z"/>
	<path class="st4" d="M1549,259.12c-2.16,2.79-5.74,4.53-9.43,4.53h-11.27v13.85h-5.11v-37.91h16.38c1.32,0,2.63,0.21,3.9,0.68
		c2.05,0.68,3.95,1.95,5.27,3.63c1.84,2.11,2.95,4.9,2.95,7.74C1551.73,254.32,1550.68,257.06,1549,259.12z M1546.47,251.64
		c-0.05-1.84-0.74-3.63-1.95-4.95c-1.26-1.32-3.21-2.26-5-2.26h-11.22v14.38h11.22c1.9,0,4.05-1,5.37-2.69
		C1545.89,254.85,1546.52,253.27,1546.47,251.64z"/>
	<path class="st4" d="M1556.89,277.49v-38.7h5.11v38.7H1556.89z"/>
	<path class="st4" d="M1568.9,254.32l0.74-1.11c2.53-3.37,6.27-4.9,10.69-4.9c5.21,0,9.48,1.84,11.58,6.11
		c0.84,1.74,1.21,3.58,1.21,5.21v17.85h-4.53v-5.42c-0.9,1.9-2.79,3.58-4.58,4.48c-2.21,1.21-4.63,1.79-7.06,1.68
		c-2.9-0.11-5.79-1.58-7.32-3.63c-1.21-1.79-1.84-3.32-1.84-5.42c0-3.05,1.63-5.74,4.32-7.32c3.05-1.74,5.95-1.95,10.27-2.58
		l5.48-0.79c-0.21-1.53-1-2.95-2.26-3.84c-1.47-1.11-3.42-1.58-5.37-1.53c-2.42,0-4.58,0.79-6,2.58c-0.21,0.26-0.47,0.58-0.63,0.9
		L1568.9,254.32z M1581.64,263.8c-4.21,0.69-8.69,1.42-8.74,5.06c-0.05,2.37,2,4.53,4.79,4.69c3.58,0.16,8-1.79,9.43-5.42
		c0.95-1.95,0.95-3.58,0.95-5.37C1586.43,263.01,1584.59,263.28,1581.64,263.8z M1588.65,240.63l-1.37-3.84l-13.06,5.06l1.42,3.79
		L1588.65,240.63z"/>
	<path class="st4" d="M1617.29,257.75c-0.53-1.53-1.69-3-3.16-3.74c-1.11-0.58-2.48-0.9-3.84-0.9c-1.47,0-2.84,0.26-3.9,0.79
		c-1.16,0.63-1.79,1.53-1.79,2.42c0,0.68,0.21,1.26,0.63,1.74c0.68,0.63,1.68,1.11,3.48,1.63c1.37,0.42,3.16,0.9,5.16,1.42
		c2.16,0.63,3.79,1.11,5.53,2.58c2.21,1.74,3.26,3.95,3.05,6.58c-0.21,2.53-1.63,4.74-3.79,6.11c-2.21,1.42-5.06,1.9-7.9,1.9
		c-3.79,0-7.16-1.05-9.64-3.74c-1.53-1.68-2.74-4.53-3-6.32l4.9-1.21c0.16,1.37,0.79,3.16,1.79,4.21c1.53,1.68,3.74,2.16,5.9,2.16
		c1.79,0,4-0.32,5.16-1.21c0.84-0.63,1.26-1.37,1.37-2.32c0.05-0.95-0.26-1.74-1-2.42c-0.84-0.79-2-1.21-3.79-1.74
		c-1.42-0.42-3-0.79-4.84-1.32c-2.26-0.63-4-1.21-5.58-2.48c-1.79-1.42-2.63-3.58-2.63-5.48c0-3.16,2.11-5.84,4.84-7.06
		c2.11-0.95,4.16-1.16,6.11-1.11c2,0,4.11,0.42,6,1.42c2.79,1.37,5.06,4,5.95,6.85L1617.29,257.75z"/>
	<path class="st4" d="M1636.14,266.22c0,2.32-0.05,3.84,0.63,4.95c0.63,1.16,1.9,1.89,3.21,2.05c1.47,0.11,3.21,0.05,4.69-0.21v4.48
		c-2,0.53-5,0.63-6.95,0.21c-2.53-0.58-4.48-1.79-5.53-3.9c-1.05-2.11-1.16-4.42-1.16-7.27v-13.32h-6.21v-4.16h6.21v-7.9h5.11v7.9
		h8.53v4.16h-8.53V266.22z"/>
	<path class="st4" d="M1656.62,239.32v5.11h-5.11v-5.11H1656.62z M1656.62,249.06v28.44h-5.11v-28.44H1656.62z"/>
	<path class="st4" d="M1684,257.43c-0.26-0.47-0.53-0.95-0.84-1.37c-1.47-2-3.9-3-6.42-2.95c-2.58-0.05-4.95,0.95-6.42,2.95
		c-1.47,1.95-1.95,4.58-2,7.21c0.05,2.63,0.53,5.27,2,7.21c1.47,1.95,3.84,2.95,6.42,2.95c2.53,0,4.95-1,6.42-2.95
		c0.32-0.42,0.53-0.84,0.79-1.32l4.79,2.05c-0.42,0.84-0.9,1.63-1.53,2.37c-2.53,3.11-6.42,4.74-10.48,4.63
		c-4.11,0.11-7.95-1.53-10.48-4.63c-2.37-2.95-3.32-6.63-3.32-10.32c0-3.74,0.95-7.37,3.32-10.37c2.58-3.16,6.42-4.63,10.48-4.63
		c4.11,0,7.95,1.58,10.48,4.63c0.63,0.79,1.16,1.63,1.53,2.48L1684,257.43z"/>
	<path class="st4" d="M1693.8,254.32l0.74-1.11c2.53-3.37,6.27-4.9,10.69-4.9c5.21,0,9.48,1.84,11.58,6.11
		c0.84,1.74,1.21,3.58,1.21,5.21v17.85h-4.53v-5.42c-0.9,1.9-2.79,3.58-4.58,4.48c-2.21,1.21-4.63,1.79-7.06,1.68
		c-2.9-0.11-5.79-1.58-7.32-3.63c-1.21-1.79-1.84-3.32-1.84-5.42c0-3.05,1.63-5.74,4.32-7.32c3.05-1.74,5.95-1.95,10.27-2.58
		l5.48-0.79c-0.21-1.53-1-2.95-2.26-3.84c-1.47-1.11-3.42-1.58-5.37-1.53c-2.42,0-4.58,0.79-6,2.58c-0.21,0.26-0.47,0.58-0.63,0.9
		L1693.8,254.32z M1706.54,263.8c-4.21,0.69-8.69,1.42-8.74,5.06c-0.05,2.37,2,4.53,4.79,4.69c3.58,0.16,8-1.79,9.43-5.42
		c0.95-1.95,0.95-3.58,0.95-5.37C1711.33,263.01,1709.49,263.28,1706.54,263.8z"/>
</g>
<g>
	<g>
		<g>
			<linearGradient id="SVGID_4_" gradientUnits="userSpaceOnUse" x1="656.6494" y1="194.481" x2="798.3299" y2="194.481">
				<stop  offset="0" style="stop-color:#0E0979"/>
				<stop  offset="1" style="stop-color:#9600FF"/>
			</linearGradient>
			<path class="st5" d="M767.82,299.72c-0.35-0.63-1.65-2.71-3.57-6.19c-1.89-3.5-4.41-8.42-6.84-14.87
				c-0.56-1.63-1.24-3.3-1.75-5.14c-0.27-0.91-0.55-1.83-0.83-2.78c-0.27-0.95-0.48-1.94-0.73-2.94c-0.53-1.99-0.86-4.12-1.27-6.3
				c-0.14-1.11-0.29-2.23-0.43-3.37c-0.16-1.14-0.19-2.32-0.29-3.5c-0.6-9.47,0.79-20.5,5.52-31.08c1.14-2.65,2.49-5.26,3.99-7.81
				c1.49-2.56,3.14-5.07,4.93-7.5c1.78-2.44,3.68-4.81,5.63-7.12c1.94-2.31,3.98-4.56,5.63-6.69c3.47-4.39,6.57-9.44,9.28-14.77
				c2.73-5.33,4.97-11.05,6.69-16.99c1.7-5.95,2.93-12.12,3.4-18.43c0.42-6.31,0.24-12.7-0.67-19.07c-0.24-1.59-0.6-3.16-0.9-4.74
				l-0.46-2.38l-0.6-2.41c-0.83-3.2-1.75-6.35-2.84-9.39c-1.11-3.02-2.36-5.96-3.87-8.53c-0.76-1.28-1.56-2.49-2.43-3.52
				c-0.87-1.02-1.77-1.9-2.67-2.53c-1.84-1.22-3.35-1.5-5.44-1c-2.08,0.5-4.48,2.02-6.69,3.92c-1.11,0.95-2.21,2.06-3.22,3.14
				c-0.92,1-1.75,2.14-2.53,3.34c-1.53,2.45-2.82,5.23-3.91,8.19c-2.18,5.93-3.75,12.38-5.37,18.82c-1.6,6.45-3.24,12.94-5.19,19.29
				c-1.96,6.34-4.2,12.55-6.89,18.45c-0.65,1.48-1.37,2.93-2.07,4.37c-0.4,0.75-0.81,1.49-1.21,2.23c-0.39,0.76-0.82,1.47-1.26,2.16
				c-0.43,0.7-0.87,1.39-1.3,2.08c-0.46,0.66-0.91,1.32-1.37,1.97c-0.89,1.33-1.86,2.55-2.79,3.8c-3.78,4.91-7.74,9.31-11.66,13.42
				c-3.93,4.11-7.84,7.92-11.65,11.5c-15.29,14.25-28.82,24.97-38.34,32.42c-4.77,3.71-8.56,6.56-11.16,8.49
				c-2.63,1.93-4.03,2.96-4.03,2.96c9.74-7.95,19.09-16.09,28.29-24.5c6.68-5.45,13.27-11.03,19.69-16.82
				c6.43-5.78,12.69-11.8,18.65-18.17c5.89-6.45,11.67-13.1,16.09-21.22c4.15-7.92,7.26-16.16,9.83-24.53
				c2.58-8.35,4.55-16.8,6.72-24.99c1.1-4.08,2.24-8.11,3.66-11.92c1.41-3.8,3.11-7.39,5.33-10.35c0.55-0.75,1.14-1.42,1.76-2.1
				c0.68-0.71,1.37-1.4,2.08-2.06c1.42-1.31,2.9-2.48,4.41-3.4c1.51-0.92,3.05-1.54,4.48-1.8c1.44-0.28,2.72-0.11,3.99,0.38
				c2.55,0.97,5.03,3.73,6.92,7c1.96,3.25,3.45,7.04,4.75,10.89c0.64,1.93,1.22,3.91,1.75,5.91c0.28,0.99,0.51,2.01,0.76,3.01
				c0.27,1.01,0.46,2.01,0.64,3.01l0.57,3c0.18,1,0.42,2,0.49,3.01c0.2,2.03,0.49,4.04,0.63,6.07c0.55,8.12-0.1,16.32-1.84,24.29
				c-1.73,7.98-4.53,15.74-8.17,23.06c-0.43,0.93-0.91,1.83-1.41,2.72l-1.48,2.69c-1.07,1.73-2.08,3.51-3.25,5.18
				c-1.11,1.71-2.33,3.32-3.54,4.92l-1.9,2.33l-2.08,2.4c-5.75,6.51-11.4,13.83-15.4,22.14c-4.07,8.27-6.48,17.52-6.78,26.82
				c-0.17,4.65,0.15,9.28,0.85,13.83c0.7,4.55,1.88,8.98,3.25,13.31C759.27,283.98,763.23,292.1,767.82,299.72z"/>
			<linearGradient id="SVGID_5_" gradientUnits="userSpaceOnUse" x1="685.9683" y1="167.9228" x2="800.5981" y2="167.9228">
				<stop  offset="0" style="stop-color:#0E0979"/>
				<stop  offset="1" style="stop-color:#9600FF"/>
			</linearGradient>
			<path class="st6" d="M754.54,248.88c0.06-0.58,0.01-2.57,0.39-5.75c0.37-3.17,1.08-7.57,2.8-12.77
				c1.68-5.2,4.46-11.13,8.48-17.21c2.01-3.04,4.33-6.1,6.87-9.17c1.27-1.53,2.6-3.07,3.93-4.61c1.34-1.55,2.57-3.06,3.81-4.71
				c4.92-6.58,9.27-14.48,12.7-23.22c0.77-2.22,1.67-4.42,2.3-6.74c0.34-1.15,0.7-2.3,1.03-3.47c0.28-1.18,0.56-2.37,0.84-3.56
				l0.43-1.79l0.32-1.82c0.21-1.22,0.42-2.44,0.63-3.67c0.19-1.23,0.27-2.48,0.42-3.73l0.2-1.88l0.1-0.94l0.03-0.95
				c0.04-2.53,0.28-5.08,0.09-7.65c-0.05-1.28-0.1-2.57-0.15-3.86c-0.1-1.29-0.29-2.57-0.42-3.86l-0.22-1.94
				c-0.07-0.65-0.14-1.3-0.28-1.94c-0.25-1.28-0.5-2.57-0.75-3.86c-0.24-1.29-0.49-2.58-0.84-3.88c-0.31-1.3-0.66-2.59-1.03-3.87
				c-0.72-2.57-1.53-5.11-2.47-7.59c-0.92-2.48-1.99-4.9-3.23-7.15c-1.24-2.25-2.67-4.36-4.34-6.04c-0.85-0.8-1.73-1.56-2.67-2.09
				c-0.94-0.53-1.91-0.92-2.91-1.11c-2-0.34-4.17,0.04-6.29,1.07c-2.13,0.98-4.16,2.51-6.04,4.22c-0.94,0.85-1.87,1.78-2.72,2.72
				c-0.81,0.91-1.59,1.87-2.27,2.91c-1.4,2.06-2.57,4.34-3.58,6.71c-2.02,4.76-3.46,9.86-4.8,14.96c-1.31,5.16-2.6,10.26-3.87,15.26
				c-2.62,10.07-5.68,19.81-9.69,28.63c-0.49,1.1-1,2.2-1.53,3.27c-0.49,1.07-1.07,2.15-1.66,3.21c-0.56,1.09-1.2,2.08-1.83,3.08
				c-0.61,1.02-1.27,1.97-1.93,2.91c-2.64,3.76-5.38,7.2-8.15,10.34c-5.51,6.33-10.93,11.68-15.81,16.35
				c-4.88,4.65-9.26,8.55-12.89,11.73c-3.63,3.18-6.52,5.61-8.5,7.27c-1.98,1.65-3.04,2.53-3.04,2.53
				c7.32-6.75,14.47-13.67,21.35-20.85c5.04-4.69,9.98-9.51,14.66-14.58c1.16-1.28,2.34-2.54,3.46-3.86l1.7-1.96l1.65-2.01
				c1.12-1.32,2.14-2.74,3.2-4.11c0.52-0.7,1.01-1.43,1.51-2.14c0.51-0.71,1-1.43,1.46-2.18c0.46-0.75,0.95-1.48,1.39-2.24
				l1.28-2.32c0.8-1.56,1.56-3.11,2.28-4.69c1.45-3.16,2.77-6.37,3.97-9.62c2.4-6.5,4.35-13.15,6.11-19.81
				c1.77-6.66,3.32-13.34,5.24-19.85c0.97-3.25,2.01-6.46,3.33-9.51c1.31-3.05,2.85-5.98,4.83-8.5c0.47-0.65,1.03-1.22,1.55-1.83
				c0.58-0.59,1.14-1.19,1.74-1.75c1.18-1.14,2.42-2.2,3.73-3.12c2.59-1.85,5.49-3.23,8.35-3.3c2.84-0.09,5.55,1.2,7.73,3.38
				c2.21,2.14,3.95,4.92,5.44,7.83c2.93,5.9,4.8,12.43,6.37,18.99c1.39,6.55,2.29,13.2,2.3,19.89c-0.06,13.37-2.98,26.72-8.51,38.93
				c-2.74,6.1-6.01,12-9.93,17.38c-1.93,2.74-4.04,5.17-6.34,7.8c-2.26,2.61-4.52,5.3-6.63,8.12c-4.23,5.64-7.89,11.84-10.44,18.55
				c-1.27,3.35-2.32,6.8-3.01,10.33C755.07,241.7,754.64,245.29,754.54,248.88z"/>
			<linearGradient id="SVGID_6_" gradientUnits="userSpaceOnUse" x1="706.7866" y1="147.3028" x2="802.7632" y2="147.3028">
				<stop  offset="0" style="stop-color:#0E0979"/>
				<stop  offset="1" style="stop-color:#9600FF"/>
			</linearGradient>
			<path class="st7" d="M771.54,209.82c0.26-0.36,1.17-1.58,2.72-3.48c1.52-1.92,3.8-4.44,6.44-7.64
				c5.23-6.38,11.46-16.23,15.99-29.02c2.26-6.38,4.07-13.5,4.99-21.13c0.91-7.62,0.98-15.77-0.29-24.01
				c-1.35-8.19-3.46-16.63-6.91-24.6c-1.77-3.93-3.94-7.82-7.06-10.8c-1.56-1.46-3.39-2.66-5.42-3.24
				c-2.03-0.56-4.21-0.54-6.26,0.08c-4.13,1.19-7.66,4.02-10.72,7.08c-3.13,3.03-5.39,6.78-7.15,10.7
				c-1.75,3.94-3.05,8.04-4.21,12.12c-1.15,4.09-2.15,8.17-3.15,12.18c-1.99,8.02-4.02,15.77-6.48,22.96
				c-2.47,7.18-5.23,13.81-8.46,19.63c-3.37,5.74-7.21,10.47-10.69,14.54c-3.52,4.05-6.72,7.45-9.44,10.17
				c-2.7,2.74-4.87,4.83-6.36,6.25c-1.49,1.41-2.29,2.17-2.29,2.17c5.49-5.72,10.77-11.64,15.69-17.8
				c3.63-4.08,7.11-8.31,10.12-12.84c3.01-4.51,5.28-9.5,7.38-14.54c4.19-10.11,7.02-20.72,9.7-31.36
				c1.36-5.32,2.69-10.65,4.37-15.9c1.7-5.22,3.75-10.43,7-14.94c1.64-2.25,3.6-4.21,5.67-6.03c2.08-1.81,4.39-3.4,6.96-4.47
				c2.55-1.04,5.45-1.51,8.16-0.76c2.71,0.69,5.06,2.38,6.91,4.4c1.88,2.03,3.38,4.36,4.66,6.79c1.27,2.44,2.36,4.96,3.29,7.55
				c0.92,2.58,1.76,5.2,2.46,7.85c0.73,2.64,1.38,5.31,1.85,8.02c2.1,10.75,2.38,21.9,0.46,32.69l-0.72,4.04l-0.96,3.99
				c-0.29,1.34-0.69,2.65-1.1,3.95c-0.42,1.3-0.76,2.63-1.24,3.91c-1.77,5.18-4.01,10.19-6.54,15.03
				c-2.56,4.83-5.48,9.48-8.84,13.78c-1.69,2.14-3.5,4.19-5.3,6.27C774.97,205.5,773.21,207.62,771.54,209.82z"/>
			<linearGradient id="SVGID_7_" gradientUnits="userSpaceOnUse" x1="726.3457" y1="136.3035" x2="804.6821" y2="136.3035">
				<stop  offset="0" style="stop-color:#0E0979"/>
				<stop  offset="1" style="stop-color:#9600FF"/>
			</linearGradient>
			<path class="st8" d="M789.5,189.74c0.34-0.63,2.63-4.16,5.47-10.31c0.75-1.52,1.4-3.26,2.2-5.09c0.77-1.85,1.43-3.9,2.23-6.04
				c1.35-4.36,2.79-9.27,3.65-14.75c0.54-2.72,0.78-5.59,1.09-8.54c0.17-1.48,0.14-2.99,0.22-4.52c0.05-1.53,0.14-3.08,0.04-4.65
				c-0.06-1.57-0.12-3.16-0.19-4.77c-0.13-1.6-0.35-3.22-0.53-4.85c-0.09-0.82-0.19-1.64-0.29-2.46c-0.16-0.82-0.31-1.63-0.47-2.46
				c-0.32-1.64-0.65-3.3-0.98-4.97c-1.61-6.57-3.54-13.34-6.77-19.8c-0.85-1.6-1.72-3.2-2.79-4.71c-1.03-1.53-2.24-2.98-3.64-4.28
				c-1.4-1.3-3.03-2.44-4.89-3.18c-1.85-0.75-3.92-1.04-5.9-0.87c-4.01,0.36-7.46,2.33-10.38,4.54c-2.89,2.3-5.47,4.83-7.63,7.83
				c-2.09,2.99-3.68,6.22-4.96,9.46c-1.28,3.24-2.31,6.5-3.22,9.71c-1.81,6.42-3.24,12.65-4.76,18.49
				c-1.5,5.84-3.06,11.3-4.73,16.25c-1.65,4.96-3.44,9.39-5.18,13.24c-1.74,3.89-3.46,7.03-5.11,9.54
				c-0.83,1.25-1.61,2.35-2.28,3.31c-0.71,0.94-1.31,1.73-1.8,2.38c-0.48,0.65-0.88,1.13-1.14,1.45c-0.26,0.33-0.4,0.49-0.4,0.49
				c1.85-2.53,3.53-5.15,5.11-7.8c1.54-2.7,2.81-5.35,3.98-8.27c3.71-7.76,6.53-15.95,8.92-24.31c2.41-8.36,4.3-16.92,6.77-25.47
				c1.26-4.27,2.66-8.56,4.65-12.7c0.99-2.07,2.11-4.11,3.48-6.02c0.69-0.95,1.41-1.89,2.21-2.77c0.79-0.89,1.57-1.68,2.42-2.48
				c1.67-1.59,3.47-3.08,5.48-4.36c2.01-1.27,4.24-2.35,6.74-2.84c1.23-0.29,2.54-0.33,3.84-0.28c1.29,0.14,2.6,0.35,3.79,0.85
				c2.44,0.9,4.48,2.46,6.14,4.19c1.68,1.73,3.04,3.67,4.2,5.66c1.17,1.99,2.18,4.04,3.05,6.13c1.76,4.17,3.1,8.45,4.23,12.76
				c0.56,2.16,1.09,4.31,1.47,6.53c0.39,2.21,0.93,4.39,1.1,6.63c0.58,4.44,0.8,8.93,0.73,13.4c-0.17,8.95-1.66,17.85-4.26,26.39
				C797.82,173.95,794.17,182.15,789.5,189.74z"/>
			<linearGradient id="SVGID_8_" gradientUnits="userSpaceOnUse" x1="736.8174" y1="125.8487" x2="806.4337" y2="125.8487">
				<stop  offset="0" style="stop-color:#0E0979"/>
				<stop  offset="1" style="stop-color:#9600FF"/>
			</linearGradient>
			<path class="st9" d="M800.54,170.58c0.21-0.55,1.35-3.76,2.72-9.11c0.32-1.34,0.66-2.81,1.04-4.4c0.28-1.61,0.57-3.34,0.89-5.18
				c0.52-3.69,0.97-7.84,1.03-12.37c0.11-4.52-0.16-9.4-0.84-14.48c-0.08-0.64-0.13-1.28-0.25-1.92c-0.12-0.64-0.25-1.28-0.37-1.92
				c-0.25-1.29-0.51-2.59-0.76-3.91c-0.52-2.63-1.25-5.21-1.99-7.87c-1.57-5.29-3.46-10.74-6.46-16.01
				c-1.52-2.62-3.36-5.21-5.85-7.46c-2.43-2.25-5.87-4.06-9.59-4.31c-3.71-0.24-7.18,0.92-9.98,2.5c-2.85,1.58-5.22,3.57-7.36,5.66
				c-0.55,0.51-1.04,1.06-1.56,1.59c-0.51,0.55-1.03,1.16-1.53,1.74c-0.95,1.21-1.84,2.45-2.61,3.73c-1.56,2.55-2.77,5.16-3.8,7.74
				c-2.05,5.18-3.41,10.22-4.66,14.95c-1.19,4.7-2.31,9.13-3.34,13.23c-2.06,8.12-4.11,14.69-5.74,19.21
				c-0.81,2.26-1.49,4.01-1.97,5.2c-0.47,1.19-0.75,1.82-0.75,1.82c1.67-4.65,3.03-9.4,4.24-14.21c2.06-6.56,3.77-13.28,5.5-20.11
				c1.76-6.82,3.47-13.77,6.27-20.7c1.42-3.45,3.15-6.9,5.54-10.09l0.91-1.18l0.99-1.14c0.67-0.75,1.31-1.39,2-2.07
				c1.35-1.34,2.83-2.6,4.43-3.78c1.6-1.17,3.34-2.24,5.3-3.09c1.95-0.84,4.15-1.44,6.49-1.51c2.33-0.08,4.74,0.42,6.83,1.38
				c2.09,0.96,3.9,2.29,5.37,3.77c2.95,2.96,5,6.32,6.65,9.69c1.65,3.39,2.94,6.84,4.05,10.32c1.1,3.48,2.01,6.95,2.79,10.49
				l1.03,5.38c0.08,0.45,0.18,0.9,0.24,1.35l0.15,1.36l0.3,2.72C807.52,142.13,805.38,156.93,800.54,170.58z"/>
			<linearGradient id="SVGID_9_" gradientUnits="userSpaceOnUse" x1="742.6616" y1="118.5952" x2="807.8311" y2="118.5952">
				<stop  offset="0" style="stop-color:#0E0979"/>
				<stop  offset="1" style="stop-color:#9600FF"/>
			</linearGradient>
			<path class="st10" d="M805.71,157.44c0.04-0.24,0.18-1.04,0.4-2.33c0.11-0.65,0.24-1.42,0.39-2.3c0.15-0.89,0.34-1.88,0.43-3
				c0.12-1.12,0.24-2.34,0.38-3.66c0.06-0.66,0.16-1.34,0.19-2.05c0.02-0.71,0.05-1.45,0.08-2.2c0.04-1.52,0.13-3.12,0.13-4.8
				c-0.07-1.68-0.13-3.45-0.21-5.29c-0.5-7.32-1.94-15.78-4.56-24.25c-1.33-4.28-2.89-8.7-5.18-13.08
				c-1.12-2.19-2.49-4.37-4.16-6.47c-1.68-2.08-3.74-4.11-6.42-5.66c-2.66-1.54-6.04-2.39-9.19-2.15c-3.16,0.22-6,1.25-8.36,2.56
				c-2.39,1.31-4.42,2.86-6.26,4.49c-1.83,1.65-3.42,3.25-5.04,5.25c-1.55,1.93-2.79,3.97-3.85,5.96c-1.07,2-1.95,3.99-2.69,5.92
				c-1.52,3.87-2.59,7.51-3.52,10.84c-1.82,6.67-3.09,12.11-4.07,15.89c-0.96,3.77-1.55,5.89-1.55,5.89
				c0.83-3.9,1.59-7.84,2.35-11.83c1.39-5.45,2.79-11,4.67-16.63c1.9-5.59,4.28-11.41,8.49-16.65c0.54-0.63,1.11-1.3,1.65-1.87
				c0.55-0.56,1.07-1.12,1.65-1.66c1.11-1.1,2.34-2.14,3.61-3.15c2.6-1.97,5.56-3.83,9.27-4.83c1.85-0.49,3.86-0.73,5.91-0.59
				c2.06,0.15,4.08,0.74,5.87,1.58c3.64,1.73,6.18,4.38,8.21,7c2.02,2.66,3.52,5.43,4.81,8.22c1.27,2.79,2.35,5.59,3.26,8.41
				c0.91,2.82,1.71,5.64,2.4,8.46l0.52,2.12l0.43,2.18l0.83,4.37l0.2,1.09l0.12,1.11l0.25,2.21c0.15,1.47,0.36,2.94,0.45,4.42
				l0.15,4.44c0.02,0.74,0.06,1.48,0.06,2.22l-0.08,2.22l-0.17,4.44l-0.47,4.41l-0.24,2.2l-0.38,2.18L805.71,157.44z"/>
		</g>
		<g>
			<linearGradient id="SVGID_10_" gradientUnits="userSpaceOnUse" x1="842.73" y1="169.1142" x2="943.228" y2="169.1142">
				<stop  offset="0" style="stop-color:#0E0979"/>
				<stop  offset="1" style="stop-color:#9600FF"/>
			</linearGradient>
			<path class="st11" d="M942.77,37.02c-0.26,0.17-0.66,0.42-1.17,0.75c-1,0.66-2.46,1.63-4.28,2.94
				c-3.64,2.61-8.77,6.53-14.75,11.85c-5.97,5.32-12.82,12.01-19.69,20.2c-6.88,8.17-13.83,17.78-19.99,28.69
				c-1.71,3.01-3.34,6.13-4.91,9.34c-0.17,0.14-0.67,0.53-1.45,1.14c-1.02,0.78-2.52,1.89-4.35,3.13c-1.83,1.24-4.02,2.61-6.37,3.83
				c-2.31,1.21-4.94,2.25-6.88,2.53c-2.72,0.25-5.59,0.45-7.89,0.09c-2.34-0.31-4.18-1-5.31-1.78c-1.15-0.76-1.69-1.6-1.97-2.21
				c-0.14-0.3-0.23-0.56-0.26-0.67c-0.01-0.03-0.02-0.06-0.03-0.08l0-0.01l-0.01,0l0-0.01l0-0.01l-0.01,0.01v0l0,0l0,0
				c-0.01,0,0,0.04,0,0.08c0,0.07,0.02,0.16,0.05,0.27c0.03,0.2,0.13,0.42,0.19,0.63c0.11,0.21,0.17,0.44,0.32,0.64l0.18,0.32
				l0.24,0.3c0.63,0.82,1.61,1.54,2.83,2.15c2.55,1.13,5.97,1.57,9.48,1.49l1.33-0.05c0.43-0.02,0.94-0.01,1.24-0.08
				c0.35-0.06,0.69-0.06,1.07-0.14l1.15-0.26c1.58-0.45,3.23-1.06,4.88-1.83c3.28-1.52,6.53-3.44,9.66-5.52
				c-0.14,0.31-0.28,0.62-0.42,0.94c-0.21,0.15-0.44,0.31-0.74,0.53c-0.87,0.6-2.12,1.47-3.66,2.43c-1.54,0.96-3.36,2.04-5.35,3
				c-1.98,0.95-4.17,1.83-6.19,2.18c-0.47,0.11-1.08,0.15-1.67,0.2c-0.59,0.05-1.18,0.1-1.76,0.14c-1.17,0.09-2.29,0.02-3.39,0.04
				c-2.14-0.17-4.14-0.41-5.65-0.98c-0.81-0.21-1.41-0.58-2.01-0.83c-0.54-0.32-1.01-0.6-1.37-0.88c-0.33-0.29-0.63-0.5-0.82-0.69
				c-0.17-0.19-0.28-0.3-0.32-0.33c0.33,0.47,0.81,0.84,1.23,1.26c0.52,0.33,0.96,0.76,1.56,1.02l0.85,0.46l0.94,0.36
				c0.32,0.11,0.62,0.26,0.95,0.35l1.01,0.25l1.02,0.26l1.06,0.15c0.71,0.09,1.41,0.24,2.16,0.24l2.21,0.1l2.24-0.08l1.13-0.04
				c0.37-0.02,0.68-0.08,1.03-0.12c0.67-0.05,1.37-0.27,2.07-0.42c0.7-0.19,1.4-0.43,2.1-0.66c0.69-0.28,1.4-0.52,2.09-0.84
				c2.74-1.19,5.42-2.66,8.02-4.25c-0.19,0.43-0.36,0.87-0.54,1.31c-0.73,0.48-1.81,1.15-3.13,1.93c-2.57,1.49-6.14,3.43-9.99,4.3
				c-3.89,0.63-8,0.69-10.99,0.22c-0.74-0.15-1.43-0.29-2.05-0.41c-0.59-0.19-1.12-0.36-1.56-0.49c-0.45-0.12-0.78-0.29-1.02-0.4
				c-0.25-0.11-0.4-0.18-0.44-0.2c2.14,1.11,4.56,1.82,7.04,2.06l0.93,0.13c0.31,0.03,0.62,0.03,0.93,0.05l1.88,0.08
				c1.25,0.02,2.51-0.08,3.77-0.11c2.54-0.16,5-0.96,7.34-1.92c2.22-0.92,4.37-2.02,6.46-3.2c-0.27,0.67-0.54,1.34-0.81,2.01
				c-0.49,0.28-1.04,0.59-1.68,0.93c-2.21,1.13-5.18,2.66-8.68,3.34c-0.44,0.07-0.88,0.17-1.31,0.22c-0.42,0.03-0.83,0.07-1.24,0.1
				c-0.82,0.07-1.64,0.13-2.43,0.19c-1.6-0.03-3.09,0.08-4.4-0.11c-0.65-0.06-1.26-0.12-1.8-0.17c-0.54-0.11-1.01-0.2-1.41-0.28
				c-0.56-0.11-0.96-0.19-1.18-0.24c4.09,1.22,8.32,1.32,12.41,1.04c2.26-0.18,4.43-0.79,6.44-1.52c1.64-0.61,3.21-1.32,4.75-2.08
				c-0.16,0.41-0.31,0.82-0.47,1.23c-0.46,0.24-1.03,0.53-1.69,0.85c-1.89,0.88-4.45,2.04-7.56,2.61c-0.38,0.06-0.79,0.15-1.15,0.19
				c-0.35,0.03-0.69,0.06-1.03,0.09c-0.68,0.06-1.36,0.11-2.01,0.16c-1.31,0.12-2.59,0.04-3.67,0.06c-1.09,0-2.04-0.16-2.72-0.2
				c-0.48-0.04-0.83-0.08-1.02-0.1c3.54,0.64,7.01,0.63,10.41,0.43c1.95-0.19,3.93-0.62,5.61-1.21c1.56-0.5,3-1.11,4.42-1.76
				c-0.17,0.48-0.34,0.96-0.5,1.44c-0.35,0.16-0.75,0.33-1.2,0.53c-1.65,0.65-3.84,1.56-6.64,1.94c-0.36,0.07-0.62,0.08-0.91,0.11
				l-0.85,0.07c-0.56,0.05-1.12,0.09-1.66,0.14c-1.06,0.12-2.13,0.06-3.03,0.08c-1.79,0.05-3.11-0.17-3.22-0.15
				c3,0.44,5.88,0.36,8.72,0.21c0.65,0,1.6-0.17,2.43-0.29c0.87-0.12,1.58-0.36,2.38-0.54c1.3-0.37,2.52-0.8,3.7-1.27
				c-0.87,2.49-1.69,4.99-2.44,7.54c-3.84,12.92-6.1,26.57-6.68,40.06c-0.61,13.5,0.44,26.8,2.45,39.24
				c0.56,3.1,1.04,6.18,1.66,9.18c0.71,2.98,1.4,5.91,2.09,8.79c0.37,1.43,0.63,2.88,1.08,4.26c0.42,1.39,0.83,2.76,1.24,4.13
				c0.85,2.84,1.68,5.61,2.5,8.33l0.52,1.03l0.29,0.61c0.19,0.42,0.38,0.83,0.58,1.25c0.38,0.84,0.74,1.68,1.09,2.52
				c0.69,1.68,1.33,3.35,1.9,5c1.15,3.29,2.06,6.48,2.77,9.51c1.38,6.07,1.88,11.48,1.72,15.9c-0.15,4.42-0.89,7.83-1.62,10.18
				c-0.74,2.35-1.42,3.68-1.56,4.07c3.51-7.12,4.02-15.9,2.78-24.53c-0.62-4.33-1.63-8.67-2.97-12.93
				c-0.67-2.13-1.41-4.24-2.22-6.33c-0.41-1.04-0.83-2.07-1.27-3.09l-0.67-1.51l-0.34-0.74l-0.55-1.11l-3.89-13.33
				c-1.02-4.41-2.06-8.82-3.03-13.23l-1.13-6.7l-0.56-3.35l-0.28-1.68c-0.08-0.56-0.13-1.13-0.19-1.69l-0.72-6.77l-0.36-3.38
				c-0.08-1.13-0.11-2.27-0.17-3.4l-0.3-6.8c-0.02-0.57-0.06-1.13-0.06-1.7l0.03-1.7l0.06-3.41l0.06-3.41c0.03-1.13,0-2.27,0.13-3.4
				l0.54-6.79c0.11-1.13,0.15-2.27,0.31-3.39l0.48-3.37c0.33-2.25,0.61-4.5,0.99-6.74l1.36-6.68c0.25-1.11,0.41-2.23,0.73-3.33
				l0.88-3.29c2.21-8.81,5.35-17.37,9.01-25.65c3.62-8.31,8.03-16.26,12.94-23.85c9.81-15.19,21.81-28.88,35.4-40.7
				c2.84-2.99,5.83-5.85,8.89-8.66c1.54-1.39,3.11-2.77,4.72-4.12l2.45-2c0.85-0.67,1.63-1.29,2.63-2
				C943.23,36.74,943.07,36.83,942.77,37.02z"/>
			<linearGradient id="SVGID_11_" gradientUnits="userSpaceOnUse" x1="863.2634" y1="163.2811" x2="923.9961" y2="163.2811">
				<stop  offset="0" style="stop-color:#0E0979"/>
				<stop  offset="1" style="stop-color:#9600FF"/>
			</linearGradient>
			<path class="st12" d="M919.03,59.25c-3.09,3.04-7.59,7.41-12.61,13.26c-5.03,5.83-10.69,13.05-16.15,21.57
				c-5.47,8.5-10.73,18.31-15.04,29.03c-4.31,10.72-7.7,22.34-9.68,34.19c-1.98,11.86-2.58,23.89-2.17,35.36
				c0.16,2.86,0.27,5.7,0.46,8.49c0.32,2.78,0.63,5.52,0.93,8.21c0.18,1.34,0.26,2.69,0.51,4c0.23,1.31,0.46,2.61,0.68,3.89
				c0.45,2.57,0.9,5.08,1.33,7.54c0.58,2.42,1.14,4.79,1.68,7.08c0.27,1.15,0.54,2.28,0.81,3.39c0.26,1.11,0.51,2.21,0.85,3.26
				c1.29,4.3,2.49,8.31,3.59,11.95c0.22,0.44,0.43,0.87,0.64,1.29c0.17,0.36,0.33,0.71,0.5,1.06c0.31,0.71,0.62,1.41,0.92,2.08
				c0.58,1.36,1.1,2.67,1.57,3.91c0.93,2.48,1.65,4.68,2.2,6.53c1.09,3.71,1.57,6.02,1.69,6.52c-0.75-3.66-1.77-7.29-2.98-10.86
				c-0.6-1.78-1.26-3.55-1.97-5.3c-0.36-0.87-0.72-1.74-1.1-2.59l-0.58-1.28l-0.3-0.63l-0.41-0.83l-3.45-11.82l-0.42-1.46
				l-0.34-1.48l-0.68-2.96l-1.36-5.91c-0.5-1.96-0.8-3.97-1.14-5.96l-1.01-5.99c-0.15-1-0.37-1.99-0.46-3l-0.32-3.02l-0.64-6.04
				c-0.27-2.01-0.3-4.04-0.4-6.06l-0.27-6.07c-0.07-1.01-0.05-2.02-0.02-3.04l0.05-3.04l0.11-6.07l0.48-6.06l0.24-3.03l0.12-1.51
				l0.21-1.5l0.86-6.01c0.16-1,0.26-2.01,0.46-3l0.61-2.97l1.22-5.95c0.49-1.96,1.04-3.91,1.55-5.87c0.94-3.94,2.37-7.73,3.59-11.58
				c2.82-7.57,5.9-15.07,9.76-22.16l1.4-2.69l1.52-2.62c1.03-1.74,1.99-3.51,3.08-5.21l3.27-5.09c1.09-1.69,2.31-3.31,3.45-4.96
				c4.7-6.55,9.79-12.8,15.27-18.71c4.02-5.14,8.29-10.12,12.82-14.9c0,0-0.45,0.4-1.31,1.16
				C921.85,56.62,920.62,57.77,919.03,59.25z"/>
			<linearGradient id="SVGID_12_" gradientUnits="userSpaceOnUse" x1="865.6147" y1="157.7708" x2="911.7549" y2="157.7708">
				<stop  offset="0" style="stop-color:#0E0979"/>
				<stop  offset="1" style="stop-color:#9600FF"/>
			</linearGradient>
			<path class="st13" d="M906.55,76.04c-3.22,3.86-7.72,9.47-12.54,16.64c-4.77,7.2-9.84,15.96-14.23,25.87
				c-4.41,9.9-8.09,20.94-10.52,32.31l-0.84,4.28c-0.26,1.43-0.61,2.84-0.76,4.28c-0.39,2.87-0.77,5.74-1.16,8.58
				c-0.21,2.86-0.42,5.7-0.63,8.52c-0.05,0.7-0.1,1.4-0.15,2.1c-0.01,0.7-0.01,1.4-0.02,2.1c-0.01,1.39-0.03,2.78-0.04,4.15
				c-0.01,1.37-0.03,2.74-0.04,4.09c0.02,1.35,0.12,2.69,0.18,4.01c0.14,2.65,0.28,5.24,0.41,7.77c0.29,2.52,0.56,4.97,0.84,7.35
				c0.14,1.19,0.27,2.36,0.4,3.51c0.13,1.15,0.38,2.26,0.55,3.37c0.39,2.2,0.76,4.31,1.11,6.33c0.18,1.01,0.35,1.99,0.52,2.95
				c0.23,0.95,0.45,1.87,0.66,2.77c0.85,3.59,1.61,6.75,2.24,9.41c1.57,5.23,2.54,8.46,2.71,9.02l-1.51-5.18
				c-0.48-1.73-1.06-3.43-1.42-5.2l-2.41-10.51c-0.64-3.54-1.2-7.08-1.81-10.62c-0.35-1.76-0.48-3.56-0.68-5.34l-0.57-5.36
				c-1.27-14.3-0.9-28.75,1.36-42.91c0.21-1.78,0.59-3.53,0.95-5.29l1.08-5.26c0.16-0.88,0.4-1.75,0.63-2.61l0.69-2.6l1.4-5.18
				l1.68-5.1c0.57-1.7,1.08-3.41,1.77-5.06c1.32-3.32,2.54-6.69,4.1-9.92c0.75-1.62,1.46-3.26,2.24-4.87l2.47-4.76l1.23-2.38
				l1.35-2.32l2.69-4.64c3.82-6.04,7.8-11.98,12.27-17.56c1.37-2.19,2.91-4.27,4.36-6.42c1.5-2.11,3.08-4.17,4.63-6.26
				c0,0-0.48,0.54-1.37,1.54C909.51,72.66,908.16,74.11,906.55,76.04z"/>
			<linearGradient id="SVGID_13_" gradientUnits="userSpaceOnUse" x1="867.7108" y1="157.47" x2="900.6504" y2="157.47">
				<stop  offset="0" style="stop-color:#0E0979"/>
				<stop  offset="1" style="stop-color:#9600FF"/>
			</linearGradient>
			<path class="st14" d="M897.04,91.95c-0.56,0.82-1.22,1.7-1.86,2.72c-0.64,1.01-1.34,2.11-2.08,3.28
				c-1.53,2.31-3.06,5.04-4.75,8.01c-0.88,1.47-1.68,3.06-2.5,4.7c-0.82,1.65-1.73,3.33-2.56,5.1c-1.58,3.59-3.37,7.32-4.81,11.35
				c-1.64,3.96-2.88,8.21-4.28,12.5c-0.6,2.17-1.15,4.38-1.73,6.58c-0.27,1.11-0.6,2.2-0.83,3.33l-0.66,3.37l-0.67,3.38
				c-0.22,1.13-0.47,2.25-0.59,3.39c-0.31,2.27-0.61,4.53-0.91,6.78l-0.23,1.68c-0.07,0.56-0.09,1.12-0.14,1.69
				c-0.08,1.12-0.16,2.24-0.24,3.35c-0.08,1.11-0.16,2.22-0.24,3.31c-0.07,1.1-0.19,2.19-0.17,3.27
				c-0.21,8.68,0.08,16.84,0.84,23.87c0.2,1.76,0.39,3.44,0.58,5.05c0.2,1.61,0.31,3.15,0.61,4.58c0.51,2.88,0.95,5.41,1.33,7.54
				c0.19,1.07,0.36,2.03,0.51,2.88c0.2,0.84,0.37,1.58,0.52,2.2c0.3,1.23,0.48,1.99,0.54,2.22l-0.96-4.16l-0.71-4.21
				c-0.46-2.81-0.98-5.61-1.38-8.42l-0.9-8.48l-0.23-2.12c-0.07-0.71-0.07-1.42-0.11-2.13l-0.19-4.26
				c-0.45-11.34,0.02-22.74,1.93-33.92c1.84-11.18,4.83-22.16,8.95-32.69c4.11-10.54,9.33-20.63,15.48-30.12l1.42-2.73
				c0.48-0.9,1.02-1.78,1.52-2.67c1.05-1.76,2.01-3.59,3.13-5.31c0,0-0.35,0.44-0.97,1.31C899.07,89.04,898.18,90.32,897.04,91.95z"
				/>
			<linearGradient id="SVGID_14_" gradientUnits="userSpaceOnUse" x1="869.527" y1="157.4868" x2="893.4146" y2="157.4868">
				<stop  offset="0" style="stop-color:#0E0979"/>
				<stop  offset="1" style="stop-color:#9600FF"/>
			</linearGradient>
			<path class="st15" d="M890.93,105.18c-1.62,2.7-3.67,6.7-6.05,11.55c-1.08,2.48-2.34,5.12-3.51,7.99
				c-0.56,1.45-1.13,2.93-1.71,4.45c-0.29,0.76-0.59,1.53-0.89,2.3c-0.3,0.77-0.52,1.59-0.79,2.39c-1.01,3.23-2.2,6.53-3.01,10
				c-0.45,1.72-0.9,3.46-1.35,5.21c-0.39,1.76-0.71,3.55-1.07,5.33l-0.53,2.67c-0.17,0.89-0.37,1.78-0.47,2.68
				c-0.24,1.79-0.48,3.58-0.72,5.36c-0.58,3.54-0.69,7.09-0.98,10.51c-0.06,0.86-0.12,1.71-0.19,2.55
				c-0.07,0.84-0.03,1.68-0.06,2.51c-0.02,1.66-0.03,3.28-0.05,4.87c0.01,1.59-0.09,3.13,0.01,4.63c0.08,1.5,0.15,2.95,0.23,4.34
				c0.07,1.4,0.14,2.74,0.21,4.02c0.04,0.64,0.05,1.27,0.11,1.88c0.07,0.61,0.14,1.2,0.2,1.77c0.26,2.3,0.49,4.32,0.69,6.03
				c0.21,1.7,0.31,3.08,0.51,4.07c0.18,0.99,0.29,1.6,0.32,1.78c-2.83-17.84-2.7-36.04,0.08-53.75c0.08-0.55,0.15-1.11,0.25-1.66
				l0.34-1.65l0.68-3.29c0.45-2.19,0.85-4.4,1.49-6.55l1.73-6.49l2.1-6.38c2.97-8.44,6.51-16.7,10.81-24.56
				c0.61-1.5,1.34-2.94,2.01-4.42c0.7-1.46,1.33-2.97,2.09-4.41c0,0-0.26,0.37-0.68,1.1C892.32,102.74,891.71,103.81,890.93,105.18z
				"/>
			<linearGradient id="SVGID_15_" gradientUnits="userSpaceOnUse" x1="870.9813" y1="159.9561" x2="887.5376" y2="159.9561">
				<stop  offset="0" style="stop-color:#0E0979"/>
				<stop  offset="1" style="stop-color:#9600FF"/>
			</linearGradient>
			<path class="st16" d="M886.52,116.61c-0.2,0.44-0.42,0.95-0.68,1.52c-0.51,1.14-1.12,2.52-1.83,4.11
				c-0.34,0.8-0.76,1.63-1.11,2.54c-0.35,0.91-0.72,1.87-1.1,2.87c-3.15,7.95-6.6,18.92-8.47,30.29
				c-0.89,5.68-1.69,11.41-1.96,16.85c-0.1,1.36-0.2,2.7-0.29,4.01c-0.01,1.32-0.03,2.6-0.04,3.86c-0.01,2.51-0.09,4.9-0.04,7.12
				c0.25,4.43,0.39,8.18,0.6,10.89c0.31,2.7,0.51,4.37,0.54,4.66c-3.02-28.44,0.99-57.55,12.76-83.46c0.87-2.41,1.61-4.89,2.64-7.25
				c0,0-0.16,0.32-0.46,0.91C886.92,115.81,886.73,116.17,886.52,116.61z"/>
			<linearGradient id="SVGID_16_" gradientUnits="userSpaceOnUse" x1="847.8813" y1="127.8444" x2="848.0742" y2="127.8444">
				<stop  offset="0" style="stop-color:#0E0979"/>
				<stop  offset="1" style="stop-color:#9600FF"/>
			</linearGradient>
			<path class="st17" d="M848.07,127.87c-0.06-0.02-0.13-0.03-0.19-0.05C847.91,127.83,847.98,127.85,848.07,127.87z"/>
			<linearGradient id="SVGID_17_" gradientUnits="userSpaceOnUse" x1="850.1792" y1="130.198" x2="850.3345" y2="130.198">
				<stop  offset="0" style="stop-color:#0E0979"/>
				<stop  offset="1" style="stop-color:#9600FF"/>
			</linearGradient>
			<path class="st18" d="M850.33,130.21c-0.05-0.01-0.1-0.02-0.16-0.03C850.2,130.19,850.26,130.2,850.33,130.21z"/>
		</g>
		<g>
			<linearGradient id="SVGID_18_" gradientUnits="userSpaceOnUse" x1="813.0884" y1="266.0349" x2="819.6833" y2="266.0349">
				<stop  offset="0" style="stop-color:#0E0979"/>
				<stop  offset="1" style="stop-color:#9600FF"/>
			</linearGradient>
			<path class="st19" d="M816.91,291.81c0.03-0.06,0.12-0.27,0.28-0.6c0.08-0.17,0.18-0.36,0.28-0.6c0.09-0.25,0.19-0.53,0.31-0.84
				c0.44-1.26,0.92-3.15,1.19-5.54c0.58-4.78,0.3-11.44-0.55-18.01c-0.83-6.59-2.17-13.12-3.29-17.97
				c-0.56-2.43-1.07-4.43-1.44-5.83c-0.37-1.37-0.59-2.16-0.59-2.16c0.78,1.27,1.55,2.64,2.31,3.99c1.82,8.13,3.26,16.38,3.95,24.59
				c0.34,4.1,0.46,8.21,0.2,12.19c-0.14,1.99-0.4,3.94-0.81,5.79C818.32,288.67,817.74,290.42,816.91,291.81z"/>
			<linearGradient id="SVGID_19_" gradientUnits="userSpaceOnUse" x1="815.749" y1="265.7705" x2="821.0477" y2="265.7705">
				<stop  offset="0" style="stop-color:#0E0979"/>
				<stop  offset="1" style="stop-color:#9600FF"/>
			</linearGradient>
			<path class="st20" d="M820.06,287.16c0.05-0.24,0.62-2.93,0.7-7c0.14-4.06-0.23-9.44-0.93-14.76c-0.7-5.33-1.72-10.59-2.57-14.51
				c-0.85-3.92-1.52-6.5-1.52-6.5l1.79,3.29c1.36,6.57,2.44,13.2,3.06,19.85c0.31,3.32,0.48,6.65,0.44,9.95
				C820.99,280.76,820.78,284.06,820.06,287.16z"/>
			<linearGradient id="SVGID_20_" gradientUnits="userSpaceOnUse" x1="817.9932" y1="264.9636" x2="822.3591" y2="264.9636">
				<stop  offset="0" style="stop-color:#0E0979"/>
				<stop  offset="1" style="stop-color:#9600FF"/>
			</linearGradient>
			<path class="st21" d="M822.11,282.36c-0.01-0.22,0.19-2.51,0.09-5.84c-0.09-3.33-0.43-7.69-1.04-11.98
				c-1.16-8.61-3.17-16.96-3.17-16.96l1.39,2.67c1.03,5.3,1.86,10.64,2.4,16.01C822.32,271.61,822.59,277.02,822.11,282.36z"/>
			<linearGradient id="SVGID_21_" gradientUnits="userSpaceOnUse" x1="820.0234" y1="265.0458" x2="823.5104" y2="265.0458">
				<stop  offset="0" style="stop-color:#0E0979"/>
				<stop  offset="1" style="stop-color:#9600FF"/>
			</linearGradient>
			<path class="st22" d="M823.48,279.11c-0.01-0.18,0.01-2.05-0.11-4.75c-0.13-2.7-0.46-6.22-0.93-9.69
				c-0.92-6.95-2.41-13.69-2.41-13.69l1.08,2.17C822.6,261.7,823.72,270.37,823.48,279.11z"/>
		</g>
	</g>
	<g>
		<path class="st3" d="M951.53,144.96c-0.58,2.11-1.58,4.11-3,5.9c-3.32,4.16-8.32,6.11-13.59,6.11c-5.48,0-10.37-2.11-13.58-6.11
			c-3.11-3.9-4.32-8.74-4.27-13.64c0.05-5,1.21-9.79,4.27-13.64c3.21-4.11,8.21-6.11,13.58-6.11s10.37,2.05,13.59,6.11
			c1.63,2.11,2.69,4.53,3.37,6.9l-5.27,0.9c-0.47-1.74-1.16-3.32-2.16-4.69c-2.21-2.9-5.84-4.37-9.53-4.37
			c-3.74,0-7.37,1.47-9.48,4.37c-2.26,2.84-2.9,6.74-2.95,10.53c0.05,3.79,0.68,7.64,2.95,10.53c2.11,2.9,5.74,4.37,9.48,4.37
			c3.69,0.05,7.32-1.47,9.53-4.37c0.9-1.26,1.58-2.69,2-4.21L951.53,144.96z"/>
		<path class="st3" d="M963.48,149.17c1.47,1.95,3.9,2.95,6.42,2.95c2.58,0,4.95-1,6.42-2.95c0.32-0.47,0.53-0.9,0.79-1.32
			l5.05,2.16c-0.47,0.84-1,1.63-1.58,2.37c-2.63,3.11-6.58,4.69-10.69,4.58c-4.11-0.11-8-1.58-10.48-4.69
			c-2.42-3-3.37-6.69-3.32-10.32c0.11-3.79,0.95-7.42,3.32-10.37c2.53-3.05,6.37-4.63,10.48-4.63c4.16,0,7.95,1.53,10.53,4.63
			c2.32,2.95,3.26,6.69,3.26,10.37c0,0.47-0.05,0.95-0.05,1.42h-22.06C961.74,145.54,962.27,147.59,963.48,149.17z M963.48,134.74
			c-0.95,1.26-1.47,2.84-1.74,4.48h16.32c-0.26-1.63-0.79-3.21-1.74-4.48c-1.47-2-3.84-3-6.42-2.95
			C967.37,131.74,964.95,132.74,963.48,134.74z"/>
		<path class="st3" d="M1014.66,142.12v14.06h-5.16v-14.06c0-3.63-0.42-6.74-2.79-8.64c-1.32-1.05-3.05-1.58-5.11-1.53
			c-1.63,0.11-3.16,0.63-4.32,1.58c-1.26,1.05-2.05,2.63-2.42,4.42c-0.26,1.11-0.32,2.37-0.32,3.74v14.48h-5.16v-28.44h4.58v2.79
			l0.53-0.53c2.16-1.95,5-2.84,7.64-2.95c2.9-0.16,5.95,0.74,8.16,2.58C1014.08,132.69,1014.71,137.01,1014.66,142.12z"/>
		<path class="st3" d="M1029.14,144.91c0,2.32-0.05,3.84,0.63,4.95c0.63,1.16,1.9,1.9,3.21,2.05c1.47,0.1,3.21,0.05,4.69-0.21v4.48
			c-2,0.53-5,0.63-6.95,0.21c-2.53-0.58-4.48-1.79-5.53-3.9c-1.05-2.11-1.16-4.42-1.16-7.27V131.9h-6.21v-4.16h6.21v-7.9h5.11v7.9
			h8.53v4.16h-8.53V144.91z"/>
		<path class="st3" d="M1061.37,127.63v4.79c-1.32-0.53-2.9-0.74-4.58-0.68c-2.21,0.11-4.05,0.84-5.27,2.11
			c-2.16,2.05-2.42,4.79-2.42,8.21v14.11h-5.11v-28.44h4.53v4.16c0.63-1.11,1.47-2.05,2.63-2.9c1.74-1.37,3.9-1.95,6.06-2
			C1058.57,126.9,1060,127.11,1061.37,127.63z"/>
		<path class="st3" d="M1067.31,152.28c-2.42-3-3.32-6.58-3.32-10.32c0-3.84,1-7.48,3.32-10.37c2.42-3,6.37-4.63,10.48-4.63
			s8,1.53,10.53,4.63c2.42,3.05,3.32,6.63,3.32,10.37c0,3.84-0.95,7.32-3.32,10.32c-2.58,3.16-6.32,4.69-10.53,4.69
			C1073.69,156.96,1069.84,155.38,1067.31,152.28z M1086.22,141.96c0-2.63-0.47-5.32-1.95-7.27s-3.9-2.9-6.48-2.9
			c-2.58,0-5,0.95-6.42,2.9c-1.47,1.95-1.95,4.63-1.95,7.27s0.47,5.27,1.95,7.21c1.42,1.95,3.84,2.95,6.42,2.95
			c2.58,0,5-1,6.48-2.95C1085.75,147.22,1086.22,144.59,1086.22,141.96z"/>
		<path class="st3" d="M943.89,178.92v37.91h-4.53v-3c-2.26,2.53-5.53,3.79-9.22,3.79c-3.84,0-7.48-1.63-9.85-4.58
			c-2.37-3-3.21-6.69-3.21-10.43c0-3.79,0.95-7.58,3.21-10.48c2.32-2.95,6-4.53,9.85-4.53c3.27,0,6.37,1.16,8.64,3.16v-11.85H943.89
			z M939.36,202.62c0-2.9-0.63-5.74-2.21-7.64c-1.42-1.84-3.74-2.74-6.21-2.74c-2.69,0-5,0.95-6.48,3.05
			c-1.42,1.84-1.95,4.53-1.95,7.32c0,2.74,0.47,5.42,1.84,7.27c1.47,2.11,3.95,3.11,6.42,3.11c2.58,0,4.84-0.95,6.37-2.74
			C938.73,208.36,939.36,205.46,939.36,202.62z"/>
		<path class="st3" d="M957.05,209.83c1.47,1.95,3.9,2.95,6.42,2.95c2.58,0,4.95-1,6.42-2.95c0.32-0.47,0.53-0.9,0.79-1.32
			l5.05,2.16c-0.47,0.84-1,1.63-1.58,2.37c-2.63,3.11-6.58,4.69-10.69,4.58c-4.11-0.11-8-1.58-10.48-4.69
			c-2.42-3-3.37-6.69-3.32-10.32c0.11-3.79,0.95-7.43,3.32-10.37c2.53-3.05,6.37-4.63,10.48-4.63c4.16,0,7.95,1.53,10.53,4.63
			c2.32,2.95,3.26,6.69,3.26,10.37c0,0.47-0.05,0.95-0.05,1.42h-22.06C955.32,206.2,955.84,208.25,957.05,209.83z M957.05,195.4
			c-0.95,1.26-1.47,2.84-1.74,4.48h16.32c-0.26-1.63-0.79-3.21-1.74-4.48c-1.47-2-3.84-3-6.42-2.95
			C960.95,192.4,958.53,193.4,957.05,195.4z"/>
		<path class="st3" d="M1027.35,205.62c-0.58,2.11-1.58,4.11-3,5.9c-3.32,4.16-8.32,6.11-13.59,6.11c-5.48,0-10.37-2.11-13.58-6.11
			c-3.11-3.9-4.32-8.74-4.27-13.64c0.05-5,1.21-9.79,4.27-13.64c3.21-4.11,8.21-6.11,13.58-6.11s10.37,2.05,13.59,6.11
			c1.63,2.11,2.69,4.53,3.37,6.9l-5.27,0.9c-0.47-1.74-1.16-3.32-2.16-4.69c-2.21-2.9-5.84-4.37-9.53-4.37
			c-3.74,0-7.37,1.47-9.48,4.37c-2.26,2.84-2.9,6.74-2.95,10.53c0.05,3.79,0.68,7.64,2.95,10.53c2.11,2.9,5.74,4.37,9.48,4.37
			c3.69,0.05,7.32-1.47,9.53-4.37c0.9-1.26,1.58-2.69,2-4.21L1027.35,205.62z"/>
		<path class="st3" d="M1039.14,178.66v5.11h-5.11v-5.11H1039.14z M1039.14,188.4v28.44h-5.11V188.4H1039.14z"/>
		<path class="st3" d="M1064.42,188.29v4.79c-1.32-0.53-2.9-0.74-4.58-0.68c-2.21,0.1-4.05,0.84-5.27,2.11
			c-2.16,2.05-2.42,4.79-2.42,8.21v14.11h-5.11V188.4h4.53v4.16c0.63-1.11,1.47-2.05,2.63-2.9c1.74-1.37,3.9-1.95,6.06-2
			C1061.63,187.56,1063.05,187.77,1064.42,188.29z"/>
		<path class="st3" d="M1093.64,188.4v28.44h-4.53v-2.84c-0.16,0.21-0.37,0.37-0.58,0.58c-2.11,1.95-5,2.84-7.64,2.95
			c-2.9,0.16-5.95-0.74-8.16-2.58c-3.79-3.05-4.42-7.37-4.37-12.48V188.4h5.16v14.06c0,3.63,0.42,6.74,2.79,8.58
			c1.32,1.11,3.11,1.58,5.11,1.58c1.63-0.11,3.16-0.63,4.32-1.63c1.26-1,2.11-2.58,2.42-4.37c0.26-1.11,0.32-2.37,0.32-3.74V188.4
			H1093.64z"/>
		<path class="st3" d="M1126.18,188.4v28.91c0,4.95-1.32,8.16-4.63,10.43c-2.84,1.95-5.79,2.47-8.64,2.47
			c-2.74,0-5.69-0.89-7.64-2.69c-1.37-0.79-2.74-2-3.58-3.47l4.69-2.32c0.32,0.58,0.74,1.11,1.26,1.53
			c1.32,1.42,3.42,2.11,5.32,2.11c2.16,0,4.37-0.58,5.84-1.84c1.84-1.47,2.32-3.11,2.26-6.27v-2.79c-2.21,2.11-5.27,3.16-8.64,3.16
			c-3.84,0-7.48-1.63-9.79-4.58c-2.42-3-3.21-6.69-3.21-10.43c0-3.79,0.95-7.58,3.21-10.48c2.32-2.95,5.95-4.53,9.85-4.53
			c3.58,0,6.95,1.37,9.22,3.74v-2.95H1126.18z M1119.5,210.25c1.58-1.9,2.21-4.79,2.21-7.63c0-2.9-0.63-5.74-2.21-7.64
			c-1.47-1.84-3.74-2.74-6.21-2.74c-2.69,0-5.05,0.95-6.53,3.05c-1.37,1.84-1.9,4.53-1.9,7.32c0,2.74,0.47,5.42,1.84,7.27
			c1.47,2.11,3.95,3.11,6.42,3.11C1115.65,212.99,1117.97,212.04,1119.5,210.25z"/>
		<path class="st3" d="M1130.82,184.98l-1.42-3.79l13.06-5.06l1.37,3.84L1130.82,184.98z M1134.08,188.4v28.44h5.11V188.4H1134.08z"
			/>
		<path class="st3" d="M1146.61,193.67l0.74-1.11c2.53-3.37,6.27-4.9,10.69-4.9c5.21,0,9.48,1.84,11.58,6.11
			c0.84,1.74,1.21,3.58,1.21,5.21v17.85h-4.53v-5.42c-0.9,1.9-2.79,3.58-4.58,4.48c-2.21,1.21-4.63,1.79-7.06,1.69
			c-2.9-0.11-5.79-1.58-7.32-3.63c-1.21-1.79-1.84-3.32-1.84-5.42c0-3.05,1.63-5.74,4.32-7.32c3.05-1.74,5.95-1.95,10.27-2.58
			l5.48-0.79c-0.21-1.53-1-2.95-2.26-3.84c-1.47-1.11-3.42-1.58-5.37-1.53c-2.42,0-4.58,0.79-6,2.58c-0.21,0.26-0.47,0.58-0.63,0.9
			L1146.61,193.67z M1159.36,203.14c-4.21,0.68-8.69,1.42-8.74,5.06c-0.05,2.37,2,4.53,4.79,4.69c3.58,0.16,8-1.79,9.43-5.42
			c0.95-1.95,0.95-3.58,0.95-5.37C1164.15,202.35,1162.3,202.62,1159.36,203.14z"/>
		<path class="st3" d="M945,259.12c-2.16,2.79-5.74,4.53-9.43,4.53H924.3v13.85h-5.11v-37.91h16.38c1.32,0,2.63,0.21,3.9,0.68
			c2.05,0.68,3.95,1.95,5.27,3.63c1.84,2.11,2.95,4.9,2.95,7.74C947.73,254.32,946.68,257.06,945,259.12z M942.47,251.64
			c-0.05-1.84-0.74-3.63-1.95-4.95c-1.26-1.32-3.21-2.26-5-2.26H924.3v14.38h11.22c1.9,0,4.05-1,5.37-2.69
			C941.89,254.85,942.52,253.27,942.47,251.64z"/>
		<path class="st3" d="M952.89,277.49v-38.7H958v38.7H952.89z"/>
		<path class="st3" d="M964.9,254.32l0.74-1.11c2.53-3.37,6.27-4.9,10.69-4.9c5.21,0,9.48,1.84,11.58,6.11
			c0.84,1.74,1.21,3.58,1.21,5.21v17.85h-4.53v-5.42c-0.9,1.9-2.79,3.58-4.58,4.48c-2.21,1.21-4.63,1.79-7.06,1.68
			c-2.9-0.11-5.79-1.58-7.32-3.63c-1.21-1.79-1.84-3.32-1.84-5.42c0-3.05,1.63-5.74,4.32-7.32c3.05-1.74,5.95-1.95,10.27-2.58
			l5.48-0.79c-0.21-1.53-1-2.95-2.26-3.84c-1.47-1.11-3.42-1.58-5.37-1.53c-2.42,0-4.58,0.79-6,2.58c-0.21,0.26-0.47,0.58-0.63,0.9
			L964.9,254.32z M977.64,263.8c-4.21,0.69-8.69,1.42-8.74,5.06c-0.05,2.37,2,4.53,4.79,4.69c3.58,0.16,8-1.79,9.43-5.42
			c0.95-1.95,0.95-3.58,0.95-5.37C982.43,263.01,980.59,263.28,977.64,263.8z M984.65,240.63l-1.37-3.84l-13.06,5.06l1.42,3.79
			L984.65,240.63z"/>
		<path class="st3" d="M1013.29,257.75c-0.53-1.53-1.69-3-3.16-3.74c-1.11-0.58-2.48-0.9-3.84-0.9c-1.47,0-2.84,0.26-3.9,0.79
			c-1.16,0.63-1.79,1.53-1.79,2.42c0,0.68,0.21,1.26,0.63,1.74c0.68,0.63,1.68,1.11,3.48,1.63c1.37,0.42,3.16,0.9,5.16,1.42
			c2.16,0.63,3.79,1.11,5.53,2.58c2.21,1.74,3.26,3.95,3.05,6.58c-0.21,2.53-1.63,4.74-3.79,6.11c-2.21,1.42-5.06,1.9-7.9,1.9
			c-3.79,0-7.16-1.05-9.64-3.74c-1.53-1.68-2.74-4.53-3-6.32l4.9-1.21c0.16,1.37,0.79,3.16,1.79,4.21c1.53,1.68,3.74,2.16,5.9,2.16
			c1.79,0,4-0.32,5.16-1.21c0.84-0.63,1.26-1.37,1.37-2.32c0.05-0.95-0.26-1.74-1-2.42c-0.84-0.79-2-1.21-3.79-1.74
			c-1.42-0.42-3-0.79-4.84-1.32c-2.26-0.63-4-1.21-5.58-2.48c-1.79-1.42-2.63-3.58-2.63-5.48c0-3.16,2.11-5.84,4.84-7.06
			c2.11-0.95,4.16-1.16,6.11-1.11c2,0,4.11,0.42,6,1.42c2.79,1.37,5.06,4,5.95,6.85L1013.29,257.75z"/>
		<path class="st3" d="M1032.14,266.22c0,2.32-0.05,3.84,0.63,4.95c0.63,1.16,1.9,1.89,3.21,2.05c1.47,0.11,3.21,0.05,4.69-0.21
			v4.48c-2,0.53-5,0.63-6.95,0.21c-2.53-0.58-4.48-1.79-5.53-3.9c-1.05-2.11-1.16-4.42-1.16-7.27v-13.32h-6.21v-4.16h6.21v-7.9h5.11
			v7.9h8.53v4.16h-8.53V266.22z"/>
		<path class="st3" d="M1052.62,239.32v5.11h-5.11v-5.11H1052.62z M1052.62,249.06v28.44h-5.11v-28.44H1052.62z"/>
		<path class="st3" d="M1080,257.43c-0.26-0.47-0.53-0.95-0.84-1.37c-1.47-2-3.9-3-6.42-2.95c-2.58-0.05-4.95,0.95-6.42,2.95
			c-1.47,1.95-1.95,4.58-2,7.21c0.05,2.63,0.53,5.27,2,7.21c1.47,1.95,3.84,2.95,6.42,2.95c2.53,0,4.95-1,6.42-2.95
			c0.32-0.42,0.53-0.84,0.79-1.32l4.79,2.05c-0.42,0.84-0.9,1.63-1.53,2.37c-2.53,3.11-6.42,4.74-10.48,4.63
			c-4.11,0.11-7.95-1.53-10.48-4.63c-2.37-2.95-3.32-6.63-3.32-10.32c0-3.74,0.95-7.37,3.32-10.37c2.58-3.16,6.42-4.63,10.48-4.63
			c4.11,0,7.95,1.58,10.48,4.63c0.63,0.79,1.16,1.63,1.53,2.48L1080,257.43z"/>
		<path class="st3" d="M1089.8,254.32l0.74-1.11c2.53-3.37,6.27-4.9,10.69-4.9c5.21,0,9.48,1.84,11.58,6.11
			c0.84,1.74,1.21,3.58,1.21,5.21v17.85h-4.53v-5.42c-0.9,1.9-2.79,3.58-4.58,4.48c-2.21,1.21-4.63,1.79-7.06,1.68
			c-2.9-0.11-5.79-1.58-7.32-3.63c-1.21-1.79-1.84-3.32-1.84-5.42c0-3.05,1.63-5.74,4.32-7.32c3.05-1.74,5.95-1.95,10.27-2.58
			l5.48-0.79c-0.21-1.53-1-2.95-2.26-3.84c-1.47-1.11-3.42-1.58-5.37-1.53c-2.42,0-4.58,0.79-6,2.58c-0.21,0.26-0.47,0.58-0.63,0.9
			L1089.8,254.32z M1102.54,263.8c-4.21,0.69-8.69,1.42-8.74,5.06c-0.05,2.37,2,4.53,4.79,4.69c3.58,0.16,8-1.79,9.43-5.42
			c0.95-1.95,0.95-3.58,0.95-5.37C1107.33,263.01,1105.49,263.28,1102.54,263.8z"/>
	</g>
</g>
</svg>
