<?xml version="1.0" encoding="utf-8"?>
<!-- Generator: Adobe Illustrator 22.1.0, SVG Export Plug-In . SVG Version: 6.00 Build 0)  -->
<svg version="1.1" id="Layer_1" xmlns="http://www.w3.org/2000/svg" xmlns:xlink="http://www.w3.org/1999/xlink" x="0px" y="0px"
	 viewBox="0 0 596 370" style="enable-background:new 0 0 596 370;" xml:space="preserve">
<style type="text/css">
	.st0{fill:url(#SVGID_1_);}
	.st1{fill:url(#SVGID_2_);}
	.st2{fill:url(#SVGID_3_);}
	.st3{fill:#250D54;}
	.st4{fill:url(#SVGID_4_);}
	.st5{fill:url(#SVGID_5_);}
	.st6{fill:url(#SVGID_6_);}
	.st7{fill:url(#SVGID_7_);}
	.st8{fill:url(#SVGID_8_);}
	.st9{fill:url(#SVGID_9_);}
	.st10{fill:url(#SVGID_10_);}
	.st11{fill:url(#SVGID_11_);}
	.st12{fill:url(#SVGID_12_);}
	.st13{fill:url(#SVGID_13_);}
	.st14{fill:url(#SVGID_14_);}
	.st15{fill:url(#SVGID_15_);}
	.st16{fill:url(#SVGID_16_);}
	.st17{fill:url(#SVGID_17_);}
	.st18{fill:url(#SVGID_18_);}
	.st19{fill:url(#SVGID_19_);}
	.st20{fill:url(#SVGID_20_);}
	.st21{fill:url(#SVGID_21_);}
	.st22{fill:#FFFFFF;}
</style>
<g>
	
		<linearGradient id="SVGID_1_" gradientUnits="userSpaceOnUse" x1="224.5" y1="-231.589" x2="330.5" y2="-231.589" gradientTransform="matrix(1 0 0 -1 0 -467.678)">
		<stop  offset="0" style="stop-color:#0E0979"/>
		<stop  offset="1" style="stop-color:#9600FF"/>
	</linearGradient>
	<path class="st0" d="M328-369.8c-81,70-81,158-68.2,205.3c12.8,47.3-0.8,64.7-0.8,64.7s5-30-3-57.5c-6.2-21.4-19.5-81.9-1.5-120
		c0,0-17,8-30-7c0,0,22,9,37-11c0,0,26-52,65-75l4-2L328-369.8z"/>
	
		<linearGradient id="SVGID_2_" gradientUnits="userSpaceOnUse" x1="197.5" y1="-326.839" x2="207.9" y2="-326.839" gradientTransform="matrix(1 0 0 -1 0 -467.678)">
		<stop  offset="0" style="stop-color:#0E0979"/>
		<stop  offset="1" style="stop-color:#9600FF"/>
	</linearGradient>
	<path class="st1" d="M197.5-166.3c0,0,9,28,4,51c0,0,10-25,5-38C206.5-153.3,203.5-162.3,197.5-166.3z"/>
	
		<linearGradient id="SVGID_3_" gradientUnits="userSpaceOnUse" x1="41" y1="-251.4864" x2="190.2087" y2="-251.4864" gradientTransform="matrix(1 0 0 -1 0 -467.678)">
		<stop  offset="0" style="stop-color:#0E0979"/>
		<stop  offset="1" style="stop-color:#9600FF"/>
	</linearGradient>
	<path class="st2" d="M152.5-107.3c0,0-23.5-43.5,6.5-97.5c0,0,41-77,16-108c0,0-19-32-47.5,71.5c0,0-15.5,55.5-86.5,98.5
		c0,0,64-46,80-99c0,0,22-88,46-83c0,0,42,5,13,85l-17,39C163-200.8,143-166.8,152.5-107.3z"/>
</g>
<g>
	<path class="st3" d="M331.5-274.9c-0.6,2.1-1.6,4.1-3,5.9c-3.3,4.2-8.3,6.1-13.6,6.1c-5.5,0-10.4-2.1-13.6-6.1
		c-3.1-3.9-4.3-8.7-4.3-13.6c0-5,1.2-9.8,4.3-13.6c3.2-4.1,8.2-6.1,13.6-6.1s10.4,2,13.6,6.1c1.6,2.1,2.7,4.5,3.4,6.9l-5.3,0.9
		c-0.5-1.7-1.2-3.3-2.2-4.7c-2.2-2.9-5.8-4.4-9.5-4.4c-3.7,0-7.4,1.5-9.5,4.4c-2.3,2.8-2.9,6.7-3,10.5c0,3.8,0.7,7.6,3,10.5
		c2.1,2.9,5.7,4.4,9.5,4.4c3.7,0.1,7.3-1.5,9.5-4.4c0.9-1.3,1.6-2.7,2-4.2L331.5-274.9z"/>
	<path class="st3" d="M343.5-270.7c1.5,2,3.9,3,6.4,3c2.6,0,5-1,6.4-3c0.3-0.5,0.5-0.9,0.8-1.3l5,2.2c-0.5,0.8-1,1.6-1.6,2.4
		c-2.6,3.1-6.6,4.7-10.7,4.6c-4.1-0.1-8-1.6-10.5-4.7c-2.4-3-3.4-6.7-3.3-10.3c0.1-3.8,1-7.4,3.3-10.4c2.5-3.1,6.4-4.6,10.5-4.6
		c4.2,0,8,1.5,10.5,4.6c2.3,2.9,3.3,6.7,3.3,10.4c0,0.5,0,0.9,0,1.4h-22.1C341.7-274.3,342.3-272.2,343.5-270.7z M343.5-285.1
		c-1,1.3-1.5,2.8-1.7,4.5h16.3c-0.3-1.6-0.8-3.2-1.7-4.5c-1.5-2-3.8-3-6.4-2.9C347.4-288.1,345-287.1,343.5-285.1z"/>
	<path class="st3" d="M394.7-277.7v14.1h-5.2v-14.1c0-3.6-0.4-6.7-2.8-8.6c-1.3-1-3-1.6-5.1-1.5c-1.6,0.1-3.2,0.6-4.3,1.6
		c-1.3,1-2,2.6-2.4,4.4c-0.3,1.1-0.3,2.4-0.3,3.7v14.5h-5.2v-28.4h4.6v2.8l0.5-0.5c2.2-2,5-2.8,7.6-3c2.9-0.2,6,0.7,8.2,2.6
		C394.1-287.1,394.7-282.8,394.7-277.7z"/>
	<path class="st3" d="M409.1-274.9c0,2.3,0,3.8,0.6,4.9c0.6,1.2,1.9,1.9,3.2,2.1c1.5,0.1,3.2,0,4.7-0.2v4.5c-2,0.5-5,0.6-7,0.2
		c-2.5-0.6-4.5-1.8-5.5-3.9c-1-2.1-1.2-4.4-1.2-7.3v-13.3h-6.2v-4.2h6.2v-7.9h5.1v7.9h8.5v4.2h-8.5L409.1-274.9L409.1-274.9z"/>
	<path class="st3" d="M441.4-292.2v4.8c-1.3-0.5-2.9-0.7-4.6-0.7c-2.2,0.1-4,0.8-5.3,2.1c-2.2,2-2.4,4.8-2.4,8.2v14.1H424v-28.4h4.5
		v4.2c0.6-1.1,1.5-2.1,2.6-2.9c1.7-1.4,3.9-2,6.1-2C438.6-292.9,440-292.7,441.4-292.2z"/>
	<path class="st3" d="M447.3-267.6c-2.4-3-3.3-6.6-3.3-10.3c0-3.8,1-7.5,3.3-10.4c2.4-3,6.4-4.6,10.5-4.6s8,1.5,10.5,4.6
		c2.4,3,3.3,6.6,3.3,10.4c0,3.8-1,7.3-3.3,10.3c-2.6,3.2-6.3,4.7-10.5,4.7C453.7-262.9,449.8-264.5,447.3-267.6z M466.2-277.9
		c0-2.6-0.5-5.3-2-7.3c-1.5-2-3.9-2.9-6.5-2.9c-2.6,0-5,0.9-6.4,2.9c-1.5,1.9-2,4.6-2,7.3c0,2.6,0.5,5.3,2,7.2
		c1.4,1.9,3.8,2.9,6.4,2.9c2.6,0,5-1,6.5-2.9C465.8-272.6,466.2-275.2,466.2-277.9z"/>
	<path class="st3" d="M323.9-240.9v37.9h-4.5v-3c-2.3,2.5-5.5,3.8-9.2,3.8c-3.8,0-7.5-1.6-9.9-4.6c-2.4-3-3.2-6.7-3.2-10.4
		c0-3.8,1-7.6,3.2-10.5c2.3-2.9,6-4.5,9.9-4.5c3.3,0,6.4,1.2,8.6,3.2v-11.9L323.9-240.9L323.9-240.9z M319.4-217.2
		c0-2.9-0.6-5.7-2.2-7.6c-1.4-1.8-3.7-2.7-6.2-2.7c-2.7,0-5,0.9-6.5,3.1c-1.4,1.8-2,4.5-2,7.3c0,2.7,0.5,5.4,1.8,7.3
		c1.5,2.1,4,3.1,6.4,3.1c2.6,0,4.8-0.9,6.4-2.7C318.7-211.5,319.4-214.4,319.4-217.2z"/>
	<path class="st3" d="M337-210c1.5,1.9,3.9,2.9,6.4,2.9c2.6,0,5-1,6.4-2.9c0.3-0.5,0.5-0.9,0.8-1.3l5,2.2c-0.5,0.8-1,1.6-1.6,2.4
		c-2.6,3.1-6.6,4.7-10.7,4.6c-4.1-0.1-8-1.6-10.5-4.7c-2.4-3-3.4-6.7-3.3-10.3c0.1-3.8,1-7.4,3.3-10.4c2.5-3.1,6.4-4.6,10.5-4.6
		c4.2,0,8,1.5,10.5,4.6c2.3,2.9,3.3,6.7,3.3,10.4c0,0.5,0,0.9,0,1.4h-22.1C335.3-213.6,335.8-211.6,337-210z M337-224.4
		c-1,1.3-1.5,2.8-1.7,4.5h16.3c-0.3-1.6-0.8-3.2-1.7-4.5c-1.5-2-3.8-3-6.4-2.9C341-227.4,338.5-226.4,337-224.4z"/>
	<path class="st3" d="M407.4-214.2c-0.6,2.1-1.6,4.1-3,5.9c-3.3,4.2-8.3,6.1-13.6,6.1c-5.5,0-10.4-2.1-13.6-6.1
		c-3.1-3.9-4.3-8.7-4.3-13.6c0-5,1.2-9.8,4.3-13.6c3.2-4.1,8.2-6.1,13.6-6.1s10.4,2.1,13.6,6.1c1.6,2.1,2.7,4.5,3.4,6.9l-5.3,0.9
		c-0.5-1.7-1.2-3.3-2.2-4.7c-2.2-2.9-5.8-4.4-9.5-4.4c-3.7,0-7.4,1.5-9.5,4.4c-2.3,2.8-2.9,6.7-3,10.5c0,3.8,0.7,7.6,3,10.5
		c2.1,2.9,5.7,4.4,9.5,4.4c3.7,0.1,7.3-1.5,9.5-4.4c0.9-1.3,1.6-2.7,2-4.2L407.4-214.2z"/>
	<path class="st3" d="M419.1-241.2v5.1H414v-5.1H419.1z M419.1-231.4v28.4H414v-28.4H419.1z"/>
	<path class="st3" d="M444.4-231.5v4.8c-1.3-0.5-2.9-0.7-4.6-0.7c-2.2,0.1-4,0.8-5.3,2.1c-2.2,2.1-2.4,4.8-2.4,8.2v14.1H427v-28.4
		h4.5v4.2c0.6-1.1,1.5-2.1,2.6-2.9c1.7-1.4,3.9-1.9,6.1-2C441.6-232.3,443-232.1,444.4-231.5z"/>
	<path class="st3" d="M473.6-231.4v28.4h-4.5v-2.8c-0.2,0.2-0.4,0.4-0.6,0.6c-2.1,1.9-5,2.8-7.6,2.9c-2.9,0.2-6-0.7-8.2-2.6
		c-3.8-3.1-4.4-7.4-4.4-12.5v-14.1h5.2v14.1c0,3.6,0.4,6.7,2.8,8.6c1.3,1.1,3.1,1.6,5.1,1.6c1.6-0.1,3.2-0.6,4.3-1.6
		c1.3-1,2.1-2.6,2.4-4.4c0.3-1.1,0.3-2.4,0.3-3.7v-14.5H473.6z"/>
	<path class="st3" d="M506.2-231.4v28.9c0,4.9-1.3,8.2-4.6,10.4c-2.8,1.9-5.8,2.5-8.6,2.5c-2.7,0-5.7-0.9-7.6-2.7
		c-1.4-0.8-2.7-2-3.6-3.5l4.7-2.3c0.3,0.6,0.7,1.1,1.3,1.5c1.3,1.4,3.4,2.1,5.3,2.1c2.2,0,4.4-0.6,5.8-1.8c1.8-1.5,2.3-3.1,2.3-6.3
		v-2.8c-2.2,2.1-5.3,3.2-8.6,3.2c-3.8,0-7.5-1.6-9.8-4.6c-2.4-3-3.2-6.7-3.2-10.4c0-3.8,1-7.6,3.2-10.5c2.3-2.9,6-4.5,9.9-4.5
		c3.6,0,7,1.4,9.2,3.7v-2.9L506.2-231.4L506.2-231.4z M499.5-209.6c1.6-1.9,2.2-4.8,2.2-7.6c0-2.9-0.6-5.7-2.2-7.6
		c-1.5-1.8-3.7-2.7-6.2-2.7c-2.7,0-5,0.9-6.5,3.1c-1.4,1.8-1.9,4.5-1.9,7.3c0,2.7,0.5,5.4,1.8,7.3c1.5,2.1,4,3.1,6.4,3.1
		C495.6-206.8,498-207.8,499.5-209.6z"/>
	<path class="st3" d="M510.8-234.9l-1.4-3.8l13.1-5.1l1.4,3.8L510.8-234.9z M514.1-231.4v28.4h5.1v-28.4H514.1z"/>
	<path class="st3" d="M526.6-226.2l0.7-1.1c2.5-3.4,6.3-4.9,10.7-4.9c5.2,0,9.5,1.8,11.6,6.1c0.8,1.7,1.2,3.6,1.2,5.2v17.9h-4.5
		v-5.4c-0.9,1.9-2.8,3.6-4.6,4.5c-2.2,1.2-4.6,1.8-7.1,1.7c-2.9-0.1-5.8-1.6-7.3-3.6c-1.2-1.8-1.8-3.3-1.8-5.4
		c0-3.1,1.6-5.7,4.3-7.3c3-1.7,6-1.9,10.3-2.6l5.5-0.8c-0.2-1.5-1-2.9-2.3-3.8c-1.5-1.1-3.4-1.6-5.4-1.5c-2.4,0-4.6,0.8-6,2.6
		c-0.2,0.3-0.5,0.6-0.6,0.9L526.6-226.2z M539.4-216.7c-4.2,0.7-8.7,1.4-8.7,5.1c0,2.4,2,4.5,4.8,4.7c3.6,0.2,8-1.8,9.4-5.4
		c1-1.9,1-3.6,1-5.4C544.2-217.5,542.3-217.2,539.4-216.7z"/>
	<path class="st3" d="M325-160.7c-2.2,2.8-5.7,4.5-9.4,4.5h-11.3v13.9h-5.1v-37.9h16.4c1.3,0,2.6,0.2,3.9,0.7c2,0.7,4,1.9,5.3,3.6
		c1.8,2.1,3,4.9,3,7.7C327.7-165.5,326.7-162.8,325-160.7z M322.5-168.2c0-1.8-0.7-3.6-2-4.9c-1.3-1.3-3.2-2.3-5-2.3h-11.2v14.4
		h11.2c1.9,0,4-1,5.4-2.7C321.9-165,322.5-166.6,322.5-168.2z"/>
	<path class="st3" d="M332.9-142.3V-181h5.1v38.7H332.9z"/>
	<path class="st3" d="M344.9-165.5l0.7-1.1c2.5-3.4,6.3-4.9,10.7-4.9c5.2,0,9.5,1.8,11.6,6.1c0.8,1.7,1.2,3.6,1.2,5.2v17.9h-4.5
		v-5.4c-0.9,1.9-2.8,3.6-4.6,4.5c-2.2,1.2-4.6,1.8-7.1,1.7c-2.9-0.1-5.8-1.6-7.3-3.6c-1.2-1.8-1.8-3.3-1.8-5.4c0-3,1.6-5.7,4.3-7.3
		c3-1.7,6-2,10.3-2.6l5.5-0.8c-0.2-1.5-1-2.9-2.3-3.8c-1.5-1.1-3.4-1.6-5.4-1.5c-2.4,0-4.6,0.8-6,2.6c-0.2,0.3-0.5,0.6-0.6,0.9
		L344.9-165.5z M357.6-156c-4.2,0.7-8.7,1.4-8.7,5.1c0,2.4,2,4.5,4.8,4.7c3.6,0.2,8-1.8,9.4-5.4c1-2,1-3.6,1-5.4
		C362.4-156.8,360.6-156.6,357.6-156z M364.6-179.2l-1.4-3.8l-13.1,5.1l1.4,3.8L364.6-179.2z"/>
	<path class="st3" d="M393.3-162.1c-0.5-1.5-1.7-3-3.2-3.7c-1.1-0.6-2.5-0.9-3.8-0.9c-1.5,0-2.8,0.3-3.9,0.8
		c-1.2,0.6-1.8,1.5-1.8,2.4c0,0.7,0.2,1.3,0.6,1.7c0.7,0.6,1.7,1.1,3.5,1.6c1.4,0.4,3.2,0.9,5.2,1.4c2.2,0.6,3.8,1.1,5.5,2.6
		c2.2,1.7,3.3,4,3,6.6c-0.2,2.5-1.6,4.7-3.8,6.1c-2.2,1.4-5.1,1.9-7.9,1.9c-3.8,0-7.2-1-9.6-3.7c-1.5-1.7-2.7-4.5-3-6.3l4.9-1.2
		c0.2,1.4,0.8,3.2,1.8,4.2c1.5,1.7,3.7,2.2,5.9,2.2c1.8,0,4-0.3,5.2-1.2c0.8-0.6,1.3-1.4,1.4-2.3c0-1-0.3-1.7-1-2.4
		c-0.8-0.8-2-1.2-3.8-1.7c-1.4-0.4-3-0.8-4.8-1.3c-2.3-0.6-4-1.2-5.6-2.5c-1.8-1.4-2.6-3.6-2.6-5.5c0-3.2,2.1-5.8,4.8-7.1
		c2.1-0.9,4.2-1.2,6.1-1.1c2,0,4.1,0.4,6,1.4c2.8,1.4,5.1,4,6,6.9L393.3-162.1z"/>
	<path class="st3" d="M412.1-153.6c0,2.3,0,3.8,0.6,5c0.6,1.2,1.9,1.9,3.2,2c1.5,0.1,3.2,0,4.7-0.2v4.5c-2,0.5-5,0.6-7,0.2
		c-2.5-0.6-4.5-1.8-5.5-3.9s-1.2-4.4-1.2-7.3v-13.3h-6.2v-4.2h6.2v-7.9h5.1v7.9h8.5v4.2h-8.5L412.1-153.6L412.1-153.6z"/>
	<path class="st3" d="M432.6-180.5v5.1h-5.1v-5.1H432.6z M432.6-170.8v28.4h-5.1v-28.4H432.6z"/>
	<path class="st3" d="M460-162.4c-0.3-0.5-0.5-1-0.8-1.4c-1.5-2-3.9-3-6.4-2.9c-2.6-0.1-5,0.9-6.4,2.9c-1.5,2-2,4.6-2,7.2
		c0,2.6,0.5,5.3,2,7.2c1.5,2,3.8,3,6.4,3c2.5,0,5-1,6.4-3c0.3-0.4,0.5-0.8,0.8-1.3l4.8,2c-0.4,0.8-0.9,1.6-1.5,2.4
		c-2.5,3.1-6.4,4.7-10.5,4.6c-4.1,0.1-8-1.5-10.5-4.6c-2.4-3-3.3-6.6-3.3-10.3c0-3.7,1-7.4,3.3-10.4c2.6-3.2,6.4-4.6,10.5-4.6
		c4.1,0,8,1.6,10.5,4.6c0.6,0.8,1.2,1.6,1.5,2.5L460-162.4z"/>
	<path class="st3" d="M469.8-165.5l0.7-1.1c2.5-3.4,6.3-4.9,10.7-4.9c5.2,0,9.5,1.8,11.6,6.1c0.8,1.7,1.2,3.6,1.2,5.2v17.9h-4.5
		v-5.4c-0.9,1.9-2.8,3.6-4.6,4.5c-2.2,1.2-4.6,1.8-7.1,1.7c-2.9-0.1-5.8-1.6-7.3-3.6c-1.2-1.8-1.8-3.3-1.8-5.4c0-3,1.6-5.7,4.3-7.3
		c3-1.7,6-2,10.3-2.6l5.5-0.8c-0.2-1.5-1-2.9-2.3-3.8c-1.5-1.1-3.4-1.6-5.4-1.5c-2.4,0-4.6,0.8-6,2.6c-0.2,0.3-0.5,0.6-0.6,0.9
		L469.8-165.5z M482.5-156c-4.2,0.7-8.7,1.4-8.7,5.1c0,2.4,2,4.5,4.8,4.7c3.6,0.2,8-1.8,9.4-5.4c1-2,1-3.6,1-5.4
		C487.3-156.8,485.5-156.6,482.5-156z"/>
</g>
<g>
	<g>
		<g>
			
				<linearGradient id="SVGID_4_" gradientUnits="userSpaceOnUse" x1="668.7051" y1="-249.2863" x2="810.3856" y2="-249.2863" gradientTransform="matrix(1 0 0 -1 0 -467.678)">
				<stop  offset="0" style="stop-color:#0E0979"/>
				<stop  offset="1" style="stop-color:#9600FF"/>
			</linearGradient>
			<path class="st4" d="M779.9-113.1c-0.3-0.6-1.7-2.7-3.6-6.2c-1.9-3.5-4.4-8.4-6.8-14.9c-0.6-1.6-1.2-3.3-1.8-5.1
				c-0.3-0.9-0.5-1.8-0.8-2.8c-0.3-1-0.5-1.9-0.7-2.9c-0.5-2-0.9-4.1-1.3-6.3c-0.1-1.1-0.3-2.2-0.4-3.4c-0.2-1.1-0.2-2.3-0.3-3.5
				c-0.6-9.5,0.8-20.5,5.5-31.1c1.1-2.6,2.5-5.3,4-7.8c1.5-2.6,3.1-5.1,4.9-7.5c1.8-2.4,3.7-4.8,5.6-7.1c1.9-2.3,4-4.6,5.6-6.7
				c3.5-4.4,6.6-9.4,9.3-14.8c2.7-5.3,5-11.1,6.7-17c1.7-5.9,2.9-12.1,3.4-18.4c0.4-6.3,0.2-12.7-0.7-19.1c-0.2-1.6-0.6-3.2-0.9-4.7
				l-0.5-2.4l-0.6-2.4c-0.8-3.2-1.8-6.3-2.8-9.4c-1.1-3-2.4-6-3.9-8.5c-0.8-1.3-1.6-2.5-2.4-3.5c-0.9-1-1.8-1.9-2.7-2.5
				c-1.8-1.2-3.3-1.5-5.4-1c-2.1,0.5-4.5,2-6.7,3.9c-1.1,1-2.2,2.1-3.2,3.1c-0.9,1-1.8,2.1-2.5,3.3c-1.5,2.4-2.8,5.2-3.9,8.2
				c-2.2,5.9-3.8,12.4-5.4,18.8c-1.6,6.5-3.2,12.9-5.2,19.3c-2,6.3-4.2,12.6-6.9,18.4c-0.7,1.5-1.4,2.9-2.1,4.4
				c-0.4,0.8-0.8,1.5-1.2,2.2c-0.4,0.8-0.8,1.5-1.3,2.2c-0.4,0.7-0.9,1.4-1.3,2.1c-0.5,0.7-0.9,1.3-1.4,2c-0.9,1.3-1.9,2.6-2.8,3.8
				c-3.8,4.9-7.7,9.3-11.7,13.4c-3.9,4.1-7.8,7.9-11.7,11.5c-15.3,14.2-28.8,25-38.3,32.4c-4.8,3.7-8.6,6.6-11.2,8.5
				c-2.6,1.9-4,3-4,3c9.7-7.9,19.1-16.1,28.3-24.5c6.7-5.4,13.3-11,19.7-16.8c6.4-5.8,12.7-11.8,18.7-18.2
				c5.9-6.4,11.7-13.1,16.1-21.2c4.2-7.9,7.3-16.2,9.8-24.5c2.6-8.4,4.5-16.8,6.7-25c1.1-4.1,2.2-8.1,3.7-11.9
				c1.4-3.8,3.1-7.4,5.3-10.4c0.5-0.8,1.1-1.4,1.8-2.1c0.7-0.7,1.4-1.4,2.1-2.1c1.4-1.3,2.9-2.5,4.4-3.4c1.5-0.9,3-1.5,4.5-1.8
				c1.4-0.3,2.7-0.1,4,0.4c2.5,1,5,3.7,6.9,7c2,3.2,3.5,7,4.8,10.9c0.6,1.9,1.2,3.9,1.8,5.9c0.3,1,0.5,2,0.8,3c0.3,1,0.5,2,0.6,3
				l0.6,3c0.2,1,0.4,2,0.5,3c0.2,2,0.5,4,0.6,6.1c0.5,8.1-0.1,16.3-1.8,24.3c-1.7,8-4.5,15.7-8.2,23.1c-0.4,0.9-0.9,1.8-1.4,2.7
				l-1.5,2.7c-1.1,1.7-2.1,3.5-3.2,5.2c-1.1,1.7-2.3,3.3-3.5,4.9l-1.9,2.3l-2.1,2.4c-5.8,6.5-11.4,13.8-15.4,22.1
				c-4.1,8.3-6.5,17.5-6.8,26.8c-0.2,4.6,0.2,9.3,0.8,13.8c0.7,4.5,1.9,9,3.2,13.3C771.3-128.9,775.3-120.8,779.9-113.1z"/>
			
				<linearGradient id="SVGID_5_" gradientUnits="userSpaceOnUse" x1="698.0452" y1="-222.7465" x2="812.6752" y2="-222.7465" gradientTransform="matrix(1 0 0 -1 0 -467.678)">
				<stop  offset="0" style="stop-color:#0E0979"/>
				<stop  offset="1" style="stop-color:#9600FF"/>
			</linearGradient>
			<path class="st5" d="M766.6-164c0.1-0.6,0-2.6,0.4-5.8c0.4-3.2,1.1-7.6,2.8-12.8c1.7-5.2,4.5-11.1,8.5-17.2c2-3,4.3-6.1,6.9-9.2
				c1.3-1.5,2.6-3.1,3.9-4.6c1.3-1.6,2.6-3.1,3.8-4.7c4.9-6.6,9.3-14.5,12.7-23.2c0.8-2.2,1.7-4.4,2.3-6.7c0.3-1.1,0.7-2.3,1-3.5
				c0.3-1.2,0.6-2.4,0.8-3.6l0.4-1.8l0.3-1.8c0.2-1.2,0.4-2.4,0.6-3.7c0.2-1.2,0.3-2.5,0.4-3.7l0.2-1.9l0.1-0.9l0-1
				c0-2.5,0.3-5.1,0.1-7.6c0-1.3-0.1-2.6-0.2-3.9c-0.1-1.3-0.3-2.6-0.4-3.9l-0.2-1.9c-0.1-0.6-0.1-1.3-0.3-1.9
				c-0.2-1.3-0.5-2.6-0.8-3.9c-0.2-1.3-0.5-2.6-0.8-3.9c-0.3-1.3-0.7-2.6-1-3.9c-0.7-2.6-1.5-5.1-2.5-7.6c-0.9-2.5-2-4.9-3.2-7.2
				s-2.7-4.4-4.3-6c-0.8-0.8-1.7-1.6-2.7-2.1s-1.9-0.9-2.9-1.1c-2-0.3-4.2,0-6.3,1.1c-2.1,1-4.2,2.5-6,4.2c-0.9,0.9-1.9,1.8-2.7,2.7
				c-0.8,0.9-1.6,1.9-2.3,2.9c-1.4,2.1-2.6,4.3-3.6,6.7c-2,4.8-3.5,9.9-4.8,15c-1.3,5.2-2.6,10.3-3.9,15.3
				c-2.6,10.1-5.7,19.8-9.7,28.6c-0.5,1.1-1,2.2-1.5,3.3c-0.5,1.1-1.1,2.1-1.7,3.2c-0.6,1.1-1.2,2.1-1.8,3.1c-0.6,1-1.3,2-1.9,2.9
				c-2.6,3.8-5.4,7.2-8.2,10.3c-5.5,6.3-10.9,11.7-15.8,16.4c-4.9,4.6-9.3,8.6-12.9,11.7s-6.5,5.6-8.5,7.3c-2,1.6-3,2.5-3,2.5
				c7.3-6.8,14.5-13.7,21.3-20.9c5-4.7,10-9.5,14.7-14.6c1.2-1.3,2.3-2.5,3.5-3.9l1.7-2l1.7-2c1.1-1.3,2.1-2.7,3.2-4.1
				c0.5-0.7,1-1.4,1.5-2.1c0.5-0.7,1-1.4,1.5-2.2s1-1.5,1.4-2.2l1.3-2.3c0.8-1.6,1.6-3.1,2.3-4.7c1.5-3.2,2.8-6.4,4-9.6
				c2.4-6.5,4.3-13.1,6.1-19.8c1.8-6.7,3.3-13.3,5.2-19.9c1-3.2,2-6.5,3.3-9.5c1.3-3.1,2.8-6,4.8-8.5c0.5-0.7,1-1.2,1.5-1.8
				c0.6-0.6,1.1-1.2,1.7-1.8c1.2-1.1,2.4-2.2,3.7-3.1c2.6-1.9,5.5-3.2,8.3-3.3c2.8-0.1,5.5,1.2,7.7,3.4c2.2,2.1,4,4.9,5.4,7.8
				c2.9,5.9,4.8,12.4,6.4,19c1.4,6.5,2.3,13.2,2.3,19.9c-0.1,13.4-3,26.7-8.5,38.9c-2.7,6.1-6,12-9.9,17.4c-1.9,2.7-4,5.2-6.3,7.8
				c-2.3,2.6-4.5,5.3-6.6,8.1c-4.2,5.6-7.9,11.8-10.4,18.6c-1.3,3.4-2.3,6.8-3,10.3C767.1-171.2,766.7-167.6,766.6-164z"/>
			
				<linearGradient id="SVGID_6_" gradientUnits="userSpaceOnUse" x1="718.8351" y1="-202.11" x2="814.8052" y2="-202.11" gradientTransform="matrix(1 0 0 -1 0 -467.678)">
				<stop  offset="0" style="stop-color:#0E0979"/>
				<stop  offset="1" style="stop-color:#9600FF"/>
			</linearGradient>
			<path class="st6" d="M783.6-203c0.3-0.4,1.2-1.6,2.7-3.5c1.5-1.9,3.8-4.4,6.4-7.6c5.2-6.4,11.5-16.2,16-29
				c2.3-6.4,4.1-13.5,5-21.1c0.9-7.6,1-15.8-0.3-24c-1.3-8.2-3.5-16.6-6.9-24.6c-1.8-3.9-3.9-7.8-7.1-10.8c-1.6-1.5-3.4-2.7-5.4-3.2
				c-2-0.6-4.2-0.5-6.3,0.1c-4.1,1.2-7.7,4-10.7,7.1c-3.1,3-5.4,6.8-7.2,10.7c-1.8,3.9-3,8-4.2,12.1c-1.2,4.1-2.2,8.2-3.2,12.2
				c-2,8-4,15.8-6.5,23c-2.5,7.2-5.2,13.8-8.5,19.6c-3.4,5.7-7.2,10.5-10.7,14.5c-3.5,4.1-6.7,7.4-9.4,10.2
				c-2.7,2.7-4.9,4.8-6.4,6.2c-1.5,1.4-2.3,2.2-2.3,2.2c5.5-5.7,10.8-11.6,15.7-17.8c3.6-4.1,7.1-8.3,10.1-12.8
				c3-4.5,5.3-9.5,7.4-14.5c4.2-10.1,7-20.7,9.7-31.4c1.4-5.3,2.7-10.6,4.4-15.9c1.7-5.2,3.8-10.4,7-14.9c1.6-2.2,3.6-4.2,5.7-6
				c2.1-1.8,4.4-3.4,7-4.5c2.5-1,5.5-1.5,8.2-0.8c2.7,0.7,5.1,2.4,6.9,4.4c1.9,2,3.4,4.4,4.7,6.8c1.3,2.4,2.4,5,3.3,7.6
				c0.9,2.6,1.8,5.2,2.5,7.8c0.7,2.6,1.4,5.3,1.8,8c2.1,10.8,2.4,21.9,0.5,32.7l-0.7,4l-1,4c-0.3,1.3-0.7,2.6-1.1,3.9
				c-0.4,1.3-0.8,2.6-1.2,3.9c-1.8,5.2-4,10.2-6.5,15c-2.6,4.8-5.5,9.5-8.8,13.8c-1.7,2.1-3.5,4.2-5.3,6.3
				C787-207.4,785.3-205.2,783.6-203z"/>
			
				<linearGradient id="SVGID_7_" gradientUnits="userSpaceOnUse" x1="738.405" y1="-191.1146" x2="816.7275" y2="-191.1146" gradientTransform="matrix(1 0 0 -1 0 -467.678)">
				<stop  offset="0" style="stop-color:#0E0979"/>
				<stop  offset="1" style="stop-color:#9600FF"/>
			</linearGradient>
			<path class="st7" d="M801.5-223.1c0.3-0.6,2.6-4.2,5.5-10.3c0.8-1.5,1.4-3.3,2.2-5.1c0.8-1.9,1.4-3.9,2.2-6
				c1.3-4.4,2.8-9.3,3.7-14.8c0.5-2.7,0.8-5.6,1.1-8.5c0.2-1.5,0.1-3,0.2-4.5c0-1.5,0.1-3.1,0-4.6c-0.1-1.6-0.1-3.2-0.2-4.8
				c-0.1-1.6-0.3-3.2-0.5-4.9c-0.1-0.8-0.2-1.6-0.3-2.5c-0.2-0.8-0.3-1.6-0.5-2.5c-0.3-1.6-0.7-3.3-1-5c-1.6-6.6-3.5-13.3-6.8-19.8
				c-0.8-1.6-1.7-3.2-2.8-4.7c-1-1.5-2.2-3-3.6-4.3c-1.4-1.3-3-2.4-4.9-3.2c-1.8-0.8-3.9-1-5.9-0.9c-4,0.4-7.5,2.3-10.4,4.5
				c-2.9,2.3-5.5,4.8-7.6,7.8c-2.1,3-3.7,6.2-5,9.5s-2.3,6.5-3.2,9.7c-1.8,6.4-3.2,12.6-4.8,18.5c-1.5,5.8-3.1,11.3-4.7,16.2
				c-1.7,5-3.4,9.4-5.2,13.2c-1.7,3.9-3.5,7-5.1,9.5c-0.8,1.2-1.6,2.4-2.3,3.3c-0.7,0.9-1.3,1.7-1.8,2.4c-0.5,0.6-0.9,1.1-1.1,1.4
				c-0.3,0.3-0.4,0.5-0.4,0.5c1.8-2.5,3.5-5.1,5.1-7.8c1.5-2.7,2.8-5.4,4-8.3c3.7-7.8,6.5-15.9,8.9-24.3c2.4-8.4,4.3-16.9,6.8-25.5
				c1.3-4.3,2.7-8.6,4.7-12.7c1-2.1,2.1-4.1,3.5-6c0.7-1,1.4-1.9,2.2-2.8c0.8-0.9,1.6-1.7,2.4-2.5c1.7-1.6,3.5-3.1,5.5-4.4
				c2-1.3,4.2-2.3,6.7-2.8c1.2-0.3,2.5-0.3,3.8-0.3c1.3,0.1,2.6,0.4,3.8,0.9c2.4,0.9,4.5,2.5,6.1,4.2c1.7,1.7,3,3.7,4.2,5.7
				c1.2,2,2.2,4,3,6.1c1.8,4.2,3.1,8.4,4.2,12.8c0.6,2.2,1.1,4.3,1.5,6.5c0.4,2.2,0.9,4.4,1.1,6.6c0.6,4.4,0.8,8.9,0.7,13.4
				c-0.2,8.9-1.7,17.8-4.3,26.4C809.9-238.9,806.2-230.7,801.5-223.1z"/>
			
				<linearGradient id="SVGID_8_" gradientUnits="userSpaceOnUse" x1="748.8551" y1="-180.6646" x2="818.475" y2="-180.6646" gradientTransform="matrix(1 0 0 -1 0 -467.678)">
				<stop  offset="0" style="stop-color:#0E0979"/>
				<stop  offset="1" style="stop-color:#9600FF"/>
			</linearGradient>
			<path class="st8" d="M812.6-242.3c0.2-0.6,1.3-3.8,2.7-9.1c0.3-1.3,0.7-2.8,1-4.4c0.3-1.6,0.6-3.3,0.9-5.2c0.5-3.7,1-7.8,1-12.4
				c0.1-4.5-0.2-9.4-0.8-14.5c-0.1-0.6-0.1-1.3-0.2-1.9c-0.1-0.6-0.2-1.3-0.4-1.9c-0.2-1.3-0.5-2.6-0.8-3.9c-0.5-2.6-1.2-5.2-2-7.9
				c-1.6-5.3-3.5-10.7-6.5-16c-1.5-2.6-3.4-5.2-5.8-7.5c-2.4-2.2-5.9-4.1-9.6-4.3c-3.7-0.2-7.2,0.9-10,2.5c-2.8,1.6-5.2,3.6-7.4,5.7
				c-0.5,0.5-1,1.1-1.6,1.6c-0.5,0.6-1,1.2-1.5,1.7c-1,1.2-1.8,2.5-2.6,3.7c-1.6,2.6-2.8,5.2-3.8,7.7c-2,5.2-3.4,10.2-4.7,15
				c-1.2,4.7-2.3,9.1-3.3,13.2c-2.1,8.1-4.1,14.7-5.7,19.2c-0.8,2.3-1.5,4-2,5.2c-0.5,1.2-0.8,1.8-0.8,1.8c1.7-4.6,3-9.4,4.2-14.2
				c2.1-6.6,3.8-13.3,5.5-20.1c1.8-6.8,3.5-13.8,6.3-20.7c1.4-3.4,3.2-6.9,5.5-10.1l0.9-1.2l1-1.1c0.7-0.8,1.3-1.4,2-2.1
				c1.3-1.3,2.8-2.6,4.4-3.8c1.6-1.2,3.3-2.2,5.3-3.1c2-0.8,4.2-1.4,6.5-1.5c2.3-0.1,4.7,0.4,6.8,1.4c2.1,1,3.9,2.3,5.4,3.8
				c3,3,5,6.3,6.7,9.7c1.7,3.4,2.9,6.8,4,10.3c1.1,3.5,2,6.9,2.8,10.5l1,5.4c0.1,0.4,0.2,0.9,0.2,1.3l0.2,1.4l0.3,2.7
				C819.6-270.7,817.4-255.9,812.6-242.3z"/>
			
				<linearGradient id="SVGID_9_" gradientUnits="userSpaceOnUse" x1="754.6953" y1="-173.4089" x2="819.8553" y2="-173.4089" gradientTransform="matrix(1 0 0 -1 0 -467.678)">
				<stop  offset="0" style="stop-color:#0E0979"/>
				<stop  offset="1" style="stop-color:#9600FF"/>
			</linearGradient>
			<path class="st9" d="M817.8-255.4c0-0.2,0.2-1,0.4-2.3c0.1-0.6,0.2-1.4,0.4-2.3c0.2-0.9,0.3-1.9,0.4-3c0.1-1.1,0.2-2.3,0.4-3.7
				c0.1-0.7,0.2-1.3,0.2-2c0-0.7,0-1.5,0.1-2.2c0-1.5,0.1-3.1,0.1-4.8c-0.1-1.7-0.1-3.5-0.2-5.3c-0.5-7.3-1.9-15.8-4.6-24.2
				c-1.3-4.3-2.9-8.7-5.2-13.1c-1.1-2.2-2.5-4.4-4.2-6.5c-1.7-2.1-3.7-4.1-6.4-5.7c-2.7-1.5-6-2.4-9.2-2.2c-3.2,0.2-6,1.2-8.4,2.6
				c-2.4,1.3-4.4,2.9-6.3,4.5c-1.8,1.6-3.4,3.2-5,5.2c-1.5,1.9-2.8,4-3.8,6c-1.1,2-2,4-2.7,5.9c-1.5,3.9-2.6,7.5-3.5,10.8
				c-1.8,6.7-3.1,12.1-4.1,15.9c-1,3.8-1.5,5.9-1.5,5.9c0.8-3.9,1.6-7.8,2.3-11.8c1.4-5.4,2.8-11,4.7-16.6
				c1.9-5.6,4.3-11.4,8.5-16.6c0.5-0.6,1.1-1.3,1.7-1.9c0.5-0.6,1.1-1.1,1.7-1.7c1.1-1.1,2.3-2.1,3.6-3.1c2.6-2,5.6-3.8,9.3-4.8
				c1.8-0.5,3.9-0.7,5.9-0.6c2.1,0.1,4.1,0.7,5.9,1.6c3.6,1.7,6.2,4.4,8.2,7c2,2.7,3.5,5.4,4.8,8.2c1.3,2.8,2.3,5.6,3.3,8.4
				c0.9,2.8,1.7,5.6,2.4,8.5l0.5,2.1l0.4,2.2l0.8,4.4l0.2,1.1l0.1,1.1l0.2,2.2c0.2,1.5,0.4,2.9,0.5,4.4l0.2,4.4
				c0,0.7,0.1,1.5,0.1,2.2l-0.1,2.2l-0.2,4.4l-0.5,4.4l-0.2,2.2l-0.4,2.2L817.8-255.4z"/>
		</g>
		<g>
			
				<linearGradient id="SVGID_10_" gradientUnits="userSpaceOnUse" x1="854.7651" y1="-223.969" x2="955.3354" y2="-223.969" gradientTransform="matrix(1 0 0 -1 0 -467.678)">
				<stop  offset="0" style="stop-color:#0E0979"/>
				<stop  offset="1" style="stop-color:#9600FF"/>
			</linearGradient>
			<path class="st10" d="M954.8-375.8c-0.3,0.2-0.7,0.4-1.2,0.8c-1,0.7-2.5,1.6-4.3,2.9c-3.6,2.6-8.8,6.5-14.8,11.9
				c-6,5.3-12.8,12-19.7,20.2c-6.9,8.2-13.8,17.8-20,28.7c-1.7,3-3.3,6.1-4.9,9.3c-0.2,0.1-0.7,0.5-1.5,1.1c-1,0.8-2.5,1.9-4.3,3.1
				c-1.8,1.2-4,2.6-6.4,3.8c-2.3,1.2-4.9,2.2-6.9,2.5c-2.7,0.2-5.6,0.5-7.9,0.1c-2.3-0.3-4.2-1-5.3-1.8c-1.2-0.8-1.7-1.6-2-2.2
				c-0.1-0.3-0.2-0.6-0.3-0.7c0,0,0-0.1,0-0.1v0h0v0v0l0,0l0,0l0,0l0,0c0,0,0,0,0,0.1c0,0.1,0,0.2,0,0.3c0,0.2,0.1,0.4,0.2,0.6
				c0.1,0.2,0.2,0.4,0.3,0.6l0.2,0.3l0.2,0.3c0.6,0.8,1.6,1.5,2.8,2.1c2.5,1.1,6,1.6,9.5,1.5l1.3,0c0.4,0,0.9,0,1.2-0.1
				c0.3-0.1,0.7-0.1,1.1-0.1l1.2-0.3c1.6-0.4,3.2-1.1,4.9-1.8c3.3-1.5,6.5-3.4,9.7-5.5c-0.1,0.3-0.3,0.6-0.4,0.9
				c-0.2,0.2-0.4,0.3-0.7,0.5c-0.9,0.6-2.1,1.5-3.7,2.4c-1.5,1-3.4,2-5.3,3c-2,0.9-4.2,1.8-6.2,2.2c-0.5,0.1-1.1,0.1-1.7,0.2
				c-0.6,0.1-1.2,0.1-1.8,0.1c-1.2,0.1-2.3,0-3.4,0c-2.1-0.2-4.1-0.4-5.7-1c-0.8-0.2-1.4-0.6-2-0.8c-0.5-0.3-1-0.6-1.4-0.9
				c-0.3-0.3-0.6-0.5-0.8-0.7c-0.2-0.2-0.3-0.3-0.3-0.3c0.3,0.5,0.8,0.8,1.2,1.3c0.5,0.3,1,0.8,1.6,1l0.8,0.5l0.9,0.4
				c0.3,0.1,0.6,0.3,1,0.4l1,0.2l1,0.3l1.1,0.2c0.7,0.1,1.4,0.2,2.2,0.2l2.2,0.1l2.2-0.1l1.1,0c0.4,0,0.7-0.1,1-0.1
				c0.7,0,1.4-0.3,2.1-0.4c0.7-0.2,1.4-0.4,2.1-0.7c0.7-0.3,1.4-0.5,2.1-0.8c2.7-1.2,5.4-2.7,8-4.2c-0.2,0.4-0.4,0.9-0.5,1.3
				c-0.7,0.5-1.8,1.1-3.1,1.9c-2.6,1.5-6.1,3.4-10,4.3c-3.9,0.6-8,0.7-11,0.2c-0.7-0.1-1.4-0.3-2-0.4c-0.6-0.2-1.1-0.4-1.6-0.5
				c-0.5-0.1-0.8-0.3-1-0.4c-0.2-0.1-0.4-0.2-0.4-0.2c2.1,1.1,4.6,1.8,7,2.1l0.9,0.1c0.3,0,0.6,0,0.9,0.1l1.9,0.1
				c1.2,0,2.5-0.1,3.8-0.1c2.5-0.2,5-1,7.3-1.9c2.2-0.9,4.4-2,6.5-3.2c-0.3,0.7-0.5,1.3-0.8,2c-0.5,0.3-1,0.6-1.7,0.9
				c-2.2,1.1-5.2,2.7-8.7,3.3c-0.4,0.1-0.9,0.2-1.3,0.2c-0.4,0-0.8,0.1-1.2,0.1c-0.8,0.1-1.6,0.1-2.4,0.2c-1.6,0-3.1,0.1-4.4-0.1
				c-0.7-0.1-1.3-0.1-1.8-0.2c-0.5-0.1-1-0.2-1.4-0.3c-0.6-0.1-1-0.2-1.2-0.2c4.1,1.2,8.3,1.3,12.4,1c2.3-0.2,4.4-0.8,6.4-1.5
				c1.6-0.6,3.2-1.3,4.8-2.1c-0.2,0.4-0.3,0.8-0.5,1.2c-0.5,0.2-1,0.5-1.7,0.9c-1.9,0.9-4.5,2-7.6,2.6c-0.4,0.1-0.8,0.1-1.2,0.2
				c-0.3,0-0.7,0.1-1,0.1c-0.7,0.1-1.4,0.1-2,0.2c-1.3,0.1-2.6,0-3.7,0.1c-1.1,0-2-0.2-2.7-0.2c-0.5,0-0.8-0.1-1-0.1
				c3.5,0.6,7,0.6,10.4,0.4c2-0.2,3.9-0.6,5.6-1.2c1.6-0.5,3-1.1,4.4-1.8c-0.2,0.5-0.3,1-0.5,1.4c-0.3,0.2-0.8,0.3-1.2,0.5
				c-1.7,0.6-3.8,1.6-6.6,1.9c-0.4,0.1-0.6,0.1-0.9,0.1l-0.8,0.1c-0.6,0-1.1,0.1-1.7,0.1c-1.1,0.1-2.1,0.1-3,0.1
				c-1.8,0-3.1-0.2-3.2-0.1c3,0.4,5.9,0.4,8.7,0.2c0.7,0,1.6-0.2,2.4-0.3c0.9-0.1,1.6-0.4,2.4-0.5c1.3-0.4,2.5-0.8,3.7-1.3
				c-0.9,2.5-1.7,5-2.4,7.5c-3.8,12.9-6.1,26.6-6.7,40.1c-0.6,13.5,0.4,26.8,2.5,39.2c0.6,3.1,1,6.2,1.7,9.2c0.7,3,1.4,5.9,2.1,8.8
				c0.4,1.4,0.6,2.9,1.1,4.3c0.4,1.4,0.8,2.8,1.2,4.1c0.8,2.8,1.7,5.6,2.5,8.3l0.5,1l0.3,0.6c0.2,0.4,0.4,0.8,0.6,1.2
				c0.4,0.8,0.7,1.7,1.1,2.5c0.7,1.7,1.3,3.4,1.9,5c1.2,3.3,2.1,6.5,2.8,9.5c1.4,6.1,1.9,11.5,1.7,15.9c-0.2,4.4-0.9,7.8-1.6,10.2
				c-0.7,2.4-1.4,3.7-1.6,4.1c3.5-7.1,4-15.9,2.8-24.5c-0.6-4.3-1.6-8.7-3-12.9c-0.7-2.1-1.4-4.2-2.2-6.3c-0.4-1-0.8-2.1-1.3-3.1
				l-0.7-1.5l-0.3-0.7l-0.5-1.1l-3.9-13.3c-1-4.4-2.1-8.8-3-13.2l-1.1-6.7l-0.6-3.4l-0.3-1.7c-0.1-0.6-0.1-1.1-0.2-1.7l-0.7-6.8
				l-0.4-3.4c-0.1-1.1-0.1-2.3-0.2-3.4l-0.3-6.8c0-0.6-0.1-1.1-0.1-1.7l0-1.7l0.1-3.4l0.1-3.4c0-1.1,0-2.3,0.1-3.4l0.5-6.8
				c0.1-1.1,0.2-2.3,0.3-3.4l0.5-3.4c0.3-2.2,0.6-4.5,1-6.7l1.4-6.7c0.2-1.1,0.4-2.2,0.7-3.3l0.9-3.3c2.2-8.8,5.3-17.4,9-25.7
				c3.6-8.3,8-16.3,12.9-23.8c9.8-15.2,21.8-28.9,35.4-40.7c2.8-3,5.8-5.9,8.9-8.7c1.5-1.4,3.1-2.8,4.7-4.1l2.5-2
				c0.8-0.7,1.6-1.3,2.6-2C955.3-376.1,955.1-376,954.8-375.8z"/>
			
				<linearGradient id="SVGID_11_" gradientUnits="userSpaceOnUse" x1="875.3033" y1="-218.0587" x2="936.0052" y2="-218.0587" gradientTransform="matrix(1 0 0 -1 0 -467.678)">
				<stop  offset="0" style="stop-color:#0E0979"/>
				<stop  offset="1" style="stop-color:#9600FF"/>
			</linearGradient>
			<path class="st11" d="M931.1-353.6c-3.1,3-7.6,7.4-12.6,13.3c-5,5.8-10.7,13-16.2,21.6c-5.5,8.5-10.7,18.3-15,29
				s-7.7,22.3-9.7,34.2c-2,11.9-2.6,23.9-2.2,35.4c0.2,2.9,0.3,5.7,0.5,8.5c0.3,2.8,0.6,5.5,0.9,8.2c0.2,1.3,0.3,2.7,0.5,4
				c0.2,1.3,0.5,2.6,0.7,3.9c0.5,2.6,0.9,5.1,1.3,7.5c0.6,2.4,1.1,4.8,1.7,7.1c0.3,1.1,0.5,2.3,0.8,3.4c0.3,1.1,0.5,2.2,0.8,3.3
				c1.3,4.3,2.5,8.3,3.6,11.9c0.2,0.4,0.4,0.9,0.6,1.3c0.2,0.4,0.3,0.7,0.5,1.1c0.3,0.7,0.6,1.4,0.9,2.1c0.6,1.4,1.1,2.7,1.6,3.9
				c0.9,2.5,1.7,4.7,2.2,6.5c1.1,3.7,1.6,6,1.7,6.5c-0.8-3.7-1.8-7.3-3-10.9c-0.6-1.8-1.3-3.5-2-5.3c-0.4-0.9-0.7-1.7-1.1-2.6
				l-0.6-1.3l-0.3-0.6l-0.4-0.8l-3.5-11.8l-0.4-1.5l-0.3-1.5l-0.7-3l-1.4-5.9c-0.5-2-0.8-4-1.1-6l-1-6c-0.2-1-0.4-2-0.5-3l-0.3-3
				l-0.6-6c-0.3-2-0.3-4-0.4-6.1l-0.3-6.1c-0.1-1,0-2,0-3l0-3l0.1-6.1l0.5-6.1l0.2-3l0.1-1.5l0.2-1.5l0.9-6c0.2-1,0.3-2,0.5-3l0.6-3
				l1.2-6c0.5-2,1-3.9,1.5-5.9c0.9-3.9,2.4-7.7,3.6-11.6c2.8-7.6,5.9-15.1,9.8-22.2l1.4-2.7l1.5-2.6c1-1.7,2-3.5,3.1-5.2l3.3-5.1
				c1.1-1.7,2.3-3.3,3.5-5c4.7-6.6,9.8-12.8,15.3-18.7c4-5.1,8.3-10.1,12.8-14.9c0,0-0.5,0.4-1.3,1.2
				C933.9-356.2,932.7-355.1,931.1-353.6z"/>
			
				<linearGradient id="SVGID_12_" gradientUnits="userSpaceOnUse" x1="877.6651" y1="-212.5887" x2="923.7851" y2="-212.5887" gradientTransform="matrix(1 0 0 -1 0 -467.678)">
				<stop  offset="0" style="stop-color:#0E0979"/>
				<stop  offset="1" style="stop-color:#9600FF"/>
			</linearGradient>
			<path class="st12" d="M918.6-336.8c-3.2,3.9-7.7,9.5-12.5,16.6c-4.8,7.2-9.8,16-14.2,25.9c-4.4,9.9-8.1,20.9-10.5,32.3l-0.8,4.3
				c-0.3,1.4-0.6,2.8-0.8,4.3c-0.4,2.9-0.8,5.7-1.2,8.6c-0.2,2.9-0.4,5.7-0.6,8.5c0,0.7-0.1,1.4-0.2,2.1c0,0.7,0,1.4,0,2.1
				c0,1.4,0,2.8,0,4.1c0,1.4,0,2.7,0,4.1c0,1.4,0.1,2.7,0.2,4c0.1,2.6,0.3,5.2,0.4,7.8c0.3,2.5,0.6,5,0.8,7.4
				c0.1,1.2,0.3,2.4,0.4,3.5s0.4,2.3,0.5,3.4c0.4,2.2,0.8,4.3,1.1,6.3c0.2,1,0.3,2,0.5,2.9c0.2,0.9,0.5,1.9,0.7,2.8
				c0.8,3.6,1.6,6.8,2.2,9.4c1.6,5.2,2.5,8.5,2.7,9l-1.5-5.2c-0.5-1.7-1.1-3.4-1.4-5.2l-2.4-10.5c-0.6-3.5-1.2-7.1-1.8-10.6
				c-0.3-1.8-0.5-3.6-0.7-5.3l-0.6-5.4c-1.3-14.3-0.9-28.8,1.4-42.9c0.2-1.8,0.6-3.5,1-5.3l1.1-5.3c0.2-0.9,0.4-1.8,0.6-2.6l0.7-2.6
				l1.4-5.2l1.7-5.1c0.6-1.7,1.1-3.4,1.8-5.1c1.3-3.3,2.5-6.7,4.1-9.9c0.8-1.6,1.5-3.3,2.2-4.9l2.5-4.8l1.2-2.4l1.3-2.3l2.7-4.6
				c3.8-6,7.8-12,12.3-17.6c1.4-2.2,2.9-4.3,4.4-6.4c1.5-2.1,3.1-4.2,4.6-6.3c0,0-0.5,0.5-1.4,1.5
				C921.6-340.2,920.2-338.8,918.6-336.8z"/>
			
				<linearGradient id="SVGID_13_" gradientUnits="userSpaceOnUse" x1="879.7687" y1="-212.2837" x2="912.7151" y2="-212.2837" gradientTransform="matrix(1 0 0 -1 0 -467.678)">
				<stop  offset="0" style="stop-color:#0E0979"/>
				<stop  offset="1" style="stop-color:#9600FF"/>
			</linearGradient>
			<path class="st13" d="M909.1-320.9c-0.6,0.8-1.2,1.7-1.9,2.7c-0.6,1-1.3,2.1-2.1,3.3c-1.5,2.3-3.1,5-4.8,8
				c-0.9,1.5-1.7,3.1-2.5,4.7c-0.8,1.6-1.7,3.3-2.6,5.1c-1.6,3.6-3.4,7.3-4.8,11.3c-1.6,4-2.9,8.2-4.3,12.5
				c-0.6,2.2-1.2,4.4-1.7,6.6c-0.3,1.1-0.6,2.2-0.8,3.3L883-260l-0.7,3.4c-0.2,1.1-0.5,2.2-0.6,3.4c-0.3,2.3-0.6,4.5-0.9,6.8
				l-0.2,1.7c-0.1,0.6-0.1,1.1-0.1,1.7c-0.1,1.1-0.2,2.2-0.2,3.4s-0.2,2.2-0.2,3.3c-0.1,1.1-0.2,2.2-0.2,3.3
				c-0.2,8.7,0.1,16.8,0.8,23.9c0.2,1.8,0.4,3.4,0.6,5.1c0.2,1.6,0.3,3.1,0.6,4.6c0.5,2.9,1,5.4,1.3,7.5c0.2,1.1,0.4,2,0.5,2.9
				c0.2,0.8,0.4,1.6,0.5,2.2c0.3,1.2,0.5,2,0.5,2.2l-1-4.2l-0.7-4.2c-0.5-2.8-1-5.6-1.4-8.4l-0.9-8.5l-0.2-2.1
				c-0.1-0.7-0.1-1.4-0.1-2.1l-0.2-4.3c-0.5-11.3,0-22.7,1.9-33.9c1.8-11.2,4.8-22.2,9-32.7c4.1-10.5,9.3-20.6,15.5-30.1l1.4-2.7
				c0.5-0.9,1-1.8,1.5-2.7c1-1.8,2-3.6,3.1-5.3c0,0-0.3,0.4-1,1.3C911.1-323.8,910.2-322.5,909.1-320.9z"/>
			
				<linearGradient id="SVGID_14_" gradientUnits="userSpaceOnUse" x1="881.5603" y1="-212.3037" x2="905.4552" y2="-212.3037" gradientTransform="matrix(1 0 0 -1 0 -467.678)">
				<stop  offset="0" style="stop-color:#0E0979"/>
				<stop  offset="1" style="stop-color:#9600FF"/>
			</linearGradient>
			<path class="st14" d="M903-307.7c-1.6,2.7-3.7,6.7-6,11.6c-1.1,2.5-2.3,5.1-3.5,8c-0.6,1.5-1.1,2.9-1.7,4.5
				c-0.3,0.8-0.6,1.5-0.9,2.3c-0.3,0.8-0.5,1.6-0.8,2.4c-1,3.2-2.2,6.5-3,10c-0.5,1.7-0.9,3.5-1.3,5.2c-0.4,1.8-0.7,3.6-1.1,5.3
				l-0.5,2.7c-0.2,0.9-0.4,1.8-0.5,2.7c-0.2,1.8-0.5,3.6-0.7,5.4c-0.6,3.5-0.7,7.1-1,10.5c-0.1,0.9-0.1,1.7-0.2,2.6s0,1.7-0.1,2.5
				c0,1.7,0,3.3,0,4.9c0,1.6-0.1,3.1,0,4.6c0.1,1.5,0.2,2.9,0.2,4.3c0.1,1.4,0.1,2.7,0.2,4c0,0.6,0,1.3,0.1,1.9
				c0.1,0.6,0.1,1.2,0.2,1.8c0.3,2.3,0.5,4.3,0.7,6c0.2,1.7,0.3,3.1,0.5,4.1c0.2,1,0.3,1.6,0.3,1.8c-2.8-17.8-2.7-36,0.1-53.8
				c0.1-0.6,0.2-1.1,0.2-1.7l0.3-1.6l0.7-3.3c0.5-2.2,0.8-4.4,1.5-6.6l1.7-6.5l2.1-6.4c3-8.4,6.5-16.7,10.8-24.6
				c0.6-1.5,1.3-2.9,2-4.4c0.7-1.5,1.3-3,2.1-4.4c0,0-0.3,0.4-0.7,1.1C904.4-310.1,903.8-309.1,903-307.7z"/>
			
				<linearGradient id="SVGID_15_" gradientUnits="userSpaceOnUse" x1="883.0289" y1="-214.7887" x2="899.5852" y2="-214.7887" gradientTransform="matrix(1 0 0 -1 0 -467.678)">
				<stop  offset="0" style="stop-color:#0E0979"/>
				<stop  offset="1" style="stop-color:#9600FF"/>
			</linearGradient>
			<path class="st15" d="M898.6-296.3c-0.2,0.4-0.4,0.9-0.7,1.5c-0.5,1.1-1.1,2.5-1.8,4.1c-0.3,0.8-0.8,1.6-1.1,2.5
				s-0.7,1.9-1.1,2.9c-3.2,8-6.6,18.9-8.5,30.3c-0.9,5.7-1.7,11.4-2,16.9c-0.1,1.4-0.2,2.7-0.3,4c0,1.3,0,2.6,0,3.9
				c0,2.5-0.1,4.9,0,7.1c0.2,4.4,0.4,8.2,0.6,10.9c0.3,2.7,0.5,4.4,0.5,4.7c-3-28.4,1-57.6,12.8-83.5c0.9-2.4,1.6-4.9,2.6-7.2
				c0,0-0.2,0.3-0.5,0.9C899-297.1,898.8-296.7,898.6-296.3z"/>
			
				<linearGradient id="SVGID_16_" gradientUnits="userSpaceOnUse" x1="859.9264" y1="-182.6587" x2="860.1193" y2="-182.6587" gradientTransform="matrix(1 0 0 -1 0 -467.678)">
				<stop  offset="0" style="stop-color:#0E0979"/>
				<stop  offset="1" style="stop-color:#9600FF"/>
			</linearGradient>
			<path class="st16" d="M860.1-285c-0.1,0-0.1,0-0.2,0C860-285,860-285,860.1-285z"/>
			
				<linearGradient id="SVGID_17_" gradientUnits="userSpaceOnUse" x1="862.2243" y1="-185.0087" x2="862.3796" y2="-185.0087" gradientTransform="matrix(1 0 0 -1 0 -467.678)">
				<stop  offset="0" style="stop-color:#0E0979"/>
				<stop  offset="1" style="stop-color:#9600FF"/>
			</linearGradient>
			<path class="st17" d="M862.4-282.7c0,0-0.1,0-0.2,0C862.2-282.7,862.3-282.7,862.4-282.7z"/>
		</g>
		<g>
			
				<linearGradient id="SVGID_18_" gradientUnits="userSpaceOnUse" x1="825.1335" y1="-320.8487" x2="831.7341" y2="-320.8487" gradientTransform="matrix(1 0 0 -1 0 -467.678)">
				<stop  offset="0" style="stop-color:#0E0979"/>
				<stop  offset="1" style="stop-color:#9600FF"/>
			</linearGradient>
			<path class="st18" d="M829-121.1c0-0.1,0.1-0.3,0.3-0.6c0.1-0.2,0.2-0.4,0.3-0.6c0.1-0.2,0.2-0.5,0.3-0.8
				c0.4-1.3,0.9-3.1,1.2-5.5c0.6-4.8,0.3-11.4-0.5-18c-0.8-6.6-2.2-13.1-3.3-18c-0.6-2.4-1.1-4.4-1.4-5.8c-0.4-1.4-0.6-2.2-0.6-2.2
				c0.8,1.3,1.5,2.6,2.3,4c1.8,8.1,3.3,16.4,4,24.6c0.3,4.1,0.5,8.2,0.2,12.2c-0.1,2-0.4,3.9-0.8,5.8
				C830.4-124.2,829.8-122.4,829-121.1z"/>
			
				<linearGradient id="SVGID_19_" gradientUnits="userSpaceOnUse" x1="827.7941" y1="-320.5887" x2="833.0899" y2="-320.5887" gradientTransform="matrix(1 0 0 -1 0 -467.678)">
				<stop  offset="0" style="stop-color:#0E0979"/>
				<stop  offset="1" style="stop-color:#9600FF"/>
			</linearGradient>
			<path class="st19" d="M832.1-125.7c0-0.2,0.6-2.9,0.7-7c0.1-4.1-0.2-9.4-0.9-14.8c-0.7-5.3-1.7-10.6-2.6-14.5
				c-0.8-3.9-1.5-6.5-1.5-6.5l1.8,3.3c1.4,6.6,2.4,13.2,3.1,19.9c0.3,3.3,0.5,6.6,0.4,10C833-132.1,832.8-128.8,832.1-125.7z"/>
			
				<linearGradient id="SVGID_20_" gradientUnits="userSpaceOnUse" x1="830.0352" y1="-319.7837" x2="834.4043" y2="-319.7837" gradientTransform="matrix(1 0 0 -1 0 -467.678)">
				<stop  offset="0" style="stop-color:#0E0979"/>
				<stop  offset="1" style="stop-color:#9600FF"/>
			</linearGradient>
			<path class="st20" d="M834.2-130.5c0-0.2,0.2-2.5,0.1-5.8c-0.1-3.3-0.4-7.7-1-12c-1.2-8.6-3.2-17-3.2-17l1.4,2.7
				c1,5.3,1.9,10.6,2.4,16C834.4-141.3,834.6-135.8,834.2-130.5z"/>
			
				<linearGradient id="SVGID_21_" gradientUnits="userSpaceOnUse" x1="832.0685" y1="-319.8587" x2="835.5555" y2="-319.8587" gradientTransform="matrix(1 0 0 -1 0 -467.678)">
				<stop  offset="0" style="stop-color:#0E0979"/>
				<stop  offset="1" style="stop-color:#9600FF"/>
			</linearGradient>
			<path class="st21" d="M835.5-133.8c0-0.2,0-2-0.1-4.8c-0.1-2.7-0.5-6.2-0.9-9.7c-0.9-7-2.4-13.7-2.4-13.7l1.1,2.2
				C834.6-151.2,835.8-142.5,835.5-133.8z"/>
		</g>
	</g>
	<g>
		<path class="st3" d="M963.6-267.9c-0.6,2.1-1.6,4.1-3,5.9c-3.3,4.2-8.3,6.1-13.6,6.1c-5.5,0-10.4-2.1-13.6-6.1
			c-3.1-3.9-4.3-8.7-4.3-13.6c0-5,1.2-9.8,4.3-13.6c3.2-4.1,8.2-6.1,13.6-6.1s10.4,2.1,13.6,6.1c1.6,2.1,2.7,4.5,3.4,6.9l-5.3,0.9
			c-0.5-1.7-1.2-3.3-2.2-4.7c-2.2-2.9-5.8-4.4-9.5-4.4c-3.7,0-7.4,1.5-9.5,4.4c-2.3,2.8-2.9,6.7-3,10.5c0,3.8,0.7,7.6,3,10.5
			c2.1,2.9,5.7,4.4,9.5,4.4c3.7,0,7.3-1.5,9.5-4.4c0.9-1.3,1.6-2.7,2-4.2L963.6-267.9z"/>
		<path class="st3" d="M975.5-263.7c1.5,1.9,3.9,2.9,6.4,2.9c2.6,0,5-1,6.4-2.9c0.3-0.5,0.5-0.9,0.8-1.3l5,2.2
			c-0.5,0.8-1,1.6-1.6,2.4c-2.6,3.1-6.6,4.7-10.7,4.6c-4.1-0.1-8-1.6-10.5-4.7c-2.4-3-3.4-6.7-3.3-10.3c0.1-3.8,1-7.4,3.3-10.4
			c2.5-3,6.4-4.6,10.5-4.6c4.2,0,8,1.5,10.5,4.6c2.3,3,3.3,6.7,3.3,10.4c0,0.5,0,1,0,1.4h-22.1C973.8-267.3,974.3-265.3,975.5-263.7
			z M975.5-278.1c-1,1.3-1.5,2.8-1.7,4.5h16.3c-0.3-1.6-0.8-3.2-1.7-4.5c-1.5-2-3.8-3-6.4-3C979.4-281.1,977-280.1,975.5-278.1z"/>
		<path class="st3" d="M1026.7-270.7v14.1h-5.2v-14.1c0-3.6-0.4-6.7-2.8-8.6c-1.3-1.1-3-1.6-5.1-1.5c-1.6,0.1-3.2,0.6-4.3,1.6
			c-1.3,1.1-2,2.6-2.4,4.4c-0.3,1.1-0.3,2.4-0.3,3.7v14.5h-5.2v-28.4h4.6v2.8l0.5-0.5c2.2-1.9,5-2.8,7.6-2.9c2.9-0.2,6,0.7,8.2,2.6
			C1026.1-280.2,1026.8-275.9,1026.7-270.7z"/>
		<path class="st3" d="M1041.2-268c0,2.3-0.1,3.8,0.6,5c0.6,1.2,1.9,1.9,3.2,2c1.5,0.1,3.2,0.1,4.7-0.2v4.5c-2,0.5-5,0.6-6.9,0.2
			c-2.5-0.6-4.5-1.8-5.5-3.9c-1.1-2.1-1.2-4.4-1.2-7.3V-281h-6.2v-4.2h6.2v-7.9h5.1v7.9h8.5v4.2h-8.5V-268L1041.2-268z"/>
		<path class="st3" d="M1073.4-285.2v4.8c-1.3-0.5-2.9-0.7-4.6-0.7c-2.2,0.1-4.1,0.8-5.3,2.1c-2.2,2.1-2.4,4.8-2.4,8.2v14.1h-5.1
			v-28.4h4.5v4.2c0.6-1.1,1.5-2,2.6-2.9c1.7-1.4,3.9-1.9,6.1-2C1070.6-286,1072-285.8,1073.4-285.2z"/>
		<path class="st3" d="M1079.4-260.6c-2.4-3-3.3-6.6-3.3-10.3c0-3.8,1-7.5,3.3-10.4c2.4-3,6.4-4.6,10.5-4.6c4.1,0,8,1.5,10.5,4.6
			c2.4,3.1,3.3,6.6,3.3,10.4c0,3.8-0.9,7.3-3.3,10.3c-2.6,3.2-6.3,4.7-10.5,4.7C1085.7-255.9,1081.9-257.5,1079.4-260.6z
			 M1098.3-270.9c0-2.6-0.5-5.3-1.9-7.3c-1.5-1.9-3.9-2.9-6.5-2.9c-2.6,0-5,1-6.4,2.9c-1.5,2-1.9,4.6-1.9,7.3c0,2.6,0.5,5.3,1.9,7.2
			c1.4,2,3.8,3,6.4,3c2.6,0,5-1,6.5-3S1098.3-268.3,1098.3-270.9z"/>
		<path class="st3" d="M955.9-233.9v37.9h-4.5v-3c-2.3,2.5-5.5,3.8-9.2,3.8c-3.8,0-7.5-1.6-9.8-4.6c-2.4-3-3.2-6.7-3.2-10.4
			c0-3.8,1-7.6,3.2-10.5c2.3-2.9,6-4.5,9.8-4.5c3.3,0,6.4,1.2,8.6,3.2V-234L955.9-233.9L955.9-233.9z M951.4-210.2
			c0-2.9-0.6-5.7-2.2-7.6c-1.4-1.8-3.7-2.7-6.2-2.7c-2.7,0-5,0.9-6.5,3.1c-1.4,1.8-2,4.5-2,7.3c0,2.7,0.5,5.4,1.8,7.3
			c1.5,2.1,4,3.1,6.4,3.1c2.6,0,4.8-0.9,6.4-2.7C950.8-204.5,951.4-207.4,951.4-210.2z"/>
		<path class="st3" d="M969.1-203c1.5,1.9,3.9,2.9,6.4,2.9c2.6,0,5-1,6.4-2.9c0.3-0.5,0.5-0.9,0.8-1.3l5,2.2c-0.5,0.8-1,1.6-1.6,2.4
			c-2.6,3.1-6.6,4.7-10.7,4.6s-8-1.6-10.5-4.7c-2.4-3-3.4-6.7-3.3-10.3c0.1-3.8,1-7.4,3.3-10.4c2.5-3.1,6.4-4.6,10.5-4.6
			c4.2,0,8,1.5,10.5,4.6c2.3,2.9,3.3,6.7,3.3,10.4c0,0.5,0,0.9,0,1.4h-22.1C967.4-206.7,967.9-204.6,969.1-203z M969.1-217.5
			c-1,1.3-1.5,2.8-1.7,4.5h16.3c-0.3-1.6-0.8-3.2-1.7-4.5c-1.5-2-3.8-3-6.4-2.9C973-220.5,970.6-219.5,969.1-217.5z"/>
		<path class="st3" d="M1039.4-207.2c-0.6,2.1-1.6,4.1-3,5.9c-3.3,4.2-8.3,6.1-13.6,6.1c-5.5,0-10.4-2.1-13.6-6.1
			c-3.1-3.9-4.3-8.7-4.3-13.6c0-5,1.2-9.8,4.3-13.6c3.2-4.1,8.2-6.1,13.6-6.1s10.4,2.1,13.6,6.1c1.6,2.1,2.7,4.5,3.4,6.9l-5.3,0.9
			c-0.5-1.7-1.2-3.3-2.2-4.7c-2.2-2.9-5.8-4.4-9.5-4.4c-3.7,0-7.4,1.5-9.5,4.4c-2.3,2.8-2.9,6.7-3,10.5c0,3.8,0.7,7.6,3,10.5
			c2.1,2.9,5.7,4.4,9.5,4.4c3.7,0.1,7.3-1.5,9.5-4.4c0.9-1.3,1.6-2.7,2-4.2L1039.4-207.2z"/>
		<path class="st3" d="M1051.2-234.2v5.1h-5.1v-5.1H1051.2z M1051.2-224.5v28.4h-5.1v-28.4H1051.2z"/>
		<path class="st3" d="M1076.5-224.6v4.8c-1.3-0.5-2.9-0.7-4.6-0.7c-2.2,0.1-4.1,0.8-5.3,2.1c-2.2,2.1-2.4,4.8-2.4,8.2v14.1h-5.1
			v-28.4h4.5v4.2c0.6-1.1,1.5-2.1,2.6-2.9c1.7-1.4,3.9-1.9,6.1-2C1073.7-225.3,1075.1-225.1,1076.5-224.6z"/>
		<path class="st3" d="M1105.7-224.5v28.4h-4.5v-2.8c-0.2,0.2-0.4,0.4-0.6,0.6c-2.1,1.9-5,2.8-7.6,2.9c-2.9,0.2-5.9-0.7-8.2-2.6
			c-3.8-3.1-4.4-7.4-4.4-12.5v-14.1h5.2v14.1c0,3.6,0.4,6.7,2.8,8.6c1.3,1.1,3.1,1.6,5.1,1.6c1.6-0.1,3.2-0.6,4.3-1.6
			c1.3-1,2.1-2.6,2.4-4.4c0.3-1.1,0.3-2.4,0.3-3.7v-14.5H1105.7z"/>
		<path class="st3" d="M1138.2-224.5v28.9c0,4.9-1.3,8.2-4.6,10.4c-2.8,1.9-5.8,2.5-8.6,2.5c-2.7,0-5.7-0.9-7.6-2.7
			c-1.4-0.8-2.7-2-3.6-3.5l4.7-2.3c0.3,0.6,0.7,1.1,1.3,1.5c1.3,1.4,3.4,2.1,5.3,2.1c2.2,0,4.4-0.6,5.8-1.8c1.8-1.5,2.3-3.1,2.3-6.3
			v-2.8c-2.2,2.1-5.3,3.2-8.6,3.2c-3.8,0-7.5-1.6-9.8-4.6c-2.4-3-3.2-6.7-3.2-10.4c0-3.8,0.9-7.6,3.2-10.5c2.3-2.9,5.9-4.5,9.8-4.5
			c3.6,0,6.9,1.4,9.2,3.7v-2.9L1138.2-224.5L1138.2-224.5z M1131.5-202.6c1.6-1.9,2.2-4.8,2.2-7.6c0-2.9-0.6-5.7-2.2-7.6
			c-1.5-1.8-3.7-2.7-6.2-2.7c-2.7,0-5.1,0.9-6.5,3.1c-1.4,1.8-1.9,4.5-1.9,7.3c0,2.7,0.5,5.4,1.8,7.3c1.5,2.1,3.9,3.1,6.4,3.1
			C1127.7-199.9,1130-200.8,1131.5-202.6z"/>
		<path class="st3" d="M1142.9-227.9l-1.4-3.8l13.1-5.1l1.4,3.8L1142.9-227.9z M1146.1-224.5v28.4h5.1v-28.4H1146.1z"/>
		<path class="st3" d="M1158.7-219.2l0.7-1.1c2.5-3.4,6.3-4.9,10.7-4.9c5.2,0,9.5,1.8,11.6,6.1c0.8,1.7,1.2,3.6,1.2,5.2v17.9h-4.5
			v-5.4c-0.9,1.9-2.8,3.6-4.6,4.5c-2.2,1.2-4.6,1.8-7.1,1.7c-2.9-0.1-5.8-1.6-7.3-3.6c-1.2-1.8-1.8-3.3-1.8-5.4
			c0-3.1,1.6-5.7,4.3-7.3c3.1-1.7,5.9-1.9,10.3-2.6l5.5-0.8c-0.2-1.5-1-2.9-2.3-3.8c-1.5-1.1-3.4-1.6-5.4-1.5c-2.4,0-4.6,0.8-6,2.6
			c-0.2,0.3-0.5,0.6-0.6,0.9L1158.7-219.2z M1171.4-209.7c-4.2,0.7-8.7,1.4-8.7,5.1c-0.1,2.4,2,4.5,4.8,4.7c3.6,0.2,8-1.8,9.4-5.4
			c0.9-1.9,0.9-3.6,0.9-5.4C1176.2-210.5,1174.3-210.2,1171.4-209.7z"/>
		<path class="st3" d="M957-153.7c-2.2,2.8-5.7,4.5-9.4,4.5h-11.3v13.9h-5.1v-37.9h16.4c1.3,0,2.6,0.2,3.9,0.7c2,0.7,4,1.9,5.3,3.6
			c1.8,2.1,3,4.9,3,7.7C959.8-158.5,958.7-155.8,957-153.7z M954.5-161.2c0-1.8-0.7-3.6-2-4.9c-1.3-1.3-3.2-2.3-5-2.3h-11.2v14.4
			h11.2c1.9,0,4-1,5.4-2.7C953.9-158,954.6-159.6,954.5-161.2z"/>
		<path class="st3" d="M964.9-135.4v-38.7h5.1v38.7H964.9z"/>
		<path class="st3" d="M976.9-158.5l0.7-1.1c2.5-3.4,6.3-4.9,10.7-4.9c5.2,0,9.5,1.8,11.6,6.1c0.8,1.7,1.2,3.6,1.2,5.2v17.9h-4.5
			v-5.4c-0.9,1.9-2.8,3.6-4.6,4.5c-2.2,1.2-4.6,1.8-7.1,1.7c-2.9-0.1-5.8-1.6-7.3-3.6c-1.2-1.8-1.8-3.3-1.8-5.4c0-3,1.6-5.7,4.3-7.3
			c3-1.7,6-2,10.3-2.6l5.5-0.8c-0.2-1.5-1-2.9-2.3-3.8c-1.5-1.1-3.4-1.6-5.4-1.5c-2.4,0-4.6,0.8-6,2.6c-0.2,0.3-0.5,0.6-0.6,0.9
			L976.9-158.5z M989.7-149.1c-4.2,0.7-8.7,1.4-8.7,5.1c0,2.4,2,4.5,4.8,4.7c3.6,0.2,8-1.8,9.4-5.4c1-2,1-3.6,1-5.4
			C994.5-149.9,992.6-149.6,989.7-149.1z M996.7-172.2l-1.4-3.8l-13.1,5.1l1.4,3.8L996.7-172.2z"/>
		<path class="st3" d="M1025.3-155.1c-0.5-1.5-1.7-3-3.2-3.7c-1.1-0.6-2.5-0.9-3.8-0.9c-1.5,0-2.8,0.3-3.9,0.8
			c-1.2,0.6-1.8,1.5-1.8,2.4c0,0.7,0.2,1.3,0.6,1.7c0.7,0.6,1.7,1.1,3.5,1.6c1.4,0.4,3.2,0.9,5.2,1.4c2.2,0.6,3.8,1.1,5.5,2.6
			c2.2,1.7,3.3,4,3.1,6.6c-0.2,2.5-1.6,4.7-3.8,6.1c-2.2,1.4-5.1,1.9-7.9,1.9c-3.8,0-7.2-1-9.6-3.7c-1.5-1.7-2.7-4.5-3-6.3l4.9-1.2
			c0.2,1.4,0.8,3.2,1.8,4.2c1.5,1.7,3.7,2.2,5.9,2.2c1.8,0,4-0.3,5.2-1.2c0.8-0.6,1.3-1.4,1.4-2.3c0-1-0.3-1.7-1-2.4
			c-0.8-0.8-2-1.2-3.8-1.7c-1.4-0.4-3-0.8-4.8-1.3c-2.3-0.6-4-1.2-5.6-2.5c-1.8-1.4-2.6-3.6-2.6-5.5c0-3.2,2.1-5.8,4.8-7.1
			c2.1-0.9,4.2-1.2,6.1-1.1c2,0,4.1,0.4,6,1.4c2.8,1.4,5.1,4,5.9,6.9L1025.3-155.1z"/>
		<path class="st3" d="M1044.2-146.6c0,2.3-0.1,3.8,0.6,5c0.6,1.2,1.9,1.9,3.2,2c1.5,0.1,3.2,0,4.7-0.2v4.5c-2,0.5-5,0.6-6.9,0.2
			c-2.5-0.6-4.5-1.8-5.5-3.9s-1.2-4.4-1.2-7.3v-13.3h-6.2v-4.2h6.2v-7.9h5.1v7.9h8.5v4.2h-8.5V-146.6L1044.2-146.6z"/>
		<path class="st3" d="M1064.7-173.5v5.1h-5.1v-5.1H1064.7z M1064.7-163.8v28.4h-5.1v-28.4H1064.7z"/>
		<path class="st3" d="M1092-155.4c-0.3-0.5-0.5-1-0.8-1.4c-1.5-2-3.9-3-6.4-2.9c-2.6-0.1-4.9,0.9-6.4,2.9c-1.5,2-1.9,4.6-2,7.2
			c0.1,2.6,0.5,5.3,2,7.2c1.5,2,3.8,3,6.4,3c2.5,0,4.9-1,6.4-3c0.3-0.4,0.5-0.8,0.8-1.3l4.8,2c-0.4,0.8-0.9,1.6-1.5,2.4
			c-2.5,3.1-6.4,4.7-10.5,4.6c-4.1,0.1-7.9-1.5-10.5-4.6c-2.4-3-3.3-6.6-3.3-10.3c0-3.7,0.9-7.4,3.3-10.4c2.6-3.2,6.4-4.6,10.5-4.6
			c4.1,0,7.9,1.6,10.5,4.6c0.6,0.8,1.2,1.6,1.5,2.5L1092-155.4z"/>
		<path class="st3" d="M1101.8-158.5l0.7-1.1c2.5-3.4,6.3-4.9,10.7-4.9c5.2,0,9.5,1.8,11.6,6.1c0.8,1.7,1.2,3.6,1.2,5.2v17.9h-4.5
			v-5.4c-0.9,1.9-2.8,3.6-4.6,4.5c-2.2,1.2-4.6,1.8-7.1,1.7c-2.9-0.1-5.8-1.6-7.3-3.6c-1.2-1.8-1.8-3.3-1.8-5.4c0-3,1.6-5.7,4.3-7.3
			c3.1-1.7,5.9-2,10.3-2.6l5.5-0.8c-0.2-1.5-1-2.9-2.3-3.8c-1.5-1.1-3.4-1.6-5.4-1.5c-2.4,0-4.6,0.8-6,2.6c-0.2,0.3-0.5,0.6-0.6,0.9
			L1101.8-158.5z M1114.6-149.1c-4.2,0.7-8.7,1.4-8.7,5.1c-0.1,2.4,2,4.5,4.8,4.7c3.6,0.2,8-1.8,9.4-5.4c0.9-2,0.9-3.6,0.9-5.4
			C1119.4-149.9,1117.5-149.6,1114.6-149.1z"/>
	</g>
</g>
<g>
	<path class="st22" d="M336.4,47.5c-81,70-81,158-68.2,205.3c12.8,47.3-0.8,64.7-0.8,64.7s5-30-3-57.5c-6.2-21.4-19.5-82-1.5-120
		c0,0-17,8-30-7c0,0,22,9,37-11c0,0,26-52,65-75l4-2L336.4,47.5z"/>
	<path class="st22" d="M205.9,251c0,0,9,28,4,51c0,0,10-25,5-38C214.9,264,211.9,255,205.9,251z"/>
	<path class="st22" d="M160.9,310c0,0-23.5-43.5,6.5-97.5c0,0,41-77,16-108c0,0-19-32-47.5,71.5c0,0-15.5,55.5-86.5,98.5
		c0,0,64-46,80-99c0,0,22-88,46-83c0,0,42,5,13,85l-17,39C171.4,216.5,151.4,250.5,160.9,310z"/>
</g>
<g>
	<path class="st22" d="M339.9,142.4c-0.6,2.1-1.6,4.1-3,5.9c-3.3,4.2-8.3,6.1-13.6,6.1c-5.5,0-10.4-2.1-13.6-6.1
		c-3.1-3.9-4.3-8.7-4.3-13.6c0.1-5,1.2-9.8,4.3-13.6c3.2-4.1,8.2-6.1,13.6-6.1s10.4,2.1,13.6,6.1c1.6,2.1,2.7,4.5,3.4,6.9l-5.3,0.9
		c-0.5-1.7-1.2-3.3-2.2-4.7c-2.2-2.9-5.8-4.4-9.5-4.4c-3.7,0-7.4,1.5-9.5,4.4c-2.3,2.8-2.9,6.7-2.9,10.5c0.1,3.8,0.7,7.6,2.9,10.5
		c2.1,2.9,5.7,4.4,9.5,4.4c3.7,0.1,7.3-1.5,9.5-4.4c0.9-1.3,1.6-2.7,2-4.2L339.9,142.4z"/>
	<path class="st22" d="M351.9,146.7c1.5,1.9,3.9,2.9,6.4,2.9c2.6,0,4.9-1,6.4-2.9c0.3-0.5,0.5-0.9,0.8-1.3l5.1,2.2
		c-0.5,0.8-1,1.6-1.6,2.4c-2.6,3.1-6.6,4.7-10.7,4.6s-8-1.6-10.5-4.7c-2.4-3-3.4-6.7-3.3-10.3c0.1-3.8,0.9-7.4,3.3-10.4
		c2.5-3,6.4-4.6,10.5-4.6c4.2,0,7.9,1.5,10.5,4.6c2.3,2.9,3.3,6.7,3.3,10.4c0,0.5-0.1,0.9-0.1,1.4H350
		C350.1,143,350.7,145.1,351.9,146.7z M351.9,132.2c-0.9,1.3-1.5,2.8-1.7,4.5h16.3c-0.3-1.6-0.8-3.2-1.7-4.5c-1.5-2-3.8-3-6.4-2.9
		C355.8,129.2,353.3,130.2,351.9,132.2z"/>
	<path class="st22" d="M403,139.6v14.1h-5.2v-14.1c0-3.6-0.4-6.7-2.8-8.6c-1.3-1.1-3.1-1.6-5.1-1.5c-1.6,0.1-3.2,0.6-4.3,1.6
		c-1.3,1.1-2.1,2.6-2.4,4.4c-0.3,1.1-0.3,2.4-0.3,3.7v14.5h-5.2v-28.4h4.6v2.8l0.5-0.5c2.2-1.9,5-2.8,7.6-2.9
		c2.9-0.2,5.9,0.7,8.2,2.6C402.5,130.2,403.1,134.5,403,139.6z"/>
	<path class="st22" d="M417.5,142.4c0,2.3-0.1,3.8,0.6,4.9c0.6,1.2,1.9,1.9,3.2,2.1c1.5,0.1,3.2,0.1,4.7-0.2v4.5
		c-2,0.5-5,0.6-6.9,0.2c-2.5-0.6-4.5-1.8-5.5-3.9s-1.2-4.4-1.2-7.3v-13.3h-6.2v-4.2h6.2v-7.9h5.1v7.9h8.5v4.2h-8.5L417.5,142.4
		L417.5,142.4z"/>
	<path class="st22" d="M449.8,125.1v4.8c-1.3-0.5-2.9-0.7-4.6-0.7c-2.2,0.1-4.1,0.8-5.3,2.1c-2.2,2.1-2.4,4.8-2.4,8.2v14.1h-5.1
		v-28.4h4.5v4.2c0.6-1.1,1.5-2,2.6-2.9c1.7-1.4,3.9-1.9,6.1-2C447,124.4,448.4,124.6,449.8,125.1z"/>
	<path class="st22" d="M455.7,149.8c-2.4-3-3.3-6.6-3.3-10.3c0-3.8,1-7.5,3.3-10.4c2.4-3,6.4-4.6,10.5-4.6s8,1.5,10.5,4.6
		c2.4,3.1,3.3,6.6,3.3,10.4c0,3.8-0.9,7.3-3.3,10.3c-2.6,3.2-6.3,4.7-10.5,4.7C462.1,154.4,458.2,152.9,455.7,149.8z M474.6,139.4
		c0-2.6-0.5-5.3-1.9-7.3s-3.9-2.9-6.5-2.9s-5,0.9-6.4,2.9c-1.5,1.9-1.9,4.6-1.9,7.3s0.5,5.3,1.9,7.2c1.4,1.9,3.8,2.9,6.4,2.9
		c2.6,0,5-1,6.5-2.9C474.1,144.7,474.6,142.1,474.6,139.4z"/>
	<path class="st22" d="M332.3,176.4v37.9h-4.5v-3c-2.3,2.5-5.5,3.8-9.2,3.8c-3.8,0-7.5-1.6-9.8-4.6c-2.4-3-3.2-6.7-3.2-10.4
		c0-3.8,0.9-7.6,3.2-10.5c2.3-2.9,6-4.5,9.8-4.5c3.3,0,6.4,1.2,8.6,3.2v-11.9L332.3,176.4L332.3,176.4z M327.7,200.1
		c0-2.9-0.6-5.7-2.2-7.6c-1.4-1.8-3.7-2.7-6.2-2.7c-2.7,0-5,0.9-6.5,3.1c-1.4,1.8-1.9,4.5-1.9,7.3c0,2.7,0.5,5.4,1.8,7.3
		c1.5,2.1,3.9,3.1,6.4,3.1c2.6,0,4.8-0.9,6.4-2.7C327.1,205.8,327.7,202.9,327.7,200.1z"/>
	<path class="st22" d="M345.4,207.3c1.5,1.9,3.9,2.9,6.4,2.9c2.6,0,4.9-1,6.4-2.9c0.3-0.5,0.5-0.9,0.8-1.3l5.1,2.2
		c-0.5,0.8-1,1.6-1.6,2.4c-2.6,3.1-6.6,4.7-10.7,4.6s-8-1.6-10.5-4.7c-2.4-3-3.4-6.7-3.3-10.3c0.1-3.8,0.9-7.4,3.3-10.4
		c2.5-3.1,6.4-4.6,10.5-4.6c4.2,0,7.9,1.5,10.5,4.6c2.3,2.9,3.3,6.7,3.3,10.4c0,0.5-0.1,0.9-0.1,1.4h-22.1
		C343.7,203.7,344.2,205.7,345.4,207.3z M345.4,192.9c-0.9,1.3-1.5,2.8-1.7,4.5H360c-0.3-1.6-0.8-3.2-1.7-4.5c-1.5-2-3.8-3-6.4-2.9
		C349.3,189.9,346.9,190.9,345.4,192.9z"/>
	<path class="st22" d="M415.7,203.1c-0.6,2.1-1.6,4.1-3,5.9c-3.3,4.2-8.3,6.1-13.6,6.1c-5.5,0-10.4-2.1-13.6-6.1
		c-3.1-3.9-4.3-8.7-4.3-13.6c0.1-5,1.2-9.8,4.3-13.6c3.2-4.1,8.2-6.1,13.6-6.1s10.4,2.1,13.6,6.1c1.6,2.1,2.7,4.5,3.4,6.9l-5.3,0.9
		c-0.5-1.7-1.2-3.3-2.2-4.7c-2.2-2.9-5.8-4.4-9.5-4.4c-3.7,0-7.4,1.5-9.5,4.4c-2.3,2.8-2.9,6.7-2.9,10.5c0.1,3.8,0.7,7.6,2.9,10.5
		c2.1,2.9,5.7,4.4,9.5,4.4c3.7,0.1,7.3-1.5,9.5-4.4c0.9-1.3,1.6-2.7,2-4.2L415.7,203.1z"/>
	<path class="st22" d="M427.5,176.1v5.1h-5.1v-5.1H427.5z M427.5,185.9v28.4h-5.1v-28.4H427.5z"/>
	<path class="st22" d="M452.8,185.8v4.8c-1.3-0.5-2.9-0.7-4.6-0.7c-2.2,0.1-4.1,0.8-5.3,2.1c-2.2,2.1-2.4,4.8-2.4,8.2v14.1h-5.1
		v-28.4h4.5v4.2c0.6-1.1,1.5-2.1,2.6-2.9c1.7-1.4,3.9-1.9,6.1-2C450,185,451.4,185.3,452.8,185.8z"/>
	<path class="st22" d="M482,185.9v28.4h-4.5v-2.8c-0.2,0.2-0.4,0.4-0.6,0.6c-2.1,1.9-5,2.8-7.6,2.9c-2.9,0.2-5.9-0.7-8.2-2.6
		c-3.8-3.1-4.4-7.4-4.4-12.5v-14.1h5.2v14.1c0,3.6,0.4,6.7,2.8,8.6c1.3,1.1,3.1,1.6,5.1,1.6c1.6-0.1,3.2-0.6,4.3-1.6
		c1.3-1,2.1-2.6,2.4-4.4c0.3-1.1,0.3-2.4,0.3-3.7v-14.5H482z"/>
	<path class="st22" d="M514.6,185.9v28.9c0,4.9-1.3,8.2-4.6,10.4c-2.8,1.9-5.8,2.5-8.6,2.5c-2.7,0-5.7-0.9-7.6-2.7
		c-1.4-0.8-2.7-2-3.6-3.5l4.7-2.3c0.3,0.6,0.7,1.1,1.3,1.5c1.3,1.4,3.4,2.1,5.3,2.1c2.2,0,4.4-0.6,5.8-1.8c1.8-1.5,2.3-3.1,2.3-6.3
		V212c-2.2,2.1-5.3,3.2-8.6,3.2c-3.8,0-7.5-1.6-9.8-4.6c-2.4-3-3.2-6.7-3.2-10.4c0-3.8,0.9-7.6,3.2-10.5c2.3-2.9,5.9-4.5,9.8-4.5
		c3.6,0,6.9,1.4,9.2,3.7v-2.9L514.6,185.9L514.6,185.9z M507.9,207.7c1.6-1.9,2.2-4.8,2.2-7.6c0-2.9-0.6-5.7-2.2-7.6
		c-1.5-1.8-3.7-2.7-6.2-2.7c-2.7,0-5.1,0.9-6.5,3.1c-1.4,1.8-1.9,4.5-1.9,7.3c0,2.7,0.5,5.4,1.8,7.3c1.5,2.1,3.9,3.1,6.4,3.1
		C504,210.5,506.4,209.5,507.9,207.7z"/>
	<path class="st22" d="M519.2,182.5l-1.4-3.8l13.1-5.1l1.4,3.8L519.2,182.5z M522.5,185.9v28.4h5.1v-28.4H522.5z"/>
	<path class="st22" d="M535,191.2l0.7-1.1c2.5-3.4,6.3-4.9,10.7-4.9c5.2,0,9.5,1.8,11.6,6.1c0.8,1.7,1.2,3.6,1.2,5.2v17.9h-4.5v-5.4
		c-0.9,1.9-2.8,3.6-4.6,4.5c-2.2,1.2-4.6,1.8-7.1,1.7c-2.9-0.1-5.8-1.6-7.3-3.6c-1.2-1.8-1.8-3.3-1.8-5.4c0-3.1,1.6-5.7,4.3-7.3
		c3.1-1.7,5.9-1.9,10.3-2.6l5.5-0.8c-0.2-1.5-1-2.9-2.3-3.8c-1.5-1.1-3.4-1.6-5.4-1.5c-2.4,0-4.6,0.8-6,2.6
		c-0.2,0.3-0.5,0.6-0.6,0.9L535,191.2z M547.7,200.6c-4.2,0.7-8.7,1.4-8.7,5.1c-0.1,2.4,2,4.5,4.8,4.7c3.6,0.2,8-1.8,9.4-5.4
		c0.9-1.9,0.9-3.6,0.9-5.4C552.5,199.8,550.7,200.1,547.7,200.6z"/>
	<path class="st22" d="M333.4,256.6c-2.2,2.8-5.7,4.5-9.4,4.5h-11.3V275h-5.1v-37.9H324c1.3,0,2.6,0.2,3.9,0.7
		c2.1,0.7,3.9,1.9,5.3,3.6c1.8,2.1,2.9,4.9,2.9,7.7C336.1,251.8,335.1,254.5,333.4,256.6z M330.9,249.1c-0.1-1.8-0.7-3.6-1.9-4.9
		c-1.3-1.3-3.2-2.3-5-2.3h-11.2v14.4h11.2c1.9,0,4.1-1,5.4-2.7C330.3,252.3,330.9,250.8,330.9,249.1z"/>
	<path class="st22" d="M341.3,275v-38.7h5.1V275H341.3z"/>
	<path class="st22" d="M353.3,251.8l0.7-1.1c2.5-3.4,6.3-4.9,10.7-4.9c5.2,0,9.5,1.8,11.6,6.1c0.8,1.7,1.2,3.6,1.2,5.2V275H373v-5.4
		c-0.9,1.9-2.8,3.6-4.6,4.5c-2.2,1.2-4.6,1.8-7.1,1.7c-2.9-0.1-5.8-1.6-7.3-3.6c-1.2-1.8-1.8-3.3-1.8-5.4c0-3,1.6-5.7,4.3-7.3
		c3.1-1.7,5.9-2,10.3-2.6l5.5-0.8c-0.2-1.5-1-2.9-2.3-3.8c-1.5-1.1-3.4-1.6-5.4-1.5c-2.4,0-4.6,0.8-6,2.6c-0.2,0.3-0.5,0.6-0.6,0.9
		L353.3,251.8z M366,261.3c-4.2,0.7-8.7,1.4-8.7,5.1c-0.1,2.4,2,4.5,4.8,4.7c3.6,0.2,8-1.8,9.4-5.4c0.9-2,0.9-3.6,0.9-5.4
		C370.8,260.5,369,260.8,366,261.3z M373,238.1l-1.4-3.8l-13.1,5.1l1.4,3.8L373,238.1z"/>
	<path class="st22" d="M401.7,255.2c-0.5-1.5-1.7-3-3.2-3.7c-1.1-0.6-2.5-0.9-3.8-0.9c-1.5,0-2.8,0.3-3.9,0.8
		c-1.2,0.6-1.8,1.5-1.8,2.4c0,0.7,0.2,1.3,0.6,1.7c0.7,0.6,1.7,1.1,3.5,1.6c1.4,0.4,3.2,0.9,5.2,1.4c2.2,0.6,3.8,1.1,5.5,2.6
		c2.2,1.7,3.3,4,3.1,6.6c-0.2,2.5-1.6,4.7-3.8,6.1c-2.2,1.4-5.1,1.9-7.9,1.9c-3.8,0-7.2-1-9.6-3.7c-1.5-1.7-2.7-4.5-3-6.3l4.9-1.2
		c0.2,1.4,0.8,3.2,1.8,4.2c1.5,1.7,3.7,2.2,5.9,2.2c1.8,0,4-0.3,5.2-1.2c0.8-0.6,1.3-1.4,1.4-2.3c0.1-1-0.3-1.7-1-2.4
		c-0.8-0.8-2-1.2-3.8-1.7c-1.4-0.4-3-0.8-4.8-1.3c-2.3-0.6-4-1.2-5.6-2.5c-1.8-1.4-2.6-3.6-2.6-5.5c0-3.2,2.1-5.8,4.8-7.1
		c2.1-0.9,4.2-1.2,6.1-1.1c2,0,4.1,0.4,6,1.4c2.8,1.4,5.1,4,5.9,6.9L401.7,255.2z"/>
	<path class="st22" d="M420.5,263.7c0,2.3-0.1,3.8,0.6,5c0.6,1.2,1.9,1.9,3.2,2c1.5,0.1,3.2,0,4.7-0.2v4.5c-2,0.5-5,0.6-6.9,0.2
		c-2.5-0.6-4.5-1.8-5.5-3.9s-1.2-4.4-1.2-7.3v-13.3h-6.2v-4.2h6.2v-7.9h5.1v7.9h8.5v4.2h-8.5L420.5,263.7L420.5,263.7z"/>
	<path class="st22" d="M441,236.8v5.1h-5.1v-5.1H441z M441,246.5V275h-5.1v-28.4H441z"/>
	<path class="st22" d="M468.4,254.9c-0.3-0.5-0.5-1-0.8-1.4c-1.5-2-3.9-3-6.4-2.9c-2.6-0.1-4.9,0.9-6.4,2.9c-1.5,2-1.9,4.6-2,7.2
		c0.1,2.6,0.5,5.3,2,7.2c1.5,2,3.8,3,6.4,3c2.5,0,4.9-1,6.4-3c0.3-0.4,0.5-0.8,0.8-1.3l4.8,2c-0.4,0.8-0.9,1.6-1.5,2.4
		c-2.5,3.1-6.4,4.7-10.5,4.6c-4.1,0.1-7.9-1.5-10.5-4.6c-2.4-3-3.3-6.6-3.3-10.3c0-3.7,0.9-7.4,3.3-10.4c2.6-3.2,6.4-4.6,10.5-4.6
		c4.1,0,7.9,1.6,10.5,4.6c0.6,0.8,1.2,1.6,1.5,2.5L468.4,254.9z"/>
	<path class="st22" d="M478.2,251.8l0.7-1.1c2.5-3.4,6.3-4.9,10.7-4.9c5.2,0,9.5,1.8,11.6,6.1c0.8,1.7,1.2,3.6,1.2,5.2V275h-4.5
		v-5.4c-0.9,1.9-2.8,3.6-4.6,4.5c-2.2,1.2-4.6,1.8-7.1,1.7c-2.9-0.1-5.8-1.6-7.3-3.6c-1.2-1.8-1.8-3.3-1.8-5.4c0-3,1.6-5.7,4.3-7.3
		c3.1-1.7,5.9-2,10.3-2.6l5.5-0.8c-0.2-1.5-1-2.9-2.3-3.8c-1.5-1.1-3.4-1.6-5.4-1.5c-2.4,0-4.6,0.8-6,2.6c-0.2,0.3-0.5,0.6-0.6,0.9
		L478.2,251.8z M490.9,261.3c-4.2,0.7-8.7,1.4-8.7,5.1c-0.1,2.4,2,4.5,4.8,4.7c3.6,0.2,8-1.8,9.4-5.4c0.9-2,0.9-3.6,0.9-5.4
		C495.7,260.5,493.9,260.8,490.9,261.3z"/>
</g>
</svg>
