<?xml version="1.0" standalone="no"?>
<!DOCTYPE svg PUBLIC "-//W3C//DTD SVG 20010904//EN"
 "http://www.w3.org/TR/2001/REC-SVG-20010904/DTD/svg10.dtd">
<svg version="1.0" xmlns="http://www.w3.org/2000/svg"
 width="344.000000pt" height="344.000000pt" viewBox="0 0 344.000000 344.000000"
 preserveAspectRatio="xMidYMid meet">
<metadata>
Created by potrace 1.11, written by Peter Selinger 2001-2013
</metadata>
<g transform="translate(0.000000,344.000000) scale(0.100000,-0.100000)"
fill="#000000" stroke="none">
<path d="M1419 2997 c-9 -12 -209 -346 -446 -742 -237 -396 -512 -857 -612
-1023 -107 -179 -181 -314 -181 -329 0 -14 20 -62 44 -107 24 -44 85 -161 136
-258 l93 -178 1266 0 1266 0 17 33 c154 294 258 504 258 519 0 9 -172 300
-381 645 -210 345 -452 743 -537 883 -85 140 -199 328 -254 418 l-100 162
-276 0 c-274 -1 -277 -1 -293 -23z m350 -1485 c40 -62 74 -118 77 -125 3 -9
-31 -12 -146 -12 -82 0 -150 2 -150 5 0 6 102 190 127 228 8 13 16 22 18 20 1
-1 35 -54 74 -116z"/>
</g>
</svg>
