<?xml version="1.0" standalone="no"?>
<!DOCTYPE svg PUBLIC "-//W3C//DTD SVG 20010904//EN"
 "http://www.w3.org/TR/2001/REC-SVG-20010904/DTD/svg10.dtd">
<svg version="1.0" xmlns="http://www.w3.org/2000/svg"
 width="543.000000pt" height="543.000000pt" viewBox="0 0 543.000000 543.000000"
 preserveAspectRatio="xMidYMid meet">
<metadata>
Created by potrace 1.11, written by Peter Selinger 2001-2013
</metadata>
<g transform="translate(0.000000,543.000000) scale(0.100000,-0.100000)"
fill="#000000" stroke="none">
<path d="M2500 4676 c-3 -2 -23 -7 -45 -10 -117 -18 -280 -144 -343 -267 -18
-35 -69 -131 -113 -214 -44 -82 -91 -172 -105 -200 -14 -27 -29 -57 -34 -65
-9 -13 -266 -498 -472 -890 -34 -63 -73 -137 -88 -165 -15 -27 -52 -97 -83
-155 -30 -58 -73 -139 -95 -180 -55 -103 -282 -532 -349 -660 -31 -58 -73
-136 -93 -175 -21 -38 -59 -110 -85 -160 -55 -104 -126 -238 -166 -312 -42
-77 -92 -175 -105 -204 -11 -25 -11 -26 25 -26 20 -1 149 -4 286 -8 316 -8
651 -9 690 -1 59 11 71 14 111 28 117 41 265 157 327 255 22 35 63 112 235
443 35 69 86 166 112 215 26 50 73 140 105 200 31 61 82 157 112 215 116 221
162 308 215 410 30 58 84 159 118 225 113 214 157 299 201 383 24 46 46 85 49
87 3 2 34 -51 68 -118 34 -67 93 -180 130 -252 64 -122 146 -280 315 -605 38
-74 82 -157 96 -185 15 -27 30 -57 33 -66 6 -15 -43 -17 -610 -17 -339 -1
-630 -1 -645 -1 l-29 -1 20 -32 c11 -18 45 -82 77 -143 99 -189 313 -574 392
-707 123 -207 205 -279 378 -337 57 -19 84 -20 495 -18 463 3 447 1 557 53 43
20 114 74 157 121 24 25 122 211 293 551 l257 514 -41 76 c-22 42 -72 138
-110 212 -94 180 -195 375 -253 485 -26 50 -78 149 -115 220 -37 72 -82 157
-100 190 -18 33 -58 110 -90 170 -32 61 -72 137 -90 170 -18 33 -56 105 -85
160 -29 55 -61 114 -70 130 -10 17 -35 62 -56 100 -156 290 -185 335 -260 408
-55 55 -175 126 -244 144 -28 8 -873 17 -880 9z"/>
</g>
</svg>
